<?xml version="1.0" standalone="no"?>
<!DOCTYPE svg PUBLIC "-//W3C//DTD SVG 1.1//EN" "http://www.w3.org/Graphics/SVG/1.1/DTD/svg11.dtd" >
<svg xmlns="http://www.w3.org/2000/svg" xmlns:xlink="http://www.w3.org/1999/xlink" version="1.1">
<metadata>
Created by FontForge 20170104 at Thu Dec  1 20:28:44 2016
 By myTaste
Copyright (c) 2003 by Kris Sowersby. All rights reserved.
</metadata>
<defs>
<font id="KarbonAppMedium" horiz-adv-x="520" >
  <font-face 
    font-family="Karbon App Medium"
    font-weight="500"
    font-stretch="normal"
    units-per-em="1000"
    panose-1="0 0 0 0 0 0 0 0 0 0"
    ascent="800"
    descent="-200"
    x-height="443"
    cap-height="594"
    bbox="-112 -190 1061 863"
    underline-thickness="50"
    underline-position="-100"
    unicode-range="U+000D-E57A"
  />
<missing-glyph horiz-adv-x="253" 
 />
    <glyph glyph-name="fi" unicode="fi" horiz-adv-x="527" 
d="M181 0h-98v360h-69v83h69v64q0 45 13.5 79t37.5 57.5t56 35t70 11.5q42 0 69.5 -9t45.5 -22v-94q-21 15 -45.5 25t-59.5 10q-39 0 -64 -23t-25 -71v-63h277v-443h-98v360h-179v-360z" />
    <glyph glyph-name="fl" unicode="fl" horiz-adv-x="527" 
d="M83 530q0 81 41 120.5t107 39.5q21 0 37.5 -4t29.5 -11v-90q-22 15 -57 15q-29 0 -44.5 -17t-15.5 -57v-83h102v-83h-102v-360h-98v360h-69v83h69v87zM458 0h-98v680h98v-680z" />
    <glyph glyph-name="f_f_b" unicode="ffb" horiz-adv-x="1096" 
d="M458 0h-98v360h-179v-360h-98v360h-69v83h69v73q0 81 41 120.5t107 39.5q41 0 71 -16v-90q-24 17 -60 17q-28 0 -44.5 -17.5t-16.5 -57.5v-69h179v87q0 81 41 120.5t107 39.5q21 0 37.5 -4t30.5 -11v-90q-13 8 -26 11.5t-32 3.5q-28 0 -44 -17t-16 -57v-83h102v-83h-102
v-360zM637 680h99v-249q16 8 44 15t57 7q48 0 89 -15t71 -43.5t47 -70.5t17 -95q0 -54 -17.5 -98t-50.5 -75.5t-81.5 -48.5t-109.5 -17q-48 0 -89.5 8.5t-75.5 20.5v661zM961 227q0 32 -10.5 57.5t-29 43t-43.5 27t-53 9.5q-29 0 -51.5 -6.5t-37.5 -14.5v-259q14 -5 32 -7
t37 -2q68 0 112 37.5t44 114.5z" />
    <glyph glyph-name="f_f_h" unicode="ffh" horiz-adv-x="1088" 
d="M458 0h-98v360h-179v-360h-98v360h-69v83h69v73q0 81 41 120.5t107 39.5q41 0 71 -16v-90q-24 17 -60 17q-28 0 -44.5 -17.5t-16.5 -57.5v-69h179v87q0 81 41 120.5t107 39.5q21 0 37.5 -4t30.5 -11v-90q-13 8 -26 11.5t-32 3.5q-28 0 -44 -17t-16 -57v-83h102v-83h-102
v-360zM637 680h99v-248q19 8 50 14.5t66 6.5q37 0 69 -9t55 -28.5t36 -52t13 -78.5v-285h-98v276q0 48 -26.5 67.5t-68.5 19.5q-26 0 -51 -4t-45 -11v-348h-99v680z" />
    <glyph glyph-name="f_f_j" unicode="ffj" horiz-adv-x="804" 
d="M458 360v-360h-98v360h-179v-360h-98v360h-69v83h69v73q0 81 41 120.5t107 39.5q41 0 71 -16v-90q-24 17 -60 17q-28 0 -44.5 -17.5t-16.5 -57.5v-69h179v64q0 45 13.5 79t37.5 57.5t56.5 35t70.5 11.5q41 0 68.5 -9t46.5 -22v-94q-21 15 -46 25t-60 10q-39 0 -64 -23
t-25 -71v-63h278v-489q0 -72 -40 -108t-111 -36q-20 0 -40.5 4t-34.5 10v85q14 -7 31 -11t34 -4q29 0 45.5 15t16.5 58v393h-179z" />
    <glyph glyph-name="f_f_k" unicode="ffk" horiz-adv-x="1058" 
d="M458 0h-98v360h-179v-360h-98v360h-69v83h69v73q0 81 41 120.5t107 39.5q41 0 71 -16v-90q-24 17 -60 17q-28 0 -44.5 -17.5t-16.5 -57.5v-69h179v87q0 81 41 120.5t107 39.5q21 0 37.5 -4t30.5 -11v-90q-13 8 -26 11.5t-32 3.5q-28 0 -44 -17t-16 -57v-83h102v-83h-102
v-360zM740 240l187 203h122l-195 -201l199 -242h-118zM736 0h-99v680h99v-680z" />
    <glyph glyph-name="f_b" unicode="fb" horiz-adv-x="819" 
d="M83 530q0 81 41 120.5t107 39.5q21 0 37.5 -4t29.5 -11v-90q-22 15 -57 15q-29 0 -44.5 -17t-15.5 -57v-83h102v-83h-102v-360h-98v360h-69v83h69v87zM360 680h99v-249q16 8 44 15t57 7q48 0 89 -15t71 -43.5t47 -70.5t17 -95q0 -54 -17.5 -98t-50.5 -75.5t-81.5 -48.5
t-109.5 -17q-48 0 -89.5 8.5t-75.5 20.5v661zM684 227q0 32 -10.5 57.5t-29 43t-43.5 27t-53 9.5q-29 0 -51.5 -6.5t-37.5 -14.5v-259q14 -5 32 -7t37 -2q68 0 112 37.5t44 114.5z" />
    <glyph glyph-name="f_h" unicode="fh" horiz-adv-x="811" 
d="M83 530q0 81 41 120.5t107 39.5q21 0 37.5 -4t29.5 -11v-90q-22 15 -57 15q-29 0 -44.5 -17t-15.5 -57v-83h102v-83h-102v-360h-98v360h-69v83h69v87zM360 680h99v-248q19 8 50 14.5t66 6.5q37 0 69 -9t55 -28.5t36 -52t13 -78.5v-285h-98v276q0 48 -26.5 67.5
t-68.5 19.5q-26 0 -51 -4t-45 -11v-348h-99v680z" />
    <glyph glyph-name="f_j" unicode="fj" horiz-adv-x="527" 
d="M360 360h-179v-360h-98v360h-69v83h69v64q0 45 13.5 79t37.5 57.5t56 35t70 11.5q42 0 69.5 -9t45.5 -22v-94q-21 15 -45.5 25t-59.5 10q-39 0 -64 -23t-25 -71v-63h277v-489q0 -72 -39.5 -108t-110.5 -36q-20 0 -40.5 4t-34.5 10v85q14 -7 31 -11t34 -4q29 0 45.5 15
t16.5 58v393z" />
    <glyph glyph-name="f_k" unicode="fk" horiz-adv-x="781" 
d="M83 530q0 81 41 120.5t107 39.5q21 0 37.5 -4t29.5 -11v-90q-22 15 -57 15q-29 0 -44.5 -17t-15.5 -57v-83h102v-83h-102v-360h-98v360h-69v83h69v87zM463 240l187 203h122l-195 -201l199 -242h-118zM459 0h-99v680h99v-680z" />
    <glyph glyph-name="ff" unicode="ff" horiz-adv-x="575" 
d="M181 0h-98v360h-69v83h69v73q0 81 41 120.5t107 39.5q41 0 71 -16v-90q-24 17 -60 17q-28 0 -44.5 -17.5t-16.5 -57.5v-69h179v83q0 83 41.5 123.5t111.5 40.5q27 0 47.5 -5.5t39.5 -16.5v-92q-18 11 -36 18t-41 7q-32 0 -48.5 -17t-16.5 -58v-83h114v-83h-114v-360h-98
v360h-179v-360z" />
    <glyph glyph-name="ffi" unicode="ffi" horiz-adv-x="804" 
d="M458 0h-98v360h-179v-360h-98v360h-69v83h69v73q0 81 41 120.5t107 39.5q41 0 71 -16v-90q-24 17 -60 17q-28 0 -44.5 -17.5t-16.5 -57.5v-69h179v64q0 45 13.5 79t37.5 57.5t56.5 35t70.5 11.5q41 0 68.5 -9t46.5 -22v-94q-21 15 -46 25t-60 10q-39 0 -64 -23t-25 -71
v-63h278v-443h-99v360h-179v-360z" />
    <glyph glyph-name="ffl" unicode="ffl" horiz-adv-x="804" 
d="M458 0h-98v360h-179v-360h-98v360h-69v83h69v73q0 81 41 120.5t107 39.5q41 0 71 -16v-90q-24 17 -60 17q-28 0 -44.5 -17.5t-16.5 -57.5v-69h179v87q0 81 41 120.5t107 39.5q21 0 37.5 -4t30.5 -11v-90q-13 8 -26 11.5t-32 3.5q-28 0 -44 -17t-16 -57v-83h102v-83h-102
v-360zM736 0h-99v680h99v-680z" />
    <glyph glyph-name=".notdef" horiz-adv-x="253" 
 />
    <glyph glyph-name=".null" horiz-adv-x="0" 
 />
    <glyph glyph-name=".null" horiz-adv-x="0" 
 />
    <glyph glyph-name="nonmarkingreturn" unicode="&#xd;" horiz-adv-x="253" 
 />
    <glyph glyph-name="space" unicode=" " horiz-adv-x="190" 
 />
    <glyph glyph-name="lslash" unicode="&#x142;" horiz-adv-x="273" 
d="M184 418l71 47v-81l-71 -48v-336h-98v286l-68 -45v82l68 45v312h98v-262z" />
    <glyph glyph-name="Scaron" unicode="&#x160;" horiz-adv-x="442" 
d="M40 138q35 -26 72 -43.5t85 -17.5q22 0 42 4.5t35 14.5t24 25.5t9 38.5q0 21 -8 35.5t-22 25.5t-34 19t-45 16q-43 13 -74 29t-51.5 37.5t-30.5 49t-10 65.5q0 40 15 71.5t41 52.5t60.5 32t72.5 11q48 0 85 -12.5t67 -32.5v-102q-35 29 -70.5 44.5t-78.5 15.5t-67.5 -21
t-24.5 -56q0 -36 26 -55t83 -37q43 -13 74.5 -29.5t52 -38.5t30 -50.5t9.5 -66.5q0 -45 -16.5 -77.5t-45 -53.5t-66.5 -31.5t-81 -10.5q-49 0 -89 12t-69 32v104zM254 643h-62l-116 142h85l62 -76l62 76h85z" />
    <glyph glyph-name="scaron" unicode="&#x161;" horiz-adv-x="391" 
d="M229 505h-62l-116 149h88l59 -80l59 80h88zM48 120q31 -23 66 -36.5t69 -13.5q33 0 53 12t20 38q0 27 -20 40t-63 24q-69 16 -100 46.5t-31 88.5q0 34 12 59t33 41.5t50 25t63 8.5q38 0 68.5 -8.5t58.5 -25.5v-91q-29 21 -59 33t-65 12q-32 0 -49 -14t-17 -36t16 -34.5
t54 -23.5q76 -17 110.5 -48.5t34.5 -91.5q0 -35 -12.5 -60.5t-35 -42t-53 -24.5t-66.5 -8q-39 0 -75.5 9.5t-61.5 26.5v94z" />
    <glyph glyph-name="Yacute" unicode="&#xdd;" horiz-adv-x="542" 
d="M424 594h113l-215 -367v-227h-102v227l-215 367h113l154 -271zM219 644l79 141h91l-79 -141h-91z" />
    <glyph glyph-name="yacute" unicode="&#xfd;" horiz-adv-x="468" 
d="M237 94l124 349h102l-240 -623h-97l62 160l-183 463h106zM185 513l85 152h91l-85 -152h-91z" />
    <glyph glyph-name="Thorn" unicode="&#xde;" horiz-adv-x="484" 
d="M176 184q7 -1 17.5 -1h20.5q72 0 108.5 28t36.5 88q0 54 -35.5 83t-103.5 29q-10 0 -22 -0.5t-22 -1.5v-225zM176 0h-102v594h102v-94q11 1 22 1.5t22 0.5q116 0 179 -52.5t63 -150.5q0 -53 -18.5 -91t-50.5 -63.5t-76 -37.5t-96 -12q-11 0 -23 0.5t-22 1.5v-97z" />
    <glyph glyph-name="thorn" unicode="&#xfe;" horiz-adv-x="527" 
d="M68 680h99v-249q16 8 44 15t57 7q48 0 89 -15t71 -43.5t47 -70.5t17 -95q0 -56 -17 -100.5t-49 -75.5t-77 -47t-102 -16q-23 0 -44.5 3.5t-35.5 8.5v-182h-99v860zM392 227q0 32 -10.5 57.5t-29 43t-43.5 27t-53 9.5q-29 0 -51.5 -6.5t-37.5 -14.5v-255q32 -13 75 -13
q66 0 108 38.5t42 113.5z" />
    <glyph glyph-name="eth" unicode="&#xf0;" horiz-adv-x="527" 
d="M114 536l120 34q-56 57 -125 110h124q46 -37 91 -84l116 34v-65l-71 -21q56 -69 89 -146t33 -164q0 -57 -17 -102t-47 -76.5t-72 -48.5t-92 -17t-91.5 16.5t-72 47t-47.5 72.5t-17 93t17 93t46.5 72t70.5 46t89 16q31 0 58 -10.5t47 -33.5q-11 23 -31.5 53t-49.5 64
l-168 -49v66zM392 220q0 68 -36 107t-93 39q-56 0 -92 -39t-36 -107q0 -67 36 -106t92 -39q57 0 93 39t36 106z" />
    <glyph glyph-name="Zcaron" unicode="&#x17d;" horiz-adv-x="493" 
d="M282 643h-62l-116 142h85l62 -76l62 76h85zM37 594h420v-89l-314 -415h323v-90h-438v90l309 414h-300v90z" />
    <glyph glyph-name="zcaron" unicode="&#x17e;" horiz-adv-x="421" 
d="M249 505h-62l-116 149h88l59 -80l59 80h88zM392 0h-360v81l230 280h-221v82h339v-83l-233 -278h245v-82z" />
    <glyph glyph-name="onehalf" unicode="&#xbd;" horiz-adv-x="714" 
d="M664 70v-70h-239v60q29 23 55.5 45.5t46.5 44.5t32 42.5t12 40.5q0 23 -12.5 34.5t-35.5 11.5q-26 0 -49.5 -13t-40.5 -27v75q20 18 48.5 28t60.5 10q50 0 81.5 -26.5t31.5 -77.5t-36 -94.5t-90 -83.5h135zM40 576l145 23v-351h-81v263l-64 -8v73zM455 594h74l-346 -594
h-75z" />
    <glyph glyph-name="onequarter" unicode="&#xbc;" horiz-adv-x="702" 
d="M40 576l145 23v-351h-81v263l-64 -8v73zM455 594h74l-346 -594h-75zM599 140h53v-61h-53v-79h-77v79h-163v61l161 206h79v-206zM428 140h94v121z" />
    <glyph glyph-name="onesuperior" unicode="&#xb9;" horiz-adv-x="200" 
d="M13 576l145 23v-351h-81v263l-64 -8v73z" />
    <glyph glyph-name="threequarters" unicode="&#xbe;" horiz-adv-x="744" 
d="M197 423q32 -8 52.5 -29t20.5 -54q0 -26 -10.5 -44.5t-28 -30.5t-40 -17.5t-46.5 -5.5q-32 0 -55 7t-40 18v77q16 -14 38 -24t50 -10q23 0 36.5 9.5t13.5 28.5q0 23 -18.5 32t-56.5 11v58q69 4 69 46q0 17 -11 25t-29 8q-23 0 -45.5 -11t-40.5 -26v75q42 33 101 33
q49 0 78 -23.5t29 -67.5q0 -32 -19 -55t-48 -30zM500 594h74l-346 -594h-75zM640 140h53v-61h-53v-79h-77v79h-163v61l161 206h79v-206zM469 140h94v121z" />
    <glyph glyph-name="threesuperior" unicode="&#xb3;" horiz-adv-x="254" 
d="M162 423q32 -8 52.5 -29t20.5 -54q0 -26 -10.5 -44.5t-28 -30.5t-40 -17.5t-46.5 -5.5q-32 0 -55 7t-40 18v77q16 -14 38 -24t50 -10q23 0 36.5 9.5t13.5 28.5q0 23 -18.5 32t-56.5 11v58q69 4 69 46q0 17 -11 25t-29 8q-23 0 -45.5 -11t-40.5 -26v75q42 33 101 33
q49 0 78 -23.5t29 -67.5q0 -32 -19 -55t-48 -30z" />
    <glyph glyph-name="twosuperior" unicode="&#xb2;" horiz-adv-x="267" 
d="M249 318v-70h-239v59q29 24 55.5 46.5t46.5 44t32 42t12 40.5q0 23 -12.5 34.5t-35.5 11.5q-26 0 -49.5 -12.5t-40.5 -26.5v75q20 18 48.5 27.5t60.5 9.5q50 0 81.5 -26t31.5 -77t-36 -94.5t-90 -83.5h135z" />
    <glyph glyph-name="brokenbar" unicode="&#xa6;" horiz-adv-x="281" 
d="M95 680h91v-341h-91v341zM95 203h91v-341h-91v341z" />
    <glyph glyph-name="minus" unicode="&#x2212;" horiz-adv-x="459" 
d="M40 331h379v-77h-379v77z" />
    <glyph glyph-name="multiply" unicode="&#xd7;" horiz-adv-x="395" 
d="M35 400l53 53l109 -110l110 110l53 -53l-110 -110l110 -109l-53 -53l-110 110l-109 -110l-53 53l110 109z" />
    <glyph glyph-name="Lslash" unicode="&#x141;" horiz-adv-x="445" 
d="M20 297l60 22v275h103v-242l127 47v-88l-127 -47v-174h242v-90h-345v232l-60 -23v88z" />
    <glyph glyph-name="exclam" unicode="!" horiz-adv-x="263" 
d="M180 186h-97v409h97v-409zM63 60q0 29 19.5 49t48.5 20q28 0 48.5 -20t20.5 -49t-20.5 -49t-48.5 -20q-29 0 -48.5 20t-19.5 49z" />
    <glyph glyph-name="quotedbl" unicode="&#x22;" horiz-adv-x="340" 
d="M75 644h87l-34 -221h-73zM207 644h87l-35 -221h-72z" />
    <glyph glyph-name="numbersign" unicode="#" horiz-adv-x="528" 
d="M381 594h79l-33 -161h71v-71h-85l-26 -129h79v-71h-94l-32 -162h-79l32 162h-111l-32 -162h-79l32 162h-73v71h88l26 129h-82v71h96l33 161h79l-33 -161h111zM197 233h111l26 129h-111z" />
    <glyph glyph-name="dollar" unicode="$" horiz-adv-x="435" 
d="M181 680h78v-89q24 -3 46 -9q39 -12 70 -32v-99q-36 28 -73 43t-84 15q-43 0 -68.5 -19.5t-25.5 -54.5q0 -20 6.5 -33t20.5 -23t35.5 -17t51.5 -15q44 -12 77 -27.5t54.5 -37t32 -49.5t10.5 -66q0 -43 -17 -74.5t-46.5 -52t-69.5 -30.5q-10 -3 -20 -5v-100h-78v95
q-42 2 -79 14q-43 15 -72 36v102q36 -28 76.5 -47.5t88.5 -19.5q23 0 44 4t36.5 13.5t25 24.5t9.5 37q0 21 -8 36t-23 25.5t-36.5 18t-47.5 14.5q-43 12 -75.5 26.5t-54 34.5t-32 47t-10.5 64q0 39 15.5 69.5t42 51.5t61.5 32q19 6 39 8v89z" />
    <glyph glyph-name="percent" unicode="%" horiz-adv-x="694" 
d="M31 459q0 32 11 58.5t30.5 46t46 30t56.5 10.5t56.5 -10.5t46 -30t31 -46t11.5 -58.5t-11.5 -58.5t-31 -45.5t-46 -29.5t-56.5 -10.5t-56.5 10.5t-46 29.5t-30.5 45.5t-11 58.5zM109 459q0 -33 18.5 -51.5t47.5 -18.5t48.5 18.5t19.5 51.5q0 34 -19.5 52.5t-48.5 18.5
t-47.5 -18.5t-18.5 -52.5zM663 134q0 -32 -11.5 -58t-31 -45.5t-46 -30t-56.5 -10.5t-56 10.5t-45.5 30t-31 45.5t-11.5 58t11.5 59t31 46t45.5 29.5t56 10.5t56.5 -10.5t46 -29.5t31 -46t11.5 -59zM206 0h-75l357 594h75zM586 134q0 35 -19.5 53t-48.5 18t-47.5 -18
t-18.5 -53q0 -33 18.5 -51t47.5 -18t48.5 18t19.5 51z" />
    <glyph glyph-name="ampersand" unicode="&#x26;" horiz-adv-x="575" 
d="M526 301q-1 -62 -24 -119q-14 -34 -35 -64l110 -118h-119l-51 53q-28 -22 -62 -37q-55 -25 -120 -25q-91 0 -143.5 43t-52.5 120q0 35 11 61.5t32 47t51 36.5q15 9 32 17l-7 8q-27 28 -44.5 61.5t-17.5 74.5q0 31 11 57.5t32 46t50.5 30t65.5 10.5q72 0 116 -38t44 -104
q0 -38 -14 -67t-36.5 -51t-51.5 -38q-4 -2 -7 -5l113 -121q8 17 15 35q15 42 17 86h85zM156 226q-28 -30 -28 -69q0 -40 28 -63.5t76 -23.5t85 19q18 10 34 22l-144 151q-33 -15 -51 -36zM276 377q18 15 28 34.5t10 47.5q0 30 -18.5 48t-49.5 18q-30 0 -47.5 -18t-17.5 -46
q0 -22 11 -40.5t35 -44.5l18 -20q17 10 31 21z" />
    <glyph glyph-name="quotesingle" unicode="'" horiz-adv-x="208" 
d="M75 644h87l-34 -221h-73z" />
    <glyph glyph-name="parenleft" unicode="(" horiz-adv-x="364" 
d="M71 270q0 61 13 119.5t36 111t55.5 98t70.5 81.5h108q-85 -84 -136 -185t-51 -225t51 -224t136 -185h-108q-38 36 -70.5 81.5t-55.5 97.5t-36 110t-13 120z" />
    <glyph glyph-name="parenright" unicode=")" horiz-adv-x="364" 
d="M293 270q0 -62 -13 -120t-36.5 -110t-55.5 -97.5t-70 -81.5h-108q85 85 136 185t51 224t-51 225t-136 185h108q38 -36 70 -81.5t55.5 -98t36.5 -111t13 -119.5z" />
    <glyph glyph-name="asterisk" unicode="*" horiz-adv-x="366" 
d="M125 385l-58 41l62 84l-99 31l21 69l99 -35l-2 105h74l-3 -105l99 35l22 -69l-100 -31l63 -83l-58 -43l-60 86z" />
    <glyph glyph-name="plus" unicode="+" horiz-adv-x="459" 
d="M40 331h151v151h77v-151h151v-77h-151v-151h-77v151h-151v77z" />
    <glyph glyph-name="comma" unicode="," horiz-adv-x="255" 
d="M182 101q0 -37 -8 -70.5t-22 -61.5t-32 -50.5t-39 -36.5h-73q36 46 53 101t17 118h104z" />
    <glyph glyph-name="hyphen" unicode="-" horiz-adv-x="355" 
d="M53 304h249v-88h-249v88z" />
    <glyph glyph-name="period" unicode="." horiz-adv-x="255" 
d="M59 60q0 29 19.5 49t48.5 20t49 -20t20 -49t-20 -49t-49 -20t-48.5 20t-19.5 49z" />
    <glyph glyph-name="slash" unicode="/" horiz-adv-x="429" 
d="M314 680h99l-314 -818h-99z" />
    <glyph glyph-name="zero" unicode="0" horiz-adv-x="534" 
d="M141 297q0 -103 34.5 -161.5t91.5 -58.5t92 58.5t35 161.5t-35 161.5t-92 58.5t-91.5 -58.5t-34.5 -161.5zM39 297q0 67 16 123.5t46 97t72 63.5t94 23t94 -23t72 -63.5t46 -97t16 -123.5t-16 -123.5t-46 -97t-72 -63.5t-94 -23t-94 23t-72 63.5t-46 97t-16 123.5z" />
    <glyph glyph-name="one" unicode="1" horiz-adv-x="318" 
d="M18 566l217 37v-603h-101v491l-116 -16v91z" />
    <glyph glyph-name="two" unicode="2" horiz-adv-x="435" 
d="M403 90v-90h-393v75q53 46 102.5 90t87 86.5t60 83.5t22.5 82q0 48 -26.5 70.5t-70.5 22.5q-48 0 -88.5 -22.5t-69.5 -50.5v101q31 29 76.5 47.5t102.5 18.5q38 0 71.5 -10.5t58 -32.5t38.5 -54.5t14 -76.5q0 -46 -20.5 -91.5t-54.5 -88.5t-78.5 -83.5t-92.5 -76.5h261z
" />
    <glyph glyph-name="three" unicode="3" horiz-adv-x="409" 
d="M249 302q58 -12 94 -49.5t36 -97.5q0 -39 -15.5 -69.5t-43 -52t-65 -32.5t-81.5 -11q-48 0 -88 12t-66 31v95q29 -23 65 -38.5t83 -15.5q48 0 78.5 22t30.5 64q0 48 -34.5 70t-112.5 30v76q134 18 134 106q0 35 -24 54t-59 19q-23 0 -44.5 -6.5t-40.5 -16.5t-36 -23
t-31 -26v99q30 28 73 45t91 17q85 0 129.5 -42.5t44.5 -109.5q0 -57 -33 -96.5t-85 -53.5z" />
    <glyph glyph-name="four" unicode="4" horiz-adv-x="531" 
d="M408 233h97v-81h-97v-152h-98v152h-286v83l280 359h104v-361zM123 233h187v247z" />
    <glyph glyph-name="five" unicode="5" horiz-adv-x="411" 
d="M149 376q48 -6 89 -19.5t72 -37t48.5 -59t17.5 -84.5q0 -41 -14 -75t-41.5 -59t-68 -38.5t-92.5 -13.5q-41 0 -79 11t-64 30v92q29 -20 64.5 -34.5t74.5 -14.5q59 0 91 25t32 74q0 34 -18 57t-48.5 38t-71.5 22.5t-86 12.5l21 291h286v-90h-204z" />
    <glyph glyph-name="six" unicode="6" horiz-adv-x="479" 
d="M333 594l-106 -169l-46 -68q30 30 80 30q37 0 71.5 -12.5t61.5 -37.5t43 -61t16 -84q0 -42 -14.5 -78.5t-42.5 -64t-67.5 -43.5t-89.5 -16q-49 0 -87 16t-64.5 43.5t-40.5 64t-14 78.5q0 58 22.5 109.5t48.5 94.5l123 198h106zM129 190q0 -54 32.5 -85t79.5 -31
q49 0 81.5 31t32.5 85t-32.5 85t-80.5 31t-80.5 -31t-32.5 -85z" />
    <glyph glyph-name="seven" unicode="7" horiz-adv-x="425" 
d="M11 504v90h383v-91l-242 -503h-105l240 504h-276z" />
    <glyph glyph-name="eight" unicode="8" horiz-adv-x="469" 
d="M235 355q35 0 59 22t24 61q0 40 -24 62t-59 22t-59.5 -22t-24.5 -62q0 -39 24.5 -61t59.5 -22zM235 72q43 0 73 24t30 70t-30 72t-73 26q-44 0 -73.5 -26t-29.5 -72t29.5 -70t73.5 -24zM235 -10q-42 0 -79.5 11.5t-65 33.5t-43.5 54t-16 73q0 30 10 54t26.5 43t37.5 31
t42 18q-37 14 -62.5 48.5t-25.5 85.5q0 39 14 69t38 51t56 31.5t68 10.5t68 -10.5t55.5 -31.5t37.5 -51t14 -69q0 -51 -25 -85.5t-62 -48.5q21 -6 41.5 -18t37 -31t26.5 -43t10 -54q0 -41 -16 -73t-43.5 -54t-64.5 -33.5t-79 -11.5z" />
    <glyph glyph-name="nine" unicode="9" horiz-adv-x="479" 
d="M146 0l106 169l46 68q-30 -30 -80 -30q-37 0 -71.5 12.5t-61.5 37.5t-43 61t-16 84q0 42 14.5 78.5t42.5 64t67.5 43.5t89.5 16q49 0 87 -16t64.5 -43.5t40.5 -64t14 -78.5q0 -58 -22.5 -109.5t-48.5 -94.5l-123 -198h-106zM350 404q0 54 -32.5 85t-79.5 31
q-49 0 -81.5 -31t-32.5 -85t32.5 -85t80.5 -31t80.5 31t32.5 85z" />
    <glyph glyph-name="colon" unicode=":" horiz-adv-x="255" 
d="M59 60q0 29 19.5 49t48.5 20t49 -20t20 -49t-20 -49t-49 -20t-48.5 20t-19.5 49zM59 359q0 29 19.5 49t48.5 20t49 -20t20 -49t-20 -49t-49 -20t-48.5 20t-19.5 49z" />
    <glyph glyph-name="semicolon" unicode=";" horiz-adv-x="255" 
d="M182 101q0 -37 -8 -70.5t-22 -61.5t-32 -50.5t-39 -36.5h-73q36 46 53 101t17 118h104zM63 359q0 29 19.5 49t48.5 20t49 -20t20 -49t-20 -49t-49 -20t-48.5 20t-19.5 49z" />
    <glyph glyph-name="less" unicode="&#x3c;" horiz-adv-x="343" 
d="M25 295l278 173v-89l-150 -88l150 -88v-89l-278 173v8z" />
    <glyph glyph-name="equal" unicode="=" horiz-adv-x="469" 
d="M45 260h379v-72h-379v72zM45 399h379v-72h-379v72z" />
    <glyph glyph-name="greater" unicode="&#x3e;" horiz-adv-x="343" 
d="M318 287l-278 -173v89l150 88l-150 88v89l278 -173v-8z" />
    <glyph glyph-name="question" unicode="?" horiz-adv-x="381" 
d="M20 542q24 25 65.5 43.5t95.5 18.5q82 0 131.5 -44t49.5 -125q0 -45 -16.5 -76t-41 -51.5t-52.5 -33t-52 -19.5v-69h-93v116q37 11 66 22.5t49 25.5t31 33.5t11 46.5q0 41 -27.5 63t-66.5 22q-45 0 -80 -18.5t-70 -50.5v96zM87 59q0 29 19.5 49.5t47.5 20.5
q29 0 49.5 -20.5t20.5 -49.5q0 -28 -20.5 -48t-49.5 -20q-28 0 -47.5 20t-19.5 48z" />
    <glyph glyph-name="at" unicode="@" horiz-adv-x="772" 
d="M550 99q49 20 79 66t30 120q0 54 -17.5 97t-50 73t-79 46t-104.5 16q-70 0 -125.5 -22.5t-94.5 -62.5t-59.5 -95.5t-20.5 -121.5q0 -84 30 -142t78 -93t108 -50.5t119 -15.5q57 0 104.5 8.5t95.5 26.5v-60q-36 -15 -87.5 -24.5t-112.5 -9.5q-77 0 -149 20t-128 63.5
t-89.5 112t-33.5 164.5q0 76 25 142t72.5 114.5t115 76t152.5 27.5q75 0 134 -21.5t100 -59.5t62.5 -91.5t21.5 -117.5q0 -67 -22.5 -117.5t-62 -84.5t-93.5 -51t-118 -17q-50 0 -91.5 13t-70.5 38.5t-45 62t-16 84.5q0 46 15.5 83t44 63.5t67.5 40.5t87 14q35 0 69 -6.5
t60 -17.5v-291zM471 330q-11 4 -23.5 5t-26.5 1q-60 0 -94.5 -34t-34.5 -89q0 -58 36 -92t97 -34q6 0 20 0.5t26 2.5v240z" />
    <glyph glyph-name="A" unicode="A" horiz-adv-x="599" 
d="M430 140h-265l-52 -140h-108l231 594h125l232 -594h-111zM196 224h203l-101 274z" />
    <glyph glyph-name="B" unicode="B" horiz-adv-x="509" 
d="M448 439q0 -55 -32.5 -90t-83.5 -43q64 -5 103 -41.5t39 -101.5q0 -39 -15 -71t-46.5 -54.5t-81 -34.5t-118.5 -12q-36 0 -73 3t-66 8v590q32 5 73.5 8.5t75.5 3.5q106 0 165.5 -39.5t59.5 -125.5zM173 78q14 -2 28.5 -2.5t24.5 -0.5q145 0 145 93q0 48 -36.5 68.5
t-97.5 20.5h-64v-179zM173 340h48q126 0 126 93q0 44 -31.5 65t-86.5 21q-13 0 -28.5 -1t-27.5 -3v-175z" />
    <glyph glyph-name="C" unicode="C" horiz-adv-x="555" 
d="M509 450q-31 29 -72.5 45.5t-91.5 16.5q-44 0 -81 -15.5t-63.5 -43.5t-41.5 -68t-15 -88q0 -49 15.5 -89t43 -68t64.5 -43t81 -15q98 0 168 61v-109q-39 -23 -82 -33.5t-89 -10.5q-69 0 -125 22.5t-96.5 63t-62.5 97t-22 124.5t23 124.5t63.5 97t97 63t122.5 22.5
q94 0 164 -42v-112z" />
    <glyph glyph-name="D" unicode="D" horiz-adv-x="620" 
d="M74 593q33 5 75 8t83 3q89 0 154.5 -22t109 -61.5t64.5 -94t21 -119.5q0 -71 -22 -129.5t-65.5 -100t-108.5 -64t-151 -22.5q-45 0 -86 3t-74 8v591zM176 84q17 -2 33.5 -3t33.5 -1q51 0 94 13.5t73.5 41.5t47.5 71t17 101q0 97 -60.5 150t-178.5 53q-30 0 -60 -3v-423z
" />
    <glyph glyph-name="E" unicode="E" horiz-adv-x="490" 
d="M443 90v-90h-369v594h363v-90h-262v-160h243v-88h-243v-166h268z" />
    <glyph glyph-name="F" unicode="F" horiz-adv-x="437" 
d="M74 0v594h330v-90h-228v-173h206v-90h-206v-241h-102z" />
    <glyph glyph-name="G" unicode="G" horiz-adv-x="590" 
d="M144 297q0 -50 16 -90t43.5 -68.5t65.5 -44t82 -15.5q54 0 88 14v180h102v-239q-35 -22 -86 -33t-106 -11q-69 0 -126.5 22t-98 62t-63 96.5t-22.5 126.5q0 68 23 124.5t64.5 97t97.5 63t122 22.5q99 0 173 -45v-109q-32 29 -75.5 45.5t-92.5 16.5q-45 0 -83 -15.5
t-65.5 -43.5t-43 -67.5t-15.5 -88.5z" />
    <glyph glyph-name="H" unicode="H" horiz-adv-x="659" 
d="M483 594h102v-594h-102v254h-307v-254h-102v594h102v-250h307v250z" />
    <glyph glyph-name="I" unicode="I" horiz-adv-x="250" 
d="M176 0h-102v594h102v-594z" />
    <glyph glyph-name="J" unicode="J" horiz-adv-x="378" 
d="M17 138q54 -56 121 -56q38 0 57 18.5t19 64.5v429h102v-442q0 -81 -45.5 -121.5t-123.5 -40.5q-42 0 -74.5 11.5t-55.5 31.5v105z" />
    <glyph glyph-name="K" unicode="K" horiz-adv-x="546" 
d="M74 594h102v-594h-102v594zM407 594h122l-233 -292l249 -302h-124l-241 293z" />
    <glyph glyph-name="L" unicode="L" horiz-adv-x="438" 
d="M74 594h102v-504h242v-90h-344v594z" />
    <glyph glyph-name="M" unicode="M" horiz-adv-x="794" 
d="M346 0l-141 460l-72 -460h-101l95 594h127l144 -471l141 471h128l94 -594h-102l-72 460l-141 -460h-100z" />
    <glyph glyph-name="N" unicode="N" horiz-adv-x="650" 
d="M477 155v439h99v-594h-98l-305 435v-435h-99v594h104z" />
    <glyph glyph-name="O" unicode="O" horiz-adv-x="694" 
d="M39 297q0 68 24 124.5t65.5 97t97.5 63t121 22.5q64 0 120 -22.5t98 -63t66 -97t24 -124.5t-24 -124.5t-66 -97t-98 -63t-120 -22.5q-65 0 -121 22.5t-97.5 63t-65.5 97t-24 124.5zM550 297q0 49 -15.5 88.5t-43 67.5t-64.5 43.5t-80 15.5t-80 -15.5t-64.5 -43.5
t-43 -67.5t-15.5 -88.5t15.5 -88.5t43 -67.5t64.5 -43.5t80 -15.5t80 15.5t64.5 43.5t43 67.5t15.5 88.5z" />
    <glyph glyph-name="P" unicode="P" horiz-adv-x="484" 
d="M176 287q7 -1 17.5 -1.5t20.5 -0.5q72 0 108.5 28.5t36.5 88.5q0 53 -35 82.5t-105 29.5q-9 0 -21 -0.5t-22 -2.5v-224zM176 0h-102v592q29 5 69 8.5t77 3.5q118 0 180 -52t62 -150q0 -53 -18.5 -91t-50.5 -63.5t-76 -37.5t-96 -12q-11 0 -23 0.5t-22 1.5v-200z" />
    <glyph glyph-name="Q" unicode="Q" horiz-adv-x="694" 
d="M39 297q0 68 24 124.5t65.5 97t97.5 63t121 22.5q64 0 120 -22.5t98 -63t66 -97t24 -124.5q0 -55 -15.5 -102t-43.5 -85t-67 -65t-85 -41l133 -145h-124l-119 131q-62 2 -116 25.5t-94 63.5t-62.5 95.5t-22.5 122.5zM550 297q0 49 -15.5 88.5t-43 67.5t-64.5 43.5
t-80 15.5t-80 -15.5t-64.5 -43.5t-43 -67.5t-15.5 -88.5t15.5 -88.5t43 -67.5t64.5 -43.5t80 -15.5t80 15.5t64.5 43.5t43 67.5t15.5 88.5z" />
    <glyph glyph-name="R" unicode="R" horiz-adv-x="524" 
d="M176 0h-102v593q27 5 69.5 8t78.5 3q118 0 179.5 -50t61.5 -144q0 -66 -33 -111t-85 -65l179 -234h-123l-158 211h-67v-211zM176 295h50q61 0 97 27t36 85q0 51 -34.5 79.5t-102.5 28.5q-9 0 -23.5 -0.5t-22.5 -1.5v-218z" />
    <glyph glyph-name="S" unicode="S" horiz-adv-x="442" 
d="M40 138q35 -26 72 -43.5t85 -17.5q22 0 42 4.5t35 14.5t24 25.5t9 38.5q0 21 -8 35.5t-22 25.5t-34 19t-45 16q-43 13 -74 29t-51.5 37.5t-30.5 49t-10 65.5q0 40 15 71.5t41 52.5t60.5 32t72.5 11q48 0 85 -12.5t67 -32.5v-102q-35 29 -70.5 44.5t-78.5 15.5t-67.5 -21
t-24.5 -56q0 -36 26 -55t83 -37q43 -13 74.5 -29.5t52 -38.5t30 -50.5t9.5 -66.5q0 -45 -16.5 -77.5t-45 -53.5t-66.5 -31.5t-81 -10.5q-49 0 -89 12t-69 32v104z" />
    <glyph glyph-name="T" unicode="T" horiz-adv-x="507" 
d="M305 0h-102v504h-188v90h477v-90h-187v-504z" />
    <glyph glyph-name="U" unicode="U" horiz-adv-x="606" 
d="M63 594h102v-373q0 -43 10.5 -70.5t30 -44t47 -23t60.5 -6.5q35 0 63 2.5t54 7.5v507h102v-577q-21 -6 -47.5 -10.5t-56 -8.5t-59 -6t-56.5 -2q-51 0 -96 10t-79.5 34.5t-54.5 65.5t-20 103v391z" />
    <glyph glyph-name="V" unicode="V" horiz-adv-x="585" 
d="M231 0l-226 594h111l178 -491l177 491h109l-226 -594h-123z" />
    <glyph glyph-name="W" unicode="W" horiz-adv-x="815" 
d="M463 594l119 -483l118 483h100l-152 -594h-130l-111 459l-112 -459h-129l-151 594h103l118 -483l118 483h109z" />
    <glyph glyph-name="X" unicode="X" horiz-adv-x="552" 
d="M335 308l212 -308h-118l-153 227l-156 -227h-115l213 308l-197 286h119l138 -207l139 207h114z" />
    <glyph glyph-name="Y" unicode="Y" horiz-adv-x="542" 
d="M424 594h113l-215 -367v-227h-102v227l-215 367h113l154 -271z" />
    <glyph glyph-name="Z" unicode="Z" horiz-adv-x="493" 
d="M37 594h420v-89l-314 -415h323v-90h-438v90l309 414h-300v90z" />
    <glyph glyph-name="bracketleft" unicode="[" horiz-adv-x="339" 
d="M183 -61h106v-77h-196v818h196v-77h-106v-664z" />
    <glyph glyph-name="backslash" unicode="\" horiz-adv-x="429" 
d="M429 -138h-99l-314 818h99z" />
    <glyph glyph-name="bracketright" unicode="]" horiz-adv-x="339" 
d="M156 603h-106v77h196v-818h-196v77h106v664z" />
    <glyph glyph-name="asciicircum" unicode="^" horiz-adv-x="435" 
d="M415 338h-97l-101 172l-100 -172h-97l151 256h92z" />
    <glyph glyph-name="underscore" unicode="_" horiz-adv-x="462" 
d="M50 -65h362v-79h-362v79z" />
    <glyph glyph-name="grave" unicode="`" horiz-adv-x="500" 
d="M247 513l-85 152h91l85 -152h-91z" />
    <glyph glyph-name="a" unicode="a" horiz-adv-x="449" 
d="M291 194h-42q-52 0 -83 -15.5t-31 -49.5q0 -35 28.5 -49.5t73.5 -14.5q11 0 25.5 1.5t28.5 3.5v124zM291 297q0 36 -24 53t-61 17q-38 0 -69 -10t-59 -26v86q29 17 65.5 26.5t78.5 9.5q36 0 66.5 -8t52.5 -26t34.5 -46.5t12.5 -70.5v-293q-32 -8 -73 -13t-79 -5
q-43 0 -79.5 7t-63 23t-41.5 41.5t-15 63.5q0 68 54 101t151 33h49v37z" />
    <glyph glyph-name="b" unicode="b" horiz-adv-x="527" 
d="M68 680h99v-249q16 8 44 15t57 7q48 0 89 -15t71 -43.5t47 -70.5t17 -95q0 -54 -17.5 -98t-50.5 -75.5t-81.5 -48.5t-109.5 -17q-48 0 -89.5 8.5t-75.5 20.5v661zM392 227q0 32 -10.5 57.5t-29 43t-43.5 27t-53 9.5q-29 0 -51.5 -6.5t-37.5 -14.5v-259q14 -5 32 -7t37 -2
q68 0 112 37.5t44 114.5z" />
    <glyph glyph-name="c" unicode="c" horiz-adv-x="436" 
d="M394 324q-28 22 -57 31.5t-60 9.5q-30 0 -56 -9.5t-45 -27.5t-30 -45t-11 -62q0 -66 40.5 -105t105.5 -39q33 0 62 10t56 30v-94q-31 -17 -63.5 -25t-67.5 -8q-51 0 -93.5 16t-73.5 46t-48.5 73t-17.5 96q0 54 18 97t49.5 73t74 46t91.5 16q37 0 67 -8t59 -25v-96z" />
    <glyph glyph-name="d" unicode="d" horiz-adv-x="526" 
d="M458 9q-38 -10 -81.5 -14.5t-85.5 -4.5q-58 0 -105 15t-80.5 44.5t-52 72.5t-18.5 99q0 54 18 97t49.5 73t75 46t94.5 16q24 0 48 -4.5t40 -12.5v244h98v-671zM360 349q-31 17 -82 17q-63 0 -103 -37t-40 -106q0 -72 43 -110t115 -38q15 0 32.5 1t34.5 3v270z" />
    <glyph glyph-name="e" unicode="e" horiz-adv-x="477" 
d="M131 199v-2q2 -30 15 -52.5t33 -38t44.5 -23.5t50.5 -8q46 0 81 10.5t68 32.5v-87q-30 -21 -71.5 -31t-84.5 -10q-52 0 -94.5 16t-73 45.5t-47.5 71.5t-17 95t16.5 96.5t45 74t67.5 47.5t85 17q48 0 84 -15t59.5 -42t35 -64.5t11.5 -82.5v-50h-308zM246 370
q-43 0 -72.5 -28t-39.5 -79h212q-2 52 -27 79.5t-73 27.5z" />
    <glyph glyph-name="f" unicode="f" horiz-adv-x="298" 
d="M181 0h-98v360h-69v83h69v83q0 83 41.5 123.5t111.5 40.5q50 0 87 -22v-91q-18 12 -35.5 18.5t-40.5 6.5q-32 0 -49 -17t-17 -58v-84h113v-83h-113v-360z" />
    <glyph glyph-name="g" unicode="g" 
d="M355 18q-11 -7 -35 -12t-50 -5q-52 0 -95 14.5t-74 42.5t-48.5 70t-17.5 97q0 53 17.5 95.5t50 72t79 45t104.5 15.5q46 0 90 -9t77 -23v-419q0 -54 -19.5 -91t-50 -59.5t-69 -32t-76.5 -9.5q-41 0 -78 8.5t-68 22.5v91q36 -20 71.5 -29.5t74.5 -9.5q24 0 45 6.5t37 20
t25.5 35.5t9.5 53v10zM355 355q-30 11 -69 11q-71 0 -111 -36t-40 -105q0 -66 38.5 -103.5t104.5 -37.5q23 0 41 4t36 11v256z" />
    <glyph glyph-name="h" unicode="h" horiz-adv-x="519" 
d="M68 680h99v-248q19 8 50 14.5t66 6.5q37 0 69 -9t55 -28.5t36 -52t13 -78.5v-285h-98v276q0 48 -26.5 67.5t-68.5 19.5q-26 0 -51 -4t-45 -11v-348h-99v680z" />
    <glyph glyph-name="i" unicode="i" horiz-adv-x="235" 
d="M167 0h-99v443h99v-443zM118 516q-26 0 -44.5 18t-18.5 44t18.5 43.5t44.5 17.5q25 0 43.5 -17.5t18.5 -43.5t-18.5 -44t-43.5 -18z" />
    <glyph glyph-name="j" unicode="j" horiz-adv-x="235" 
d="M68 443h99v-489q0 -72 -40 -108t-110 -36q-21 0 -41 4t-35 10v85q14 -7 31.5 -11t33.5 -4q29 0 45.5 15t16.5 58v476zM118 516q-26 0 -44.5 18t-18.5 44t18.5 43.5t44.5 17.5q25 0 43.5 -17.5t18.5 -43.5t-18.5 -44t-43.5 -18z" />
    <glyph glyph-name="k" unicode="k" horiz-adv-x="489" 
d="M171 240l187 203h122l-195 -201l199 -242h-118zM167 0h-99v680h99v-680z" />
    <glyph glyph-name="l" unicode="l" horiz-adv-x="235" 
d="M167 0h-99v680h99v-680z" />
    <glyph glyph-name="m" unicode="m" horiz-adv-x="767" 
d="M425 346q5 -11 7.5 -24.5t2.5 -31.5v-290h-98v284q0 45 -22.5 63.5t-58.5 18.5q-27 0 -48.5 -4.5t-40.5 -10.5v-351h-99v414q46 17 95 28t97 11q39 0 69.5 -9t50.5 -26q34 14 72 24.5t83 10.5q40 0 71 -8.5t53 -28t33.5 -51.5t11.5 -78v-287h-98v284q0 45 -23 63.5
t-58 18.5q-29 0 -56 -6t-44 -14z" />
    <glyph glyph-name="n" unicode="n" horiz-adv-x="519" 
d="M68 415q47 18 100.5 28t102.5 10q42 0 76.5 -8.5t58.5 -28.5t37 -52t13 -79v-285h-98v276q0 48 -26.5 67.5t-68.5 19.5q-26 0 -51 -3.5t-45 -9.5v-350h-99v415z" />
    <glyph glyph-name="o" unicode="o" horiz-adv-x="527" 
d="M35 221q0 52 17 94.5t47.5 73t72 47.5t91.5 17t92 -17t72.5 -47.5t47.5 -73t17 -94.5q0 -51 -17 -93.5t-47.5 -73t-72.5 -47.5t-92 -17t-91.5 17t-72 47.5t-47.5 73t-17 93.5zM392 221q0 68 -36 107.5t-93 39.5q-56 0 -92 -39.5t-36 -107.5q0 -67 36 -106.5t92 -39.5
q57 0 93 39.5t36 106.5z" />
    <glyph glyph-name="p" unicode="p" horiz-adv-x="524" 
d="M66 418q34 14 81 24.5t98 10.5q55 0 100.5 -15t77 -44t49 -71t17.5 -96q0 -113 -65.5 -175t-178.5 -62q-24 0 -45.5 3.5t-35.5 8.5v-182h-98v598zM389 224q0 66 -39 103t-106 37q-21 0 -42.5 -3t-37.5 -8v-265q34 -13 75 -13q66 0 108 37t42 112z" />
    <glyph glyph-name="q" unicode="q" horiz-adv-x="525" 
d="M458 -180h-98v184q-13 -5 -35.5 -9.5t-48.5 -4.5q-54 0 -98 15.5t-76 45t-49.5 72.5t-17.5 98q0 53 18 96t51 73t80 46.5t106 16.5q46 0 90 -9.5t78 -23.5v-600zM360 354q-15 5 -32.5 8t-37.5 3q-72 0 -113.5 -37.5t-41.5 -106.5q0 -66 40 -105.5t107 -39.5
q24 0 41.5 3.5t36.5 10.5v264z" />
    <glyph glyph-name="r" unicode="r" horiz-adv-x="343" 
d="M167 0h-99v406q36 20 80.5 32t92.5 12q23 0 42.5 -2.5t42.5 -8.5v-96q-21 8 -43 11t-42 3q-23 0 -41 -4t-33 -10v-343z" />
    <glyph glyph-name="s" unicode="s" horiz-adv-x="391" 
d="M48 120q31 -23 66 -36.5t69 -13.5q33 0 53 12t20 38q0 27 -20 40t-63 24q-69 16 -100 46.5t-31 88.5q0 34 12 59t33 41.5t50 25t63 8.5q38 0 68.5 -8.5t58.5 -25.5v-91q-29 21 -59 33t-65 12q-32 0 -49 -14t-17 -36t16 -34.5t54 -23.5q76 -17 110.5 -48.5t34.5 -91.5
q0 -35 -12.5 -60.5t-35 -42t-53 -24.5t-66.5 -8q-39 0 -75.5 9.5t-61.5 26.5v94z" />
    <glyph glyph-name="t" unicode="t" horiz-adv-x="343" 
d="M8 443h67v108h98v-108h126v-83h-126v-211q0 -40 16 -55.5t45 -15.5q22 0 41.5 6.5t39.5 18.5v-89q-22 -11 -48.5 -17.5t-58.5 -6.5q-27 0 -51 7t-42.5 23.5t-29 42.5t-10.5 64v233h-67v83z" />
    <glyph glyph-name="u" unicode="u" horiz-adv-x="505" 
d="M436 10q-39 -10 -86 -15t-86 -5q-48 0 -86 8.5t-64.5 27.5t-40.5 50.5t-14 78.5v288h98v-281q0 -50 28 -70t77 -20q17 0 36.5 1.5t39.5 4.5v365h98v-433z" />
    <glyph glyph-name="v" unicode="v" horiz-adv-x="466" 
d="M176 0l-171 443h105l125 -347l124 347h102l-172 -443h-113z" />
    <glyph glyph-name="w" unicode="w" horiz-adv-x="671" 
d="M475 103l93 340h98l-130 -443h-111l-90 321l-90 -321h-110l-130 443h102l92 -340l93 340h89z" />
    <glyph glyph-name="x" unicode="x" horiz-adv-x="453" 
d="M282 228l164 -228h-113l-109 155l-109 -155h-108l164 227l-154 216h114l98 -142l96 142h112z" />
    <glyph glyph-name="y" unicode="y" horiz-adv-x="468" 
d="M237 94l124 349h102l-240 -623h-97l62 160l-183 463h106z" />
    <glyph glyph-name="z" unicode="z" horiz-adv-x="421" 
d="M392 0h-360v81l230 280h-221v82h339v-83l-233 -278h245v-82z" />
    <glyph glyph-name="braceleft" unicode="{" horiz-adv-x="366" 
d="M131 271q19 -2 38.5 -11t34.5 -25.5t24.5 -40.5t9.5 -55v-132q0 -32 12 -50t44 -18h30v-77h-39q-67 0 -102.5 36t-35.5 109v136q0 50 -23 69.5t-55 19.5h-29v78h29q32 0 55 19.5t23 69.5v136q0 73 35.5 109t102.5 36h39v-77h-30q-32 0 -44 -18t-12 -50v-132
q0 -31 -9.5 -55t-24.5 -40.5t-34.5 -26t-38.5 -10.5z" />
    <glyph glyph-name="bar" unicode="|" horiz-adv-x="281" 
d="M95 680h91v-818h-91v818z" />
    <glyph glyph-name="braceright" unicode="}" horiz-adv-x="366" 
d="M235 271q-20 1 -39 10.5t-34 26t-24.5 40.5t-9.5 55v132q0 32 -12 50t-44 18h-30v77h39q67 0 102.5 -36t35.5 -109v-136q0 -50 23 -69.5t55 -19.5h29v-78h-29q-32 0 -55 -19.5t-23 -69.5v-136q0 -73 -35.5 -109t-102.5 -36h-39v77h30q32 0 44 18t12 50v132q0 31 9.5 55
t24.5 40.5t34 25.5t39 11z" />
    <glyph glyph-name="asciitilde" unicode="~" horiz-adv-x="439" 
d="M386 332q0 -66 -26 -101.5t-72 -35.5q-22 0 -39 9t-31 20.5t-27 20.5t-26 9q-35 0 -35 -55h-76q0 65 25.5 100.5t72.5 35.5q21 0 38 -9t31.5 -20t27 -20t26.5 -9q35 0 35 55h76z" />
    <glyph glyph-name="Adieresis" unicode="&#xc4;" horiz-adv-x="599" 
d="M430 140h-265l-52 -140h-108l231 594h125l232 -594h-111zM196 224h203l-101 274zM213 635q-25 0 -42.5 17.5t-17.5 42.5t17.5 42.5t42.5 17.5t42.5 -17.5t17.5 -42.5t-17.5 -42.5t-42.5 -17.5zM385 635q-25 0 -42.5 17.5t-17.5 42.5t17.5 42.5t42.5 17.5t42.5 -17.5
t17.5 -42.5t-17.5 -42.5t-42.5 -17.5z" />
    <glyph glyph-name="Aring" unicode="&#xc5;" horiz-adv-x="599" 
d="M430 140h-265l-52 -140h-108l231 594h125l232 -594h-111zM196 224h203l-101 274zM206 719q0 38 26 64t68 26t67.5 -26t25.5 -64t-25.5 -64.5t-67.5 -26.5t-68 26.5t-26 64.5zM342 719q0 17 -11 29t-31 12q-21 0 -31.5 -12t-10.5 -29t10.5 -29.5t31.5 -12.5q20 0 31 12.5
t11 29.5z" />
    <glyph glyph-name="Ccedilla" unicode="&#xc7;" horiz-adv-x="555" 
d="M509 450q-31 29 -72.5 45.5t-91.5 16.5q-44 0 -81 -15.5t-63.5 -43.5t-41.5 -68t-15 -88q0 -49 15.5 -89t43 -68t64.5 -43t81 -15q98 0 168 61v-109q-39 -23 -82 -34q-31 -7 -63 -9q-5 -42 -24 -79.5t-45 -57.5h-89q32 30 51.5 66t24.5 74q-37 6 -69 18
q-56 23 -96.5 63.5t-62.5 97t-22 124.5t23 124.5t63.5 97t97 63t122.5 22.5q94 0 164 -42v-112z" />
    <glyph glyph-name="Eacute" unicode="&#xc9;" horiz-adv-x="490" 
d="M208 644l79 141h91l-79 -141h-91zM443 90v-90h-369v594h363v-90h-262v-160h243v-88h-243v-166h268z" />
    <glyph glyph-name="Ntilde" unicode="&#xd1;" horiz-adv-x="650" 
d="M471 763q0 -58 -21.5 -91.5t-61.5 -33.5q-19 0 -34 8.5t-28.5 18.5t-25 18.5t-23.5 8.5q-29 0 -29 -51h-66q0 58 21.5 91.5t61.5 33.5q19 0 34.5 -8.5t29 -18.5t25 -18.5t23.5 -8.5q29 0 29 51h65zM477 155v439h99v-594h-98l-305 435v-435h-99v594h104z" />
    <glyph glyph-name="Odieresis" unicode="&#xd6;" horiz-adv-x="694" 
d="M260 635q-25 0 -42.5 17.5t-17.5 42.5t17.5 42.5t42.5 17.5t42.5 -17.5t17.5 -42.5t-17.5 -42.5t-42.5 -17.5zM432 635q-25 0 -42.5 17.5t-17.5 42.5t17.5 42.5t42.5 17.5t42.5 -17.5t17.5 -42.5t-17.5 -42.5t-42.5 -17.5zM39 297q0 68 24 124.5t65.5 97t97.5 63
t121 22.5q64 0 120 -22.5t98 -63t66 -97t24 -124.5t-24 -124.5t-66 -97t-98 -63t-120 -22.5q-65 0 -121 22.5t-97.5 63t-65.5 97t-24 124.5zM550 297q0 49 -15.5 88.5t-43 67.5t-64.5 43.5t-80 15.5t-80 -15.5t-64.5 -43.5t-43 -67.5t-15.5 -88.5t15.5 -88.5t43 -67.5
t64.5 -43.5t80 -15.5t80 15.5t64.5 43.5t43 67.5t15.5 88.5z" />
    <glyph glyph-name="Udieresis" unicode="&#xdc;" horiz-adv-x="606" 
d="M210 635q-25 0 -42.5 17.5t-17.5 42.5t17.5 42.5t42.5 17.5t42.5 -17.5t17.5 -42.5t-17.5 -42.5t-42.5 -17.5zM382 635q-25 0 -42.5 17.5t-17.5 42.5t17.5 42.5t42.5 17.5t42.5 -17.5t17.5 -42.5t-17.5 -42.5t-42.5 -17.5zM63 594h102v-373q0 -43 10.5 -70.5t30 -44
t47 -23t60.5 -6.5q35 0 63 2.5t54 7.5v507h102v-577q-21 -6 -47.5 -10.5t-56 -8.5t-59 -6t-56.5 -2q-51 0 -96 10t-79.5 34.5t-54.5 65.5t-20 103v391z" />
    <glyph glyph-name="aacute" unicode="&#xe1;" horiz-adv-x="449" 
d="M291 194h-42q-52 0 -83 -15.5t-31 -49.5q0 -35 28.5 -49.5t73.5 -14.5q11 0 25.5 1.5t28.5 3.5v124zM291 297q0 36 -24 53t-61 17q-38 0 -69 -10t-59 -26v86q29 17 65.5 26.5t78.5 9.5q36 0 66.5 -8t52.5 -26t34.5 -46.5t12.5 -70.5v-293q-32 -8 -73 -13t-79 -5
q-43 0 -79.5 7t-63 23t-41.5 41.5t-15 63.5q0 68 54 101t151 33h49v37zM173 513l85 152h91l-85 -152h-91z" />
    <glyph glyph-name="agrave" unicode="&#xe0;" horiz-adv-x="449" 
d="M291 194h-42q-52 0 -83 -15.5t-31 -49.5q0 -35 28.5 -49.5t73.5 -14.5q11 0 25.5 1.5t28.5 3.5v124zM291 297q0 36 -24 53t-61 17q-38 0 -69 -10t-59 -26v86q29 17 65.5 26.5t78.5 9.5q36 0 66.5 -8t52.5 -26t34.5 -46.5t12.5 -70.5v-293q-32 -8 -73 -13t-79 -5
q-43 0 -79.5 7t-63 23t-41.5 41.5t-15 63.5q0 68 54 101t151 33h49v37zM186 513l-85 152h91l85 -152h-91z" />
    <glyph glyph-name="acircumflex" unicode="&#xe2;" horiz-adv-x="449" 
d="M291 194h-42q-52 0 -83 -15.5t-31 -49.5q0 -35 28.5 -49.5t73.5 -14.5q11 0 25.5 1.5t28.5 3.5v124zM291 297q0 36 -24 53t-61 17q-38 0 -69 -10t-59 -26v86q29 17 65.5 26.5t78.5 9.5q36 0 66.5 -8t52.5 -26t34.5 -46.5t12.5 -70.5v-293q-32 -8 -73 -13t-79 -5
q-43 0 -79.5 7t-63 23t-41.5 41.5t-15 63.5q0 68 54 101t151 33h49v37zM373 510h-87l-60 79l-60 -79h-87l116 150h62z" />
    <glyph glyph-name="adieresis" unicode="&#xe4;" horiz-adv-x="449" 
d="M291 194h-42q-52 0 -83 -15.5t-31 -49.5q0 -35 28.5 -49.5t73.5 -14.5q11 0 25.5 1.5t28.5 3.5v124zM291 297q0 36 -24 53t-61 17q-38 0 -69 -10t-59 -26v86q29 17 65.5 26.5t78.5 9.5q36 0 66.5 -8t52.5 -26t34.5 -46.5t12.5 -70.5v-293q-32 -8 -73 -13t-79 -5
q-43 0 -79.5 7t-63 23t-41.5 41.5t-15 63.5q0 68 54 101t151 33h49v37zM136 516q-25 0 -42.5 18t-17.5 42q0 26 17.5 43t42.5 17t42.5 -17t17.5 -43q0 -24 -17.5 -42t-42.5 -18zM308 516q-25 0 -42.5 18t-17.5 42q0 26 17.5 43t42.5 17t42.5 -17t17.5 -43q0 -24 -17.5 -42
t-42.5 -18z" />
    <glyph glyph-name="atilde" unicode="&#xe3;" horiz-adv-x="449" 
d="M291 194h-42q-52 0 -83 -15.5t-31 -49.5q0 -35 28.5 -49.5t73.5 -14.5q11 0 25.5 1.5t28.5 3.5v124zM291 297q0 36 -24 53t-61 17q-38 0 -69 -10t-59 -26v86q29 17 65.5 26.5t78.5 9.5q36 0 66.5 -8t52.5 -26t34.5 -46.5t12.5 -70.5v-293q-32 -8 -73 -13t-79 -5
q-43 0 -79.5 7t-63 23t-41.5 41.5t-15 63.5q0 68 54 101t151 33h49v37zM366 632q0 -58 -21.5 -91.5t-61.5 -33.5q-19 0 -34 8.5t-28.5 18.5t-25 18.5t-23.5 8.5q-29 0 -29 -51h-66q0 59 21.5 92t61.5 33q19 0 34.5 -8.5t29 -18.5t25 -18.5t23.5 -8.5q29 0 29 51h65z" />
    <glyph glyph-name="aring" unicode="&#xe5;" horiz-adv-x="449" 
d="M291 194h-42q-52 0 -83 -15.5t-31 -49.5q0 -35 28.5 -49.5t73.5 -14.5q11 0 25.5 1.5t28.5 3.5v124zM291 297q0 36 -24 53t-61 17q-38 0 -69 -10t-59 -26v86q29 17 65.5 26.5t78.5 9.5q36 0 66.5 -8t52.5 -26t34.5 -46.5t12.5 -70.5v-293q-32 -8 -73 -13t-79 -5
q-43 0 -79.5 7t-63 23t-41.5 41.5t-15 63.5q0 68 54 101t151 33h49v37zM129 584q0 38 26 64t68 26t67.5 -26t25.5 -64t-25.5 -64t-67.5 -26t-68 26t-26 64zM265 584q0 17 -11 29.5t-31 12.5q-21 0 -31.5 -12.5t-10.5 -29.5t10.5 -29.5t31.5 -12.5q20 0 31 12.5t11 29.5z" />
    <glyph glyph-name="ccedilla" unicode="&#xe7;" horiz-adv-x="436" 
d="M394 324q-28 22 -57 31.5t-60 9.5q-30 0 -56 -9.5t-45 -27.5t-30 -45t-11 -62q0 -66 40.5 -105t105.5 -39q33 0 62 10t56 30v-94q-31 -17 -64 -25q-18 -4 -37 -6q-5 -43 -23.5 -80.5t-45.5 -57.5h-89q32 30 51.5 66.5t24.5 74.5q-22 4 -42 11q-42 16 -73 46t-48.5 73
t-17.5 96q0 54 18 97t49.5 73t74 46t91.5 16q37 0 67 -8t59 -25v-96z" />
    <glyph glyph-name="eacute" unicode="&#xe9;" horiz-adv-x="477" 
d="M208 513l85 152h91l-85 -152h-91zM131 199v-2q2 -30 15 -52.5t33 -38t44.5 -23.5t50.5 -8q46 0 81 10.5t68 32.5v-87q-30 -21 -71.5 -31t-84.5 -10q-52 0 -94.5 16t-73 45.5t-47.5 71.5t-17 95t16.5 96.5t45 74t67.5 47.5t85 17q48 0 84 -15t59.5 -42t35 -64.5
t11.5 -82.5v-50h-308zM246 370q-43 0 -72.5 -28t-39.5 -79h212q-2 52 -27 79.5t-73 27.5z" />
    <glyph glyph-name="egrave" unicode="&#xe8;" horiz-adv-x="477" 
d="M131 199v-2q2 -30 15 -52.5t33 -38t44.5 -23.5t50.5 -8q46 0 81 10.5t68 32.5v-87q-30 -21 -71.5 -31t-84.5 -10q-52 0 -94.5 16t-73 45.5t-47.5 71.5t-17 95t16.5 96.5t45 74t67.5 47.5t85 17q48 0 84 -15t59.5 -42t35 -64.5t11.5 -82.5v-50h-308zM246 370
q-43 0 -72.5 -28t-39.5 -79h212q-2 52 -27 79.5t-73 27.5zM214 513l-85 152h91l85 -152h-91z" />
    <glyph glyph-name="ecircumflex" unicode="&#xea;" horiz-adv-x="477" 
d="M393 510h-87l-60 79l-60 -79h-87l116 150h62zM131 199v-2q2 -30 15 -52.5t33 -38t44.5 -23.5t50.5 -8q46 0 81 10.5t68 32.5v-87q-30 -21 -71.5 -31t-84.5 -10q-52 0 -94.5 16t-73 45.5t-47.5 71.5t-17 95t16.5 96.5t45 74t67.5 47.5t85 17q48 0 84 -15t59.5 -42
t35 -64.5t11.5 -82.5v-50h-308zM246 370q-43 0 -72.5 -28t-39.5 -79h212q-2 52 -27 79.5t-73 27.5z" />
    <glyph glyph-name="edieresis" unicode="&#xeb;" horiz-adv-x="477" 
d="M165 516q-25 0 -42.5 18t-17.5 42q0 26 17.5 43t42.5 17t42.5 -17t17.5 -43q0 -24 -17.5 -42t-42.5 -18zM337 516q-25 0 -42.5 18t-17.5 42q0 26 17.5 43t42.5 17t42.5 -17t17.5 -43q0 -24 -17.5 -42t-42.5 -18zM131 199v-2q2 -30 15 -52.5t33 -38t44.5 -23.5t50.5 -8
q46 0 81 10.5t68 32.5v-87q-30 -21 -71.5 -31t-84.5 -10q-52 0 -94.5 16t-73 45.5t-47.5 71.5t-17 95t16.5 96.5t45 74t67.5 47.5t85 17q48 0 84 -15t59.5 -42t35 -64.5t11.5 -82.5v-50h-308zM246 370q-43 0 -72.5 -28t-39.5 -79h212q-2 52 -27 79.5t-73 27.5z" />
    <glyph glyph-name="iacute" unicode="&#xed;" horiz-adv-x="235" 
d="M74 513l85 152h91l-85 -152h-91zM167 0h-99v443h99v-443z" />
    <glyph glyph-name="igrave" unicode="&#xec;" horiz-adv-x="235" 
d="M167 0h-99v443h99v-443zM73 513l-85 152h91l85 -152h-91z" />
    <glyph glyph-name="icircumflex" unicode="&#xee;" horiz-adv-x="235" 
d="M265 510h-87l-60 79l-60 -79h-87l116 150h62zM167 0h-99v443h99v-443z" />
    <glyph glyph-name="idieresis" unicode="&#xef;" horiz-adv-x="235" 
d="M32 516q-25 0 -42.5 18t-17.5 42q0 26 17.5 43t42.5 17t42.5 -17t17.5 -43q0 -24 -17.5 -42t-42.5 -18zM204 516q-25 0 -42.5 18t-17.5 42q0 26 17.5 43t42.5 17t42.5 -17t17.5 -43q0 -24 -17.5 -42t-42.5 -18zM167 0h-99v443h99v-443z" />
    <glyph glyph-name="ntilde" unicode="&#xf1;" horiz-adv-x="519" 
d="M68 415q47 18 100.5 28t102.5 10q42 0 76.5 -8.5t58.5 -28.5t37 -52t13 -79v-285h-98v276q0 48 -26.5 67.5t-68.5 19.5q-26 0 -51 -3.5t-45 -9.5v-350h-99v415zM403 632q0 -58 -21.5 -91.5t-61.5 -33.5q-19 0 -34 8.5t-28.5 18.5t-25 18.5t-23.5 8.5q-29 0 -29 -51h-66
q0 59 21.5 92t61.5 33q19 0 34.5 -8.5t29 -18.5t25 -18.5t23.5 -8.5q29 0 29 51h65z" />
    <glyph glyph-name="oacute" unicode="&#xf3;" horiz-adv-x="527" 
d="M214 513l85 152h91l-85 -152h-91zM35 221q0 52 17 94.5t47.5 73t72 47.5t91.5 17t92 -17t72.5 -47.5t47.5 -73t17 -94.5q0 -51 -17 -93.5t-47.5 -73t-72.5 -47.5t-92 -17t-91.5 17t-72 47.5t-47.5 73t-17 93.5zM392 221q0 68 -36 107.5t-93 39.5q-56 0 -92 -39.5
t-36 -107.5q0 -67 36 -106.5t92 -39.5q57 0 93 39.5t36 106.5z" />
    <glyph glyph-name="ograve" unicode="&#xf2;" horiz-adv-x="527" 
d="M35 221q0 52 17 94.5t47.5 73t72 47.5t91.5 17t92 -17t72.5 -47.5t47.5 -73t17 -94.5q0 -51 -17 -93.5t-47.5 -73t-72.5 -47.5t-92 -17t-91.5 17t-72 47.5t-47.5 73t-17 93.5zM392 221q0 68 -36 107.5t-93 39.5q-56 0 -92 -39.5t-36 -107.5q0 -67 36 -106.5t92 -39.5
q57 0 93 39.5t36 106.5zM223 513l-85 152h91l85 -152h-91z" />
    <glyph glyph-name="ocircumflex" unicode="&#xf4;" horiz-adv-x="527" 
d="M410 510h-87l-60 79l-60 -79h-87l116 150h62zM35 221q0 52 17 94.5t47.5 73t72 47.5t91.5 17t92 -17t72.5 -47.5t47.5 -73t17 -94.5q0 -51 -17 -93.5t-47.5 -73t-72.5 -47.5t-92 -17t-91.5 17t-72 47.5t-47.5 73t-17 93.5zM392 221q0 68 -36 107.5t-93 39.5
q-56 0 -92 -39.5t-36 -107.5q0 -67 36 -106.5t92 -39.5q57 0 93 39.5t36 106.5z" />
    <glyph glyph-name="odieresis" unicode="&#xf6;" horiz-adv-x="527" 
d="M178 516q-25 0 -42.5 18t-17.5 42q0 26 17.5 43t42.5 17t42.5 -17t17.5 -43q0 -24 -17.5 -42t-42.5 -18zM350 516q-25 0 -42.5 18t-17.5 42q0 26 17.5 43t42.5 17t42.5 -17t17.5 -43q0 -24 -17.5 -42t-42.5 -18zM35 221q0 52 17 94.5t47.5 73t72 47.5t91.5 17t92 -17
t72.5 -47.5t47.5 -73t17 -94.5q0 -51 -17 -93.5t-47.5 -73t-72.5 -47.5t-92 -17t-91.5 17t-72 47.5t-47.5 73t-17 93.5zM392 221q0 68 -36 107.5t-93 39.5q-56 0 -92 -39.5t-36 -107.5q0 -67 36 -106.5t92 -39.5q57 0 93 39.5t36 106.5z" />
    <glyph glyph-name="otilde" unicode="&#xf5;" horiz-adv-x="527" 
d="M35 221q0 52 17 94.5t47.5 73t72 47.5t91.5 17t92 -17t72.5 -47.5t47.5 -73t17 -94.5q0 -51 -17 -93.5t-47.5 -73t-72.5 -47.5t-92 -17t-91.5 17t-72 47.5t-47.5 73t-17 93.5zM392 221q0 68 -36 107.5t-93 39.5q-56 0 -92 -39.5t-36 -107.5q0 -67 36 -106.5t92 -39.5
q57 0 93 39.5t36 106.5zM408 632q0 -58 -21.5 -91.5t-61.5 -33.5q-19 0 -34 8.5t-28.5 18.5t-25 18.5t-23.5 8.5q-29 0 -29 -51h-66q0 59 21.5 92t61.5 33q19 0 34.5 -8.5t29 -18.5t25 -18.5t23.5 -8.5q29 0 29 51h65z" />
    <glyph glyph-name="uacute" unicode="&#xfa;" horiz-adv-x="505" 
d="M196 513l85 152h91l-85 -152h-91zM436 10q-39 -10 -86 -15t-86 -5q-48 0 -86 8.5t-64.5 27.5t-40.5 50.5t-14 78.5v288h98v-281q0 -50 28 -70t77 -20q17 0 36.5 1.5t39.5 4.5v365h98v-433z" />
    <glyph glyph-name="ugrave" unicode="&#xf9;" horiz-adv-x="505" 
d="M436 10q-39 -10 -86 -15t-86 -5q-48 0 -86 8.5t-64.5 27.5t-40.5 50.5t-14 78.5v288h98v-281q0 -50 28 -70t77 -20q17 0 36.5 1.5t39.5 4.5v365h98v-433zM207 513l-85 152h91l85 -152h-91z" />
    <glyph glyph-name="ucircumflex" unicode="&#xfb;" horiz-adv-x="505" 
d="M394 510h-87l-60 79l-60 -79h-87l116 150h62zM436 10q-39 -10 -86 -15t-86 -5q-48 0 -86 8.5t-64.5 27.5t-40.5 50.5t-14 78.5v288h98v-281q0 -50 28 -70t77 -20q17 0 36.5 1.5t39.5 4.5v365h98v-433z" />
    <glyph glyph-name="udieresis" unicode="&#xfc;" horiz-adv-x="505" 
d="M165 516q-25 0 -42.5 18t-17.5 42q0 26 17.5 43t42.5 17t42.5 -17t17.5 -43q0 -24 -17.5 -42t-42.5 -18zM337 516q-25 0 -42.5 18t-17.5 42q0 26 17.5 43t42.5 17t42.5 -17t17.5 -43q0 -24 -17.5 -42t-42.5 -18zM436 10q-39 -10 -86 -15t-86 -5q-48 0 -86 8.5t-64.5 27.5
t-40.5 50.5t-14 78.5v288h98v-281q0 -50 28 -70t77 -20q17 0 36.5 1.5t39.5 4.5v365h98v-433z" />
    <glyph glyph-name="dagger" unicode="&#x2020;" horiz-adv-x="274" 
d="M20 507h81v87h72v-87h81v-66h-81v-194h-72v194h-81v66z" />
    <glyph glyph-name="degree" unicode="&#xb0;" horiz-adv-x="295" 
d="M25 483q0 25 9.5 47t26 38.5t39 25.5t48.5 9t48 -9t38.5 -25.5t26 -38.5t9.5 -47q0 -26 -9.5 -47.5t-26 -38t-38.5 -25.5t-48 -9t-48.5 9t-39 25.5t-26 38t-9.5 47.5zM85 483q0 -28 16.5 -46.5t46.5 -18.5q29 0 45.5 18.5t16.5 46.5q0 27 -16.5 45.5t-45.5 18.5
q-30 0 -46.5 -18.5t-16.5 -45.5z" />
    <glyph glyph-name="cent" unicode="&#xa2;" horiz-adv-x="435" 
d="M215 535h78v-83q22 -2 41 -7q30 -8 59 -25v-96q-28 22 -57.5 31.5t-60.5 9.5q-30 0 -56 -9.5t-45 -27.5t-30 -45t-11 -62q0 -33 11 -59.5t30.5 -45.5t46.5 -29t59 -10q62 0 117 40v-94q-30 -17 -63 -25q-20 -5 -41 -7v-86h-78v90q-22 4 -42 11q-43 16 -73.5 46t-48 73
t-17.5 96q0 54 18 97t49.5 73t73.5 46q20 7 40 11v87z" />
    <glyph glyph-name="sterling" unicode="&#xa3;" horiz-adv-x="454" 
d="M34 329h76v77q0 49 13.5 86.5t37.5 62t57.5 37t73.5 12.5q42 0 76 -13t51 -30v-106q-24 27 -53 41t-66 14q-45 0 -69 -26.5t-24 -83.5v-71h139v-80h-139v-5q0 -62 -19.5 -98t-44.5 -58h286v-88h-395v88q41 23 58 60q18 36 18 101h-76v80z" />
    <glyph glyph-name="section" unicode="&#xa7;" horiz-adv-x="459" 
d="M33 241q0 50 27 82.5t68 50.5q-50 35 -50 100q0 32 12 56t33 40.5t50 25t63 8.5q72 0 126 -35v-90q-29 21 -58.5 33t-64.5 12q-33 0 -49.5 -13.5t-16.5 -35.5t19 -36t73 -33q38 -13 68 -27t50.5 -32t31.5 -42.5t11 -58.5q0 -51 -27.5 -83.5t-69.5 -49.5q26 -19 37 -43
t11 -57q0 -32 -12 -56t-33.5 -40.5t-50.5 -25t-62 -8.5q-75 0 -129 35v90q29 -21 60 -33t66 -12q32 0 48.5 13.5t16.5 35.5q0 11 -3.5 19.5t-13 16.5t-26.5 16t-44 17q-38 13 -68 27t-50.5 32t-31.5 42.5t-11 58.5zM335 240q0 31 -26 50t-90 41l-12 3q-36 -12 -59.5 -33.5
t-23.5 -53.5q0 -16 6 -28t19.5 -22t35.5 -19.5t54 -21.5l13 -4q36 13 59.5 34.5t23.5 53.5z" />
    <glyph glyph-name="bullet" unicode="&#x2022;" horiz-adv-x="331" 
d="M61 260q0 22 8 41t22 33t33 22.5t41 8.5t41 -8.5t33 -22.5t22.5 -33t8.5 -41t-8.5 -41t-22.5 -33t-33 -22t-41 -8q-44 0 -74 30t-30 74z" />
    <glyph glyph-name="paragraph" unicode="&#xb6;" horiz-adv-x="507" 
d="M362 594h81v-700h-81v700zM227 247q-39 0 -75 10t-64.5 31t-45.5 54t-17 79t17 78.5t45.5 53.5t64.5 31t75 10h81v-700h-81v353z" />
    <glyph glyph-name="germandbls" unicode="&#xdf;" horiz-adv-x="547" 
d="M68 487q0 45 13 82.5t37.5 64t60 41.5t80.5 15q42 0 75.5 -11t57 -31t36.5 -47.5t13 -60.5q0 -35 -14 -60t-30.5 -44.5t-30 -35.5t-13.5 -32q0 -14 12.5 -26t31 -25t40 -28t40 -35t31 -46.5t12.5 -61.5q0 -33 -11.5 -61.5t-33.5 -49.5t-54 -33t-73 -12q-33 0 -62 8
t-49 23v92q29 -22 53 -32.5t55 -10.5q35 0 57 19t22 56q0 22 -12.5 39.5t-31 32t-40 28.5t-40 30.5t-31 37t-12.5 48.5q0 26 13.5 47t30 41t30.5 40t14 45q0 32 -23 52.5t-62 20.5q-48 0 -70.5 -32.5t-22.5 -86.5v-488h-99v487z" />
    <glyph glyph-name="registered" unicode="&#xae;" horiz-adv-x="455" 
d="M227 225q-41 0 -75 14.5t-59 40t-39 60t-14 74.5t14 75t39 60.5t59 40t75 14.5t75.5 -14.5t59.5 -40t39 -60.5t14 -75t-14 -74.5t-39 -60t-59.5 -40t-75.5 -14.5zM227 260q33 0 60.5 12t47 33t30.5 49t11 60q0 33 -11 61t-30.5 49t-47 33t-60.5 12t-60 -12t-46.5 -33
t-30.5 -49t-11 -61q0 -32 11 -60t30.5 -49t46.5 -33t60 -12zM207 324h-50v183q12 2 30 4.5t35 2.5q35 0 59 -16.5t24 -51.5q0 -20 -10 -34.5t-26 -21.5l50 -66h-57l-39 56h-16v-56zM207 421h14q14 0 23 5t9 18t-9 18.5t-21 5.5h-8.5t-7.5 -1v-46z" />
    <glyph glyph-name="copyright" unicode="&#xa9;" horiz-adv-x="698" 
d="M45 297q0 65 22.5 121t63 97.5t96.5 65t122 23.5t121.5 -23.5t96 -65t63.5 -97.5t23 -121t-23 -121t-63.5 -97.5t-96 -65t-121.5 -23.5t-122 23.5t-96.5 65t-63 97.5t-22.5 121zM85 297q0 -59 19.5 -108.5t55 -85.5t84 -56t105.5 -20t105.5 20t84 56t55 85.5t19.5 108.5
t-19.5 108.5t-55 85.5t-84 56t-105.5 20t-105.5 -20t-84 -56t-55 -85.5t-19.5 -108.5zM174 296q0 43 14 78.5t39.5 61t61 39.5t78.5 14q58 0 101 -26v-91q-18 18 -43 28.5t-55 10.5q-49 0 -78.5 -32t-29.5 -83t30 -83t79 -32q59 0 100 39v-90q-23 -14 -49 -20.5t-55 -6.5
q-44 0 -79.5 14.5t-60.5 40t-39 61t-14 77.5z" />
    <glyph glyph-name="trademark" unicode="&#x2122;" horiz-adv-x="696" 
d="M185 317h-69v217h-85v60h239v-60h-85v-217zM437 317l-58 182l-30 -182h-67l46 277h80l59 -193l56 193h81l45 -277h-67l-32 182l-55 -182h-58z" />
    <glyph glyph-name="acute" unicode="&#xb4;" horiz-adv-x="500" 
d="M162 513l85 152h91l-85 -152h-91z" />
    <glyph glyph-name="dieresis" unicode="&#xa8;" horiz-adv-x="500" 
d="M164 516q-25 0 -42.5 18t-17.5 42q0 26 17.5 43t42.5 17t42.5 -17t17.5 -43q0 -24 -17.5 -42t-42.5 -18zM336 516q-25 0 -42.5 18t-17.5 42q0 26 17.5 43t42.5 17t42.5 -17t17.5 -43q0 -24 -17.5 -42t-42.5 -18z" />
    <glyph glyph-name="notequal" unicode="&#x2260;" horiz-adv-x="469" 
d="M45 259h130l47 69h-177v70h225l58 86h71l-58 -86h83v-70h-131l-47 -69h178v-70h-225l-58 -86h-71l58 86h-83v70z" />
    <glyph glyph-name="AE" unicode="&#xc6;" horiz-adv-x="842" 
d="M790 594v-90h-262v-160h242v-88h-242v-166h267v-90h-369v140h-227l-84 -140h-110l359 594h426zM426 518l-177 -294h177v294z" />
    <glyph glyph-name="Oslash" unicode="&#xd8;" horiz-adv-x="700" 
d="M350 -10q-53 0 -100 15t-85 42l-43 -47h-86l82 90q-36 40 -56 92t-20 115q0 68 24 124.5t65.5 97t97.5 63t121 22.5q52 0 98.5 -15t84.5 -43l44 48h86l-81 -90q35 -40 55.5 -92t20.5 -115q0 -68 -24 -124.5t-66 -97t-98 -63t-120 -22.5zM229 118q25 -18 55.5 -28
t65.5 -10q43 0 80 15.5t65 44t44 68.5t16 89q0 39 -10.5 72.5t-29.5 59.5zM470 475q-51 39 -120 39q-43 0 -80.5 -15.5t-65 -44t-43.5 -68.5t-16 -89q0 -40 10 -73.5t29 -59.5z" />
    <glyph glyph-name="infinity" unicode="&#x221e;" horiz-adv-x="700" 
d="M265 326q-17 17 -33.5 27t-37.5 10q-29 0 -51 -20.5t-22 -57.5t22 -57.5t51 -20.5q21 0 37.5 9.5t33.5 27.5l35 41zM400 285l35 -41q17 -18 33.5 -27.5t38.5 -9.5q29 0 50.5 20.5t21.5 57.5t-21.5 57.5t-50.5 20.5q-22 0 -38.5 -10t-33.5 -27zM323 196q-28 -32 -58.5 -50
t-75.5 -18q-31 0 -58 10.5t-47.5 31t-32 49.5t-11.5 66t11.5 66t32 49t47.5 30.5t58 10.5q45 0 75.5 -17.5t58.5 -49.5l27 -31l27 31q28 32 59 49.5t75 17.5q31 0 58 -10.5t47 -30.5t32 -49t12 -66t-12 -66t-32 -49.5t-47 -31t-58 -10.5q-44 0 -75 18t-59 50l-27 31z" />
    <glyph glyph-name="plusminus" unicode="&#xb1;" horiz-adv-x="459" 
d="M45 393h146v112h77v-112h146v-76h-146v-111h-77v111h-146v76zM45 164h369v-76h-369v76z" />
    <glyph glyph-name="lessequal" unicode="&#x2264;" horiz-adv-x="343" 
d="M25 334l278 154v-88l-137 -70l137 -69v-88l-278 153v8zM25 145h278v-76h-278v76z" />
    <glyph glyph-name="greaterequal" unicode="&#x2265;" horiz-adv-x="343" 
d="M318 326l-278 -153v88l137 69l-137 70v88l278 -154v-8zM318 69h-278v76h278v-76z" />
    <glyph glyph-name="yen" unicode="&#xa5;" horiz-adv-x="522" 
d="M77 169h135v57h-135v59h110l-172 309h111l137 -263l134 263h110l-173 -309h111v-59h-135v-57h135v-59h-135v-110h-98v110h-135v59z" />
    <glyph glyph-name="mu" unicode="&#xb5;" horiz-adv-x="505" 
d="M59 443h98v-281q0 -50 28 -70t77 -20q17 0 36.5 1.5t39.5 4.5v365h98v-433q-39 -10 -85 -15t-81 -5t-64 5t-49 22v-197h-98v623z" />
    <glyph glyph-name="mu" unicode="&#x3bc;" horiz-adv-x="505" 
d="M59 443h98v-281q0 -50 28 -70t77 -20q17 0 36.5 1.5t39.5 4.5v365h98v-433q-39 -10 -85 -15t-81 -5t-64 5t-49 22v-197h-98v623z" />
    <glyph glyph-name="partialdiff" unicode="&#x2202;" horiz-adv-x="527" 
d="M363 404q-31 60 -96 133t-158 143h124q51 -41 97.5 -90t82.5 -105t57 -119t21 -132q0 -57 -17 -102t-47 -76.5t-72 -48.5t-92 -17t-91.5 16.5t-72 47t-47.5 72.5t-17 93t17 93.5t46.5 72.5t70.5 46.5t89 16.5q31 0 58 -10.5t47 -33.5zM392 220q0 68 -36 107t-93 39
q-56 0 -92 -39t-36 -107q0 -67 36 -106t92 -39q57 0 93 39t36 106z" />
    <glyph glyph-name="summation" unicode="&#x2211;" horiz-adv-x="443" 
d="M25 506v88h393v-88h-283l194 -299l-194 -299h283v-88h-393v88l192 299z" />
    <glyph glyph-name="product" unicode="&#x220f;" horiz-adv-x="603" 
d="M427 -180v683h-251v-683h-102v774h455v-774h-102z" />
    <glyph glyph-name="pi" unicode="&#x3c0;" horiz-adv-x="546" 
d="M501 1q-11 -5 -24.5 -8t-32.5 -3q-54 0 -84 30t-30 96v236h-127v-352h-97v352h-74v91h470v-91h-75v-226q0 -25 8.5 -38.5t30.5 -13.5q17 0 35 10v-83z" />
    <glyph glyph-name="pi" unicode="&#x3d6;" horiz-adv-x="546" 
d="M501 1q-11 -5 -24.5 -8t-32.5 -3q-54 0 -84 30t-30 96v236h-127v-352h-97v352h-74v91h470v-91h-75v-226q0 -25 8.5 -38.5t30.5 -13.5q17 0 35 10v-83z" />
    <glyph glyph-name="integral" unicode="&#x222b;" horiz-adv-x="348" 
d="M109 449q0 78 39 116.5t103 38.5q45 0 74 -19v-90q-14 10 -29 15.5t-34 5.5q-55 0 -55 -68v-483q0 -78 -39 -116.5t-103 -38.5q-45 0 -74 19v90q14 -10 29 -15.5t34 -5.5q55 0 55 68v483z" />
    <glyph glyph-name="ordfeminine" unicode="&#xaa;" horiz-adv-x="339" 
d="M222 401h-33q-36 0 -58.5 -11t-22.5 -36q0 -26 21 -36t52 -10q21 0 41 3v90zM222 477q0 29 -18.5 42t-47.5 13q-30 0 -54 -7.5t-45 -20.5v73q22 12 50.5 19.5t60.5 7.5q28 0 53 -6.5t43 -20.5t28.5 -37t10.5 -57v-225q-24 -5 -59 -9t-64 -4q-34 0 -62.5 5.5t-49.5 18
t-32.5 32.5t-11.5 49q0 53 42.5 80t117.5 27h38v20z" />
    <glyph glyph-name="ordmasculine" unicode="&#xba;" horiz-adv-x="405" 
d="M24 424q0 40 13.5 73t37.5 57t56.5 37t70.5 13q39 0 71.5 -13t56 -37t37 -57t13.5 -73t-13.5 -73t-37 -56.5t-56 -36.5t-71.5 -13q-38 0 -70.5 13t-56.5 36.5t-37.5 56.5t-13.5 73zM294 424q0 49 -25.5 77t-66.5 28t-67 -28t-26 -77q0 -48 26 -76t67 -28t66.5 28t25.5 76
z" />
    <glyph glyph-name="Omega" unicode="&#x3a9;" horiz-adv-x="594" 
d="M297 525q-36 0 -65.5 -13.5t-50.5 -38.5t-32.5 -60t-11.5 -78q0 -81 33.5 -137.5t87.5 -91.5v-106h-216v86h126q-22 13 -44.5 36.5t-41 55.5t-30.5 72t-12 85q0 57 17 106t50 85t80.5 57t109.5 21q61 0 109 -21t81 -57t50 -85t17 -106q0 -45 -12 -85t-30.5 -72t-41 -55.5
t-44.5 -36.5h126v-86h-217v106q55 35 88.5 91.5t33.5 137.5q0 43 -11.5 78t-32.5 60t-50.5 38.5t-65.5 13.5z" />
    <glyph glyph-name="Omega" unicode="&#x2126;" horiz-adv-x="594" 
d="M297 525q-36 0 -65.5 -13.5t-50.5 -38.5t-32.5 -60t-11.5 -78q0 -81 33.5 -137.5t87.5 -91.5v-106h-216v86h126q-22 13 -44.5 36.5t-41 55.5t-30.5 72t-12 85q0 57 17 106t50 85t80.5 57t109.5 21q61 0 109 -21t81 -57t50 -85t17 -106q0 -45 -12 -85t-30.5 -72t-41 -55.5
t-44.5 -36.5h126v-86h-217v106q55 35 88.5 91.5t33.5 137.5q0 43 -11.5 78t-32.5 60t-50.5 38.5t-65.5 13.5z" />
    <glyph glyph-name="ae" unicode="&#xe6;" horiz-adv-x="735" 
d="M308 15q-45 -25 -105 -25q-34 0 -64 8t-52.5 24t-36 41t-13.5 59q0 68 54.5 101t150.5 33h57q2 19 6 36q-3 40 -26 56q-26 20 -66 20q-44 0 -75.5 -10.5t-59.5 -26.5v86q29 17 65.5 26.5t77.5 9.5q34 0 63 -8.5t50 -26.5q13 -12 23 -28q28 29 65 46q39 17 85 17
q49 0 85 -16t59 -44t34.5 -66.5t11.5 -83.5v-51h-309q3 -22 11 -39q12 -27 32.5 -44.5t46.5 -25.5t54 -8q46 0 81 10.5t68 32.5v-87q-30 -21 -71.5 -31t-84.5 -10q-52 0 -94 16t-72 45q-22 -20 -51 -36zM604 256q-2 52 -25.5 83t-74.5 31t-84 -40q-24 -28 -31 -74h215z
M313 123q-12 31 -15 69h-51q-49 0 -80.5 -15.5t-31.5 -52.5q0 -31 22 -45.5t53 -14.5q65 0 108 46q-3 6 -5 13z" />
    <glyph glyph-name="oslash" unicode="&#xf8;" horiz-adv-x="532" 
d="M340 348q-31 22 -74 22q-29 0 -53 -10.5t-41 -30t-27 -47t-10 -61.5q0 -48 19 -84zM266 -10q-77 0 -133 39l-31 -34h-74l63 71q-53 62 -53 155q0 52 17 94.5t47.5 73t72 47.5t91.5 17q38 0 71.5 -10.5t61.5 -29.5l31 35h74l-64 -72q26 -30 40 -69t14 -86q0 -51 -17 -93.5
t-47.5 -73t-72.5 -47.5t-91 -17zM191 94q30 -21 75 -21q28 0 52.5 10.5t42 29.5t27.5 46.5t10 61.5q0 25 -5.5 46t-15.5 38z" />
    <glyph glyph-name="questiondown" unicode="&#xbf;" horiz-adv-x="381" 
d="M367 -95q-24 -25 -65.5 -43.5t-95.5 -18.5q-82 0 -131.5 44t-49.5 125q0 45 16.5 76t41 51.5t52.5 33t52 19.5v69h93v-116q-37 -11 -66 -22.5t-49.5 -25.5t-31 -33.5t-10.5 -46.5q0 -41 27.5 -63t66.5 -22q45 0 80 18.5t70 50.5v-96zM300 388q0 -29 -19.5 -49.5
t-47.5 -20.5q-29 0 -49.5 20.5t-20.5 49.5q0 28 20.5 48t49.5 20q28 0 47.5 -20t19.5 -48z" />
    <glyph glyph-name="exclamdown" unicode="&#xa1;" horiz-adv-x="263" 
d="M180 -148h-97v409h97v-409zM63 387q0 29 19.5 49t48.5 20q28 0 48.5 -20t20.5 -49t-20.5 -49t-48.5 -20q-29 0 -48.5 20t-19.5 49z" />
    <glyph glyph-name="radical" unicode="&#x221a;" horiz-adv-x="536" 
d="M516 594l-180 -594h-110l-107 295h-73v96h147l89 -276l139 479h95z" />
    <glyph glyph-name="florin" unicode="&#x192;" horiz-adv-x="364" 
d="M27 -120l55 359h-62v82h74l19 119q13 81 50.5 122.5t104.5 41.5q23 0 40 -4.5t30 -12.5v-94q-27 20 -61 20q-29 0 -45 -20.5t-21 -55.5l-18 -116h92v-82h-105l-55 -359h-98z" />
    <glyph glyph-name="approxequal" unicode="&#x2248;" horiz-adv-x="469" 
d="M45 379q28 18 53.5 26t48.5 8q24 0 45 -5t41.5 -11.5t41.5 -11.5t45 -5q23 0 49 7.5t55 26.5v-74q-29 -19 -55 -26.5t-49 -7.5q-24 0 -45 5t-41.5 11.5t-41.5 11.5t-45 5q-23 0 -48.5 -8t-53.5 -26v74zM45 250q28 18 53.5 26t48.5 8q24 0 45 -5t41.5 -11.5t41.5 -11.5
t45 -5q23 0 49 7.5t55 26.5v-74q-29 -19 -55 -26.5t-49 -7.5q-24 0 -45 5t-41.5 11.5t-41.5 11.5t-45 5q-23 0 -48.5 -8t-53.5 -26v74z" />
    <glyph glyph-name="guillemotleft" unicode="&#xab;" horiz-adv-x="475" 
d="M145 215l122 -158h-98l-123 158l123 158h98zM307 215l122 -158h-98l-123 158l123 158h98z" />
    <glyph glyph-name="guillemotright" unicode="&#xbb;" horiz-adv-x="475" 
d="M46 373h98l123 -158l-123 -158h-98l122 158zM208 373h98l123 -158l-123 -158h-98l122 158z" />
    <glyph glyph-name="ellipsis" unicode="&#x2026;" horiz-adv-x="760" 
d="M196 59q0 -28 -20.5 -48t-49.5 -20q-28 0 -47.5 20t-19.5 48q0 29 19.5 49.5t47.5 20.5q29 0 49.5 -20.5t20.5 -49.5zM448 59q0 -28 -20 -48t-50 -20q-27 0 -46.5 20t-19.5 48q0 29 19.5 49.5t46.5 20.5q30 0 50 -20.5t20 -49.5zM701 59q0 -28 -20.5 -48t-50.5 -20
q-27 0 -46.5 20t-19.5 48q0 29 19.5 49.5t46.5 20.5q30 0 50.5 -20.5t20.5 -49.5z" />
    <glyph glyph-name="Agrave" unicode="&#xc0;" horiz-adv-x="599" 
d="M430 140h-265l-52 -140h-108l231 594h125l232 -594h-111zM196 224h203l-101 274zM250 644l-79 141h91l79 -141h-91z" />
    <glyph glyph-name="Atilde" unicode="&#xc3;" horiz-adv-x="599" 
d="M430 140h-265l-52 -140h-108l231 594h125l232 -594h-111zM196 224h203l-101 274zM444 763q0 -58 -21.5 -91.5t-61.5 -33.5q-19 0 -34 8.5t-28.5 18.5t-25 18.5t-23.5 8.5q-29 0 -29 -51h-66q0 58 21.5 91.5t61.5 33.5q19 0 34.5 -8.5t29 -18.5t25 -18.5t23.5 -8.5
q29 0 29 51h65z" />
    <glyph glyph-name="Otilde" unicode="&#xd5;" horiz-adv-x="694" 
d="M491 763q0 -58 -21.5 -91.5t-61.5 -33.5q-19 0 -34 8.5t-28.5 18.5t-25 18.5t-23.5 8.5q-29 0 -29 -51h-66q0 58 21.5 91.5t61.5 33.5q19 0 34.5 -8.5t29 -18.5t25 -18.5t23.5 -8.5q29 0 29 51h65zM39 297q0 68 24 124.5t65.5 97t97.5 63t121 22.5q64 0 120 -22.5t98 -63
t66 -97t24 -124.5t-24 -124.5t-66 -97t-98 -63t-120 -22.5q-65 0 -121 22.5t-97.5 63t-65.5 97t-24 124.5zM550 297q0 49 -15.5 88.5t-43 67.5t-64.5 43.5t-80 15.5t-80 -15.5t-64.5 -43.5t-43 -67.5t-15.5 -88.5t15.5 -88.5t43 -67.5t64.5 -43.5t80 -15.5t80 15.5
t64.5 43.5t43 67.5t15.5 88.5z" />
    <glyph glyph-name="OE" unicode="&#x152;" horiz-adv-x="813" 
d="M766 0h-419q-65 0 -121 21t-97.5 60t-65.5 94t-24 122t24 122t65.5 94t97.5 60t121 21h413v-90h-262v-160h242v-88h-242v-166h268v-90zM347 505q-43 0 -80 -14.5t-64.5 -41.5t-43 -65.5t-15.5 -86.5t15.5 -86.5t43 -65.5t64.5 -41.5t80 -14.5h50v416h-50z" />
    <glyph glyph-name="oe" unicode="&#x153;" horiz-adv-x="831" 
d="M485 199v-2q2 -30 15 -52.5t33 -38t44.5 -23.5t50.5 -8q46 0 81 10.5t68 32.5v-87q-30 -21 -71.5 -31t-84.5 -10q-75 0 -129 33q-31 20 -53 47q-23 -28 -54 -47q-53 -33 -122 -33q-50 0 -91.5 17t-72 47.5t-47.5 73t-17 93.5q0 52 17 94.5t47.5 73t72 47.5t91.5 17
q72 0 126 -36q29 -19 50 -45q20 26 47 45q51 36 117 36q48 0 84 -15t59.5 -42t35 -64.5t11.5 -82.5v-50h-308zM392 221q0 68 -36 107.5t-93 39.5q-56 0 -92 -39.5t-36 -107.5q0 -67 36 -106.5t92 -39.5q57 0 93 39.5t36 106.5zM600 370q-43 0 -72.5 -28t-39.5 -79h212
q-2 52 -27 79.5t-73 27.5z" />
    <glyph glyph-name="endash" unicode="&#x2013;" horiz-adv-x="572" 
d="M53 302h466v-75h-466v75z" />
    <glyph glyph-name="emdash" unicode="&#x2014;" horiz-adv-x="952" 
d="M53 302h846v-75h-846v75z" />
    <glyph glyph-name="quotedblleft" unicode="&#x201c;" horiz-adv-x="392" 
d="M59 432q0 37 9 69t23.5 59t33.5 48.5t40 35.5h69q-36 -46 -55 -96.5t-19 -115.5h-101zM224 432q0 37 8.5 69t23 59t33.5 48.5t40 35.5h70q-36 -46 -55 -96.5t-19 -115.5h-101z" />
    <glyph glyph-name="quotedblright" unicode="&#x201d;" horiz-adv-x="392" 
d="M195 644q0 -36 -8.5 -68.5t-23 -59.5t-33.5 -48.5t-40 -35.5h-70q36 46 55 96.5t19 115.5h101zM360 644q0 -36 -8.5 -68.5t-23 -59.5t-33.5 -48.5t-40 -35.5h-70q36 46 55 96.5t19 115.5h101z" />
    <glyph glyph-name="quoteleft" unicode="&#x2018;" horiz-adv-x="228" 
d="M59 432q0 37 9 69t23.5 59t33.5 48.5t40 35.5h69q-36 -46 -55 -96.5t-19 -115.5h-101z" />
    <glyph glyph-name="quoteright" unicode="&#x2019;" horiz-adv-x="228" 
d="M195 644q0 -36 -8.5 -68.5t-23 -59.5t-33.5 -48.5t-40 -35.5h-70q36 46 55 96.5t19 115.5h101z" />
    <glyph glyph-name="divide" unicode="&#xf7;" horiz-adv-x="459" 
d="M40 331h379v-77h-379v77zM171 140q0 24 17 41t41 17t41.5 -17t17.5 -41t-17.5 -41.5t-41.5 -17.5t-41 17.5t-17 41.5zM171 446q0 24 17 41t41 17t41.5 -17t17.5 -41t-17.5 -41.5t-41.5 -17.5t-41 17.5t-17 41.5z" />
    <glyph glyph-name="lozenge" unicode="&#x25ca;" horiz-adv-x="486" 
d="M201 594h83l175 -297l-175 -297h-83l-174 297zM243 505l-117 -208l117 -207l116 207z" />
    <glyph glyph-name="ydieresis" unicode="&#xff;" horiz-adv-x="468" 
d="M237 94l124 349h102l-240 -623h-97l62 160l-183 463h106zM151 516q-25 0 -42.5 18t-17.5 42q0 26 17.5 43t42.5 17t42.5 -17t17.5 -43q0 -24 -17.5 -42t-42.5 -18zM323 516q-25 0 -42.5 18t-17.5 42q0 26 17.5 43t42.5 17t42.5 -17t17.5 -43q0 -24 -17.5 -42t-42.5 -18z
" />
    <glyph glyph-name="Ydieresis" unicode="&#x178;" horiz-adv-x="542" 
d="M424 594h113l-215 -367v-227h-102v227l-215 367h113l154 -271zM185 635q-25 0 -42.5 17.5t-17.5 42.5t17.5 42.5t42.5 17.5t42.5 -17.5t17.5 -42.5t-17.5 -42.5t-42.5 -17.5zM357 635q-25 0 -42.5 17.5t-17.5 42.5t17.5 42.5t42.5 17.5t42.5 -17.5t17.5 -42.5
t-17.5 -42.5t-42.5 -17.5z" />
    <glyph glyph-name="fraction" unicode="&#x2044;" horiz-adv-x="198" 
d="M235 594h74l-346 -594h-75z" />
    <glyph glyph-name="Euro" unicode="&#x20ac;" horiz-adv-x="511" 
d="M335 -10q-60 0 -108 22.5t-82 63t-53 96.5q-6 19 -10 39h-64v60h56v26v29h-56v60h64q5 18 10 35q19 57 53 97.5t82.5 63t107.5 22.5q79 0 139 -41v-112q-26 29 -60 45t-77 16q-37 0 -66.5 -15.5t-50.5 -43.5t-32 -67h171l-12 -60h-169q-1 -14 -1 -29v-26h159l-12 -60
h-137q11 -41 34 -71q44 -58 119 -58q43 0 76.5 15t64.5 46v-110q-34 -23 -71 -33t-75 -10z" />
    <glyph glyph-name="guilsinglleft" unicode="&#x2039;" horiz-adv-x="313" 
d="M145 215l122 -158h-98l-123 158l123 158h98z" />
    <glyph glyph-name="guilsinglright" unicode="&#x203a;" horiz-adv-x="313" 
d="M46 373h98l123 -158l-123 -158h-98l122 158z" />
    <glyph glyph-name="daggerdbl" unicode="&#x2021;" horiz-adv-x="274" 
d="M20 389h83v64h-83v64h83v77h68v-77h83v-64h-83v-64h83v-64h-83v-78h-68v78h-83v64z" />
    <glyph glyph-name="periodcentered" unicode="&#xb7;" horiz-adv-x="259" 
d="M61 260q0 29 19.5 49t48.5 20t49 -20t20 -49t-20 -49t-49 -20t-48.5 20t-19.5 49z" />
    <glyph glyph-name="quotesinglbase" unicode="&#x201a;" horiz-adv-x="228" 
d="M174 101q0 -36 -8.5 -68.5t-23 -59.5t-33.5 -48.5t-40 -35.5h-70q36 46 55 96.5t19 115.5h101z" />
    <glyph glyph-name="quotedblbase" unicode="&#x201e;" horiz-adv-x="392" 
d="M174 101q0 -36 -8.5 -68.5t-23 -59.5t-33.5 -48.5t-40 -35.5h-70q36 46 55 96.5t19 115.5h101zM339 101q0 -36 -8.5 -68.5t-23 -59.5t-33.5 -48.5t-40 -35.5h-70q36 46 55 96.5t19 115.5h101z" />
    <glyph glyph-name="perthousand" unicode="&#x2030;" horiz-adv-x="1012" 
d="M31 459q0 32 11 58.5t30.5 46t46 30t56.5 10.5t56.5 -10.5t46 -30t31 -46t11.5 -58.5t-11.5 -58.5t-31 -45.5t-46 -29.5t-56.5 -10.5t-56.5 10.5t-46 29.5t-30.5 45.5t-11 58.5zM109 459q0 -33 18.5 -51.5t47.5 -18.5t48.5 18.5t19.5 51.5q0 34 -19.5 52.5t-48.5 18.5
t-47.5 -18.5t-18.5 -52.5zM663 134q0 -32 -11.5 -58t-31 -45.5t-46 -30t-56.5 -10.5t-56 10.5t-45.5 30t-31 45.5t-11.5 58t11.5 59t31 46t45.5 29.5t56 10.5t56.5 -10.5t46 -29.5t31 -46t11.5 -59zM206 0h-75l357 594h75zM586 134q0 35 -19.5 53t-48.5 18t-47.5 -18
t-18.5 -53q0 -33 18.5 -51t47.5 -18t48.5 18t19.5 51zM981 134q0 -32 -11.5 -58t-31 -45.5t-46 -30t-56.5 -10.5t-56.5 10.5t-46 30t-30.5 45.5t-11 58t11 59t30.5 46t46 29.5t56.5 10.5t56.5 -10.5t46 -29.5t31 -46t11.5 -59zM904 134q0 35 -19.5 53t-48.5 18t-48 -18
t-19 -53q0 -33 19 -51t48 -18t48.5 18t19.5 51z" />
    <glyph glyph-name="Acircumflex" unicode="&#xc2;" horiz-adv-x="599" 
d="M430 140h-265l-52 -140h-108l231 594h125l232 -594h-111zM196 224h203l-101 274zM445 640h-85l-62 76l-62 -76h-85l116 143h62z" />
    <glyph glyph-name="Ecircumflex" unicode="&#xca;" horiz-adv-x="490" 
d="M443 90v-90h-369v594h363v-90h-262v-160h243v-88h-243v-166h268zM411 640h-85l-62 76l-62 -76h-85l116 143h62z" />
    <glyph glyph-name="Aacute" unicode="&#xc1;" horiz-adv-x="599" 
d="M430 140h-265l-52 -140h-108l231 594h125l232 -594h-111zM196 224h203l-101 274zM257 644l79 141h91l-79 -141h-91z" />
    <glyph glyph-name="Edieresis" unicode="&#xcb;" horiz-adv-x="490" 
d="M177 635q-25 0 -42.5 17.5t-17.5 42.5t17.5 42.5t42.5 17.5t42.5 -17.5t17.5 -42.5t-17.5 -42.5t-42.5 -17.5zM349 635q-25 0 -42.5 17.5t-17.5 42.5t17.5 42.5t42.5 17.5t42.5 -17.5t17.5 -42.5t-17.5 -42.5t-42.5 -17.5zM443 90v-90h-369v594h363v-90h-262v-160h243
v-88h-243v-166h268z" />
    <glyph glyph-name="Egrave" unicode="&#xc8;" horiz-adv-x="490" 
d="M220 642l-79 141h91l79 -141h-91zM443 90v-90h-369v594h363v-90h-262v-160h243v-88h-243v-166h268z" />
    <glyph glyph-name="Iacute" unicode="&#xcd;" horiz-adv-x="250" 
d="M176 0h-102v594h102v-594zM73 644l79 141h91l-79 -141h-91z" />
    <glyph glyph-name="Icircumflex" unicode="&#xce;" horiz-adv-x="250" 
d="M176 0h-102v594h102v-594zM272 640h-85l-62 76l-62 -76h-85l116 143h62z" />
    <glyph glyph-name="Idieresis" unicode="&#xcf;" horiz-adv-x="250" 
d="M176 0h-102v594h102v-594zM39 635q-25 0 -42.5 17.5t-17.5 42.5t17.5 42.5t42.5 17.5t42.5 -17.5t17.5 -42.5t-17.5 -42.5t-42.5 -17.5zM211 635q-25 0 -42.5 17.5t-17.5 42.5t17.5 42.5t42.5 17.5t42.5 -17.5t17.5 -42.5t-17.5 -42.5t-42.5 -17.5z" />
    <glyph glyph-name="Igrave" unicode="&#xcc;" horiz-adv-x="250" 
d="M176 0h-102v594h102v-594zM83 644l-79 141h91l79 -141h-91z" />
    <glyph glyph-name="Oacute" unicode="&#xd3;" horiz-adv-x="694" 
d="M295 644l79 141h91l-79 -141h-91zM39 297q0 68 24 124.5t65.5 97t97.5 63t121 22.5q64 0 120 -22.5t98 -63t66 -97t24 -124.5t-24 -124.5t-66 -97t-98 -63t-120 -22.5q-65 0 -121 22.5t-97.5 63t-65.5 97t-24 124.5zM550 297q0 49 -15.5 88.5t-43 67.5t-64.5 43.5
t-80 15.5t-80 -15.5t-64.5 -43.5t-43 -67.5t-15.5 -88.5t15.5 -88.5t43 -67.5t64.5 -43.5t80 -15.5t80 15.5t64.5 43.5t43 67.5t15.5 88.5z" />
    <glyph glyph-name="Ocircumflex" unicode="&#xd4;" horiz-adv-x="694" 
d="M39 297q0 68 24 124.5t65.5 97t97.5 63t121 22.5q64 0 120 -22.5t98 -63t66 -97t24 -124.5t-24 -124.5t-66 -97t-98 -63t-120 -22.5q-65 0 -121 22.5t-97.5 63t-65.5 97t-24 124.5zM550 297q0 49 -15.5 88.5t-43 67.5t-64.5 43.5t-80 15.5t-80 -15.5t-64.5 -43.5
t-43 -67.5t-15.5 -88.5t15.5 -88.5t43 -67.5t64.5 -43.5t80 -15.5t80 15.5t64.5 43.5t43 67.5t15.5 88.5zM494 640h-85l-62 76l-62 -76h-85l116 143h62z" />
    <glyph glyph-name="Ograve" unicode="&#xd2;" horiz-adv-x="694" 
d="M305 644l-79 141h91l79 -141h-91zM39 297q0 68 24 124.5t65.5 97t97.5 63t121 22.5q64 0 120 -22.5t98 -63t66 -97t24 -124.5t-24 -124.5t-66 -97t-98 -63t-120 -22.5q-65 0 -121 22.5t-97.5 63t-65.5 97t-24 124.5zM550 297q0 49 -15.5 88.5t-43 67.5t-64.5 43.5
t-80 15.5t-80 -15.5t-64.5 -43.5t-43 -67.5t-15.5 -88.5t15.5 -88.5t43 -67.5t64.5 -43.5t80 -15.5t80 15.5t64.5 43.5t43 67.5t15.5 88.5z" />
    <glyph glyph-name="Uacute" unicode="&#xda;" horiz-adv-x="606" 
d="M245 644l79 141h91l-79 -141h-91zM63 594h102v-373q0 -43 10.5 -70.5t30 -44t47 -23t60.5 -6.5q35 0 63 2.5t54 7.5v507h102v-577q-21 -6 -47.5 -10.5t-56 -8.5t-59 -6t-56.5 -2q-51 0 -96 10t-79.5 34.5t-54.5 65.5t-20 103v391z" />
    <glyph glyph-name="Ucircumflex" unicode="&#xdb;" horiz-adv-x="606" 
d="M63 594h102v-373q0 -43 10.5 -70.5t30 -44t47 -23t60.5 -6.5q35 0 63 2.5t54 7.5v507h102v-577q-21 -6 -47.5 -10.5t-56 -8.5t-59 -6t-56.5 -2q-51 0 -96 10t-79.5 34.5t-54.5 65.5t-20 103v391zM444 640h-85l-62 76l-62 -76h-85l116 143h62z" />
    <glyph glyph-name="Ugrave" unicode="&#xd9;" horiz-adv-x="606" 
d="M256 644l-79 141h91l79 -141h-91zM63 594h102v-373q0 -43 10.5 -70.5t30 -44t47 -23t60.5 -6.5q35 0 63 2.5t54 7.5v507h102v-577q-21 -6 -47.5 -10.5t-56 -8.5t-59 -6t-56.5 -2q-51 0 -96 10t-79.5 34.5t-54.5 65.5t-20 103v391z" />
    <glyph glyph-name="dotlessi" unicode="&#x131;" horiz-adv-x="235" 
d="M167 0h-99v443h99v-443z" />
    <glyph glyph-name="circumflex" unicode="&#x2c6;" horiz-adv-x="500" 
d="M397 510h-87l-60 79l-60 -79h-87l116 150h62z" />
    <glyph glyph-name="tilde" unicode="&#x2dc;" horiz-adv-x="500" 
d="M394 632q0 -58 -21.5 -91.5t-61.5 -33.5q-19 0 -34 8.5t-28.5 18.5t-25 18.5t-23.5 8.5q-29 0 -29 -51h-66q0 59 21.5 92t61.5 33q19 0 34.5 -8.5t29 -18.5t25 -18.5t23.5 -8.5q29 0 29 51h65z" />
    <glyph glyph-name="macron" unicode="&#xaf;" horiz-adv-x="500" 
d="M137 601h225v-74h-225v74z" />
    <glyph glyph-name="breve" unicode="&#x2d8;" horiz-adv-x="500" 
d="M250 508q-57 0 -90 36.5t-33 101.5h75q0 -30 11 -50t37 -20t37 20t11 50h75q0 -65 -33 -101.5t-90 -36.5z" />
    <glyph glyph-name="dotaccent" unicode="&#x2d9;" horiz-adv-x="500" 
d="M250 516q-26 0 -44 18t-18 44t18 43.5t44 17.5t44 -17.5t18 -43.5t-18 -44t-44 -18z" />
    <glyph glyph-name="ring" unicode="&#x2da;" horiz-adv-x="500" 
d="M156 584q0 38 26 64t68 26t67.5 -26t25.5 -64t-25.5 -64t-67.5 -26t-68 26t-26 64zM292 584q0 17 -11 29.5t-31 12.5q-21 0 -31.5 -12.5t-10.5 -29.5t10.5 -29.5t31.5 -12.5q20 0 31 12.5t11 29.5z" />
    <glyph glyph-name="cedilla" unicode="&#xb8;" horiz-adv-x="500" 
d="M318 16q0 -24 -5.5 -48t-15 -46t-22.5 -39.5t-28 -28.5h-89q37 34 57.5 76t20.5 86h82z" />
    <glyph glyph-name="hungarumlaut" unicode="&#x2dd;" horiz-adv-x="500" 
d="M99 513l85 152h84l-85 -152h-84zM231 513l85 152h84l-85 -152h-84z" />
    <glyph glyph-name="ogonek" unicode="&#x2db;" horiz-adv-x="500" 
d="M316 12q-34 -26 -52 -52.5t-18 -50.5q0 -29 32 -29q25 0 46 10v-69q-13 -6 -29 -8.5t-33 -2.5q-38 0 -65.5 19t-27.5 62q0 33 21 67t55 54h71z" />
    <glyph glyph-name="caron" unicode="&#x2c7;" horiz-adv-x="500" 
d="M281 505h-62l-116 149h88l59 -80l59 80h88z" />
    <glyph glyph-name="Eth" unicode="&#xd0;" horiz-adv-x="632" 
d="M31 343h55v250q33 5 75 8t83 3q89 0 154.5 -22t109 -61.5t64.5 -94t21 -119.5q0 -71 -22 -129.5t-65.5 -100t-108.5 -64t-151 -22.5q-45 0 -86 3t-74 8v255h-55v86zM188 343h122v-86h-122v-173q17 -2 33.5 -3t33.5 -1q51 0 94 13.5t73.5 41.5t47.5 71t17 101
q0 97 -60.5 150t-178.5 53q-30 0 -60 -3v-164z" />
    <glyph glyph-name="caron.cap" unicode="&#xe42d;" horiz-adv-x="500" 
d="M281 643h-62l-116 142h85l62 -76l62 76h85z" />
    <glyph glyph-name="dieresis.cap" unicode="&#xe429;" horiz-adv-x="500" 
d="M164 635q-25 0 -42.5 17.5t-17.5 42.5t17.5 42.5t42.5 17.5t42.5 -17.5t17.5 -42.5t-17.5 -42.5t-42.5 -17.5zM336 635q-25 0 -42.5 17.5t-17.5 42.5t17.5 42.5t42.5 17.5t42.5 -17.5t17.5 -42.5t-17.5 -42.5t-42.5 -17.5z" />
    <glyph glyph-name="currency" unicode="&#xa4;" horiz-adv-x="582" 
d="M129 189q-17 23 -26 52.5t-9 63.5q0 67 36 117l-73 73l45 44l73 -73q50 36 116 36t116 -36l73 72l44 -44l-72 -73q17 -23 26.5 -52.5t9.5 -63.5q0 -35 -9.5 -64t-26.5 -53l73 -72l-45 -44l-73 72q-50 -36 -116 -36q-33 0 -62.5 9.5t-54.5 26.5l-73 -73l-44 44zM180 305
q0 -51 31.5 -84t79.5 -33t79.5 33t31.5 84t-31.5 84t-79.5 33t-79.5 -33t-31.5 -84z" />
    <glyph glyph-name="uni2084" unicode="&#x2084;" horiz-adv-x="324" 
d="M255 140h53v-61h-53v-79h-77v79h-163v61l161 206h79v-206zM84 140h94v121z" />
    <glyph glyph-name="uni2082" unicode="&#x2082;" horiz-adv-x="267" 
d="M249 70v-70h-239v60q29 23 55.5 45.5t46.5 44.5t32 42.5t12 40.5q0 23 -12.5 34.5t-35.5 11.5q-26 0 -49.5 -13t-40.5 -27v75q20 18 48.5 28t60.5 10q50 0 81.5 -26.5t31.5 -77.5t-36 -94.5t-90 -83.5h135z" />
    <glyph glyph-name="grave.cap" unicode="&#xe421;" horiz-adv-x="500" 
d="M244 644l-79 141h91l79 -141h-91z" />
    <glyph glyph-name="acute.cap" unicode="&#xe422;" horiz-adv-x="500" 
d="M165 644l79 141h91l-79 -141h-91z" />
    <glyph glyph-name="circumflex.cap" unicode="&#xe423;" horiz-adv-x="500" 
d="M397 640h-85l-62 76l-62 -76h-85l116 143h62z" />
    <glyph glyph-name="tilde.cap" unicode="&#xe424;" horiz-adv-x="500" 
d="M394 763q0 -58 -21.5 -91.5t-61.5 -33.5q-19 0 -34 8.5t-28.5 18.5t-25 18.5t-23.5 8.5q-29 0 -29 -51h-66q0 58 21.5 91.5t61.5 33.5q19 0 34.5 -8.5t29 -18.5t25 -18.5t23.5 -8.5q29 0 29 51h65z" />
    <glyph glyph-name="ring.cap" unicode="&#xe42a;" horiz-adv-x="500" 
d="M156 719q0 38 26 64t68 26t67.5 -26t25.5 -64t-25.5 -64.5t-67.5 -26.5t-68 26.5t-26 64.5zM292 719q0 17 -11 29t-31 12q-21 0 -31.5 -12t-10.5 -29t10.5 -29.5t31.5 -12.5q20 0 31 12.5t11 29.5z" />
    <glyph glyph-name="zero.op" unicode="&#xe048;" horiz-adv-x="549" 
d="M36 229q0 53 18.5 97t51 75.5t75.5 48.5t93 17q49 0 93 -17t76 -48.5t51 -75.5t19 -97t-19 -97t-51 -75.5t-76 -49t-93 -17.5q-50 0 -93 17.5t-75.5 49t-51 75.5t-18.5 97zM134 229q0 -35 11 -62.5t30 -47t44.5 -30t54.5 -10.5t55 10.5t45 30t30 47t11 62.5
q0 34 -11 61.5t-30 47t-45 30t-55 10.5t-54.5 -10.5t-44.5 -30t-30 -47t-11 -61.5z" />
    <glyph glyph-name="one.op" unicode="&#xe02f;" horiz-adv-x="319" 
d="M22 430l217 37v-467h-101v355l-116 -16v91z" />
    <glyph glyph-name="two.op" unicode="&#xe045;" horiz-adv-x="427" 
d="M398 88v-88h-365v81q46 33 88.5 61.5t74.5 55.5t51 54.5t19 57.5q0 35 -21 50.5t-55 15.5q-48 0 -86 -23t-66 -49v99q24 24 67 44t100 20q34 0 64.5 -8.5t53 -26.5t35.5 -45t13 -63q0 -38 -16 -71.5t-43 -62.5t-63 -54.5t-77 -47.5h226z" />
    <glyph glyph-name="three.op" unicode="&#xe042;" horiz-adv-x="411" 
d="M249 165q58 -12 94 -49.5t36 -97.5q0 -39 -15.5 -69.5t-43 -52t-65 -32.5t-81.5 -11q-48 0 -88 12t-66 31v95q29 -23 65 -38.5t83 -15.5q48 0 78.5 22t30.5 64q0 48 -34.5 70t-112.5 30v76q134 18 134 106q0 35 -24 54t-59 19q-23 0 -44.5 -6.5t-40.5 -16.5t-36 -23
t-31 -26v99q30 28 73 45t91 17q85 0 129.5 -42.5t44.5 -109.5q0 -57 -33 -96.5t-85 -53.5z" />
    <glyph glyph-name="four.op" unicode="&#xe013;" horiz-adv-x="526" 
d="M405 98h97v-81h-97v-152h-98v152h-286v83l280 359h104v-361zM120 98h187v247z" />
    <glyph glyph-name="five.op" unicode="&#xe010;" horiz-adv-x="402" 
d="M149 239q48 -6 89 -19.5t72 -37t48.5 -59t17.5 -84.5q0 -41 -14 -75t-41.5 -59t-68 -38.5t-92.5 -13.5q-41 0 -79 11t-64 30v92q29 -20 64.5 -34.5t74.5 -14.5q59 0 91 25t32 74q0 34 -18 57t-48.5 38t-71.5 22.5t-86 12.5l21 291h286v-90h-204z" />
    <glyph glyph-name="six.op" unicode="&#xe03e;" horiz-adv-x="494" 
d="M338 594l-106 -169l-46 -68q30 30 80 30q37 0 71.5 -12.5t61.5 -37.5t43 -61t16 -84q0 -42 -14.5 -78.5t-42.5 -64t-67.5 -43.5t-89.5 -16q-49 0 -87 16t-64.5 43.5t-40.5 64t-14 78.5q0 58 22.5 109.5t48.5 94.5l123 198h106zM134 190q0 -54 32.5 -85t79.5 -31
q49 0 81.5 31t32.5 85t-32.5 85t-80.5 31t-80.5 -31t-32.5 -85z" />
    <glyph glyph-name="seven.op" unicode="&#xe03b;" horiz-adv-x="432" 
d="M11 367v90h383v-91l-242 -503h-105l240 504h-276z" />
    <glyph glyph-name="eight.op" unicode="&#xe00a;" horiz-adv-x="478" 
d="M239 355q35 0 59 22t24 61q0 40 -24 62t-59 22t-59.5 -22t-24.5 -62q0 -39 24.5 -61t59.5 -22zM239 72q43 0 73 24t30 70t-30 72t-73 26q-44 0 -73.5 -26t-29.5 -72t29.5 -70t73.5 -24zM239 -10q-42 0 -79.5 11.5t-65 33.5t-43.5 54t-16 73q0 30 10 54t26.5 43t37.5 31
t42 18q-37 14 -62.5 48.5t-25.5 85.5q0 39 14 69t38 51t56 31.5t68 10.5t68 -10.5t55.5 -31.5t37.5 -51t14 -69q0 -51 -25 -85.5t-62 -48.5q21 -6 41.5 -18t37 -31t26.5 -43t10 -54q0 -41 -16 -73t-43.5 -54t-64.5 -33.5t-79 -11.5z" />
    <glyph glyph-name="nine.op" unicode="&#xe029;" horiz-adv-x="494" 
d="M157 -137l106 169l46 68q-30 -30 -80 -30q-37 0 -71.5 12.5t-61.5 37.5t-43 61t-16 84q0 42 14.5 78.5t42.5 64t67.5 43.5t89.5 16q49 0 87 -16t64.5 -43.5t40.5 -64t14 -78.5q0 -58 -22.5 -109.5t-48.5 -94.5l-123 -198h-106zM361 267q0 54 -32.5 85t-79.5 31
q-49 0 -81.5 -31t-32.5 -85t32.5 -85t80.5 -31t80.5 31t32.5 85z" />
    <glyph glyph-name="commaturn" unicode="&#xe005;" horiz-adv-x="500" 
d="M179 513q0 51 26 95t65 66h67q-34 -35 -48.5 -77t-14.5 -84h-95z" />
    <glyph glyph-name="registered.cap" unicode="&#xe038;" horiz-adv-x="698" 
d="M45 297q0 65 22.5 121t63 97.5t96.5 65t122 23.5t121.5 -23.5t96 -65t63.5 -97.5t23 -121t-23 -121t-63.5 -97.5t-96 -65t-121.5 -23.5t-122 23.5t-96.5 65t-63 97.5t-22.5 121zM85 297q0 -59 19.5 -108.5t55 -85.5t84 -56t105.5 -20t105.5 20t84 56t55 85.5t19.5 108.5
t-19.5 108.5t-55 85.5t-84 56t-105.5 20t-105.5 -20t-84 -56t-55 -85.5t-19.5 -108.5zM308 124h-80v346q22 5 51 8t56 3q70 0 110 -31t40 -92q0 -38 -18.5 -64.5t-46.5 -37.5l98 -132h-95l-82 114h-33v-114zM308 300h28q31 0 49.5 13t18.5 42q0 55 -68 55q-8 0 -15.5 -0.5
t-12.5 -1.5v-108z" />
    <glyph glyph-name="plus.op" unicode="&#xe033;" horiz-adv-x="459" 
d="M40 271h151v151h77v-151h151v-77h-151v-151h-77v151h-151v77z" />
    <glyph glyph-name="minus.op" unicode="&#xe023;" horiz-adv-x="459" 
d="M40 271h379v-77h-379v77z" />
    <glyph glyph-name="multiply.op" unicode="&#xe026;" horiz-adv-x="395" 
d="M35 340l53 53l109 -110l110 110l53 -53l-110 -110l110 -109l-53 -53l-110 110l-109 -110l-53 53l110 109z" />
    <glyph glyph-name="divide.op" unicode="&#xe007;" horiz-adv-x="459" 
d="M40 271h379v-77h-379v77zM171 80q0 24 17 41t41 17t41.5 -17t17.5 -41t-17.5 -41.5t-41.5 -17.5t-41 17.5t-17 41.5zM171 386q0 24 17 41t41 17t41.5 -17t17.5 -41t-17.5 -41.5t-41.5 -17.5t-41 17.5t-17 41.5z" />
    <glyph glyph-name="equal.op" unicode="&#xe00d;" horiz-adv-x="469" 
d="M45 200h379v-72h-379v72zM45 339h379v-72h-379v72z" />
    <glyph glyph-name="less.op" unicode="&#xe01d;" horiz-adv-x="343" 
d="M25 235l278 173v-89l-150 -88l150 -88v-89l-278 173v8z" />
    <glyph glyph-name="greater.op" unicode="&#xe016;" horiz-adv-x="343" 
d="M318 227l-278 -173v89l150 88l-150 88v89l278 -173v-8z" />
    <glyph glyph-name="idotaccent" unicode="&#xe01b;" horiz-adv-x="235" 
d="M167 0h-99v443h99v-443zM118 516q-26 0 -44 18t-18 44t18 43.5t44 17.5t44 -17.5t18 -43.5t-18 -44t-44 -18z" />
    <glyph glyph-name="zero_slash.op" unicode="&#xe04b;" horiz-adv-x="549" 
d="M336 365q-14 6 -29.5 10t-32.5 4q-29 0 -54.5 -10.5t-44.5 -30t-30 -47.5t-11 -62t10.5 -61t28.5 -46zM274 78q29 0 55 10.5t45 30.5t30 47.5t11 62.5q0 33 -10.5 59.5t-28.5 46.5l-164 -243q30 -14 62 -14zM274 -10q-50 0 -93 17.5t-75.5 49t-51 75.5t-18.5 97t18.5 97
t51 75.5t75.5 48.5t93 17q49 0 93 -17t76 -48.5t51 -75.5t19 -97t-19 -97t-51 -75.5t-76 -49t-93 -17.5z" />
    <glyph glyph-name="zero_slash.lt" unicode="&#xe04a;" 
d="M309 503q-23 14 -49 14q-57 0 -92 -58.5t-35 -161.5q0 -109 40 -166zM260 77q57 0 92 58.5t35 161.5q0 53 -10.5 95t-29.5 71l-136 -373q20 -13 49 -13zM260 -10q-52 0 -94 23t-72 63.5t-46 97t-16 123.5t16 123.5t46 97t72 63.5t94 23t94 -23t72 -63.5t46 -97t16 -123.5
t-16 -123.5t-46 -97t-72 -63.5t-94 -23z" />
    <glyph glyph-name="zero.lt" unicode="&#xe047;" 
d="M134 297q0 -103 34.5 -161.5t91.5 -58.5t91.5 58.5t34.5 161.5t-34.5 161.5t-91.5 58.5t-91.5 -58.5t-34.5 -161.5zM32 297q0 67 16 123.5t46 97t72 63.5t94 23t94 -23t72 -63.5t46 -97t16 -123.5t-16 -123.5t-46 -97t-72 -63.5t-94 -23t-94 23t-72 63.5t-46 97
t-16 123.5z" />
    <glyph glyph-name="one.lt" unicode="&#xe02e;" 
d="M84 559l262 44v-603h-101v491l-161 -23v91z" />
    <glyph glyph-name="two.lt" unicode="&#xe044;" 
d="M446 90v-90h-393v75q53 46 102.5 90t87 86.5t60 83.5t22.5 82q0 48 -26.5 70.5t-70.5 22.5q-48 0 -88.5 -22.5t-69.5 -50.5v101q31 29 76.5 47.5t102.5 18.5q38 0 71.5 -10.5t58 -32.5t38.5 -54.5t14 -76.5q0 -46 -20.5 -91.5t-54.5 -88.5t-78.5 -83.5t-92.5 -76.5h261z
" />
    <glyph glyph-name="three.lt" unicode="&#xe041;" 
d="M308 302q57 -12 93.5 -49.5t36.5 -97.5q0 -39 -15.5 -69.5t-43 -52t-65.5 -32.5t-82 -11q-48 0 -87.5 12t-65.5 31v95q29 -23 64.5 -38.5t82.5 -15.5q49 0 79 22t30 64q0 48 -34 70t-112 30v76q133 18 133 106q0 35 -23.5 54t-58.5 19q-23 0 -44.5 -6.5t-40.5 -16.5
t-36 -23t-31 -26v99q30 28 73 45t91 17q84 0 129 -42.5t45 -109.5q0 -57 -33.5 -96.5t-84.5 -53.5z" />
    <glyph glyph-name="four.lt" unicode="&#xe012;" 
d="M402 233h88v-81h-88v-152h-98v152h-279v83l273 359h104v-361zM121 233h183v247z" />
    <glyph glyph-name="five.lt" unicode="&#xe00f;" 
d="M205 376q48 -6 89.5 -19.5t72.5 -37t48.5 -59t17.5 -84.5q0 -41 -14.5 -75t-42 -59t-68 -38.5t-92.5 -13.5q-41 0 -79 11t-64 30v92q29 -20 64.5 -34.5t74.5 -14.5q59 0 91 25t32 74q0 34 -18 57t-48.5 38t-71 22.5t-85.5 12.5l20 291h286v-90h-204z" />
    <glyph glyph-name="six.lt" unicode="&#xe03d;" 
d="M349 594l-107 -169l-46 -68q30 30 81 30q37 0 71.5 -12.5t61 -37.5t42.5 -61t16 -84q0 -42 -14.5 -78.5t-42.5 -64t-67.5 -43.5t-89.5 -16q-49 0 -87 16t-64.5 43.5t-40.5 64t-14 78.5q0 58 22.5 109.5t48.5 94.5l123 198h107zM144 190q0 -54 32.5 -85t79.5 -31
q49 0 81.5 31t32.5 85t-32.5 85t-80.5 31t-80.5 -31t-32.5 -85z" />
    <glyph glyph-name="seven.lt" unicode="&#xe03a;" 
d="M56 504v90h407v-91l-256 -503h-104l256 504h-303z" />
    <glyph glyph-name="eight.lt" unicode="&#xe009;" 
d="M260 355q35 0 59.5 22t24.5 61q0 40 -24.5 62t-59.5 22t-59.5 -22t-24.5 -62q0 -39 24.5 -61t59.5 -22zM260 72q44 0 73.5 24t29.5 70t-29.5 72t-73.5 26t-73.5 -26t-29.5 -72t29.5 -70t73.5 -24zM260 -10q-42 0 -79.5 11.5t-65 33.5t-43.5 54t-16 73q0 30 10 54t26.5 43
t37.5 31t42 18q-37 14 -62.5 48.5t-25.5 85.5q0 39 14 69t38 51t56 31.5t68 10.5t68 -10.5t55.5 -31.5t37.5 -51t14 -69q0 -51 -25 -85.5t-62 -48.5q21 -6 41.5 -18t37 -31t27 -43t10.5 -54q0 -41 -16 -73t-43.5 -54t-65 -33.5t-79.5 -11.5z" />
    <glyph glyph-name="nine.lt" unicode="&#xe028;" 
d="M169 0l107 169l46 68q-30 -30 -81 -30q-37 0 -71.5 12.5t-61 37.5t-42.5 61t-16 84q0 42 14.5 78.5t42.5 64t67.5 43.5t89.5 16q49 0 87 -16t64.5 -43.5t40.5 -64t14 -78.5q0 -58 -22.5 -109.5t-48.5 -94.5l-123 -198h-107zM374 404q0 54 -32.5 85t-79.5 31
q-49 0 -81.5 -31t-32.5 -85t32.5 -85t80.5 -31t80.5 31t32.5 85z" />
    <glyph glyph-name="zero_slash.ot" unicode="&#xe04c;" 
d="M320 363q-27 15 -60 15q-29 0 -52.5 -11t-40.5 -30.5t-26.5 -47t-9.5 -61.5q0 -62 31 -102zM260 79q57 0 93 41t36 108q0 32 -8.5 57.5t-22.5 44.5l-159 -236q27 -15 61 -15zM260 -10q-49 0 -90.5 18t-72 49.5t-47.5 75.5t-17 96q0 53 17 97t47.5 75.5t72 48.5t90.5 17
t90.5 -17.5t72 -49t47.5 -75.5t17 -96t-17 -96t-47.5 -75.5t-72 -49.5t-90.5 -18z" />
    <glyph glyph-name="zero.ot" unicode="&#xe049;" 
d="M33 229q0 53 17 97t47.5 75.5t72 48.5t90.5 17t90.5 -17.5t72 -49t47.5 -75.5t17 -96t-17 -96t-47.5 -75.5t-72 -49.5t-90.5 -18t-90.5 18t-72 49.5t-47.5 75.5t-17 96zM131 228q0 -67 36 -108t93 -41t93 41t36 108q0 34 -9.5 61.5t-26.5 47t-41 30.5t-52 11
q-29 0 -52.5 -11t-40.5 -30.5t-26.5 -47t-9.5 -61.5z" />
    <glyph glyph-name="one.ot" unicode="&#xe030;" 
d="M101 426l252 41v-467h-101v355l-151 -22v93z" />
    <glyph glyph-name="two.ot" unicode="&#xe046;" 
d="M440 88v-88h-365v81q46 33 88.5 61.5t74.5 55.5t51 54.5t19 57.5q0 35 -21 50.5t-56 15.5q-23 0 -44.5 -6.5t-40.5 -16.5t-36 -23t-30 -26v99q24 24 67 44t100 20q34 0 64.5 -8.5t53 -26.5t35.5 -45t13 -63q0 -38 -16 -71.5t-43 -62.5t-63 -54.5t-77 -47.5h226z" />
    <glyph glyph-name="three.ot" unicode="&#xe043;" 
d="M300 165q57 -12 93.5 -49t36.5 -97q0 -39 -15.5 -70t-43 -52.5t-65.5 -32.5t-82 -11q-48 0 -87.5 12t-65.5 31v95q29 -23 64.5 -38.5t82.5 -15.5q49 0 79 22.5t30 64.5q0 47 -34.5 69t-111.5 30v76q133 18 133 106q0 36 -23.5 55t-58.5 19q-46 0 -85 -23t-67 -50v99
q30 29 73 45.5t91 16.5q84 0 129 -42t45 -110q0 -57 -33.5 -96.5t-84.5 -53.5z" />
    <glyph glyph-name="four.ot" unicode="&#xe014;" 
d="M402 97h88v-81h-88v-151h-97v151h-280v83l273 360h104v-362zM122 97h183v248z" />
    <glyph glyph-name="five.ot" unicode="&#xe011;" 
d="M206 239q48 -6 89 -19.5t72 -37t48.5 -59t17.5 -84.5q0 -41 -14 -75t-41.5 -59t-68 -38.5t-92.5 -13.5q-41 0 -79 11.5t-64 29.5v92q29 -20 64.5 -34.5t74.5 -14.5q59 0 91 25.5t32 74.5q0 34 -18 57t-48.5 37.5t-71.5 22.5t-86 12l21 291h286v-90h-204z" />
    <glyph glyph-name="six.ot" unicode="&#xe03f;" 
d="M350 594l-107 -169l-46 -68q15 15 36 22.5t45 7.5q37 0 71.5 -12.5t61.5 -37.5t43 -61t16 -84q0 -42 -14.5 -78.5t-42.5 -64t-67.5 -43.5t-89.5 -16q-49 0 -87.5 16t-65 43.5t-40.5 64t-14 78.5q0 58 23 109.5t49 94.5l123 198h106zM146 190q0 -54 32 -85t80 -31t81 31
t33 85t-32.5 85t-81.5 31q-48 0 -80 -31t-32 -85z" />
    <glyph glyph-name="seven.ot" unicode="&#xe03c;" 
d="M52 367v90h404v-90l-256 -504h-104l256 504h-300z" />
    <glyph glyph-name="eight.ot" unicode="&#xe00b;" 
d="M260 355q35 0 59.5 22t24.5 61q0 40 -24.5 62t-59.5 22t-59.5 -22t-24.5 -62q0 -39 24.5 -61t59.5 -22zM260 72q44 0 73.5 24t29.5 70t-29.5 72t-73.5 26t-73.5 -26t-29.5 -72t29.5 -70t73.5 -24zM260 -10q-42 0 -79.5 11.5t-65 33.5t-43.5 54t-16 73q0 30 10 54t26.5 43
t37.5 31t42 18q-37 14 -62.5 48.5t-25.5 85.5q0 39 14 69t38 51t56 31.5t68 10.5t68 -10.5t55.5 -31.5t37.5 -51t14 -69q0 -51 -25 -85.5t-62 -48.5q21 -6 41.5 -18t37 -31t27 -43t10.5 -54q0 -41 -16 -73t-43.5 -54t-65 -33.5t-79.5 -11.5z" />
    <glyph glyph-name="nine.ot" unicode="&#xe02a;" 
d="M169 -137l107 170l46 68q-15 -16 -36 -23.5t-45 -7.5q-37 0 -71.5 12.5t-61.5 37.5t-43 61.5t-16 83.5q0 42 14.5 79t42.5 64t67.5 43t89.5 16q49 0 87.5 -16t65 -43t40.5 -64t14 -79q0 -29 -6.5 -56t-16.5 -53t-23 -49.5t-26 -44.5l-123 -199h-106zM373 267q0 55 -32 86
t-80 31t-81 -31t-33 -86q0 -54 32.5 -85t81.5 -31q48 0 80 31t32 85z" />
    <glyph glyph-name="period.tab" unicode="&#xe031;" horiz-adv-x="260" 
d="M61 60q0 29 19.5 49t48.5 20t49 -20t20 -49t-20 -49t-49 -20t-48.5 20t-19.5 49z" />
    <glyph glyph-name="colon.tab" unicode="&#xe003;" horiz-adv-x="260" 
d="M61 60q0 29 19.5 49t48.5 20t49 -20t20 -49t-20 -49t-49 -20t-48.5 20t-19.5 49zM61 359q0 29 19.5 49t48.5 20t49 -20t20 -49q0 -28 -20 -48t-49 -20t-48.5 20t-19.5 48z" />
    <glyph glyph-name="comma.tab" unicode="&#xe004;" horiz-adv-x="260" 
d="M180 101q0 -37 -8 -70.5t-22 -61.5t-32 -50.5t-39 -36.5h-73q36 46 53 101t17 118h104z" />
    <glyph glyph-name="semicolon.tab" unicode="&#xe039;" horiz-adv-x="260" 
d="M180 101q0 -37 -8 -70.5t-22 -61.5t-32 -50.5t-39 -36.5h-73q36 46 53 101t17 118h104zM61 359q0 29 19.5 49t48.5 20t49 -20t20 -49q0 -28 -20 -48t-49 -20t-48.5 20t-19.5 48z" />
    <glyph glyph-name="space.tab" unicode="&#xe040;" horiz-adv-x="260" 
 />
    <glyph glyph-name="plusminus.op" unicode="&#xe036;" horiz-adv-x="459" 
d="M45 338h146v111h77v-111h146v-76h-146v-112h-77v112h-146v76zM45 109h369v-77h-369v77z" />
    <glyph glyph-name="lessequal.op" unicode="&#xe020;" horiz-adv-x="343" 
d="M25 285l278 153v-88l-137 -69l137 -70v-88l-278 154v8zM25 96h278v-77h-278v77z" />
    <glyph glyph-name="greaterequal.op" unicode="&#xe019;" horiz-adv-x="343" 
d="M318 277l-278 -154v88l137 70l-137 69v88l278 -153v-8zM318 19h-278v77h278v-77z" />
    <glyph glyph-name="notequal.op" unicode="&#xe02c;" horiz-adv-x="469" 
d="M45 204h130l47 69h-177v69h224l59 87h71l-59 -87h84v-69h-131l-47 -69h178v-70h-225l-58 -86h-71l58 86h-83v70z" />
    <glyph glyph-name="approxequal.op" unicode="&#xe001;" horiz-adv-x="469" 
d="M45 318q28 18 53.5 26t48.5 8q24 0 45 -5t41.5 -11.5t41.5 -11.5t45 -5q23 0 49 7.5t55 26.5v-74q-29 -19 -55 -26.5t-49 -7.5q-24 0 -45 5t-41.5 11.5t-41.5 11.5t-45 5q-23 0 -48.5 -8t-53.5 -26v74zM45 189q28 18 53.5 26t48.5 8q24 0 45 -5t41.5 -11.5t41.5 -11.5
t45 -5q23 0 49 7.5t55 26.5v-74q-29 -19 -55 -26.5t-49 -7.5q-24 0 -45 5t-41.5 11.5t-41.5 11.5t-45 5q-23 0 -48.5 -8t-53.5 -26v74z" />
    <glyph glyph-name="plus.lt" unicode="&#xe032;" 
d="M70 331h151v151h77v-151h151v-77h-151v-151h-77v151h-151v77z" />
    <glyph glyph-name="minus.lt" unicode="&#xe022;" 
d="M70 331h379v-77h-379v77z" />
    <glyph glyph-name="multiply.lt" unicode="&#xe025;" 
d="M97 400l53 53l109 -110l110 110l53 -53l-110 -110l110 -109l-53 -53l-110 110l-109 -110l-53 53l110 109z" />
    <glyph glyph-name="divide.lt" unicode="&#xe006;" 
d="M70 331h379v-77h-379v77zM201 140q0 24 17 41t41 17t41.5 -17t17.5 -41t-17.5 -41.5t-41.5 -17.5t-41 17.5t-17 41.5zM201 446q0 24 17 41t41 17t41.5 -17t17.5 -41t-17.5 -41.5t-41.5 -17.5t-41 17.5t-17 41.5z" />
    <glyph glyph-name="equal.lt" unicode="&#xe00c;" 
d="M70 260h379v-72h-379v72zM70 399h379v-72h-379v72z" />
    <glyph glyph-name="less.lt" unicode="&#xe01c;" 
d="M120 295l279 173v-89l-151 -88l151 -88v-89l-279 173v8z" />
    <glyph glyph-name="greater.lt" unicode="&#xe015;" 
d="M399 287l-279 -173v89l151 88l-151 88v89l279 -173v-8z" />
    <glyph glyph-name="plusminus.lt" unicode="&#xe035;" 
d="M75 393h146v112h77v-112h146v-76h-146v-111h-77v111h-146v76zM75 164h369v-76h-369v76z" />
    <glyph glyph-name="lessequal.lt" unicode="&#xe01f;" 
d="M120 334l279 154v-88l-137 -70l137 -69v-88l-279 153v8zM120 145h279v-76h-279v76z" />
    <glyph glyph-name="greaterequal.lt" unicode="&#xe018;" 
d="M399 326l-279 -153v88l137 69l-137 70v88l279 -154v-8zM399 69h-279v76h279v-76z" />
    <glyph glyph-name="notequal.lt" unicode="&#xe02b;" 
d="M70 259h130l47 69h-177v70h225l58 86h71l-58 -86h83v-70h-131l-47 -69h178v-70h-225l-58 -86h-71l58 86h-83v70z" />
    <glyph glyph-name="approxequal.lt" unicode="&#xe000;" 
d="M70 379q28 18 53.5 26t48.5 8q24 0 45 -5t41.5 -11.5t41.5 -11.5t45 -5q23 0 49 7.5t55 26.5v-74q-29 -19 -55 -26.5t-49 -7.5q-24 0 -45 5t-41.5 11.5t-41.5 11.5t-45 5q-23 0 -48.5 -8t-53.5 -26v74zM70 250q28 18 53.5 26t48.5 8q24 0 45 -5t41.5 -11.5t41.5 -11.5
t45 -5q23 0 49 7.5t55 26.5v-74q-29 -19 -55 -26.5t-49 -7.5q-24 0 -45 5t-41.5 11.5t-41.5 11.5t-45 5q-23 0 -48.5 -8t-53.5 -26v74z" />
    <glyph glyph-name="plus.ot" unicode="&#xe034;" 
d="M70 271h151v151h77v-151h151v-77h-151v-151h-77v151h-151v77z" />
    <glyph glyph-name="minus.ot" unicode="&#xe024;" 
d="M70 271h379v-77h-379v77z" />
    <glyph glyph-name="multiply.ot" unicode="&#xe027;" 
d="M97 340l53 53l109 -110l110 110l53 -53l-110 -110l110 -109l-53 -53l-110 110l-109 -110l-53 53l110 109z" />
    <glyph glyph-name="divide.ot" unicode="&#xe008;" 
d="M70 271h379v-77h-379v77zM201 80q0 24 17 41t41 17t41.5 -17t17.5 -41t-17.5 -41.5t-41.5 -17.5t-41 17.5t-17 41.5zM201 386q0 24 17 41t41 17t41.5 -17t17.5 -41t-17.5 -41.5t-41.5 -17.5t-41 17.5t-17 41.5z" />
    <glyph glyph-name="equal.ot" unicode="&#xe00e;" 
d="M70 200h379v-72h-379v72zM70 339h379v-72h-379v72z" />
    <glyph glyph-name="less.ot" unicode="&#xe01e;" 
d="M120 235l279 173v-89l-151 -88l151 -88v-89l-279 173v8z" />
    <glyph glyph-name="greater.ot" unicode="&#xe017;" 
d="M399 227l-279 -173v89l151 88l-151 88v89l279 -173v-8z" />
    <glyph glyph-name="plusminus.ot" unicode="&#xe037;" 
d="M75 338h146v111h77v-111h146v-76h-146v-112h-77v112h-146v76zM75 109h369v-77h-369v77z" />
    <glyph glyph-name="lessequal.ot" unicode="&#xe021;" 
d="M120 285l279 153v-88l-137 -69l137 -70v-88l-279 154v8zM120 96h279v-77h-279v77z" />
    <glyph glyph-name="greaterequal.ot" unicode="&#xe01a;" 
d="M399 277l-279 -154v88l137 70l-137 69v88l279 -153v-8zM399 19h-279v77h279v-77z" />
    <glyph glyph-name="notequal.ot" unicode="&#xe02d;" 
d="M70 204h130l47 69h-177v69h224l59 87h71l-59 -87h84v-69h-131l-47 -69h178v-70h-225l-58 -86h-71l58 86h-83v70z" />
    <glyph glyph-name="approxequal.ot" unicode="&#xe002;" 
d="M70 318q28 18 53.5 26t48.5 8q24 0 45 -5t41.5 -11.5t41.5 -11.5t45 -5q23 0 49 7.5t55 26.5v-74q-29 -19 -55 -26.5t-49 -7.5q-24 0 -45 5t-41.5 11.5t-41.5 11.5t-45 5q-23 0 -48.5 -8t-53.5 -26v74zM70 189q28 18 53.5 26t48.5 8q24 0 45 -5t41.5 -11.5t41.5 -11.5
t45 -5q23 0 49 7.5t55 26.5v-74q-29 -19 -55 -26.5t-49 -7.5q-24 0 -45 5t-41.5 11.5t-41.5 11.5t-45 5q-23 0 -48.5 -8t-53.5 -26v74z" />
    <glyph glyph-name="Amacron" unicode="&#x100;" horiz-adv-x="599" 
d="M430 140h-265l-52 -140h-108l231 594h125l232 -594h-111zM196 224h203l-101 274zM187 725h225v-74h-225v74z" />
    <glyph glyph-name="macron.cap" unicode="&#xe425;" horiz-adv-x="500" 
d="M137 725h225v-74h-225v74z" />
    <glyph glyph-name="amacron" unicode="&#x101;" horiz-adv-x="449" 
d="M291 194h-42q-52 0 -83 -15.5t-31 -49.5q0 -35 28.5 -49.5t73.5 -14.5q11 0 25.5 1.5t28.5 3.5v124zM291 297q0 36 -24 53t-61 17q-38 0 -69 -10t-59 -26v86q29 17 65.5 26.5t78.5 9.5q36 0 66.5 -8t52.5 -26t34.5 -46.5t12.5 -70.5v-293q-32 -8 -73 -13t-79 -5
q-43 0 -79.5 7t-63 23t-41.5 41.5t-15 63.5q0 68 54 101t151 33h49v37zM109 601h225v-74h-225v74z" />
    <glyph glyph-name="Abreve" unicode="&#x102;" horiz-adv-x="599" 
d="M430 140h-265l-52 -140h-108l231 594h125l232 -594h-111zM196 224h203l-101 274zM299 643q-57 0 -90 34.5t-33 98.5h75q0 -30 11 -48t37 -18t37 18t11 48h75q0 -64 -33 -98.5t-90 -34.5z" />
    <glyph glyph-name="breve.cap" unicode="&#xe426;" horiz-adv-x="500" 
d="M250 643q-57 0 -90 34.5t-33 98.5h75q0 -30 11 -48t37 -18t37 18t11 48h75q0 -64 -33 -98.5t-90 -34.5z" />
    <glyph glyph-name="abreve" unicode="&#x103;" horiz-adv-x="449" 
d="M291 194h-42q-52 0 -83 -15.5t-31 -49.5q0 -35 28.5 -49.5t73.5 -14.5q11 0 25.5 1.5t28.5 3.5v124zM291 297q0 36 -24 53t-61 17q-38 0 -69 -10t-59 -26v86q29 17 65.5 26.5t78.5 9.5q36 0 66.5 -8t52.5 -26t34.5 -46.5t12.5 -70.5v-293q-32 -8 -73 -13t-79 -5
q-43 0 -79.5 7t-63 23t-41.5 41.5t-15 63.5q0 68 54 101t151 33h49v37zM226 508q-57 0 -90 36.5t-33 101.5h75q0 -30 11 -50t37 -20t37 20t11 50h75q0 -65 -33 -101.5t-90 -36.5z" />
    <glyph glyph-name="Aogonek" unicode="&#x104;" horiz-adv-x="599" 
d="M549 0q-28 -23 -43.5 -46.5t-15.5 -44.5q0 -29 32 -29q25 0 46 10v-69q-13 -6 -29 -8.5t-33 -2.5q-38 0 -66 19t-28 62q0 32 17.5 63t47.5 57l-47 129h-265l-52 -140h-108l231 594h125l232 -594h-44zM196 224h204l-102 274z" />
    <glyph glyph-name="aogonek" unicode="&#x105;" horiz-adv-x="449" 
d="M291 297q0 36 -24 53t-61 17q-38 0 -69 -10t-59 -26v86q29 17 65.5 26.5t78.5 9.5q36 0 66.5 -8t52.5 -26t34.5 -46.5t12.5 -70.5v-293q-37 -26 -56.5 -51t-19.5 -49q0 -29 31 -29q26 0 46 10v-69q-13 -6 -28.5 -8.5t-32.5 -2.5q-38 0 -66 19t-28 63q0 26 13.5 53.5
t39.5 48.5q-27 -3 -51 -3q-43 0 -79.5 7t-63 23t-41.5 41.5t-15 63.5q0 68 54 101t151 33h49v37zM291 194h-42q-52 0 -83 -15.5t-31 -49.5q0 -35 28.5 -49.5t73.5 -14.5q11 0 25.5 1.5t28.5 3.5v124z" />
    <glyph glyph-name="Cacute" unicode="&#x106;" horiz-adv-x="555" 
d="M509 450q-31 29 -72.5 45.5t-91.5 16.5q-44 0 -81 -15.5t-63.5 -43.5t-41.5 -68t-15 -88q0 -49 15.5 -89t43 -68t64.5 -43t81 -15q98 0 168 61v-109q-39 -23 -82 -33.5t-89 -10.5q-69 0 -125 22.5t-96.5 63t-62.5 97t-22 124.5t23 124.5t63.5 97t97 63t122.5 22.5
q94 0 164 -42v-112zM292 644l79 141h91l-79 -141h-91z" />
    <glyph glyph-name="cacute" unicode="&#x107;" horiz-adv-x="436" 
d="M210 513l85 152h91l-85 -152h-91zM394 324q-28 22 -57 31.5t-60 9.5q-30 0 -56 -9.5t-45 -27.5t-30 -45t-11 -62q0 -66 40.5 -105t105.5 -39q33 0 62 10t56 30v-94q-31 -17 -63.5 -25t-67.5 -8q-51 0 -93.5 16t-73.5 46t-48.5 73t-17.5 96q0 54 18 97t49.5 73t74 46
t91.5 16q37 0 67 -8t59 -25v-96z" />
    <glyph glyph-name="Ccircumflex" unicode="&#x108;" horiz-adv-x="555" 
d="M509 450q-31 29 -72.5 45.5t-91.5 16.5q-44 0 -81 -15.5t-63.5 -43.5t-41.5 -68t-15 -88q0 -49 15.5 -89t43 -68t64.5 -43t81 -15q98 0 168 61v-109q-39 -23 -82 -33.5t-89 -10.5q-69 0 -125 22.5t-96.5 63t-62.5 97t-22 124.5t23 124.5t63.5 97t97 63t122.5 22.5
q94 0 164 -42v-112zM484 640h-85l-62 76l-62 -76h-85l116 143h62z" />
    <glyph glyph-name="ccircumflex" unicode="&#x109;" horiz-adv-x="436" 
d="M401 510h-87l-60 79l-60 -79h-87l116 150h62zM394 324q-28 22 -57 31.5t-60 9.5q-30 0 -56 -9.5t-45 -27.5t-30 -45t-11 -62q0 -66 40.5 -105t105.5 -39q33 0 62 10t56 30v-94q-31 -17 -63.5 -25t-67.5 -8q-51 0 -93.5 16t-73.5 46t-48.5 73t-17.5 96q0 54 18 97t49.5 73
t74 46t91.5 16q37 0 67 -8t59 -25v-96z" />
    <glyph glyph-name="Cdotaccent" unicode="&#x10a;" horiz-adv-x="555" 
d="M337 638q-26 0 -44 18t-18 43q0 26 18 44t44 18t44 -18t18 -44q0 -25 -18 -43t-44 -18zM509 450q-31 29 -72.5 45.5t-91.5 16.5q-44 0 -81 -15.5t-63.5 -43.5t-41.5 -68t-15 -88q0 -49 15.5 -89t43 -68t64.5 -43t81 -15q98 0 168 61v-109q-39 -23 -82 -33.5t-89 -10.5
q-69 0 -125 22.5t-96.5 63t-62.5 97t-22 124.5t23 124.5t63.5 97t97 63t122.5 22.5q94 0 164 -42v-112z" />
    <glyph glyph-name="dotaccent.cap" unicode="&#xe428;" horiz-adv-x="500" 
d="M250 638q-26 0 -44 18t-18 43q0 26 18 44t44 18t44 -18t18 -44q0 -25 -18 -43t-44 -18z" />
    <glyph glyph-name="cdotaccent" unicode="&#x10b;" horiz-adv-x="436" 
d="M394 324q-28 22 -57 31.5t-60 9.5q-30 0 -56 -9.5t-45 -27.5t-30 -45t-11 -62q0 -66 40.5 -105t105.5 -39q33 0 62 10t56 30v-94q-31 -17 -63.5 -25t-67.5 -8q-51 0 -93.5 16t-73.5 46t-48.5 73t-17.5 96q0 54 18 97t49.5 73t74 46t91.5 16q37 0 67 -8t59 -25v-96z
M257 516q-26 0 -44 18t-18 44t18 43.5t44 17.5t44 -17.5t18 -43.5t-18 -44t-44 -18z" />
    <glyph glyph-name="Ccaron" unicode="&#x10c;" horiz-adv-x="555" 
d="M509 450q-31 29 -72.5 45.5t-91.5 16.5q-44 0 -81 -15.5t-63.5 -43.5t-41.5 -68t-15 -88q0 -49 15.5 -89t43 -68t64.5 -43t81 -15q98 0 168 61v-109q-39 -23 -82 -33.5t-89 -10.5q-69 0 -125 22.5t-96.5 63t-62.5 97t-22 124.5t23 124.5t63.5 97t97 63t122.5 22.5
q94 0 164 -42v-112zM368 643h-62l-116 142h85l62 -76l62 76h85z" />
    <glyph glyph-name="ccaron" unicode="&#x10d;" horiz-adv-x="436" 
d="M286 505h-62l-116 149h88l59 -80l59 80h88zM394 324q-28 22 -57 31.5t-60 9.5q-30 0 -56 -9.5t-45 -27.5t-30 -45t-11 -62q0 -66 40.5 -105t105.5 -39q33 0 62 10t56 30v-94q-31 -17 -63.5 -25t-67.5 -8q-51 0 -93.5 16t-73.5 46t-48.5 73t-17.5 96q0 54 18 97t49.5 73
t74 46t91.5 16q37 0 67 -8t59 -25v-96z" />
    <glyph glyph-name="Dcaron" unicode="&#x10e;" horiz-adv-x="620" 
d="M316 643h-62l-116 142h85l62 -76l62 76h85zM74 593q33 5 75 8t83 3q89 0 154.5 -22t109 -61.5t64.5 -94t21 -119.5q0 -71 -22 -129.5t-65.5 -100t-108.5 -64t-151 -22.5q-45 0 -86 3t-74 8v591zM176 84q17 -2 33.5 -3t33.5 -1q51 0 94 13.5t73.5 41.5t47.5 71t17 101
q0 97 -60.5 150t-178.5 53q-30 0 -60 -3v-423z" />
    <glyph glyph-name="dcaron" unicode="&#x10f;" horiz-adv-x="526" 
d="M622 680l-43 -157h-80l43 157h80zM458 9q-38 -10 -81.5 -14.5t-85.5 -4.5q-58 0 -105 15t-80.5 44.5t-52 72.5t-18.5 99q0 54 18 97t49.5 73t75 46t94.5 16q24 0 48 -4.5t40 -12.5v244h98v-671zM360 349q-31 17 -82 17q-63 0 -103 -37t-40 -106q0 -72 43 -110t115 -38
q15 0 32.5 1t34.5 3v270z" />
    <glyph glyph-name="caronSlovak" unicode="&#xe413;" horiz-adv-x="500" 
d="M311 680l-43 -157h-80l43 157h80z" />
    <glyph glyph-name="Dcroat" unicode="&#x110;" horiz-adv-x="632" 
d="M31 343h55v250q33 5 75 8t83 3q89 0 154.5 -22t109 -61.5t64.5 -94t21 -119.5q0 -71 -22 -129.5t-65.5 -100t-108.5 -64t-151 -22.5q-45 0 -86 3t-74 8v255h-55v86zM188 343h122v-86h-122v-173q17 -2 33.5 -3t33.5 -1q51 0 94 13.5t73.5 41.5t47.5 71t17 101
q0 97 -60.5 150t-178.5 53q-30 0 -60 -3v-164z" />
    <glyph glyph-name="dcroat" unicode="&#x111;" horiz-adv-x="534" 
d="M458 589h56v-70h-56v-510q-38 -10 -81.5 -14.5t-85.5 -4.5q-58 0 -105 15t-80.5 44.5t-52 72.5t-18.5 99q0 54 18 97t49.5 73t75 46t94.5 16q24 0 48 -4.5t40 -12.5v83h-119v70h119v91h98v-91zM360 349q-31 17 -82 17q-63 0 -103 -37t-40 -106q0 -72 43 -110t115 -38
q15 0 32.5 1t34.5 3v270z" />
    <glyph glyph-name="Emacron" unicode="&#x112;" horiz-adv-x="490" 
d="M150 725h225v-74h-225v74zM443 90v-90h-369v594h363v-90h-262v-160h243v-88h-243v-166h268z" />
    <glyph glyph-name="emacron" unicode="&#x113;" horiz-adv-x="477" 
d="M131 199v-2q2 -30 15 -52.5t33 -38t44.5 -23.5t50.5 -8q46 0 81 10.5t68 32.5v-87q-30 -21 -71.5 -31t-84.5 -10q-52 0 -94.5 16t-73 45.5t-47.5 71.5t-17 95t16.5 96.5t45 74t67.5 47.5t85 17q48 0 84 -15t59.5 -42t35 -64.5t11.5 -82.5v-50h-308zM246 370
q-43 0 -72.5 -28t-39.5 -79h212q-2 52 -27 79.5t-73 27.5zM133 601h225v-74h-225v74z" />
    <glyph glyph-name="Ebreve" unicode="&#x114;" horiz-adv-x="490" 
d="M264 643q-57 0 -90 34.5t-33 98.5h75q0 -30 11 -48t37 -18t37 18t11 48h75q0 -64 -33 -98.5t-90 -34.5zM443 90v-90h-369v594h363v-90h-262v-160h243v-88h-243v-166h268z" />
    <glyph glyph-name="ebreve" unicode="&#x115;" horiz-adv-x="477" 
d="M131 199v-2q2 -30 15 -52.5t33 -38t44.5 -23.5t50.5 -8q46 0 81 10.5t68 32.5v-87q-30 -21 -71.5 -31t-84.5 -10q-52 0 -94.5 16t-73 45.5t-47.5 71.5t-17 95t16.5 96.5t45 74t67.5 47.5t85 17q48 0 84 -15t59.5 -42t35 -64.5t11.5 -82.5v-50h-308zM246 370
q-43 0 -72.5 -28t-39.5 -79h212q-2 52 -27 79.5t-73 27.5zM251 508q-57 0 -90 36.5t-33 101.5h75q0 -30 11 -50t37 -20t37 20t11 50h75q0 -65 -33 -101.5t-90 -36.5z" />
    <glyph glyph-name="Edotaccent" unicode="&#x116;" horiz-adv-x="490" 
d="M264 638q-26 0 -44 18t-18 43q0 26 18 44t44 18t44 -18t18 -44q0 -25 -18 -43t-44 -18zM443 90v-90h-369v594h363v-90h-262v-160h243v-88h-243v-166h268z" />
    <glyph glyph-name="edotaccent" unicode="&#x117;" horiz-adv-x="477" 
d="M131 199v-2q2 -30 15 -52.5t33 -38t44.5 -23.5t50.5 -8q46 0 81 10.5t68 32.5v-87q-30 -21 -71.5 -31t-84.5 -10q-52 0 -94.5 16t-73 45.5t-47.5 71.5t-17 95t16.5 96.5t45 74t67.5 47.5t85 17q48 0 84 -15t59.5 -42t35 -64.5t11.5 -82.5v-50h-308zM246 370
q-43 0 -72.5 -28t-39.5 -79h212q-2 52 -27 79.5t-73 27.5zM253 516q-26 0 -44 18t-18 44t18 43.5t44 17.5t44 -17.5t18 -43.5t-18 -44t-44 -18z" />
    <glyph glyph-name="Eogonek" unicode="&#x118;" horiz-adv-x="490" 
d="M443 90v-90h-32q-55 -46 -55 -91q0 -29 32 -29q25 0 46 10v-69q-13 -6 -29 -8.5t-33 -2.5q-38 0 -65.5 19t-27.5 62q0 29 16 58.5t43 50.5h-264v594h363v-90h-262v-160h243v-88h-243v-166h268z" />
    <glyph glyph-name="eogonek" unicode="&#x119;" horiz-adv-x="477" 
d="M131 199v-2q2 -30 15 -52.5t33 -38t44.5 -23.5t50.5 -8q46 0 81 10.5t68 32.5v-87q-8 -5 -17 -9.5t-20 -10.5q-30 -18 -48 -42.5t-18 -53.5q0 -17 10 -26t24 -9q25 0 46 10v-69q-13 -6 -29 -8.5t-33 -2.5q-39 0 -67 19.5t-28 65.5q0 25 11 50.5t36 46.5q-7 -1 -12.5 -1.5
t-12.5 -0.5q-51 0 -93.5 16t-72.5 45.5t-47 71.5t-17 95t16.5 96.5t45 74t67.5 47.5t85 17q48 0 84 -15t59.5 -42t35 -64.5t11.5 -82.5v-50h-308zM246 370q-43 0 -72.5 -28t-39.5 -79h212q-2 52 -27 79.5t-73 27.5z" />
    <glyph glyph-name="Ecaron" unicode="&#x11a;" horiz-adv-x="490" 
d="M295 643h-62l-116 142h85l62 -76l62 76h85zM443 90v-90h-369v594h363v-90h-262v-160h243v-88h-243v-166h268z" />
    <glyph glyph-name="ecaron" unicode="&#x11b;" horiz-adv-x="477" 
d="M276 505h-62l-116 149h88l59 -80l59 80h88zM131 199v-2q2 -30 15 -52.5t33 -38t44.5 -23.5t50.5 -8q46 0 81 10.5t68 32.5v-87q-30 -21 -71.5 -31t-84.5 -10q-52 0 -94.5 16t-73 45.5t-47.5 71.5t-17 95t16.5 96.5t45 74t67.5 47.5t85 17q48 0 84 -15t59.5 -42t35 -64.5
t11.5 -82.5v-50h-308zM246 370q-43 0 -72.5 -28t-39.5 -79h212q-2 52 -27 79.5t-73 27.5z" />
    <glyph glyph-name="Gcircumflex" unicode="&#x11c;" horiz-adv-x="590" 
d="M144 297q0 -50 16 -90t43.5 -68.5t65.5 -44t82 -15.5q54 0 88 14v180h102v-239q-35 -22 -86 -33t-106 -11q-69 0 -126.5 22t-98 62t-63 96.5t-22.5 126.5q0 68 23 124.5t64.5 97t97.5 63t122 22.5q99 0 173 -45v-109q-32 29 -75.5 45.5t-92.5 16.5q-45 0 -83 -15.5
t-65.5 -43.5t-43 -67.5t-15.5 -88.5zM486 640h-85l-62 76l-62 -76h-85l116 143h62z" />
    <glyph glyph-name="gcircumflex" unicode="&#x11d;" 
d="M426 510h-87l-60 79l-60 -79h-87l116 150h62zM355 18q-11 -7 -35 -12t-50 -5q-52 0 -95 14.5t-74 42.5t-48.5 70t-17.5 97q0 53 17.5 95.5t50 72t79 45t104.5 15.5q46 0 90 -9t77 -23v-419q0 -54 -19.5 -91t-50 -59.5t-69 -32t-76.5 -9.5q-41 0 -78 8.5t-68 22.5v91
q36 -20 71.5 -29.5t74.5 -9.5q24 0 45 6.5t37 20t25.5 35.5t9.5 53v10zM355 355q-30 11 -69 11q-71 0 -111 -36t-40 -105q0 -66 38.5 -103.5t104.5 -37.5q23 0 41 4t36 11v256z" />
    <glyph glyph-name="Gbreve" unicode="&#x11e;" horiz-adv-x="590" 
d="M339 643q-57 0 -90 34.5t-33 98.5h75q0 -30 11 -48t37 -18t37 18t11 48h75q0 -64 -33 -98.5t-90 -34.5zM144 297q0 -50 16 -90t43.5 -68.5t65.5 -44t82 -15.5q54 0 88 14v180h102v-239q-35 -22 -86 -33t-106 -11q-69 0 -126.5 22t-98 62t-63 96.5t-22.5 126.5
q0 68 23 124.5t64.5 97t97.5 63t122 22.5q99 0 173 -45v-109q-32 29 -75.5 45.5t-92.5 16.5q-45 0 -83 -15.5t-65.5 -43.5t-43 -67.5t-15.5 -88.5z" />
    <glyph glyph-name="gbreve" unicode="&#x11f;" 
d="M355 18q-11 -7 -35 -12t-50 -5q-52 0 -95 14.5t-74 42.5t-48.5 70t-17.5 97q0 53 17.5 95.5t50 72t79 45t104.5 15.5q46 0 90 -9t77 -23v-419q0 -54 -19.5 -91t-50 -59.5t-69 -32t-76.5 -9.5q-41 0 -78 8.5t-68 22.5v91q36 -20 71.5 -29.5t74.5 -9.5q24 0 45 6.5t37 20
t25.5 35.5t9.5 53v10zM355 355q-30 11 -69 11q-71 0 -111 -36t-40 -105q0 -66 38.5 -103.5t104.5 -37.5q23 0 41 4t36 11v256zM275 508q-57 0 -90 36.5t-33 101.5h75q0 -30 11 -50t37 -20t37 20t11 50h75q0 -65 -33 -101.5t-90 -36.5z" />
    <glyph glyph-name="Gdotaccent" unicode="&#x120;" horiz-adv-x="590" 
d="M339 638q-26 0 -44 18t-18 43q0 26 18 44t44 18t44 -18t18 -44q0 -25 -18 -43t-44 -18zM144 297q0 -50 16 -90t43.5 -68.5t65.5 -44t82 -15.5q54 0 88 14v180h102v-239q-35 -22 -86 -33t-106 -11q-69 0 -126.5 22t-98 62t-63 96.5t-22.5 126.5q0 68 23 124.5t64.5 97
t97.5 63t122 22.5q99 0 173 -45v-109q-32 29 -75.5 45.5t-92.5 16.5q-45 0 -83 -15.5t-65.5 -43.5t-43 -67.5t-15.5 -88.5z" />
    <glyph glyph-name="gdotaccent" unicode="&#x121;" 
d="M355 18q-11 -7 -35 -12t-50 -5q-52 0 -95 14.5t-74 42.5t-48.5 70t-17.5 97q0 53 17.5 95.5t50 72t79 45t104.5 15.5q46 0 90 -9t77 -23v-419q0 -54 -19.5 -91t-50 -59.5t-69 -32t-76.5 -9.5q-41 0 -78 8.5t-68 22.5v91q36 -20 71.5 -29.5t74.5 -9.5q24 0 45 6.5t37 20
t25.5 35.5t9.5 53v10zM355 355q-30 11 -69 11q-71 0 -111 -36t-40 -105q0 -66 38.5 -103.5t104.5 -37.5q23 0 41 4t36 11v256zM275 516q-26 0 -44 18t-18 44t18 43.5t44 17.5t44 -17.5t18 -43.5t-18 -44t-44 -18z" />
    <glyph glyph-name="Gcommaaccent" unicode="&#x122;" horiz-adv-x="590" 
d="M395 -42q0 -51 -25 -85.5t-64 -57.5h-67q34 35 47 68t13 75h96zM144 297q0 -50 16 -90t43.5 -68.5t65.5 -44t82 -15.5q54 0 88 14v180h102v-239q-35 -22 -86 -33t-106 -11q-69 0 -126.5 22t-98 62t-63 96.5t-22.5 126.5q0 68 23 124.5t64.5 97t97.5 63t122 22.5
q99 0 173 -45v-109q-32 29 -75.5 45.5t-92.5 16.5q-45 0 -83 -15.5t-65.5 -43.5t-43 -67.5t-15.5 -88.5z" />
    <glyph glyph-name="commaaccent" unicode="&#xe414;" horiz-adv-x="500" 
d="M337 -42q0 -51 -25 -85.5t-64 -57.5h-67q34 35 47 68t13 75h96z" />
    <glyph glyph-name="commaaccent" unicode="&#xf6c3;" horiz-adv-x="500" 
d="M337 -42q0 -51 -25 -85.5t-64 -57.5h-67q34 35 47 68t13 75h96z" />
    <glyph glyph-name="gcommaaccent" unicode="&#x123;" 
d="M230 513q0 51 26 95t65 66h67q-34 -35 -48.5 -77t-14.5 -84h-95zM355 18q-11 -7 -35 -12t-50 -5q-52 0 -95 14.5t-74 42.5t-48.5 70t-17.5 97q0 53 17.5 95.5t50 72t79 45t104.5 15.5q46 0 90 -9t77 -23v-419q0 -54 -19.5 -91t-50 -59.5t-69 -32t-76.5 -9.5
q-41 0 -78 8.5t-68 22.5v91q36 -20 71.5 -29.5t74.5 -9.5q24 0 45 6.5t37 20t25.5 35.5t9.5 53v10zM355 355q-30 11 -69 11q-71 0 -111 -36t-40 -105q0 -66 38.5 -103.5t104.5 -37.5q23 0 41 4t36 11v256z" />
    <glyph glyph-name="Hcircumflex" unicode="&#x124;" horiz-adv-x="659" 
d="M483 594h102v-594h-102v254h-307v-254h-102v594h102v-250h307v250zM477 640h-85l-62 76l-62 -76h-85l116 143h62z" />
    <glyph glyph-name="hcircumflex" unicode="&#x125;" horiz-adv-x="519" 
d="M68 680h99v-248q19 8 50 14.5t66 6.5q37 0 69 -9t55 -28.5t36 -52t13 -78.5v-285h-98v276q0 48 -26.5 67.5t-68.5 19.5q-26 0 -51 -4t-45 -11v-348h-99v680zM405 713h-85l-62 76l-62 -76h-85l116 143h62z" />
    <glyph glyph-name="Hbar" unicode="&#x126;" horiz-adv-x="679" 
d="M20 489h64v105h102v-105h307v105h102v-105h64v-81h-64v-408h-102v226h-307v-226h-102v408h-64v81zM493 310v98h-307v-98h307z" />
    <glyph glyph-name="hbar" unicode="&#x127;" horiz-adv-x="527" 
d="M21 589h55v91h99v-91h118v-70h-118v-87q19 8 50 14.5t66 6.5q37 0 69 -9t55 -28.5t36 -52t13 -78.5v-285h-98v276q0 48 -26.5 67.5t-68.5 19.5q-26 0 -51 -4t-45 -11v-348h-99v519h-55v70z" />
    <glyph glyph-name="Itilde" unicode="&#x128;" horiz-adv-x="250" 
d="M176 0h-102v594h102v-594zM269 763q0 -58 -21.5 -91.5t-61.5 -33.5q-19 0 -34 8.5t-28.5 18.5t-25 18.5t-23.5 8.5q-29 0 -29 -51h-66q0 58 21.5 91.5t61.5 33.5q19 0 34.5 -8.5t29 -18.5t25 -18.5t23.5 -8.5q29 0 29 51h65z" />
    <glyph glyph-name="itilde" unicode="&#x129;" horiz-adv-x="235" 
d="M167 0h-99v443h99v-443zM262 632q0 -58 -21.5 -91.5t-61.5 -33.5q-19 0 -34 8.5t-28.5 18.5t-25 18.5t-23.5 8.5q-29 0 -29 -51h-66q0 59 21.5 92t61.5 33q19 0 34.5 -8.5t29 -18.5t25 -18.5t23.5 -8.5q29 0 29 51h65z" />
    <glyph glyph-name="Imacron" unicode="&#x12a;" horiz-adv-x="250" 
d="M176 0h-102v594h102v-594zM13 725h225v-74h-225v74z" />
    <glyph glyph-name="imacron" unicode="&#x12b;" horiz-adv-x="235" 
d="M167 0h-99v443h99v-443zM6 601h225v-74h-225v74z" />
    <glyph glyph-name="Ibreve" unicode="&#x12c;" horiz-adv-x="250" 
d="M176 0h-102v594h102v-594zM125 643q-57 0 -90 34.5t-33 98.5h75q0 -30 11 -48t37 -18t37 18t11 48h75q0 -64 -33 -98.5t-90 -34.5z" />
    <glyph glyph-name="ibreve" unicode="&#x12d;" horiz-adv-x="235" 
d="M167 0h-99v443h99v-443zM118 508q-57 0 -90 36.5t-33 101.5h75q0 -30 11 -50t37 -20t37 20t11 50h75q0 -65 -33 -101.5t-90 -36.5z" />
    <glyph glyph-name="Iogonek" unicode="&#x12e;" horiz-adv-x="250" 
d="M176 0q-35 -23 -51 -47t-16 -44q0 -29 32 -29q25 0 45 10v-69q-13 -6 -28.5 -8.5t-32.5 -2.5q-38 0 -66 19t-28 62q0 33 17.5 61t46.5 48h-21v594h102v-594z" />
    <glyph glyph-name="iogonek" unicode="&#x12f;" horiz-adv-x="235" 
d="M118 520q-26 0 -44.5 18t-18.5 43q0 26 18.5 44t44.5 18q25 0 43.5 -18t18.5 -44q0 -25 -18.5 -43t-43.5 -18zM68 443h99v-443q-35 -19 -52.5 -42.5t-17.5 -45.5q0 -32 31 -32q24 0 44 10v-69q-13 -6 -28.5 -8.5t-32.5 -2.5q-38 0 -65 19.5t-27 61.5q0 35 20.5 63.5
t52.5 45.5h-24v443z" />
    <glyph glyph-name="Idotaccent" unicode="&#x130;" horiz-adv-x="250" 
d="M176 0h-102v594h102v-594zM125 638q-26 0 -44 18t-18 43q0 26 18 44t44 18t44 -18t18 -44q0 -25 -18 -43t-44 -18z" />
    <glyph glyph-name="IJ" unicode="&#x132;" horiz-adv-x="628" 
d="M176 0h-102v594h102v-594zM267 138q54 -56 121 -56q38 0 57 18.5t19 64.5v429h102v-442q0 -81 -45.5 -121.5t-123.5 -40.5q-42 0 -74.5 11.5t-55.5 31.5v105z" />
    <glyph glyph-name="ij" unicode="&#x133;" horiz-adv-x="470" 
d="M167 0h-99v443h99v-443zM118 516q-26 0 -44.5 18t-18.5 44t18.5 43.5t44.5 17.5q25 0 43.5 -17.5t18.5 -43.5t-18.5 -44t-43.5 -18zM303 443h99v-489q0 -72 -40 -108t-110 -36q-21 0 -41 4t-35 10v85q14 -7 31.5 -11t33.5 -4q29 0 45.5 15t16.5 58v476zM353 516
q-26 0 -44.5 18t-18.5 44t18.5 43.5t44.5 17.5q25 0 43.5 -17.5t18.5 -43.5t-18.5 -44t-43.5 -18z" />
    <glyph glyph-name="Jcircumflex" unicode="&#x134;" horiz-adv-x="378" 
d="M17 138q54 -56 121 -56q38 0 57 18.5t19 64.5v429h102v-442q0 -81 -45.5 -121.5t-123.5 -40.5q-42 0 -74.5 11.5t-55.5 31.5v105zM412 640h-85l-62 76l-62 -76h-85l116 143h62z" />
    <glyph glyph-name="jcircumflex" unicode="&#x135;" horiz-adv-x="235" 
d="M68 443h99v-489q0 -72 -40 -108t-110 -36q-21 0 -41 4t-35 10v85q14 -7 31.5 -11t33.5 -4q29 0 45.5 15t16.5 58v476zM263 504h-87l-60 79l-60 -79h-87l116 150h62z" />
    <glyph glyph-name="dotlessj" unicode="&#x237;" horiz-adv-x="235" 
d="M68 443h99v-489q0 -72 -40 -108t-110 -36q-21 0 -41 4t-35 10v85q14 -7 31.5 -11t33.5 -4q29 0 45.5 15t16.5 58v476z" />
    <glyph glyph-name="Kcommaaccent" unicode="&#x136;" horiz-adv-x="546" 
d="M333 -42q0 -51 -25 -85.5t-64 -57.5h-67q34 35 47 68t13 75h96zM74 594h102v-594h-102v594zM407 594h122l-233 -292l249 -302h-124l-241 293z" />
    <glyph glyph-name="kcommaaccent" unicode="&#x137;" horiz-adv-x="489" 
d="M308 -42q0 -51 -25 -85.5t-64 -57.5h-67q34 35 47 68t13 75h96zM171 240l187 203h122l-195 -201l199 -242h-118zM167 0h-99v680h99v-680z" />
    <glyph glyph-name="kgreenlandic" unicode="&#x138;" horiz-adv-x="489" 
d="M171 240l187 203h122l-195 -201l199 -242h-118zM167 0h-99v443h99v-443z" />
    <glyph glyph-name="Lacute" unicode="&#x139;" horiz-adv-x="438" 
d="M79 644l79 141h91l-79 -141h-91zM74 594h102v-504h242v-90h-344v594z" />
    <glyph glyph-name="lacute" unicode="&#x13a;" horiz-adv-x="235" 
d="M70 722l79 141h91l-79 -141h-91zM167 0h-99v680h99v-680z" />
    <glyph glyph-name="Lcommaaccent" unicode="&#x13b;" horiz-adv-x="438" 
d="M299 -42q0 -51 -25 -85.5t-64 -57.5h-67q34 35 47 68t13 75h96zM74 594h102v-504h242v-90h-344v594z" />
    <glyph glyph-name="lcommaaccent" unicode="&#x13c;" horiz-adv-x="235" 
d="M168 -42q0 -51 -25 -85.5t-64 -57.5h-67q34 35 47 68t13 75h96zM167 0h-99v680h99v-680z" />
    <glyph glyph-name="Lcaron" unicode="&#x13d;" horiz-adv-x="438" 
d="M391 594l-43 -157h-80l43 157h80zM74 594h102v-504h242v-90h-344v594z" />
    <glyph glyph-name="lcaron" unicode="&#x13e;" horiz-adv-x="235" 
d="M331 680l-43 -157h-80l43 157h80zM167 0h-99v680h99v-680z" />
    <glyph glyph-name="Ldot" unicode="&#x13f;" horiz-adv-x="444" 
d="M74 594h102v-504h242v-90h-344v594zM331 263q-26 0 -44 18t-18 44t18 43.5t44 17.5t44 -17.5t18 -43.5t-18 -44t-44 -18z" />
    <glyph glyph-name="ldot" unicode="&#x140;" horiz-adv-x="352" 
d="M167 0h-99v680h99v-680zM291 274q-26 0 -44 18t-18 44t18 43.5t44 17.5t44 -17.5t18 -43.5t-18 -44t-44 -18z" />
    <glyph glyph-name="Nacute" unicode="&#x143;" horiz-adv-x="650" 
d="M275 644l79 141h91l-79 -141h-91zM477 155v439h99v-594h-98l-305 435v-435h-99v594h104z" />
    <glyph glyph-name="nacute" unicode="&#x144;" horiz-adv-x="519" 
d="M211 513l85 152h91l-85 -152h-91zM68 415q47 18 100.5 28t102.5 10q42 0 76.5 -8.5t58.5 -28.5t37 -52t13 -79v-285h-98v276q0 48 -26.5 67.5t-68.5 19.5q-26 0 -51 -3.5t-45 -9.5v-350h-99v415z" />
    <glyph glyph-name="Ncommaaccent" unicode="&#x145;" horiz-adv-x="650" 
d="M377 -42q0 -51 -25 -85.5t-64 -57.5h-67q34 35 47 68t13 75h96zM477 155v439h99v-594h-98l-305 435v-435h-99v594h104z" />
    <glyph glyph-name="ncommaaccent" unicode="&#x146;" horiz-adv-x="519" 
d="M313 -42q0 -51 -25 -85.5t-64 -57.5h-67q34 35 47 68t13 75h96zM68 415q47 18 100.5 28t102.5 10q42 0 76.5 -8.5t58.5 -28.5t37 -52t13 -79v-285h-98v276q0 48 -26.5 67.5t-68.5 19.5q-26 0 -51 -3.5t-45 -9.5v-350h-99v415z" />
    <glyph glyph-name="Ncaron" unicode="&#x147;" horiz-adv-x="650" 
d="M358 643h-62l-116 142h85l62 -76l62 76h85zM477 155v439h99v-594h-98l-305 435v-435h-99v594h104z" />
    <glyph glyph-name="ncaron" unicode="&#x148;" horiz-adv-x="519" 
d="M293 505h-62l-116 149h88l59 -80l59 80h88zM68 415q47 18 100.5 28t102.5 10q42 0 76.5 -8.5t58.5 -28.5t37 -52t13 -79v-285h-98v276q0 48 -26.5 67.5t-68.5 19.5q-26 0 -51 -3.5t-45 -9.5v-350h-99v415z" />
    <glyph glyph-name="Eng" unicode="&#x14a;" horiz-adv-x="650" 
d="M576 -28q0 -81 -45.5 -121.5t-123.5 -40.5q-42 0 -74.5 11.5t-55.5 31.5v102q54 -56 121 -56q38 0 57 18.5t19 64.5v24l-301 429v-435h-99v594h104l299 -439v439h99v-622z" />
    <glyph glyph-name="eng" unicode="&#x14b;" horiz-adv-x="519" 
d="M358 276q0 48 -26.5 67.5t-68.5 19.5q-26 0 -51 -3.5t-45 -9.5v-350h-99v415q47 18 100.5 28t102.5 10q42 0 76.5 -8.5t58.5 -28.5t37 -52t13 -79v-331q0 -72 -39.5 -108t-110.5 -36q-20 0 -40.5 4t-34.5 10v85q14 -7 31 -11t34 -4q29 0 45.5 15t16.5 58v309z" />
    <glyph glyph-name="Omacron" unicode="&#x14c;" horiz-adv-x="694" 
d="M235 725h225v-74h-225v74zM39 297q0 68 24 124.5t65.5 97t97.5 63t121 22.5q64 0 120 -22.5t98 -63t66 -97t24 -124.5t-24 -124.5t-66 -97t-98 -63t-120 -22.5q-65 0 -121 22.5t-97.5 63t-65.5 97t-24 124.5zM550 297q0 49 -15.5 88.5t-43 67.5t-64.5 43.5t-80 15.5
t-80 -15.5t-64.5 -43.5t-43 -67.5t-15.5 -88.5t15.5 -88.5t43 -67.5t64.5 -43.5t80 -15.5t80 15.5t64.5 43.5t43 67.5t15.5 88.5z" />
    <glyph glyph-name="omacron" unicode="&#x14d;" horiz-adv-x="527" 
d="M151 601h225v-74h-225v74zM35 221q0 52 17 94.5t47.5 73t72 47.5t91.5 17t92 -17t72.5 -47.5t47.5 -73t17 -94.5q0 -51 -17 -93.5t-47.5 -73t-72.5 -47.5t-92 -17t-91.5 17t-72 47.5t-47.5 73t-17 93.5zM392 221q0 68 -36 107.5t-93 39.5q-56 0 -92 -39.5t-36 -107.5
q0 -67 36 -106.5t92 -39.5q57 0 93 39.5t36 106.5z" />
    <glyph glyph-name="Obreve" unicode="&#x14e;" horiz-adv-x="694" 
d="M347 643q-57 0 -90 34.5t-33 98.5h75q0 -30 11 -48t37 -18t37 18t11 48h75q0 -64 -33 -98.5t-90 -34.5zM39 297q0 68 24 124.5t65.5 97t97.5 63t121 22.5q64 0 120 -22.5t98 -63t66 -97t24 -124.5t-24 -124.5t-66 -97t-98 -63t-120 -22.5q-65 0 -121 22.5t-97.5 63
t-65.5 97t-24 124.5zM550 297q0 49 -15.5 88.5t-43 67.5t-64.5 43.5t-80 15.5t-80 -15.5t-64.5 -43.5t-43 -67.5t-15.5 -88.5t15.5 -88.5t43 -67.5t64.5 -43.5t80 -15.5t80 15.5t64.5 43.5t43 67.5t15.5 88.5z" />
    <glyph glyph-name="obreve" unicode="&#x14f;" horiz-adv-x="527" 
d="M35 221q0 52 17 94.5t47.5 73t72 47.5t91.5 17t92 -17t72.5 -47.5t47.5 -73t17 -94.5q0 -51 -17 -93.5t-47.5 -73t-72.5 -47.5t-92 -17t-91.5 17t-72 47.5t-47.5 73t-17 93.5zM392 221q0 68 -36 107.5t-93 39.5q-56 0 -92 -39.5t-36 -107.5q0 -67 36 -106.5t92 -39.5
q57 0 93 39.5t36 106.5zM263 508q-57 0 -90 36.5t-33 101.5h75q0 -30 11 -50t37 -20t37 20t11 50h75q0 -65 -33 -101.5t-90 -36.5z" />
    <glyph glyph-name="Ohungarumlaut" unicode="&#x150;" horiz-adv-x="694" 
d="M39 297q0 68 24 124.5t65.5 97t97.5 63t121 22.5q64 0 120 -22.5t98 -63t66 -97t24 -124.5t-24 -124.5t-66 -97t-98 -63t-120 -22.5q-65 0 -121 22.5t-97.5 63t-65.5 97t-24 124.5zM550 297q0 49 -15.5 88.5t-43 67.5t-64.5 43.5t-80 15.5t-80 -15.5t-64.5 -43.5
t-43 -67.5t-15.5 -88.5t15.5 -88.5t43 -67.5t64.5 -43.5t80 -15.5t80 15.5t64.5 43.5t43 67.5t15.5 88.5zM235 644l79 141h84l-79 -141h-84zM367 644l79 141h84l-79 -141h-84z" />
    <glyph glyph-name="hungarumlaut.cap" unicode="&#xe42b;" horiz-adv-x="500" 
d="M99 644l79 141h84l-79 -141h-84zM231 644l79 141h84l-79 -141h-84z" />
    <glyph glyph-name="ohungarumlaut" unicode="&#x151;" horiz-adv-x="527" 
d="M152 513l85 152h84l-85 -152h-84zM284 513l85 152h84l-85 -152h-84zM35 221q0 52 17 94.5t47.5 73t72 47.5t91.5 17t92 -17t72.5 -47.5t47.5 -73t17 -94.5q0 -51 -17 -93.5t-47.5 -73t-72.5 -47.5t-92 -17t-91.5 17t-72 47.5t-47.5 73t-17 93.5zM392 221q0 68 -36 107.5
t-93 39.5q-56 0 -92 -39.5t-36 -107.5q0 -67 36 -106.5t92 -39.5q57 0 93 39.5t36 106.5z" />
    <glyph glyph-name="Racute" unicode="&#x154;" horiz-adv-x="524" 
d="M176 0h-102v593q27 5 69.5 8t78.5 3q118 0 179.5 -50t61.5 -144q0 -66 -33 -111t-85 -65l179 -234h-123l-158 211h-67v-211zM176 295h50q61 0 97 27t36 85q0 51 -34.5 79.5t-102.5 28.5q-9 0 -23.5 -0.5t-22.5 -1.5v-218zM206 644l79 141h91l-79 -141h-91z" />
    <glyph glyph-name="racute" unicode="&#x155;" horiz-adv-x="343" 
d="M158 513l85 152h91l-85 -152h-91zM167 0h-99v406q36 20 80.5 32t92.5 12q23 0 42.5 -2.5t42.5 -8.5v-96q-21 8 -43 11t-42 3q-23 0 -41 -4t-33 -10v-343z" />
    <glyph glyph-name="Rcommaaccent" unicode="&#x156;" horiz-adv-x="524" 
d="M321 -42q0 -51 -25 -85.5t-64 -57.5h-67q34 35 47 68t13 75h96zM176 0h-102v593q27 5 69.5 8t78.5 3q118 0 179.5 -50t61.5 -144q0 -66 -33 -111t-85 -65l179 -234h-123l-158 211h-67v-211zM176 295h50q61 0 97 27t36 85q0 51 -34.5 79.5t-102.5 28.5q-9 0 -23.5 -0.5
t-22.5 -1.5v-218z" />
    <glyph glyph-name="rcommaaccent" unicode="&#x157;" horiz-adv-x="343" 
d="M165 -42q0 -51 -25 -85.5t-64 -57.5h-67q34 35 47 68t13 75h96zM167 0h-99v406q36 20 80.5 32t92.5 12q23 0 42.5 -2.5t42.5 -8.5v-96q-21 8 -43 11t-42 3q-23 0 -41 -4t-33 -10v-343z" />
    <glyph glyph-name="Rcaron" unicode="&#x158;" horiz-adv-x="524" 
d="M289 643h-62l-116 142h85l62 -76l62 76h85zM176 0h-102v593q27 5 69.5 8t78.5 3q118 0 179.5 -50t61.5 -144q0 -66 -33 -111t-85 -65l179 -234h-123l-158 211h-67v-211zM176 295h50q61 0 97 27t36 85q0 51 -34.5 79.5t-102.5 28.5q-9 0 -23.5 -0.5t-22.5 -1.5v-218z" />
    <glyph glyph-name="rcaron" unicode="&#x159;" horiz-adv-x="343" 
d="M237 505h-62l-116 149h88l59 -80l59 80h88zM167 0h-99v406q36 20 80.5 32t92.5 12q23 0 42.5 -2.5t42.5 -8.5v-96q-21 8 -43 11t-42 3q-23 0 -41 -4t-33 -10v-343z" />
    <glyph glyph-name="Sacute" unicode="&#x15a;" horiz-adv-x="442" 
d="M40 138q35 -26 72 -43.5t85 -17.5q22 0 42 4.5t35 14.5t24 25.5t9 38.5q0 21 -8 35.5t-22 25.5t-34 19t-45 16q-43 13 -74 29t-51.5 37.5t-30.5 49t-10 65.5q0 40 15 71.5t41 52.5t60.5 32t72.5 11q48 0 85 -12.5t67 -32.5v-102q-35 29 -70.5 44.5t-78.5 15.5t-67.5 -21
t-24.5 -56q0 -36 26 -55t83 -37q43 -13 74.5 -29.5t52 -38.5t30 -50.5t9.5 -66.5q0 -45 -16.5 -77.5t-45 -53.5t-66.5 -31.5t-81 -10.5q-49 0 -89 12t-69 32v104zM171 644l79 141h91l-79 -141h-91z" />
    <glyph glyph-name="sacute" unicode="&#x15b;" horiz-adv-x="391" 
d="M153 513l85 152h91l-85 -152h-91zM48 120q31 -23 66 -36.5t69 -13.5q33 0 53 12t20 38q0 27 -20 40t-63 24q-69 16 -100 46.5t-31 88.5q0 34 12 59t33 41.5t50 25t63 8.5q38 0 68.5 -8.5t58.5 -25.5v-91q-29 21 -59 33t-65 12q-32 0 -49 -14t-17 -36t16 -34.5t54 -23.5
q76 -17 110.5 -48.5t34.5 -91.5q0 -35 -12.5 -60.5t-35 -42t-53 -24.5t-66.5 -8q-39 0 -75.5 9.5t-61.5 26.5v94z" />
    <glyph glyph-name="Scircumflex" unicode="&#x15c;" horiz-adv-x="442" 
d="M40 138q35 -26 72 -43.5t85 -17.5q22 0 42 4.5t35 14.5t24 25.5t9 38.5q0 21 -8 35.5t-22 25.5t-34 19t-45 16q-43 13 -74 29t-51.5 37.5t-30.5 49t-10 65.5q0 40 15 71.5t41 52.5t60.5 32t72.5 11q48 0 85 -12.5t67 -32.5v-102q-35 29 -70.5 44.5t-78.5 15.5t-67.5 -21
t-24.5 -56q0 -36 26 -55t83 -37q43 -13 74.5 -29.5t52 -38.5t30 -50.5t9.5 -66.5q0 -45 -16.5 -77.5t-45 -53.5t-66.5 -31.5t-81 -10.5q-49 0 -89 12t-69 32v104zM370 640h-85l-62 76l-62 -76h-85l116 143h62z" />
    <glyph glyph-name="scircumflex" unicode="&#x15d;" horiz-adv-x="391" 
d="M348 510h-87l-60 79l-60 -79h-87l116 150h62zM48 120q31 -23 66 -36.5t69 -13.5q33 0 53 12t20 38q0 27 -20 40t-63 24q-69 16 -100 46.5t-31 88.5q0 34 12 59t33 41.5t50 25t63 8.5q38 0 68.5 -8.5t58.5 -25.5v-91q-29 21 -59 33t-65 12q-32 0 -49 -14t-17 -36t16 -34.5
t54 -23.5q76 -17 110.5 -48.5t34.5 -91.5q0 -35 -12.5 -60.5t-35 -42t-53 -24.5t-66.5 -8q-39 0 -75.5 9.5t-61.5 26.5v94z" />
    <glyph glyph-name="Scedilla" unicode="&#x15e;" horiz-adv-x="442" 
d="M40 138q35 -26 72 -43.5t85 -17.5q22 0 42 4.5t35 14.5t24 25.5t9 38.5q0 21 -8 35.5t-22 25.5t-34 19t-45 16q-43 13 -74 29t-51.5 37.5t-30.5 49t-10 65.5q0 40 15 71.5t41 52.5t60.5 32t72.5 11q48 0 85 -12.5t67 -32.5v-102q-35 29 -70.5 44.5t-78.5 15.5t-67.5 -21
t-24.5 -56q0 -36 26 -55t83 -37q43 -13 74.5 -29.5t52 -38.5t30 -50.5t9.5 -66.5q0 -45 -16.5 -77.5t-45 -53.5t-66.5 -32l-12 -2q-1 -15 -5 -30q-5 -24 -14.5 -46t-22.5 -39.5t-28 -28.5h-89q37 34 57 76q15 30 19 60q-41 2 -75 12q-40 12 -69 32v104z" />
    <glyph glyph-name="scedilla" unicode="&#x15f;" horiz-adv-x="391" 
d="M48 120q31 -23 66 -36.5t69 -13.5q33 0 53 12t20 38q0 27 -20 40t-63 24q-69 16 -100 46.5t-31 88.5q0 34 12 59t33 41.5t50 25t63 8.5q38 0 68.5 -8.5t58.5 -25.5v-91q-29 21 -59 33t-65 12q-32 0 -49 -14t-17 -36t16 -34.5t54 -23.5q76 -17 110.5 -48.5t34.5 -91.5
q0 -35 -12.5 -60.5t-35 -42t-53.5 -24.5l-10 -2q-5 -44 -24 -83t-46 -59h-89q32 29 51.5 64.5t24.5 72.5q-25 3 -49 9q-36 9 -61 26v94z" />
    <glyph glyph-name="Tcommaaccent" unicode="&#x162;" horiz-adv-x="507" 
d="M302 -42q0 -51 -25 -85.5t-64 -57.5h-67q34 35 47 68t13 75h96zM305 0h-102v504h-188v90h477v-90h-187v-504z" />
    <glyph glyph-name="tcommaaccent" unicode="&#x163;" horiz-adv-x="343" 
d="M257 -42q0 -51 -25 -85.5t-64 -57.5h-67q34 35 47 68t13 75h96zM8 443h67v108h98v-108h126v-83h-126v-211q0 -40 16 -55.5t45 -15.5q22 0 41.5 6.5t39.5 18.5v-89q-22 -11 -48.5 -17.5t-58.5 -6.5q-27 0 -51 7t-42.5 23.5t-29 42.5t-10.5 64v233h-67v83z" />
    <glyph glyph-name="Tcaron" unicode="&#x164;" horiz-adv-x="507" 
d="M285 643h-62l-116 142h85l62 -76l62 76h85zM305 0h-102v504h-188v90h477v-90h-187v-504z" />
    <glyph glyph-name="tcaron" unicode="&#x165;" horiz-adv-x="343" 
d="M340 664l-43 -157h-80l43 157h80zM8 443h67v108h98v-108h126v-83h-126v-211q0 -40 16 -55.5t45 -15.5q22 0 41.5 6.5t39.5 18.5v-89q-22 -11 -48.5 -17.5t-58.5 -6.5q-27 0 -51 7t-42.5 23.5t-29 42.5t-10.5 64v233h-67v83z" />
    <glyph glyph-name="Tbar" unicode="&#x166;" horiz-adv-x="507" 
d="M305 350h106v-86h-106v-264h-102v264h-106v86h106v154h-188v90h477v-90h-187v-154z" />
    <glyph glyph-name="tbar" unicode="&#x167;" horiz-adv-x="352" 
d="M13 283h67v85h-67v75h67v108h97v-108h126v-75h-126v-85h126v-74h-126v-63q0 -40 16.5 -55.5t45.5 -15.5q22 0 41.5 6.5t39.5 18.5v-86q-23 -11 -49 -17.5t-58 -6.5q-27 0 -51 7t-42.5 23.5t-29 42.5t-10.5 64v82h-67v74z" />
    <glyph glyph-name="Utilde" unicode="&#x168;" horiz-adv-x="606" 
d="M442 763q0 -58 -21.5 -91.5t-61.5 -33.5q-19 0 -34 8.5t-28.5 18.5t-25 18.5t-23.5 8.5q-29 0 -29 -51h-66q0 58 21.5 91.5t61.5 33.5q19 0 34.5 -8.5t29 -18.5t25 -18.5t23.5 -8.5q29 0 29 51h65zM63 594h102v-373q0 -43 10.5 -70.5t30 -44t47 -23t60.5 -6.5
q35 0 63 2.5t54 7.5v507h102v-577q-21 -6 -47.5 -10.5t-56 -8.5t-59 -6t-56.5 -2q-51 0 -96 10t-79.5 34.5t-54.5 65.5t-20 103v391z" />
    <glyph glyph-name="utilde" unicode="&#x169;" horiz-adv-x="505" 
d="M436 10q-39 -10 -86 -15t-86 -5q-48 0 -86 8.5t-64.5 27.5t-40.5 50.5t-14 78.5v288h98v-281q0 -50 28 -70t77 -20q17 0 36.5 1.5t39.5 4.5v365h98v-433zM392 632q0 -58 -21.5 -91.5t-61.5 -33.5q-19 0 -34 8.5t-28.5 18.5t-25 18.5t-23.5 8.5q-29 0 -29 -51h-66
q0 59 21.5 92t61.5 33q19 0 34.5 -8.5t29 -18.5t25 -18.5t23.5 -8.5q29 0 29 51h65z" />
    <glyph glyph-name="Umacron" unicode="&#x16a;" horiz-adv-x="606" 
d="M185 725h225v-74h-225v74zM63 594h102v-373q0 -43 10.5 -70.5t30 -44t47 -23t60.5 -6.5q35 0 63 2.5t54 7.5v507h102v-577q-21 -6 -47.5 -10.5t-56 -8.5t-59 -6t-56.5 -2q-51 0 -96 10t-79.5 34.5t-54.5 65.5t-20 103v391z" />
    <glyph glyph-name="umacron" unicode="&#x16b;" horiz-adv-x="505" 
d="M436 10q-39 -10 -86 -15t-86 -5q-48 0 -86 8.5t-64.5 27.5t-40.5 50.5t-14 78.5v288h98v-281q0 -50 28 -70t77 -20q17 0 36.5 1.5t39.5 4.5v365h98v-433zM135 601h225v-74h-225v74z" />
    <glyph glyph-name="Ubreve" unicode="&#x16c;" horiz-adv-x="606" 
d="M297 643q-57 0 -90 34.5t-33 98.5h75q0 -30 11 -48t37 -18t37 18t11 48h75q0 -64 -33 -98.5t-90 -34.5zM63 594h102v-373q0 -43 10.5 -70.5t30 -44t47 -23t60.5 -6.5q35 0 63 2.5t54 7.5v507h102v-577q-21 -6 -47.5 -10.5t-56 -8.5t-59 -6t-56.5 -2q-51 0 -96 10
t-79.5 34.5t-54.5 65.5t-20 103v391z" />
    <glyph glyph-name="ubreve" unicode="&#x16d;" horiz-adv-x="505" 
d="M436 10q-39 -10 -86 -15t-86 -5q-48 0 -86 8.5t-64.5 27.5t-40.5 50.5t-14 78.5v288h98v-281q0 -50 28 -70t77 -20q17 0 36.5 1.5t39.5 4.5v365h98v-433zM247 508q-57 0 -90 36.5t-33 101.5h75q0 -30 11 -50t37 -20t37 20t11 50h75q0 -65 -33 -101.5t-90 -36.5z" />
    <glyph glyph-name="Uring" unicode="&#x16e;" horiz-adv-x="606" 
d="M63 594h102v-373q0 -43 10.5 -70.5t30 -44t47 -23t60.5 -6.5q35 0 63 2.5t54 7.5v507h102v-577q-21 -6 -47.5 -10.5t-56 -8.5t-59 -6t-56.5 -2q-51 0 -96 10t-79.5 34.5t-54.5 65.5t-20 103v391zM204 719q0 38 26 64t68 26t67.5 -26t25.5 -64t-25.5 -64.5t-67.5 -26.5
t-68 26.5t-26 64.5zM340 719q0 17 -11 29t-31 12q-21 0 -31.5 -12t-10.5 -29t10.5 -29.5t31.5 -12.5q20 0 31 12.5t11 29.5z" />
    <glyph glyph-name="uring" unicode="&#x16f;" horiz-adv-x="505" 
d="M154 584q0 38 26 64t68 26t67.5 -26t25.5 -64t-25.5 -64t-67.5 -26t-68 26t-26 64zM290 584q0 17 -11 29.5t-31 12.5q-21 0 -31.5 -12.5t-10.5 -29.5t10.5 -29.5t31.5 -12.5q20 0 31 12.5t11 29.5zM436 10q-39 -10 -86 -15t-86 -5q-48 0 -86 8.5t-64.5 27.5t-40.5 50.5
t-14 78.5v288h98v-281q0 -50 28 -70t77 -20q17 0 36.5 1.5t39.5 4.5v365h98v-433z" />
    <glyph glyph-name="Uhungarumlaut" unicode="&#x170;" horiz-adv-x="606" 
d="M63 594h102v-373q0 -43 10.5 -70.5t30 -44t47 -23t60.5 -6.5q35 0 63 2.5t54 7.5v507h102v-577q-21 -6 -47.5 -10.5t-56 -8.5t-59 -6t-56.5 -2q-51 0 -96 10t-79.5 34.5t-54.5 65.5t-20 103v391zM186 644l79 141h84l-79 -141h-84zM318 644l79 141h84l-79 -141h-84z" />
    <glyph glyph-name="uhungarumlaut" unicode="&#x171;" horiz-adv-x="505" 
d="M436 10q-39 -10 -86 -15t-86 -5q-48 0 -86 8.5t-64.5 27.5t-40.5 50.5t-14 78.5v288h98v-281q0 -50 28 -70t77 -20q17 0 36.5 1.5t39.5 4.5v365h98v-433zM134 513l85 152h84l-85 -152h-84zM266 513l85 152h84l-85 -152h-84z" />
    <glyph glyph-name="Uogonek" unicode="&#x172;" horiz-adv-x="606" 
d="M63 594h102v-373q0 -43 10.5 -70.5t30 -44t47 -23t60.5 -6.5q35 0 63 2.5t54 7.5v507h102v-577q-38 -28 -61 -56t-23 -52q0 -29 31 -29q26 0 46 10v-69q-13 -6 -28.5 -8.5t-32.5 -2.5q-38 0 -66 19t-28 62q0 29 17 58t44 50q-29 -5 -59.5 -7t-58.5 -2q-51 0 -96 10
t-79.5 34.5t-54.5 65.5t-20 103v391z" />
    <glyph glyph-name="uogonek" unicode="&#x173;" horiz-adv-x="505" 
d="M338 -5q-20 -2 -38.5 -3.5t-35.5 -1.5q-48 0 -86 8.5t-64.5 27.5t-40.5 50.5t-14 78.5v288h98v-281q0 -50 28 -70t77 -20q17 0 36.5 1.5t39.5 4.5v365h98v-433q-36 -26 -56.5 -51.5t-20.5 -49.5q0 -29 31 -29q26 0 46 10v-69q-13 -6 -28.5 -8.5t-32.5 -2.5q-38 0 -66 19
t-28 64q0 28 15.5 55.5t41.5 46.5z" />
    <glyph glyph-name="Wcircumflex" unicode="&#x174;" horiz-adv-x="815" 
d="M463 594l119 -483l118 483h100l-152 -594h-130l-111 459l-112 -459h-129l-151 594h103l118 -483l118 483h109zM554 640h-85l-62 76l-62 -76h-85l116 143h62z" />
    <glyph glyph-name="wcircumflex" unicode="&#x175;" horiz-adv-x="671" 
d="M482 510h-87l-60 79l-60 -79h-87l116 150h62zM475 103l93 340h98l-130 -443h-111l-90 321l-90 -321h-110l-130 443h102l92 -340l93 340h89z" />
    <glyph glyph-name="Ycircumflex" unicode="&#x176;" horiz-adv-x="542" 
d="M424 594h113l-215 -367v-227h-102v227l-215 367h113l154 -271zM418 640h-85l-62 76l-62 -76h-85l116 143h62z" />
    <glyph glyph-name="ycircumflex" unicode="&#x177;" horiz-adv-x="468" 
d="M237 94l124 349h102l-240 -623h-97l62 160l-183 463h106zM384 510h-87l-60 79l-60 -79h-87l116 150h62z" />
    <glyph glyph-name="Zacute" unicode="&#x179;" horiz-adv-x="493" 
d="M37 594h420v-89l-314 -415h323v-90h-438v90l309 414h-300v90zM199 644l79 141h91l-79 -141h-91z" />
    <glyph glyph-name="zacute" unicode="&#x17a;" horiz-adv-x="421" 
d="M167 513l85 152h91l-85 -152h-91zM392 0h-360v81l230 280h-221v82h339v-83l-233 -278h245v-82z" />
    <glyph glyph-name="Zdotaccent" unicode="&#x17b;" horiz-adv-x="493" 
d="M252 638q-26 0 -44 18t-18 43q0 26 18 44t44 18t44 -18t18 -44q0 -25 -18 -43t-44 -18zM37 594h420v-89l-314 -415h323v-90h-438v90l309 414h-300v90z" />
    <glyph glyph-name="zdotaccent" unicode="&#x17c;" horiz-adv-x="421" 
d="M392 0h-360v81l230 280h-221v82h339v-83l-233 -278h245v-82zM219 516q-26 0 -44 18t-18 44t18 43.5t44 17.5t44 -17.5t18 -43.5t-18 -44t-44 -18z" />
    <glyph glyph-name="Aringacute" unicode="&#x1fa;" horiz-adv-x="599" 
d="M199 634q0 37 27 62.5t72 25.5t72.5 -25.5t27.5 -62.5q0 -38 -29 -62l224 -572h-111l-52 140h-265l-52 -140h-108l222 571q-28 25 -28 63zM196 224h203l-101 274zM254 752l53 95h91l-53 -95h-91zM254 634q0 -16 12 -27t32 -11q21 0 32.5 11t11.5 27q0 17 -11.5 28
t-32.5 11q-20 0 -32 -11t-12 -28z" />
    <glyph glyph-name="aringacute" unicode="&#x1fb;" horiz-adv-x="449" 
d="M273 677h-91l52 92h91zM227 527q19 0 30.5 10t11.5 26t-11.5 26.5t-30.5 10.5t-30.5 -10.5t-11.5 -26.5t11.5 -26t30.5 -10zM132 563q0 35 26 58.5t69 23.5t69 -23.5t26 -58.5t-26 -58.5t-69 -23.5t-69 23.5t-26 58.5zM291 194h-42q-52 0 -83 -15.5t-31 -49.5
q0 -35 28.5 -49.5t73.5 -14.5q11 0 25.5 1.5t28.5 3.5v124zM291 297q0 36 -24 53t-61 17q-38 0 -69 -10t-59 -26v86q29 17 65.5 26.5t78.5 9.5q36 0 66.5 -8t52.5 -26t34.5 -46.5t12.5 -70.5v-293q-32 -8 -73 -13t-79 -5q-43 0 -79.5 7t-63 23t-41.5 41.5t-15 63.5
q0 68 54 101t151 33h49v37z" />
    <glyph glyph-name="AEacute" unicode="&#x1fc;" horiz-adv-x="842" 
d="M507 644l79 141h91l-79 -141h-91zM790 594v-90h-262v-160h242v-88h-242v-166h267v-90h-369v140h-227l-84 -140h-110l359 594h426zM426 518l-177 -294h177v294z" />
    <glyph glyph-name="aeacute" unicode="&#x1fd;" horiz-adv-x="735" 
d="M318 513l85 152h91l-85 -152h-91zM308 15q-45 -25 -105 -25q-34 0 -64 8t-52.5 24t-36 41t-13.5 59q0 68 54.5 101t150.5 33h57q2 19 6 36q-3 40 -26 56q-26 20 -66 20q-44 0 -75.5 -10.5t-59.5 -26.5v86q29 17 65.5 26.5t77.5 9.5q34 0 63 -8.5t50 -26.5q13 -12 23 -28
q28 29 65 46q39 17 85 17q49 0 85 -16t59 -44t34.5 -66.5t11.5 -83.5v-51h-309q3 -22 11 -39q12 -27 32.5 -44.5t46.5 -25.5t54 -8q46 0 81 10.5t68 32.5v-87q-30 -21 -71.5 -31t-84.5 -10q-52 0 -94 16t-72 45q-22 -20 -51 -36zM604 256q-2 52 -25.5 83t-74.5 31t-84 -40
q-24 -28 -31 -74h215zM313 123q-12 31 -15 69h-51q-49 0 -80.5 -15.5t-31.5 -52.5q0 -31 22 -45.5t53 -14.5q65 0 108 46q-3 6 -5 13z" />
    <glyph glyph-name="Oslashacute" unicode="&#x1fe;" horiz-adv-x="700" 
d="M350 -10q-53 0 -100 15t-85 42l-43 -47h-86l82 90q-36 40 -56 92t-20 115q0 68 24 124.5t65.5 97t97.5 63t121 22.5q52 0 98.5 -15t84.5 -43l44 48h86l-81 -90q35 -40 55.5 -92t20.5 -115q0 -68 -24 -124.5t-66 -97t-98 -63t-120 -22.5zM229 118q25 -18 55.5 -28
t65.5 -10q43 0 80 15.5t65 44t44 68.5t16 89q0 39 -10.5 72.5t-29.5 59.5zM470 475q-51 39 -120 39q-43 0 -80.5 -15.5t-65 -44t-43.5 -68.5t-16 -89q0 -40 10 -73.5t29 -59.5zM297 644l79 141h91l-79 -141h-91z" />
    <glyph glyph-name="oslashacute" unicode="&#x1ff;" horiz-adv-x="532" 
d="M340 348q-31 22 -74 22q-29 0 -53 -10.5t-41 -30t-27 -47t-10 -61.5q0 -48 19 -84zM266 -10q-77 0 -133 39l-31 -34h-74l63 71q-53 62 -53 155q0 52 17 94.5t47.5 73t72 47.5t91.5 17q38 0 71.5 -10.5t61.5 -29.5l31 35h74l-64 -72q26 -30 40 -69t14 -86q0 -51 -17 -93.5
t-47.5 -73t-72.5 -47.5t-91 -17zM191 94q30 -21 75 -21q28 0 52.5 10.5t42 29.5t27.5 46.5t10 61.5q0 25 -5.5 46t-15.5 38zM216 513l85 152h91l-85 -152h-91z" />
    <glyph glyph-name="Scommaaccent" unicode="&#x218;" horiz-adv-x="442" 
d="M264 -42q0 -51 -25 -85.5t-64 -57.5h-67q34 35 47 68t13 75h96zM40 138q35 -26 72 -43.5t85 -17.5q22 0 42 4.5t35 14.5t24 25.5t9 38.5q0 21 -8 35.5t-22 25.5t-34 19t-45 16q-43 13 -74 29t-51.5 37.5t-30.5 49t-10 65.5q0 40 15 71.5t41 52.5t60.5 32t72.5 11
q48 0 85 -12.5t67 -32.5v-102q-35 29 -70.5 44.5t-78.5 15.5t-67.5 -21t-24.5 -56q0 -36 26 -55t83 -37q43 -13 74.5 -29.5t52 -38.5t30 -50.5t9.5 -66.5q0 -45 -16.5 -77.5t-45 -53.5t-66.5 -31.5t-81 -10.5q-49 0 -89 12t-69 32v104z" />
    <glyph glyph-name="scommaaccent" unicode="&#x219;" horiz-adv-x="391" 
d="M249 -42q0 -51 -25 -85.5t-64 -57.5h-67q34 35 47 68t13 75h96zM48 120q31 -23 66 -36.5t69 -13.5q33 0 53 12t20 38q0 27 -20 40t-63 24q-69 16 -100 46.5t-31 88.5q0 34 12 59t33 41.5t50 25t63 8.5q38 0 68.5 -8.5t58.5 -25.5v-91q-29 21 -59 33t-65 12q-32 0 -49 -14
t-17 -36t16 -34.5t54 -23.5q76 -17 110.5 -48.5t34.5 -91.5q0 -35 -12.5 -60.5t-35 -42t-53 -24.5t-66.5 -8q-39 0 -75.5 9.5t-61.5 26.5v94z" />
    <glyph glyph-name="Wgrave" unicode="&#x1e80;" horiz-adv-x="815" 
d="M365 644l-79 141h91l79 -141h-91zM463 594l119 -483l118 483h100l-152 -594h-130l-111 459l-112 -459h-129l-151 594h103l118 -483l118 483h109z" />
    <glyph glyph-name="wgrave" unicode="&#x1e81;" horiz-adv-x="671" 
d="M475 103l93 340h98l-130 -443h-111l-90 321l-90 -321h-110l-130 443h102l92 -340l93 340h89zM288 513l-85 152h91l85 -152h-91z" />
    <glyph glyph-name="Wacute" unicode="&#x1e82;" horiz-adv-x="815" 
d="M358 644l79 141h91l-79 -141h-91zM463 594l119 -483l118 483h100l-152 -594h-130l-111 459l-112 -459h-129l-151 594h103l118 -483l118 483h109z" />
    <glyph glyph-name="wacute" unicode="&#x1e83;" horiz-adv-x="671" 
d="M293 513l85 152h91l-85 -152h-91zM475 103l93 340h98l-130 -443h-111l-90 321l-90 -321h-110l-130 443h102l92 -340l93 340h89z" />
    <glyph glyph-name="Wdieresis" unicode="&#x1e84;" horiz-adv-x="815" 
d="M321 635q-25 0 -42.5 17.5t-17.5 42.5t17.5 42.5t42.5 17.5t42.5 -17.5t17.5 -42.5t-17.5 -42.5t-42.5 -17.5zM493 635q-25 0 -42.5 17.5t-17.5 42.5t17.5 42.5t42.5 17.5t42.5 -17.5t17.5 -42.5t-17.5 -42.5t-42.5 -17.5zM463 594l119 -483l118 483h100l-152 -594h-130
l-111 459l-112 -459h-129l-151 594h103l118 -483l118 483h109z" />
    <glyph glyph-name="wdieresis" unicode="&#x1e85;" horiz-adv-x="671" 
d="M249 516q-25 0 -42.5 18t-17.5 42q0 26 17.5 43t42.5 17t42.5 -17t17.5 -43q0 -24 -17.5 -42t-42.5 -18zM421 516q-25 0 -42.5 18t-17.5 42q0 26 17.5 43t42.5 17t42.5 -17t17.5 -43q0 -24 -17.5 -42t-42.5 -18zM475 103l93 340h98l-130 -443h-111l-90 321l-90 -321h-110
l-130 443h102l92 -340l93 340h89z" />
    <glyph glyph-name="Ygrave" unicode="&#x1ef2;" horiz-adv-x="542" 
d="M424 594h113l-215 -367v-227h-102v227l-215 367h113l154 -271zM231 644l-79 141h91l79 -141h-91z" />
    <glyph glyph-name="ygrave" unicode="&#x1ef3;" horiz-adv-x="468" 
d="M237 94l124 349h102l-240 -623h-97l62 160l-183 463h106zM196 513l-85 152h91l85 -152h-91z" />
    <glyph glyph-name="doublebar" unicode="&#x2016;" horiz-adv-x="434" 
d="M95 680h91v-818h-91v818zM248 680h90v-818h-90v818z" />
    <glyph glyph-name="uni2070" unicode="&#x2070;" horiz-adv-x="325" 
d="M303 421q0 -39 -10 -72t-28.5 -57t-44.5 -37t-57 -13q-32 0 -57.5 13t-44.5 37t-29 57t-10 72t10 72t29 56.5t44.5 36.5t57.5 13q31 0 57 -13t44.5 -36.5t28.5 -56.5t10 -72zM223 421q0 54 -17 81.5t-43 27.5t-43 -27.5t-17 -81.5t17 -82t43 -28t43 28t17 82z" />
    <glyph glyph-name="uni2074" unicode="&#x2074;" horiz-adv-x="324" 
d="M255 387h53v-60h-53v-79h-77v79h-163v61l161 206h79v-207zM84 387h94v121z" />
    <glyph glyph-name="uni2075" unicode="&#x2075;" horiz-adv-x="252" 
d="M104 469q27 -3 50.5 -10.5t41 -21t27.5 -34t10 -48.5q0 -54 -36 -83.5t-96 -29.5q-24 0 -48 7t-39 18v71q19 -13 40 -21.5t44 -8.5q27 0 43 11t16 34q0 16 -10.5 27t-27.5 18t-39 10t-46 5l13 181h175v-70h-114z" />
    <glyph glyph-name="uni2076" unicode="&#x2076;" horiz-adv-x="296" 
d="M212 594l-56 -92l-23 -34q13 10 33 10q23 0 43.5 -7.5t36.5 -22t25 -36t9 -48.5q0 -26 -9.5 -48t-26.5 -38.5t-41.5 -26t-54.5 -9.5q-60 0 -94 35t-34 87q0 33 12 62t28 55l69 113h83zM95 363q0 -26 15 -41t38 -15q25 0 40.5 15t15.5 41t-15.5 41.5t-40.5 15.5
q-23 0 -38 -15.5t-15 -41.5z" />
    <glyph glyph-name="uni2077" unicode="&#x2077;" horiz-adv-x="257" 
d="M9 524v70h232v-70l-131 -276h-82l130 276h-149z" />
    <glyph glyph-name="uni2078" unicode="&#x2078;" horiz-adv-x="285" 
d="M143 458q17 0 28.5 10.5t11.5 30.5q0 18 -11.5 28.5t-28.5 10.5t-29 -10.5t-12 -28.5q0 -20 12 -30.5t29 -10.5zM143 304q20 0 33.5 11.5t13.5 31.5t-13.5 32.5t-33.5 12.5t-33.5 -12.5t-13.5 -32.5t13.5 -31.5t33.5 -11.5zM143 242q-26 0 -48.5 7t-39.5 19.5t-27 31
t-10 42.5q0 32 19.5 53t42.5 28q-22 10 -35 30.5t-13 47.5q0 48 32.5 73t78.5 25q45 0 78 -25t33 -73q0 -27 -13.5 -47.5t-34.5 -30.5q23 -7 42 -28t19 -53q0 -48 -36 -74t-88 -26z" />
    <glyph glyph-name="uni2079" unicode="&#x2079;" horiz-adv-x="296" 
d="M84 248l56 93l23 33q-13 -10 -33 -10q-23 0 -43.5 7.5t-36.5 22t-25 36t-9 48.5q0 52 35.5 87t96.5 35q60 0 94 -35t34 -87q0 -33 -12 -62t-28 -55l-68 -113h-84zM202 479q0 26 -16 41t-39 15q-24 0 -39.5 -15t-15.5 -41q0 -27 15.5 -42t39.5 -15q23 0 39 15t16 42z" />
    <glyph glyph-name="uni2080" unicode="&#x2080;" horiz-adv-x="325" 
d="M303 173q0 -39 -10 -72t-28.5 -57t-44.5 -37t-57 -13q-32 0 -57.5 13t-44.5 37t-29 57t-10 72t10 72t29 57t44.5 37t57.5 13q31 0 57 -13t44.5 -37t28.5 -57t10 -72zM223 173q0 54 -17 81.5t-43 27.5t-43 -27.5t-17 -81.5t17 -81.5t43 -27.5t43 27.5t17 81.5z" />
    <glyph glyph-name="uni2081" unicode="&#x2081;" horiz-adv-x="200" 
d="M13 328l145 24v-352h-81v264l-64 -8v72z" />
    <glyph glyph-name="uni2083" unicode="&#x2083;" horiz-adv-x="254" 
d="M162 175q32 -8 52.5 -28.5t20.5 -54.5q0 -26 -10.5 -44.5t-28 -30.5t-40 -17.5t-46.5 -5.5q-32 0 -55 7t-40 18v77q16 -14 38 -24t50 -10q23 0 36.5 9.5t13.5 28.5q0 24 -18.5 32.5t-56.5 10.5v58q69 4 69 46q0 17 -11 25.5t-29 8.5q-23 0 -45.5 -11t-40.5 -27v76
q44 33 101 33q49 0 78 -24t29 -68q0 -32 -19 -54.5t-48 -30.5z" />
    <glyph glyph-name="uni2085" unicode="&#x2085;" horiz-adv-x="252" 
d="M104 221q27 -3 50.5 -10.5t41 -21t27.5 -33.5t10 -48q0 -54 -36 -84t-96 -30q-24 0 -48 7t-39 18v72q19 -14 40 -22.5t44 -8.5q27 0 43 11t16 34q0 16 -10.5 27.5t-27.5 18t-39 10t-46 5.5l13 180h175v-70h-114z" />
    <glyph glyph-name="uni2086" unicode="&#x2086;" horiz-adv-x="296" 
d="M212 346l-56 -92l-23 -34q13 11 33 11q23 0 43.5 -7.5t36.5 -22.5t25 -36.5t9 -48.5q0 -26 -9.5 -48t-26.5 -38.5t-41.5 -26t-54.5 -9.5t-53.5 9.5t-40 26t-25.5 38.5t-9 48q0 33 12 62.5t28 54.5l69 113h83zM95 116q0 -27 15 -42t38 -15q25 0 40.5 15t15.5 42
q0 26 -15.5 41t-40.5 15q-23 0 -38 -15t-15 -41z" />
    <glyph glyph-name="uni2087" unicode="&#x2087;" horiz-adv-x="257" 
d="M9 276v70h232v-70l-131 -276h-82l130 276h-149z" />
    <glyph glyph-name="uni2088" unicode="&#x2088;" horiz-adv-x="285" 
d="M143 210q17 0 28.5 10.5t11.5 30.5q0 18 -11.5 28.5t-28.5 10.5t-29 -10.5t-12 -28.5q0 -20 12 -30.5t29 -10.5zM143 56q20 0 33.5 11.5t13.5 31.5q0 21 -13.5 33t-33.5 12t-33.5 -12t-13.5 -33q0 -20 13.5 -31.5t33.5 -11.5zM143 -6q-26 0 -48.5 7t-39.5 19.5t-27 31.5
t-10 43q0 32 19.5 52.5t42.5 28.5q-22 10 -35 30t-13 47q0 48 32.5 73.5t78.5 25.5q45 0 78 -25.5t33 -73.5q0 -27 -13.5 -47t-34.5 -30q23 -8 42 -28.5t19 -52.5q0 -48 -36 -74.5t-88 -26.5z" />
    <glyph glyph-name="uni2089" unicode="&#x2089;" horiz-adv-x="296" 
d="M84 0l56 93l23 34q-13 -11 -33 -11q-23 0 -43.5 7.5t-36.5 22.5t-25 36.5t-9 48.5q0 51 35.5 86t96.5 35q30 0 53.5 -9.5t40 -25.5t25.5 -38.5t9 -47.5q0 -34 -12 -63t-28 -55l-68 -113h-84zM202 231q0 26 -16 41.5t-39 15.5q-24 0 -39.5 -15.5t-15.5 -41.5t15.5 -41.5
t39.5 -15.5q23 0 39 15.5t16 41.5z" />
    <glyph glyph-name="published" unicode="&#x2117;" horiz-adv-x="698" 
d="M45 297q0 65 22.5 121t63 97.5t96.5 65t122 23.5t121.5 -23.5t96 -65t63.5 -97.5t23 -121t-23 -121t-63.5 -97.5t-96 -65t-121.5 -23.5t-122 23.5t-96.5 65t-63 97.5t-22.5 121zM85 297q0 -59 19.5 -108.5t55 -85.5t84 -56t105.5 -20t105.5 20t84 56t55 85.5t19.5 108.5
t-19.5 108.5t-55 85.5t-84 56t-105.5 20t-105.5 -20t-84 -56t-55 -85.5t-19.5 -108.5zM325 296q5 -1 13 -1.5t17 -0.5q29 0 47.5 12.5t18.5 44.5q0 26 -17.5 42t-50.5 16q-8 0 -15.5 -0.5t-12.5 -1.5v-111zM325 122h-80v347q22 4 51 7t56 3q70 0 110 -33.5t40 -94.5
q0 -64 -39 -94t-100 -30h-20.5t-17.5 2v-107z" />
    <glyph glyph-name="uni2153" unicode="&#x2153;" horiz-adv-x="698" 
d="M575 175q32 -8 52.5 -28.5t20.5 -54.5q0 -26 -10.5 -44.5t-28 -30.5t-40 -17.5t-46.5 -5.5q-32 0 -55 7t-40 18v77q16 -14 38 -24t50 -10q23 0 36.5 9.5t13.5 28.5q0 24 -18.5 32.5t-56.5 10.5v58q69 4 69 46q0 17 -11 25.5t-29 8.5q-23 0 -45.5 -11t-40.5 -27v76
q44 33 101 33q49 0 78 -24t29 -68q0 -32 -19 -54.5t-48 -30.5zM40 576l145 23v-351h-81v263l-64 -8v73zM455 594h74l-346 -594h-75z" />
    <glyph glyph-name="uni2154" unicode="&#x2154;" horiz-adv-x="785" 
d="M662 175q32 -8 52.5 -28.5t20.5 -54.5q0 -26 -10.5 -44.5t-28 -30.5t-40 -17.5t-46.5 -5.5q-32 0 -55 7t-40 18v77q16 -14 38 -24t50 -10q23 0 36.5 9.5t13.5 28.5q0 24 -18.5 32.5t-56.5 10.5v58q69 4 69 46q0 17 -11 25.5t-29 8.5q-23 0 -45.5 -11t-40.5 -27v76
q44 33 101 33q49 0 78 -24t29 -68q0 -32 -19 -54.5t-48 -30.5zM289 318v-70h-239v59q29 24 55.5 46.5t46.5 44t32 42t12 40.5q0 23 -12.5 34.5t-35.5 11.5q-26 0 -49.5 -12.5t-40.5 -26.5v75q20 18 48.5 27.5t60.5 9.5q50 0 81.5 -26t31.5 -77t-36 -94.5t-90 -83.5h135z
M542 594h74l-346 -594h-75z" />
    <glyph glyph-name="uni215B" unicode="&#x215b;" horiz-adv-x="705" 
d="M531 210q17 0 28.5 10.5t11.5 30.5q0 18 -11.5 28.5t-28.5 10.5t-29 -10.5t-12 -28.5q0 -20 12 -30.5t29 -10.5zM531 56q20 0 33.5 11.5t13.5 31.5q0 21 -13.5 33t-33.5 12t-33.5 -12t-13.5 -33q0 -20 13.5 -31.5t33.5 -11.5zM531 -6q-26 0 -48.5 7t-39.5 19.5t-27 31.5
t-10 43q0 32 19.5 52.5t42.5 28.5q-22 10 -35 30t-13 47q0 48 32.5 73.5t78.5 25.5q45 0 78 -25.5t33 -73.5q0 -27 -13.5 -47t-34.5 -30q23 -8 42 -28.5t19 -52.5q0 -48 -36 -74.5t-88 -26.5zM40 576l145 23v-351h-81v263l-64 -8v73zM455 594h74l-346 -594h-75z" />
    <glyph glyph-name="uni215C" unicode="&#x215c;" horiz-adv-x="754" 
d="M580 210q17 0 28.5 10.5t11.5 30.5q0 18 -11.5 28.5t-28.5 10.5t-29 -10.5t-12 -28.5q0 -20 12 -30.5t29 -10.5zM580 56q20 0 33.5 11.5t13.5 31.5q0 21 -13.5 33t-33.5 12t-33.5 -12t-13.5 -33q0 -20 13.5 -31.5t33.5 -11.5zM580 -6q-26 0 -48.5 7t-39.5 19.5t-27 31.5
t-10 43q0 32 19.5 52.5t42.5 28.5q-22 10 -35 30t-13 47q0 48 32.5 73.5t78.5 25.5q45 0 78 -25.5t33 -73.5q0 -27 -13.5 -47t-34.5 -30q23 -8 42 -28.5t19 -52.5q0 -48 -36 -74.5t-88 -26.5zM197 423q32 -8 52.5 -29t20.5 -54q0 -26 -10.5 -44.5t-28 -30.5t-40 -17.5
t-46.5 -5.5q-32 0 -55 7t-40 18v77q16 -14 38 -24t50 -10q23 0 36.5 9.5t13.5 28.5q0 23 -18.5 32t-56.5 11v58q69 4 69 46q0 17 -11 25t-29 8q-23 0 -45.5 -11t-40.5 -26v75q42 33 101 33q49 0 78 -23.5t29 -67.5q0 -32 -19 -55t-48 -30zM504 594h74l-346 -594h-75z" />
    <glyph glyph-name="uni215D" unicode="&#x215d;" horiz-adv-x="748" 
d="M137 469q27 -3 50.5 -10.5t41 -21t27.5 -34t10 -48.5q0 -54 -36 -83.5t-96 -29.5q-24 0 -48 7t-39 18v71q19 -13 40 -21.5t44 -8.5q27 0 43 11t16 34q0 16 -10.5 27t-27.5 18t-39 10t-46 5l13 181h175v-70h-114zM498 594h74l-346 -594h-75zM574 210q17 0 28.5 10.5
t11.5 30.5q0 18 -11.5 28.5t-28.5 10.5t-29 -10.5t-12 -28.5q0 -20 12 -30.5t29 -10.5zM574 56q20 0 33.5 11.5t13.5 31.5q0 21 -13.5 33t-33.5 12t-33.5 -12t-13.5 -33q0 -20 13.5 -31.5t33.5 -11.5zM574 -6q-26 0 -48.5 7t-39.5 19.5t-27 31.5t-10 43q0 32 19.5 52.5
t42.5 28.5q-22 10 -35 30t-13 47q0 48 32.5 73.5t78.5 25.5q45 0 78 -25.5t33 -73.5q0 -27 -13.5 -47t-34.5 -30q23 -8 42 -28.5t19 -52.5q0 -48 -36 -74.5t-88 -26.5z" />
    <glyph glyph-name="uni215E" unicode="&#x215e;" horiz-adv-x="701" 
d="M35 524v70h232v-70l-131 -276h-82l130 276h-149zM527 210q17 0 28.5 10.5t11.5 30.5q0 18 -11.5 28.5t-28.5 10.5t-29 -10.5t-12 -28.5q0 -20 12 -30.5t29 -10.5zM527 56q20 0 33.5 11.5t13.5 31.5q0 21 -13.5 33t-33.5 12t-33.5 -12t-13.5 -33q0 -20 13.5 -31.5
t33.5 -11.5zM527 -6q-26 0 -48.5 7t-39.5 19.5t-27 31.5t-10 43q0 32 19.5 52.5t42.5 28.5q-22 10 -35 30t-13 47q0 48 32.5 73.5t78.5 25.5q45 0 78 -25.5t33 -73.5q0 -27 -13.5 -47t-34.5 -30q23 -8 42 -28.5t19 -52.5q0 -48 -36 -74.5t-88 -26.5zM451 594h74l-346 -594
h-75z" />
    <glyph glyph-name="Delta" unicode="&#x2206;" horiz-adv-x="599" 
d="M453 83l-155 420l-156 -420h311zM5 0l231 594h125l232 -594h-588z" />
    <glyph glyph-name="zero.slash" unicode="&#xe401;" horiz-adv-x="534" 
d="M316 503q-23 14 -49 14q-57 0 -92 -58.5t-35 -161.5q0 -109 40 -166zM267 77q57 0 92.5 58.5t35.5 161.5q0 53 -10.5 95t-30.5 71l-136 -373q22 -13 49 -13zM267 -10q-52 0 -94 23t-72 63.5t-46 97t-16 123.5t16 123.5t46 97t72 63.5t94 23t94 -23t72 -63.5t46 -97
t16 -123.5t-16 -123.5t-46 -97t-72 -63.5t-94 -23z" />
    <glyph glyph-name="zero.slash" unicode="&#xe515;" horiz-adv-x="534" 
d="M316 503q-23 14 -49 14q-57 0 -92 -58.5t-35 -161.5q0 -109 40 -166zM267 77q57 0 92.5 58.5t35.5 161.5q0 53 -10.5 95t-30.5 71l-136 -373q22 -13 49 -13zM267 -10q-52 0 -94 23t-72 63.5t-46 97t-16 123.5t16 123.5t46 97t72 63.5t94 23t94 -23t72 -63.5t46 -97
t16 -123.5t-16 -123.5t-46 -97t-72 -63.5t-94 -23z" />
    <glyph glyph-name="invertedbreve" unicode="&#xe411;" horiz-adv-x="500" 
d="M250 649q57 0 90 -36.5t33 -100.5h-75q0 29 -11 49.5t-37 20.5t-37 -20.5t-11 -49.5h-75q0 64 33 100.5t90 36.5z" />
    <glyph glyph-name="doublegrave" unicode="&#xe412;" horiz-adv-x="500" 
d="M316 513l-85 152h84l85 -152h-84zM184 513l-85 152h84l85 -152h-84z" />
    <glyph glyph-name="dotbelow" unicode="&#xe415;" horiz-adv-x="500" 
d="M250 -182q-25 0 -43.5 18t-18.5 42q0 26 18.5 44t43.5 18t43 -18t18 -44q0 -24 -18 -42t-43 -18z" />
    <glyph glyph-name="altcedilla" unicode="&#xe416;" horiz-adv-x="500" 
d="M317 0q-4 -45 -23 -85.5t-47 -60.5h-89q33 31 53 68.5t24 77.5h82z" />
    <glyph glyph-name="invertedbreve.cap" unicode="&#xe427;" horiz-adv-x="500" 
d="M250 776q57 0 90 -34.5t33 -98.5h-75q0 30 -11 48t-37 18t-37 -18t-11 -48h-75q0 64 33 98.5t90 34.5z" />
    <glyph glyph-name="doublegrave.cap" unicode="&#xe42c;" horiz-adv-x="500" 
d="M310 644l-79 141h84l79 -141h-84zM178 644l-79 141h84l79 -141h-84z" />
    <glyph glyph-name="exclamdown.cap" unicode="&#xe441;" horiz-adv-x="263" 
d="M180 0h-97v409h97v-409zM63 535q0 29 19.5 49t48.5 20q28 0 48.5 -20t20.5 -49t-20.5 -49t-48.5 -20q-29 0 -48.5 20t-19.5 49z" />
    <glyph glyph-name="questiondown.cap" unicode="&#xe444;" horiz-adv-x="381" 
d="M361 52q-24 -25 -65.5 -43.5t-95.5 -18.5q-82 0 -131.5 44t-49.5 125q0 45 16.5 76t41 51.5t52.5 33t52 19.5v69h93v-116q-37 -11 -66 -22.5t-49.5 -25.5t-31 -33.5t-10.5 -46.5q0 -41 27.5 -63t66.5 -22q45 0 80 18.5t70 50.5v-96zM294 535q0 -29 -19.5 -49.5
t-47.5 -20.5q-29 0 -49.5 20.5t-20.5 49.5q0 28 20.5 48t49.5 20q28 0 47.5 -20t19.5 -48z" />
    <glyph glyph-name="guilsinglleft.cap" unicode="&#xe451;" horiz-adv-x="313" 
d="M145 295l122 -158h-98l-123 158l123 158h98z" />
    <glyph glyph-name="guilsinglright.cap" unicode="&#xe452;" horiz-adv-x="313" 
d="M46 453h98l123 -158l-123 -158h-98l122 158z" />
    <glyph glyph-name="guillemotleft.cap" unicode="&#xe453;" horiz-adv-x="475" 
d="M145 295l122 -158h-98l-123 158l123 158h98zM307 295l122 -158h-98l-123 158l123 158h98z" />
    <glyph glyph-name="guillemotright.cap" unicode="&#xe454;" horiz-adv-x="475" 
d="M46 453h98l123 -158l-123 -158h-98l122 158zM208 453h98l123 -158l-123 -158h-98l122 158z" />
    <glyph glyph-name="slash.cap" unicode="&#xe461;" horiz-adv-x="429" 
d="M314 680h99l-298 -780h-99z" />
    <glyph glyph-name="backslash.cap" unicode="&#xe462;" horiz-adv-x="429" 
d="M413 -100h-99l-298 780h99z" />
    <glyph glyph-name="bar.cap" unicode="&#xe463;" horiz-adv-x="281" 
d="M95 680h91v-780h-91v780z" />
    <glyph glyph-name="doublebar.cap" unicode="&#xe464;" horiz-adv-x="434" 
d="M95 680h91v-780h-91v780zM248 680h90v-780h-90v780z" />
    <glyph glyph-name="brokenbar.cap" unicode="&#xe465;" horiz-adv-x="281" 
d="M95 680h91v-321h-91v321zM95 221h91v-321h-91v321z" />
    <glyph glyph-name="bullet.cap" unicode="&#xe466;" horiz-adv-x="331" 
d="M61 293q0 22 8 41t22 33t33 22.5t41 8.5t41 -8.5t33 -22.5t22.5 -33t8.5 -41t-8.5 -41t-22.5 -33.5t-33 -22.5t-41 -8q-44 0 -74 30t-30 75z" />
    <glyph glyph-name="periodcentered.cap" unicode="&#xe481;" horiz-adv-x="259" 
d="M61 293q0 29 19.5 49t48.5 20t49 -20t20 -49t-20 -49t-49 -20t-48.5 20t-19.5 49z" />
    <glyph glyph-name="hyphen.cap" unicode="&#xe482;" horiz-adv-x="355" 
d="M53 340h249v-87h-249v87z" />
    <glyph glyph-name="endash.cap" unicode="&#xe484;" horiz-adv-x="572" 
d="M53 335h466v-76h-466v76z" />
    <glyph glyph-name="emdash.cap" unicode="&#xe486;" horiz-adv-x="952" 
d="M53 335h846v-76h-846v76z" />
    <glyph glyph-name="parenleft.cap" unicode="&#xe491;" horiz-adv-x="364" 
d="M71 290q0 118 47 219.5t125 170.5h111q-85 -80 -136.5 -176t-51.5 -214t51.5 -214t136.5 -176h-111q-39 34 -71 77.5t-54.5 93.5t-34.5 105t-12 114z" />
    <glyph glyph-name="parenright.cap" unicode="&#xe492;" horiz-adv-x="364" 
d="M293 290q0 -59 -12.5 -114t-35 -105t-54 -93.5t-70.5 -77.5h-111q85 80 136.5 176t51.5 214t-51.5 214t-136.5 176h111q78 -69 125 -170.5t47 -219.5z" />
    <glyph glyph-name="bracketleft.cap" unicode="&#xe493;" horiz-adv-x="339" 
d="M183 -23h106v-77h-196v780h196v-77h-106v-626z" />
    <glyph glyph-name="bracketright.cap" unicode="&#xe494;" horiz-adv-x="339" 
d="M156 603h-106v77h196v-780h-196v77h106v626z" />
    <glyph glyph-name="braceleft.cap" unicode="&#xe495;" horiz-adv-x="366" 
d="M131 290q19 -2 38.5 -11t34.5 -25.5t24.5 -40.5t9.5 -55v-113q0 -32 12 -50t44 -18h30v-77h-39q-67 0 -102.5 36t-35.5 109v117q0 50 -23 69.5t-55 19.5h-29v78h29q32 0 55 19.5t23 69.5v117q0 73 35.5 109t102.5 36h39v-77h-30q-32 0 -44 -18t-12 -50v-113
q0 -31 -9.5 -55t-24.5 -40.5t-34.5 -26t-38.5 -10.5z" />
    <glyph glyph-name="braceright.cap" unicode="&#xe496;" horiz-adv-x="366" 
d="M235 290q-20 1 -39 10.5t-34 26t-24.5 40.5t-9.5 55v113q0 32 -12 50t-44 18h-30v77h39q67 0 102.5 -36t35.5 -109v-117q0 -50 23 -69.5t55 -19.5h29v-78h-29q-32 0 -55 -19.5t-23 -69.5v-117q0 -73 -35.5 -109t-102.5 -36h-39v77h30q32 0 44 18t12 50v113q0 31 9.5 55
t24.5 40.5t34 25.5t39 11z" />
    <glyph glyph-name="at.cap" unicode="&#xe513;" horiz-adv-x="769" 
d="M550 176q49 20 79 66t30 120q0 54 -17.5 97t-50 73t-79 46t-104.5 16q-70 0 -125.5 -22.5t-94.5 -62.5t-59.5 -95.5t-20.5 -121.5q0 -84 30 -142t78 -93t108 -50.5t119 -15.5q57 0 104.5 8.5t95.5 26.5v-60q-36 -15 -87.5 -24.5t-112.5 -9.5q-77 0 -149 20t-128 63.5
t-89.5 112t-33.5 164.5q0 76 25 142t72.5 114.5t115 76t152.5 27.5q75 0 134 -21.5t100 -59.5t62.5 -91.5t21.5 -117.5q0 -67 -22.5 -117.5t-62 -84.5t-93.5 -51t-118 -17q-50 0 -91.5 13t-70.5 38.5t-45 62t-16 84.5q0 46 15.5 83t44 63.5t67.5 40.5t87 14q35 0 69 -6.5
t60 -17.5v-291zM471 407q-11 4 -23.5 5t-26.5 1q-60 0 -94.5 -34t-34.5 -89q0 -58 36 -92t97 -34q6 0 20 0.5t26 2.5v240z" />
    <glyph glyph-name="zero.inf" unicode="&#xe571;" horiz-adv-x="325" 
d="M303 -7q0 -39 -10 -72t-28.5 -57t-44.5 -37t-57 -13q-32 0 -57.5 13t-44.5 37t-29 57t-10 72t10 72t29 57t44.5 37t57.5 13q31 0 57 -13t44.5 -37t28.5 -57t10 -72zM223 -7q0 54 -17 81.5t-43 27.5t-43 -27.5t-17 -81.5t17 -81.5t43 -27.5t43 27.5t17 81.5z" />
    <glyph glyph-name="one.inf" unicode="&#xe572;" horiz-adv-x="200" 
d="M13 148l145 24v-352h-81v264l-64 -8v72z" />
    <glyph glyph-name="two.inf" unicode="&#xe573;" horiz-adv-x="267" 
d="M249 -110v-70h-239v60q29 23 55.5 45.5t46.5 44.5t32 42.5t12 40.5q0 23 -12.5 34.5t-35.5 11.5q-26 0 -49.5 -13t-40.5 -27v75q20 18 48.5 28t60.5 10q50 0 81.5 -26.5t31.5 -77.5t-36 -94.5t-90 -83.5h135z" />
    <glyph glyph-name="three.inf" unicode="&#xe574;" horiz-adv-x="254" 
d="M162 -5q32 -8 52.5 -28.5t20.5 -54.5q0 -26 -10.5 -44.5t-28 -30.5t-40 -17.5t-46.5 -5.5q-32 0 -55 7t-40 18v77q16 -14 38 -24t50 -10q23 0 36.5 9.5t13.5 28.5q0 24 -18.5 32.5t-56.5 10.5v58q69 4 69 46q0 17 -11 25.5t-29 8.5q-23 0 -45.5 -11t-40.5 -27v76
q44 33 101 33q49 0 78 -24t29 -68q0 -32 -19 -54.5t-48 -30.5z" />
    <glyph glyph-name="four.inf" unicode="&#xe575;" horiz-adv-x="324" 
d="M255 -40h53v-61h-53v-79h-77v79h-163v61l161 206h79v-206zM84 -40h94v121z" />
    <glyph glyph-name="five.inf" unicode="&#xe576;" horiz-adv-x="252" 
d="M104 41q27 -3 50.5 -10.5t41 -21t27.5 -33.5t10 -48q0 -54 -36 -84t-96 -30q-24 0 -48 7t-39 18v72q19 -14 40 -22.5t44 -8.5q27 0 43 11t16 34q0 16 -10.5 27.5t-27.5 18t-39 10t-46 5.5l13 180h175v-70h-114z" />
    <glyph glyph-name="six.inf" unicode="&#xe577;" horiz-adv-x="296" 
d="M212 166l-56 -92l-23 -34q13 11 33 11q23 0 43.5 -7.5t36.5 -22.5t25 -36.5t9 -48.5q0 -26 -9.5 -48t-26.5 -38.5t-41.5 -26t-54.5 -9.5t-53.5 9.5t-40 26t-25.5 38.5t-9 48q0 33 12 62.5t28 54.5l69 113h83zM95 -64q0 -27 15 -42t38 -15q25 0 40.5 15t15.5 42
q0 26 -15.5 41t-40.5 15q-23 0 -38 -15t-15 -41z" />
    <glyph glyph-name="seven.inf" unicode="&#xe578;" horiz-adv-x="257" 
d="M9 96v70h232v-70l-131 -276h-82l130 276h-149z" />
    <glyph glyph-name="eight.inf" unicode="&#xe579;" horiz-adv-x="285" 
d="M143 30q17 0 28.5 10.5t11.5 30.5q0 18 -11.5 28.5t-28.5 10.5t-29 -10.5t-12 -28.5q0 -20 12 -30.5t29 -10.5zM143 -124q20 0 33.5 11.5t13.5 31.5q0 21 -13.5 33t-33.5 12t-33.5 -12t-13.5 -33q0 -20 13.5 -31.5t33.5 -11.5zM143 -186q-26 0 -48.5 7t-39.5 19.5
t-27 31.5t-10 43q0 32 19.5 52.5t42.5 28.5q-22 10 -35 30t-13 47q0 48 32.5 73.5t78.5 25.5q45 0 78 -25.5t33 -73.5q0 -27 -13.5 -47t-34.5 -30q23 -8 42 -28.5t19 -52.5q0 -48 -36 -74.5t-88 -26.5z" />
    <glyph glyph-name="nine.inf" unicode="&#xe57a;" horiz-adv-x="296" 
d="M84 -180l56 93l23 34q-13 -11 -33 -11q-23 0 -43.5 7.5t-36.5 22.5t-25 36.5t-9 48.5q0 51 35.5 86t96.5 35q30 0 53.5 -9.5t40 -25.5t25.5 -38.5t9 -47.5q0 -34 -12 -63t-28 -55l-68 -113h-84zM202 51q0 26 -16 41.5t-39 15.5q-24 0 -39.5 -15.5t-15.5 -41.5t15.5 -41.5
t39.5 -15.5q23 0 39 15.5t16 41.5z" />
    </font>
</defs>
</svg>
