<?xml version="1.0" encoding="utf-8"?>
<!-- Generator: Adobe Illustrator 23.1.1, SVG Export Plug-In . SVG Version: 6.00 Build 0)  -->
<svg version="1.1" id="Livello_1" xmlns="http://www.w3.org/2000/svg" xmlns:xlink="http://www.w3.org/1999/xlink" x="0px" y="0px"
	 viewBox="0 0 34.7 23" style="enable-background:new 0 0 34.7 23;" xml:space="preserve">
<style type="text/css">
	.st0{fill:#0066CC;}
</style>
<title>logo-pagopa</title>
<g id="Layer_2">
	<g id="Layer_1-2">
		<path class="st0" d="M24.4,6.9v2.9h-2.1V0h3.9c1.3,0,1.9,0.3,1.9,1v4.8c0,0.7-0.6,1-1.9,1L24.4,6.9L24.4,6.9z M26,1.1h-1.6v4.5H26
			V1.1z"/>
		<path class="st0" d="M1.8,9.8v2.9H0V2.9h3.3c1.1,0,1.6,0.3,1.6,1v4.8c0,0.7-0.5,1-1.5,1L1.8,9.8L1.8,9.8z M3.1,4H1.8v4.5h1.3V4z"
			/>
		<path class="st0" d="M10.4,9.7H7c-1,0-1.5-0.3-1.5-1v-2c0-0.7,0.5-1,1.5-1h1.6V4H7.3v1H5.5V4c0-0.7,0.5-1,1.6-1h1.7
			c1,0,1.6,0.3,1.6,1L10.4,9.7z M7.3,8.6h1.3V6.8H7.3V8.6z"/>
		<path class="st0" d="M14.2,9.7h-1.6c-1,0-1.5-0.3-1.5-1V3.9c0-0.7,0.5-1,1.6-1H16v8.8c0,0.7-0.5,1-1.6,1h-1.8c-1,0-1.6-0.3-1.6-1
			v-1h1.8v0.9h1.3V9.7H14.2z M12.9,8.6h1.3V4h-1.3V8.6z"/>
		<path class="st0" d="M21.5,8.7c0,0.7-0.5,1-1.6,1h-1.7c-1,0-1.6-0.3-1.6-1V3.9c0-0.7,0.5-1,1.6-1H20c1,0,1.5,0.3,1.5,1V8.7z
			 M19.7,4h-1.3v4.5h1.3V4z"/>
		<path class="st0" d="M34.7,1.1c0-0.7-0.6-1-1.8-1h-2.1c-1.2,0-1.9,0.3-1.9,1v8.7H31v-3h1.6v2.5c0,6.4-5.2,11.6-11.6,11.6
			c-3.6,0-6.9-1.6-9.1-4.5l1.1-0.8l-4.3-2.8l0.2,6l1.4-1.1c4.6,6,13.2,7,19.2,2.4c3.3-2.6,5.3-6.5,5.3-10.7L34.7,1.1L34.7,1.1z
			 M32.6,5.7H31V1.2h1.6V5.7z"/>
	</g>
</g>
</svg>
