<?xml version="1.0" standalone="no"?>
<!DOCTYPE svg PUBLIC "-//W3C//DTD SVG 1.1//EN" "http://www.w3.org/Graphics/SVG/1.1/DTD/svg11.dtd" >
<svg xmlns="http://www.w3.org/2000/svg" xmlns:xlink="http://www.w3.org/1999/xlink" version="1.1">
<metadata>
Created by FontForge 20170104 at Thu Dec  1 20:28:43 2016
 By myTaste
Copyright (c) 2003 by Kris Sowersby. All rights reserved.
</metadata>
<defs>
<font id="KarbonApp" horiz-adv-x="520" >
  <font-face 
    font-family="Karbon App"
    font-weight="400"
    font-stretch="normal"
    units-per-em="1000"
    panose-1="2 0 0 0 0 0 0 0 0 0"
    ascent="800"
    descent="-200"
    x-height="436"
    cap-height="594"
    bbox="-100 -190 1022 852"
    underline-thickness="50"
    underline-position="-100"
    unicode-range="U+000D-E57A"
  />
<missing-glyph horiz-adv-x="253" 
 />
    <glyph glyph-name="fi" unicode="fi" horiz-adv-x="493" 
d="M147 0h-60v385h-67v51h67v90q0 76 41 120t112 44q38 0 65 -10.5t43 -21.5v-60q-21 16 -47 27t-61 11q-45 0 -69 -28t-24 -82v-90h271v-436h-60v385h-211v-385z" />
    <glyph glyph-name="fl" unicode="fl" horiz-adv-x="493" 
d="M87 546q0 69 34 106.5t98 37.5q20 0 37 -4t29 -11v-56q-14 10 -29.5 14.5t-36.5 4.5q-32 0 -52 -20t-20 -73v-109h120v-51h-120v-385h-60v385h-67v51h67v110zM418 0h-60v680h60v-680z" />
    <glyph glyph-name="f_f_b" unicode="ffb" horiz-adv-x="1064" 
d="M418 0h-60v385h-211v-385h-60v385h-67v51h67v98q0 69 34 106.5t98 37.5q20 0 37 -4t29 -11v-56q-14 10 -29.5 14.5t-36.5 4.5q-32 0 -52 -20t-20 -73v-97h211v110q0 69 34 106.5t98 37.5q20 0 37 -4t29 -11v-56q-14 10 -29.5 14.5t-36.5 4.5q-32 0 -52 -20t-20 -73v-109
h120v-51h-120v-385zM629 680h60v-256q14 8 43 15t61 7q49 0 91 -14t72.5 -42.5t48 -71t17.5 -98.5q0 -53 -18 -95.5t-51 -72.5t-79 -46t-103 -16q-35 0 -71.5 5.5t-70.5 16.5v668zM961 220q0 42 -13.5 74t-36.5 54t-53.5 33t-64.5 11t-59.5 -5.5t-44.5 -14.5v-319
q19 -5 40 -7.5t42 -2.5q88 0 139 46.5t51 130.5z" />
    <glyph glyph-name="f_f_h" unicode="ffh" horiz-adv-x="1059" 
d="M418 0h-60v385h-211v-385h-60v385h-67v51h67v98q0 69 34 106.5t98 37.5q20 0 37 -4t29 -11v-56q-14 10 -29.5 14.5t-36.5 4.5q-32 0 -52 -20t-20 -73v-97h211v110q0 69 34 106.5t98 37.5q20 0 37 -4t29 -11v-56q-14 10 -29.5 14.5t-36.5 4.5q-32 0 -52 -20t-20 -73v-109
h120v-51h-120v-385zM629 680h60v-257q25 9 59 16t69 7q79 0 125.5 -35t46.5 -117v-294h-60v282q0 33 -11 54t-28 33t-39 16.5t-44 4.5q-35 0 -65 -6t-53 -14v-370h-60v680z" />
    <glyph glyph-name="f_f_j" unicode="ffj" horiz-adv-x="764" 
d="M418 385v-385h-60v385h-211v-385h-60v385h-67v51h67v98q0 69 34 106.5t98 37.5q20 0 37 -4t29 -11v-56q-14 10 -29.5 14.5t-36.5 4.5q-32 0 -52 -20t-20 -73v-97h211v90q0 76 41 120t112 44q38 0 65 -10.5t43 -21.5v-60q-21 16 -47 27t-61 11q-45 0 -69 -28t-24 -82v-90
h271v-490q0 -64 -30.5 -100t-100.5 -36q-16 0 -34.5 4t-31.5 10v55q11 -8 28.5 -12.5t37.5 -4.5q32 0 51.5 18.5t19.5 69.5v435h-211z" />
    <glyph glyph-name="f_f_k" unicode="ffk" horiz-adv-x="1011" 
d="M418 0h-60v385h-211v-385h-60v385h-67v51h67v98q0 69 34 106.5t98 37.5q20 0 37 -4t29 -11v-56q-14 10 -29.5 14.5t-36.5 4.5q-32 0 -52 -20t-20 -73v-97h211v110q0 69 34 106.5t98 37.5q20 0 37 -4t29 -11v-56q-14 10 -29.5 14.5t-36.5 4.5q-32 0 -52 -20t-20 -73v-109
h120v-51h-120v-385zM692 236l221 200h84l-226 -198l230 -238h-80zM689 0h-60v680h60v-680z" />
    <glyph glyph-name="f_b" unicode="fb" horiz-adv-x="793" 
d="M87 546q0 69 34 106.5t98 37.5q20 0 37 -4t29 -11v-56q-14 10 -29.5 14.5t-36.5 4.5q-32 0 -52 -20t-20 -73v-109h120v-51h-120v-385h-60v385h-67v51h67v110zM358 680h60v-256q14 8 43 15t61 7q49 0 91 -14t72.5 -42.5t48 -71t17.5 -98.5q0 -53 -18 -95.5t-51 -72.5
t-79 -46t-103 -16q-35 0 -71.5 5.5t-70.5 16.5v668zM690 220q0 42 -13.5 74t-36.5 54t-53.5 33t-64.5 11t-59.5 -5.5t-44.5 -14.5v-319q19 -5 40 -7.5t42 -2.5q88 0 139 46.5t51 130.5z" />
    <glyph glyph-name="f_h" unicode="fh" horiz-adv-x="788" 
d="M87 546q0 69 34 106.5t98 37.5q20 0 37 -4t29 -11v-56q-14 10 -29.5 14.5t-36.5 4.5q-32 0 -52 -20t-20 -73v-109h120v-51h-120v-385h-60v385h-67v51h67v110zM358 680h60v-257q25 9 59 16t69 7q79 0 125.5 -35t46.5 -117v-294h-60v282q0 33 -11 54t-28 33t-39 16.5
t-44 4.5q-35 0 -65 -6t-53 -14v-370h-60v680z" />
    <glyph glyph-name="f_j" unicode="fj" horiz-adv-x="493" 
d="M358 385h-211v-385h-60v385h-67v51h67v90q0 76 41 120t112 44q38 0 65 -10.5t43 -21.5v-60q-21 16 -47 27t-61 11q-45 0 -69 -28t-24 -82v-90h271v-490q0 -64 -30.5 -100t-100.5 -36q-16 0 -34.5 4t-31.5 10v55q11 -8 28.5 -12.5t37.5 -4.5q32 0 51.5 18.5t19.5 69.5v435
z" />
    <glyph glyph-name="f_k" unicode="fk" horiz-adv-x="740" 
d="M87 546q0 69 34 106.5t98 37.5q20 0 37 -4t29 -11v-56q-14 10 -29.5 14.5t-36.5 4.5q-32 0 -52 -20t-20 -73v-109h120v-51h-120v-385h-60v385h-67v51h67v110zM421 236l221 200h84l-226 -198l230 -238h-80zM418 0h-60v680h60v-680z" />
    <glyph glyph-name="ff" unicode="ff" horiz-adv-x="540" 
d="M147 0h-60v385h-67v51h67v98q0 69 34 106.5t98 37.5q20 0 37 -4t29 -11v-56q-14 10 -29.5 14.5t-36.5 4.5q-32 0 -52 -20t-20 -73v-97h211v109q0 69 34 107t100 38q25 0 43 -5.5t35 -16.5v-57q-16 11 -34.5 18.5t-42.5 7.5q-35 0 -55 -20t-20 -73v-108h120v-51h-120v-385
h-60v385h-211v-385z" />
    <glyph glyph-name="ffi" unicode="ffi" horiz-adv-x="764" 
d="M418 0h-60v385h-211v-385h-60v385h-67v51h67v98q0 69 34 106.5t98 37.5q20 0 37 -4t29 -11v-56q-14 10 -29.5 14.5t-36.5 4.5q-32 0 -52 -20t-20 -73v-97h211v90q0 76 41 120t112 44q38 0 65 -10.5t43 -21.5v-60q-21 16 -47 27t-61 11q-45 0 -69 -28t-24 -82v-90h271
v-436h-60v385h-211v-385z" />
    <glyph glyph-name="ffl" unicode="ffl" horiz-adv-x="764" 
d="M418 0h-60v385h-211v-385h-60v385h-67v51h67v98q0 69 34 106.5t98 37.5q20 0 37 -4t29 -11v-56q-14 10 -29.5 14.5t-36.5 4.5q-32 0 -52 -20t-20 -73v-97h211v110q0 69 34 106.5t98 37.5q20 0 37 -4t29 -11v-56q-14 10 -29.5 14.5t-36.5 4.5q-32 0 -52 -20t-20 -73v-109
h120v-51h-120v-385zM689 0h-60v680h60v-680z" />
    <glyph glyph-name=".notdef" horiz-adv-x="253" 
 />
    <glyph glyph-name=".null" horiz-adv-x="0" 
 />
    <glyph glyph-name=".null" horiz-adv-x="0" 
 />
    <glyph glyph-name="nonmarkingreturn" unicode="&#xd;" horiz-adv-x="253" 
 />
    <glyph glyph-name="space" unicode=" " horiz-adv-x="190" 
 />
    <glyph glyph-name="lslash" unicode="&#x142;" horiz-adv-x="255" 
d="M155 397l80 60v-59l-80 -60v-338h-60v302l-75 -54v59l75 55v318h60v-283z" />
    <glyph glyph-name="Scaron" unicode="&#x160;" horiz-adv-x="429" 
d="M42 104q36 -29 71 -45t80 -16q27 0 51 6t42 19t28.5 34t10.5 50q0 27 -9.5 46t-26 33t-39 24.5t-49.5 20.5q-40 15 -70.5 30t-51 34.5t-31 46t-10.5 64.5t14.5 66.5t38.5 48t55.5 29t64.5 9.5q44 0 79.5 -12.5t62.5 -34.5v-64q-36 29 -68.5 43.5t-73.5 14.5
q-51 0 -82 -27.5t-31 -73.5q0 -43 27.5 -68t92.5 -47q41 -14 72.5 -30t52.5 -37t32 -49t11 -67q0 -41 -15 -71.5t-41.5 -50.5t-61.5 -30t-75 -10q-48 0 -86 12.5t-65 33.5v68zM229 644h-34l-114 133h62l69 -80l69 80h62z" />
    <glyph glyph-name="scaron" unicode="&#x161;" horiz-adv-x="366" 
d="M49 93q28 -25 57.5 -38.5t65.5 -13.5q42 0 66 16.5t24 53.5q0 19 -7 32.5t-20.5 23t-33.5 17t-46 16.5q-58 20 -84 47.5t-26 80.5q0 58 38.5 88t98.5 30q32 0 62.5 -7.5t56.5 -25.5v-65q-26 21 -53.5 34t-65.5 13q-36 0 -57.5 -18t-21.5 -49q0 -30 20 -48t71 -34
q28 -9 51.5 -19.5t40.5 -25.5t26 -35.5t9 -50.5q0 -32 -12 -55.5t-32 -39t-47 -23t-58 -7.5q-37 0 -70 9.5t-53 25.5v68zM201 503h-34l-114 142h64l67 -87l67 87h64z" />
    <glyph glyph-name="Yacute" unicode="&#xdd;" horiz-adv-x="514" 
d="M436 594h68l-216 -357v-237h-62v237l-216 357h68l179 -301zM223 647l73 131h59l-73 -131h-59z" />
    <glyph glyph-name="yacute" unicode="&#xfd;" horiz-adv-x="428" 
d="M217 39l144 397h62l-236 -616h-59l59 151l-182 465h66zM178 513l85 152h59l-85 -152h-59z" />
    <glyph glyph-name="Thorn" unicode="&#xde;" horiz-adv-x="448" 
d="M147 165q8 -1 16 -1h16q93 0 137 35.5t44 107.5q0 29 -9.5 53.5t-30.5 42.5t-53 28.5t-77 10.5q-11 0 -21.5 -0.5t-21.5 -1.5v-275zM147 0h-62v594h62v-101q11 1 21.5 1.5t21.5 0.5q120 0 176.5 -52t56.5 -136q0 -96 -63 -146t-175 -50q-8 0 -18 0.5t-20 1.5v-113z" />
    <glyph glyph-name="thorn" unicode="&#xfe;" horiz-adv-x="510" 
d="M75 680h60v-256q14 8 43 15t61 7q49 0 91 -14t72.5 -42.5t48 -71t17.5 -98.5q0 -53 -17 -95.5t-48 -72.5t-74.5 -46t-97.5 -16q-26 0 -52.5 5t-43.5 13v-188h-60v860zM407 220q0 42 -13.5 74t-36.5 54t-53.5 33t-64.5 11t-59.5 -5.5t-44.5 -14.5v-312q42 -18 96 -18
q80 0 128 47t48 131z" />
    <glyph glyph-name="eth" unicode="&#xf0;" horiz-adv-x="521" 
d="M136 530l131 35q-14 14 -30 29q-46 44 -103 86h79q55 -43 103 -93q4 -3 7 -7l112 30v-47l-78 -21q24 -29 44 -60q36 -56 57 -119.5t21 -133.5q0 -55 -16 -99t-44.5 -75t-68.5 -48t-89 -17t-89 16.5t-69 46.5t-45 72t-16 93t16 93t45 72t69 46.5t89 16.5q90 0 143 -74
q-10 27 -32 62.5t-56 75.5q-7 9 -14 17l-166 -44v47zM419 218q0 40 -12 72.5t-33 55.5t-50 35.5t-63 12.5q-35 0 -64 -12.5t-50 -35.5t-32.5 -55.5t-11.5 -72.5t11.5 -72.5t32.5 -55.5t50 -35.5t64 -12.5q34 0 63 12.5t50 35.5t33 55.5t12 72.5z" />
    <glyph glyph-name="Zcaron" unicode="&#x17d;" horiz-adv-x="479" 
d="M44 594h399v-53l-351 -487h362v-54h-429v54l346 486h-327v54zM266 644h-34l-114 133h62l69 -80l69 80h62z" />
    <glyph glyph-name="zcaron" unicode="&#x17e;" horiz-adv-x="408" 
d="M375 0h-340v52l261 333h-248v51h319v-52l-265 -333h273v-51zM234 503h-34l-114 142h64l67 -87l67 87h64z" />
    <glyph glyph-name="onehalf" unicode="&#xbd;" horiz-adv-x="681" 
d="M40 579l120 20v-336h-55v275l-65 -9v50zM441 594h58l-337 -594h-58zM631 49v-49h-219v41q30 25 57.5 50t49 49t34 47t12.5 46q0 27 -15 40t-39 13q-27 0 -49.5 -13t-39.5 -28v54q17 17 42 27t57 10q43 0 72 -23.5t29 -72.5q0 -26 -11.5 -51.5t-30.5 -50t-44.5 -47
t-52.5 -42.5h148z" />
    <glyph glyph-name="onequarter" unicode="&#xbc;" horiz-adv-x="670" 
d="M40 579l120 20v-336h-55v275l-65 -9v50zM441 594h58l-337 -594h-58zM565 129h55v-44h-55v-85h-53v85h-160v45l156 201h57v-202zM406 129h106v140z" />
    <glyph glyph-name="onesuperior" unicode="&#xb9;" horiz-adv-x="186" 
d="M15 579l120 20v-336h-55v275l-65 -9v50z" />
    <glyph glyph-name="threequarters" unicode="&#xbe;" horiz-adv-x="714" 
d="M485 594h58l-337 -594h-58zM609 129h55v-44h-55v-85h-53v85h-160v45l156 201h57v-202zM450 129h106v140zM176 431q32 -7 52.5 -27.5t20.5 -54.5q0 -43 -32 -67.5t-82 -24.5q-26 0 -48.5 6.5t-36.5 17.5v51q17 -12 36.5 -20.5t45.5 -8.5q28 0 45 13t17 36q0 27 -19 39
t-63 17v42q75 9 75 60q0 20 -13.5 30.5t-33.5 10.5q-26 0 -47.5 -12.5t-37.5 -27.5v53q17 16 40.5 25.5t50.5 9.5q47 0 72 -23.5t25 -60.5q0 -32 -19 -54t-48 -30z" />
    <glyph glyph-name="threesuperior" unicode="&#xb3;" horiz-adv-x="237" 
d="M142 431q32 -7 52.5 -27.5t20.5 -54.5q0 -43 -32 -67.5t-82 -24.5q-26 0 -48.5 6.5t-36.5 17.5v51q17 -12 36.5 -20.5t45.5 -8.5q28 0 45 13t17 36q0 27 -19 39t-63 17v42q75 9 75 60q0 20 -13.5 30.5t-33.5 10.5q-26 0 -47.5 -12.5t-37.5 -27.5v53q17 16 40.5 25.5
t50.5 9.5q47 0 72 -23.5t25 -60.5q0 -32 -19 -54t-48 -30z" />
    <glyph glyph-name="twosuperior" unicode="&#xb2;" horiz-adv-x="252" 
d="M229 312v-49h-219v41q30 25 57.5 50t49 49t34 47t12.5 46q0 27 -15 40t-39 13q-27 0 -49.5 -13t-39.5 -28v54q17 17 42 27t57 10q43 0 72 -23.5t29 -72.5q0 -26 -11.5 -51.5t-30.5 -50t-44.5 -47t-52.5 -42.5h148z" />
    <glyph glyph-name="brokenbar" unicode="&#xa6;" horiz-adv-x="257" 
d="M102 680h53v-341h-53v341zM102 203h53v-341h-53v341z" />
    <glyph glyph-name="minus" unicode="&#x2212;" horiz-adv-x="459" 
d="M40 319h379v-53h-379v53z" />
    <glyph glyph-name="multiply" unicode="&#xd7;" horiz-adv-x="393" 
d="M40 408l38 38l118 -120l119 120l38 -38l-119 -119l119 -119l-38 -37l-119 118l-118 -118l-38 37l119 119z" />
    <glyph glyph-name="Lslash" unicode="&#x141;" horiz-adv-x="430" 
d="M25 284l67 24v286h62v-266l127 46v-57l-127 -46v-217h256v-54h-318v252l-67 -25v57z" />
    <glyph glyph-name="exclam" unicode="!" horiz-adv-x="269" 
d="M164 169h-59v426h59v-426zM85 41q0 20 14.5 34.5t34.5 14.5t35 -14.5t15 -34.5t-15 -35t-35 -15t-34.5 15t-14.5 35z" />
    <glyph glyph-name="quotedbl" unicode="&#x22;" horiz-adv-x="304" 
d="M80 644h57l-29 -207h-48zM187 644h57l-29 -207h-48z" />
    <glyph glyph-name="numbersign" unicode="#" horiz-adv-x="509" 
d="M383 594h56l-35 -172h75v-53h-86l-30 -147h84v-53h-94l-34 -169h-56l34 169h-134l-34 -169h-56l34 169h-77v53h87l30 147h-85v53h96l35 172h56l-35 -172h134zM173 222h134l30 147h-134z" />
    <glyph glyph-name="dollar" unicode="$" horiz-adv-x="419" 
d="M186 680h50v-88q27 -3 52 -10q40 -12 69 -34v-63q-38 28 -73 42q-22 9 -48 13v-213q29 -9 53 -20q34 -15 57 -35t35 -48.5t12 -67.5q0 -40 -16 -69t-43.5 -48.5t-64.5 -29.5q-16 -4 -33 -6v-98h-50v95q-45 1 -86 17q-43 18 -71 41v67q37 -31 77 -52q38 -20 80 -21v229
q-34 11 -61 22q-31 13 -53 31.5t-34 44.5t-12 64q0 36 15 64t39.5 47.5t56.5 29.5q24 7 49 9v87zM119 517q-33 -25 -33 -73q0 -25 7 -41.5t22.5 -28.5t39.5 -21q14 -5 31 -11v199q-40 -4 -67 -24zM246 57q26 6 45 18.5t30.5 32t11.5 48.5q0 28 -10.5 47.5t-28.5 33t-43 22.5
q-8 3 -15 6v-210z" />
    <glyph glyph-name="percent" unicode="%" horiz-adv-x="692" 
d="M40 466q0 30 11 55.5t29.5 44t43.5 28.5t53 10t53.5 -10t44 -28.5t29.5 -44t11 -55.5t-11 -55t-29.5 -43.5t-44 -28.5t-53.5 -10t-53 10t-43.5 28.5t-29.5 43.5t-11 55zM96 466q0 -42 23 -63.5t58 -21.5t58.5 21.5t23.5 63.5t-23.5 64t-58.5 22t-58 -22t-23 -64zM652 127
q0 -30 -11 -55t-29.5 -43.5t-44 -28.5t-53.5 -10t-53 10t-43.5 28.5t-29.5 43.5t-11 55t11 55.5t29.5 44t43.5 28.5t53 10t53.5 -10t44 -28.5t29.5 -44t11 -55.5zM197 0h-58l357 594h58zM596 127q0 42 -23.5 64t-58.5 22t-58 -22t-23 -64t23 -63.5t58 -21.5t58.5 21.5
t23.5 63.5z" />
    <glyph glyph-name="ampersand" unicode="&#x26;" horiz-adv-x="552" 
d="M499 293q0 -57 -20 -112q-13 -36 -33 -66l110 -115h-74l-70 72q-32 -33 -76 -55q-51 -26 -115 -26q-41 0 -75 10.5t-58.5 31t-38 49.5t-13.5 67q0 59 38 100q34 36 98 72l-25 27q-9 9 -20 22.5t-20 29.5t-15 34.5t-6 39.5q0 57 37 93.5t103 36.5q72 0 109.5 -37t37.5 -96
q0 -35 -12.5 -61.5t-33.5 -47.5t-48 -38l-20 -12l149 -157q13 23 21 48q15 45 15 90h55zM131 230q-33 -33 -33 -81q0 -24 9.5 -44t26.5 -34t39 -21.5t48 -7.5q55 0 96 22q34 19 59 46l-168 174q-49 -26 -77 -54zM237 356q22 12 39 28t27.5 36.5t10.5 50.5q0 35 -23 58.5
t-65 23.5q-38 0 -59.5 -22.5t-21.5 -56.5q0 -23 11 -43.5t34 -45.5l34 -36q7 3 13 7z" />
    <glyph glyph-name="quotesingle" unicode="'" horiz-adv-x="197" 
d="M80 644h57l-29 -207h-48z" />
    <glyph glyph-name="parenleft" unicode="(" horiz-adv-x="315" 
d="M60 270q0 66 14 125.5t38 111.5t56.5 95t69.5 78h67q-39 -38 -73.5 -81t-60 -92.5t-40 -108t-14.5 -128.5t14.5 -128.5t40 -108t60 -92.5t73.5 -81h-67q-37 34 -69.5 77.5t-56.5 95.5t-38 111.5t-14 125.5z" />
    <glyph glyph-name="parenright" unicode=")" horiz-adv-x="315" 
d="M255 270q0 -66 -14 -125.5t-38 -111.5t-56.5 -95.5t-69.5 -77.5h-67q39 38 73.5 81t60 92.5t40 108t14.5 128.5t-14.5 128.5t-40 108t-60 92.5t-73.5 81h67q37 -35 69.5 -78t56.5 -95t38 -111.5t14 -125.5z" />
    <glyph glyph-name="asterisk" unicode="*" horiz-adv-x="336" 
d="M106 417l-37 26l65 87l-104 32l13 44l103 -36l-2 110h47l-3 -109l104 36l14 -44l-104 -32l66 -87l-37 -27l-63 89z" />
    <glyph glyph-name="plus" unicode="+" horiz-adv-x="459" 
d="M40 319h163v163h53v-163h163v-53h-163v-163h-53v163h-163v53z" />
    <glyph glyph-name="comma" unicode="," horiz-adv-x="239" 
d="M154 80q0 -31 -8 -62t-22 -58.5t-32 -49t-37 -34.5h-48q36 38 56.5 91t20.5 113h70z" />
    <glyph glyph-name="hyphen" unicode="-" horiz-adv-x="355" 
d="M70 286h215v-54h-215v54z" />
    <glyph glyph-name="period" unicode="." horiz-adv-x="239" 
d="M70 41q0 20 14.5 34.5t34.5 14.5t35 -14.5t15 -34.5t-15 -35t-35 -15t-34.5 15t-14.5 35z" />
    <glyph glyph-name="slash" unicode="/" horiz-adv-x="402" 
d="M324 680h58l-314 -818h-58z" />
    <glyph glyph-name="zero" unicode="0" horiz-adv-x="542" 
d="M112 297q0 -56 11.5 -102.5t32 -80.5t50 -52.5t65.5 -18.5t65.5 18.5t50 52.5t32 80.5t11.5 102.5t-11.5 102.5t-32 80.5t-50 52.5t-65.5 18.5t-65.5 -18.5t-50 -52.5t-32 -80.5t-11.5 -102.5zM50 297q0 67 15.5 123t44 97t69.5 64t92 23t92 -23t69.5 -64t44 -97
t15.5 -123t-15.5 -123t-44 -97t-69.5 -64t-92 -23t-92 23t-69.5 64t-44 97t-15.5 123z" />
    <glyph glyph-name="one" unicode="1" horiz-adv-x="305" 
d="M16 570l185 33v-603h-61v535l-124 -19v54z" />
    <glyph glyph-name="two" unicode="2" horiz-adv-x="420" 
d="M382 54v-54h-377v46q57 48 111.5 96.5t96.5 97t67.5 97.5t25.5 98q0 58 -31 85.5t-79 27.5q-58 0 -98.5 -25t-70.5 -55v67q27 28 70.5 48.5t98.5 20.5q36 0 67.5 -10t54.5 -30.5t36 -52.5t13 -76q0 -50 -25 -101.5t-65.5 -101t-91.5 -95t-102 -83.5h299z" />
    <glyph glyph-name="three" unicode="3" horiz-adv-x="396" 
d="M212 303q31 -4 58 -16t47 -31t32 -45.5t12 -58.5q0 -33 -12.5 -62.5t-37.5 -51.5t-62 -35t-85 -13q-41 0 -81.5 11.5t-62.5 30.5v57q32 -22 65 -35t79 -13q61 0 98 30t37 81q0 56 -38 84.5t-128 43.5v42q77 17 114 49.5t37 85.5q0 45 -29.5 69t-72.5 24q-51 0 -89 -25
t-66 -55v65q10 13 26.5 25.5t36.5 22t43.5 15.5t48.5 6q42 0 73 -12t52 -32t31 -46.5t10 -56.5q0 -27 -10 -53t-28 -47t-43 -35.5t-55 -18.5z" />
    <glyph glyph-name="four" unicode="4" horiz-adv-x="507" 
d="M379 216h113v-51h-113v-165h-59v165h-294v51l281 378h72v-378zM90 216h230v313z" />
    <glyph glyph-name="five" unicode="5" horiz-adv-x="401" 
d="M119 366q51 -6 95 -19.5t77 -37.5t51.5 -59t18.5 -85q0 -34 -12.5 -65.5t-38 -56t-64.5 -39t-92 -14.5q-39 0 -73.5 10.5t-60.5 27.5v58q32 -21 65 -33t68 -12q72 0 109 34.5t37 89.5q0 40 -18 67.5t-50 45.5t-75 27.5t-94 15.5l19 273h265v-54h-215z" />
    <glyph glyph-name="six" unicode="6" horiz-adv-x="479" 
d="M313 594l-131 -199l-51 -72q45 54 123 54q37 0 71 -12.5t60.5 -37t42 -60.5t15.5 -83q0 -39 -13.5 -74t-39.5 -62t-64 -42.5t-86 -15.5t-84.5 15.5t-62 42.5t-38.5 62t-13 74q0 54 19 102.5t51 97.5l136 210h65zM103 183q0 -33 10.5 -59.5t29.5 -45t44 -28.5t54 -10
q30 0 56 10t45 28.5t29.5 45t10.5 59.5q0 65 -39.5 103.5t-100.5 38.5q-30 0 -55 -10t-44 -28.5t-29.5 -45t-10.5 -58.5z" />
    <glyph glyph-name="seven" unicode="7" horiz-adv-x="403" 
d="M10 540v54h366v-54l-259 -540h-63l259 540h-303z" />
    <glyph glyph-name="eight" unicode="8" horiz-adv-x="476" 
d="M238 346q43 0 74 27.5t31 76.5q0 50 -31 78t-74 28t-74 -28t-31 -78q0 -49 31 -76.5t74 -27.5zM238 40q28 0 52.5 7.5t43 22.5t29 38t10.5 54q0 30 -10.5 53.5t-29 40t-43 25.5t-52.5 9t-52.5 -9t-43 -25.5t-29 -40t-10.5 -53.5q0 -31 10.5 -54t29 -38t43 -22.5
t52.5 -7.5zM238 -10q-41 0 -77 11.5t-63 33.5t-42.5 54t-15.5 73q0 32 11.5 58.5t30.5 46t42 32t46 17.5q-19 6 -36.5 17.5t-30.5 28.5t-21 39t-8 48q0 38 13 67t35.5 48.5t52.5 29.5t63 10t62.5 -10t52 -29.5t36 -48.5t13.5 -67q0 -26 -8 -48t-21 -39t-30.5 -28.5
t-36.5 -17.5q23 -5 46 -17.5t42 -32t30.5 -46t11.5 -58.5q0 -41 -15.5 -73t-42.5 -54t-63 -33.5t-77 -11.5z" />
    <glyph glyph-name="nine" unicode="9" horiz-adv-x="479" 
d="M166 0l131 199l51 72q-45 -54 -123 -54q-37 0 -71 12.5t-60.5 37t-42 60.5t-15.5 83q0 39 13.5 74t39.5 62t64 42.5t86 15.5t84.5 -15.5t62 -42.5t38.5 -62t13 -74q0 -54 -19 -102.5t-51 -97.5l-136 -210h-65zM376 411q0 33 -10.5 59.5t-29.5 45t-44 28.5t-54 10
q-30 0 -56 -10t-45 -28.5t-29.5 -45t-10.5 -59.5q0 -65 39.5 -103.5t100.5 -38.5q30 0 55 10t44 28.5t29.5 45t10.5 58.5z" />
    <glyph glyph-name="colon" unicode=":" horiz-adv-x="239" 
d="M70 41q0 20 14.5 34.5t34.5 14.5t35 -14.5t15 -34.5t-15 -35t-35 -15t-34.5 15t-14.5 35zM70 376q0 20 14.5 34.5t34.5 14.5t35 -14.5t15 -34.5t-15 -35t-35 -15t-34.5 15t-14.5 35z" />
    <glyph glyph-name="semicolon" unicode=";" horiz-adv-x="239" 
d="M154 80q0 -31 -8 -62t-22 -58.5t-32 -49t-37 -34.5h-48q36 38 56.5 91t20.5 113h70zM71 376q0 20 14.5 34.5t34.5 14.5t35 -14.5t15 -34.5t-15 -35t-35 -15t-34.5 15t-14.5 35z" />
    <glyph glyph-name="less" unicode="&#x3c;" horiz-adv-x="329" 
d="M20 295l269 164v-66l-173 -102l173 -102v-66l-269 164v8z" />
    <glyph glyph-name="equal" unicode="=" horiz-adv-x="469" 
d="M45 259h379v-53h-379v53zM45 379h379v-53h-379v53z" />
    <glyph glyph-name="greater" unicode="&#x3e;" horiz-adv-x="329" 
d="M309 287l-269 -164v66l173 102l-173 102v66l269 -164v-8z" />
    <glyph glyph-name="question" unicode="?" horiz-adv-x="380" 
d="M25 539q22 27 61 46t90 19q43 0 76.5 -13.5t56 -36t34 -53t11.5 -63.5q0 -46 -17.5 -77.5t-43 -53t-55.5 -34t-55 -21.5v-83h-60v111q36 12 67.5 26t54.5 32t36 42.5t13 57.5q0 25 -9.5 46t-26 35t-37.5 22t-45 8q-49 0 -84 -19.5t-67 -54.5v64zM105 41q0 20 14.5 34.5
t34.5 14.5t35 -14.5t15 -34.5t-15 -35t-35 -15t-34.5 15t-14.5 35z" />
    <glyph glyph-name="at" unicode="@" horiz-adv-x="773" 
d="M543 84q60 23 91.5 71t31.5 127q0 56 -18 101t-52 77t-81.5 49.5t-106.5 17.5q-70 0 -127 -23t-97 -64.5t-62 -98t-22 -123.5q0 -86 31 -145.5t80.5 -97t110.5 -54.5t120 -17q57 0 103 8.5t94 27.5v-50q-37 -16 -86.5 -25t-110.5 -9q-69 0 -139.5 19.5t-127.5 62.5
t-93.5 112t-36.5 168q0 76 25.5 141.5t73 113.5t114.5 75t150 27q73 0 131.5 -21.5t99 -60t62.5 -92.5t22 -119q0 -64 -22 -113t-61.5 -82t-94 -50t-118.5 -17q-48 0 -87.5 13.5t-67.5 38.5t-43.5 61t-15.5 81t15 81t42.5 61.5t65.5 39.5t85 14q29 0 63.5 -6.5t58.5 -17.5
v-302zM491 349q-14 5 -32.5 7.5t-37.5 2.5q-69 0 -110.5 -39t-41.5 -106q0 -68 42.5 -107.5t114.5 -39.5q10 0 29.5 1t35.5 5v276z" />
    <glyph glyph-name="A" unicode="A" horiz-adv-x="562" 
d="M136 164l-62 -164h-64l230 594h79l233 -594h-66l-63 164h-287zM155 216h249l-125 328z" />
    <glyph glyph-name="B" unicode="B" horiz-adv-x="484" 
d="M420 443q0 -58 -34 -95t-91 -44q69 -5 109 -41.5t40 -102.5q0 -36 -13 -67t-41.5 -54t-74 -36t-110.5 -13q-59 0 -120 11v594q30 4 62 6.5t58 2.5q113 0 164 -41.5t51 -119.5zM146 45q18 -2 33 -3t26 -1q95 0 136.5 31.5t41.5 87.5q0 60 -47.5 87t-127.5 27h-62v-229z
M146 327h53q75 0 117.5 29t42.5 87q0 56 -40.5 83t-114.5 27q-27 0 -58 -3v-223z" />
    <glyph glyph-name="C" unicode="C" horiz-adv-x="559" 
d="M516 487q-32 31 -74.5 46t-90.5 15q-50 0 -94.5 -17.5t-77.5 -50.5t-52 -79.5t-19 -103.5t19 -103.5t52 -79.5t77.5 -50.5t94.5 -17.5q48 0 92 14.5t76 44.5v-71q-35 -21 -78.5 -32.5t-88.5 -11.5q-68 0 -124 22.5t-97 63t-63.5 97t-22.5 124.5q0 69 24 125.5t65.5 97
t97.5 62.5t120 22q90 0 164 -45v-72z" />
    <glyph glyph-name="D" unicode="D" horiz-adv-x="616" 
d="M85 596q33 4 63.5 6t58.5 2q102 0 171.5 -24.5t112.5 -65t61.5 -93.5t18.5 -110q0 -63 -19 -121t-61.5 -102.5t-110.5 -71t-165 -26.5q-38 0 -68 2.5t-62 6.5v597zM147 48q18 -2 35 -3t34 -1q64 0 117 16t91.5 49t60 83t21.5 118q0 52 -17 96t-54 75.5t-94 49t-136 17.5
q-27 0 -58 -3v-497z" />
    <glyph glyph-name="E" unicode="E" horiz-adv-x="477" 
d="M427 54v-54h-342v594h338v-54h-276v-210h258v-54h-258v-222h280z" />
    <glyph glyph-name="F" unicode="F" horiz-adv-x="424" 
d="M85 0v594h304v-54h-242v-215h220v-55h-220v-270h-62z" />
    <glyph glyph-name="G" unicode="G" horiz-adv-x="593" 
d="M108 297q0 -57 19.5 -103.5t52.5 -79.5t77 -51t94 -18q42 0 68 5t54 17v201h62v-234q-35 -21 -80.5 -32.5t-102.5 -11.5q-67 0 -123.5 22.5t-97 63t-63.5 97t-23 124.5t24 124.5t65.5 97t97.5 63t120 22.5q89 0 163 -45v-71q-32 30 -74 45t-90 15q-50 0 -94 -18
t-77 -50.5t-52.5 -79t-19.5 -103.5z" />
    <glyph glyph-name="H" unicode="H" horiz-adv-x="660" 
d="M513 594h62v-594h-62v275h-366v-275h-62v594h62v-264h366v264z" />
    <glyph glyph-name="I" unicode="I" horiz-adv-x="232" 
d="M147 0h-62v594h62v-594z" />
    <glyph glyph-name="J" unicode="J" horiz-adv-x="364" 
d="M15 111q26 -32 60.5 -50t70.5 -18q48 0 67 26t19 80v445h62v-454q0 -75 -39 -112.5t-109 -37.5q-42 0 -75.5 14t-55.5 37v70z" />
    <glyph glyph-name="K" unicode="K" horiz-adv-x="518" 
d="M85 594h62v-594h-62v594zM419 594h77l-268 -296l287 -298h-80l-284 292z" />
    <glyph glyph-name="L" unicode="L" horiz-adv-x="423" 
d="M85 594h62v-540h256v-54h-318v594z" />
    <glyph glyph-name="M" unicode="M" horiz-adv-x="766" 
d="M346 0l-163 535l-91 -535h-60l106 594h83l162 -531l162 531h83l106 -594h-62l-91 535l-163 -535h-72z" />
    <glyph glyph-name="N" unicode="N" horiz-adv-x="646" 
d="M501 90v504h60v-594h-62l-354 503v-503h-60v594h64z" />
    <glyph glyph-name="O" unicode="O" horiz-adv-x="704" 
d="M45 297q0 68 24 124.5t65.5 97t97.5 63t120 22.5t120 -22.5t97.5 -63t65.5 -97t24 -124.5t-24 -124.5t-65.5 -97t-97.5 -63t-120 -22.5t-120 22.5t-97.5 63t-65.5 97t-24 124.5zM596 297q0 57 -19.5 103.5t-52.5 79.5t-77.5 50.5t-94.5 17.5t-94.5 -17.5t-77.5 -50.5
t-52.5 -79.5t-19.5 -103.5t19.5 -103.5t52.5 -79.5t77.5 -50.5t94.5 -17.5t94.5 17.5t77.5 50.5t52.5 79.5t19.5 103.5z" />
    <glyph glyph-name="P" unicode="P" horiz-adv-x="448" 
d="M147 274q8 -1 16 -1h16q93 0 137 35.5t44 107.5q0 29 -9 53.5t-29.5 42.5t-53.5 28.5t-81 10.5q-9 0 -19 -0.5t-21 -1.5v-275zM147 0h-62v595q20 3 49.5 6t55.5 3q61 0 105.5 -13.5t72.5 -38.5t41.5 -59.5t13.5 -76.5q0 -96 -63 -146t-175 -50q-8 0 -18 0.5t-20 1.5v-222
z" />
    <glyph glyph-name="Q" unicode="Q" horiz-adv-x="704" 
d="M45 297q0 68 24 124.5t65.5 97t97.5 63t120 22.5t120 -22.5t97.5 -63t65.5 -97t24 -124.5t-24 -124.5t-65.5 -97t-97.5 -63.5q-27 -10 -55 -16l133 -134h-82l-125 128q-59 2 -111 22q-56 23 -97.5 63.5t-65.5 97t-24 124.5zM596 297q0 57 -19.5 103.5t-52.5 79.5
t-77.5 50.5t-94.5 17.5t-94.5 -17.5t-77.5 -50.5t-52.5 -79.5t-19.5 -103.5t19.5 -103.5t52.5 -79.5t77.5 -50.5t94.5 -17.5t94.5 17.5t77.5 50.5t52.5 79.5t19.5 103.5z" />
    <glyph glyph-name="R" unicode="R" horiz-adv-x="497" 
d="M147 0h-62v595q20 3 53.5 6t59.5 3q60 0 103.5 -13.5t72 -37.5t42 -58t13.5 -75q0 -66 -34.5 -112.5t-94.5 -63.5l197 -244h-77l-184 230h-89v-230zM147 281h62q74 0 115 34t41 103q0 28 -9 52.5t-29.5 42t-52.5 27.5t-77 10q-9 0 -24 -0.5t-26 -1.5v-267z" />
    <glyph glyph-name="S" unicode="S" horiz-adv-x="429" 
d="M42 104q36 -29 71 -45t80 -16q27 0 51 6t42 19t28.5 34t10.5 50q0 27 -9.5 46t-26 33t-39 24.5t-49.5 20.5q-40 15 -70.5 30t-51 34.5t-31 46t-10.5 64.5t14.5 66.5t38.5 48t55.5 29t64.5 9.5q44 0 79.5 -12.5t62.5 -34.5v-64q-36 29 -68.5 43.5t-73.5 14.5
q-51 0 -82 -27.5t-31 -73.5q0 -43 27.5 -68t92.5 -47q41 -14 72.5 -30t52.5 -37t32 -49t11 -67q0 -41 -15 -71.5t-41.5 -50.5t-61.5 -30t-75 -10q-48 0 -86 12.5t-65 33.5v68z" />
    <glyph glyph-name="T" unicode="T" horiz-adv-x="484" 
d="M273 0h-62v540h-196v54h454v-54h-196v-540z" />
    <glyph glyph-name="U" unicode="U" horiz-adv-x="599" 
d="M70 594h62v-395q0 -48 14 -78t38.5 -47t58 -23t72.5 -6q38 0 72 3t65 8v538h62v-581q-45 -11 -96.5 -17t-102.5 -6q-50 0 -94.5 9t-78 32t-53 62.5t-19.5 100.5v400z" />
    <glyph glyph-name="V" unicode="V" horiz-adv-x="552" 
d="M239 0l-229 594h67l200 -532l200 532h65l-229 -594h-74z" />
    <glyph glyph-name="W" unicode="W" horiz-adv-x="762" 
d="M419 594l132 -537l140 537h61l-161 -594h-82l-128 523l-128 -523h-82l-161 594h64l139 -537l133 537h73z" />
    <glyph glyph-name="X" unicode="X" horiz-adv-x="522" 
d="M299 308l213 -308h-72l-179 261l-181 -261h-70l215 309l-200 285h73l166 -241l163 241h69z" />
    <glyph glyph-name="Y" unicode="Y" horiz-adv-x="514" 
d="M436 594h68l-216 -357v-237h-62v237l-216 357h68l179 -301z" />
    <glyph glyph-name="Z" unicode="Z" horiz-adv-x="479" 
d="M44 594h399v-53l-351 -487h362v-54h-429v54l346 486h-327v54z" />
    <glyph glyph-name="bracketleft" unicode="[" horiz-adv-x="304" 
d="M137 -91h117v-47h-169v818h169v-47h-117v-724z" />
    <glyph glyph-name="backslash" unicode="\" horiz-adv-x="402" 
d="M392 -138h-58l-314 818h58z" />
    <glyph glyph-name="bracketright" unicode="]" horiz-adv-x="304" 
d="M167 633h-117v47h169v-818h-169v47h117v724z" />
    <glyph glyph-name="asciicircum" unicode="^" horiz-adv-x="416" 
d="M396 338h-64l-124 205l-124 -205h-64l156 256h64z" />
    <glyph glyph-name="underscore" unicode="_" horiz-adv-x="462" 
d="M50 -87h362v-48h-362v48z" />
    <glyph glyph-name="grave" unicode="`" horiz-adv-x="500" 
d="M263 513l-85 152h59l85 -152h-59z" />
    <glyph glyph-name="a" unicode="a" horiz-adv-x="429" 
d="M301 203h-45q-34 0 -62.5 -4.5t-49.5 -14.5t-32.5 -25.5t-11.5 -37.5t10.5 -37t29.5 -24.5t44.5 -13.5t55.5 -4q29 0 61 6v155zM301 305q0 42 -25 63.5t-67 21.5q-38 0 -68 -9.5t-60 -25.5v57q28 15 62.5 24.5t72.5 9.5q66 0 105.5 -31.5t39.5 -105.5v-301
q-30 -8 -63 -12t-61 -4q-44 0 -80.5 7t-62.5 23t-40 40t-14 59q0 65 56 98t156 33h49v53z" />
    <glyph glyph-name="b" unicode="b" horiz-adv-x="510" 
d="M75 680h60v-256q14 8 43 15t61 7q49 0 91 -14t72.5 -42.5t48 -71t17.5 -98.5q0 -53 -18 -95.5t-51 -72.5t-79 -46t-103 -16q-35 0 -71.5 5.5t-70.5 16.5v668zM407 220q0 42 -13.5 74t-36.5 54t-53.5 33t-64.5 11t-59.5 -5.5t-44.5 -14.5v-319q19 -5 40 -7.5t42 -2.5
q88 0 139 46.5t51 130.5z" />
    <glyph glyph-name="c" unicode="c" horiz-adv-x="440" 
d="M393 350q-28 20 -59.5 30.5t-62.5 10.5q-34 0 -64.5 -11t-53.5 -33t-36.5 -54.5t-13.5 -75.5q0 -41 13.5 -73t37 -54t54.5 -33.5t67 -11.5q35 0 65 10.5t60 30.5v-63q-32 -17 -64 -25t-67 -8q-46 0 -87 15.5t-72 45t-49.5 71.5t-18.5 96q0 55 18.5 97.5t50 71.5t72.5 44
t85 15q36 0 66 -8t59 -25v-63z" />
    <glyph glyph-name="d" unicode="d" horiz-adv-x="512" 
d="M437 6q-35 -8 -71 -12t-71 -4q-57 0 -103.5 15t-79.5 44t-51.5 71.5t-18.5 97.5t19 97.5t52 71.5t76.5 44t92.5 15q25 0 51.5 -5t43.5 -15v254h60v-674zM377 372q-17 9 -41 14.5t-54 5.5q-38 0 -70.5 -11.5t-56.5 -33.5t-38 -54.5t-14 -74.5q0 -84 52.5 -129.5
t139.5 -45.5q21 0 41.5 1t40.5 4v324z" />
    <glyph glyph-name="e" unicode="e" horiz-adv-x="472" 
d="M102 215v-2q0 -40 13.5 -71.5t36 -53.5t51.5 -33.5t61 -11.5q47 0 81.5 12t67.5 37v-60q-29 -22 -68.5 -32t-80.5 -10q-47 0 -87.5 15.5t-70.5 45t-47 72t-17 95.5q0 49 16 91t43.5 72.5t65.5 47.5t82 17q83 0 133 -48t50 -142v-41h-330zM246 393q-51 0 -89 -33t-51 -95
h266q-3 69 -37 98.5t-89 29.5z" />
    <glyph glyph-name="f" unicode="f" horiz-adv-x="269" 
d="M147 0h-60v385h-67v51h67v109q0 69 34 107t100 38q47 0 78 -22v-57q-16 11 -34.5 18.5t-42.5 7.5q-35 0 -55 -20t-20 -73v-108h120v-51h-120v-385z" />
    <glyph glyph-name="g" unicode="g" horiz-adv-x="510" 
d="M375 15q-11 -8 -37.5 -13.5t-52.5 -5.5q-54 0 -98.5 14t-76.5 42t-50 70t-18 98q0 53 17.5 95t50.5 71t79.5 44.5t103.5 15.5q34 0 74 -8t68 -20v-423q0 -50 -17 -85t-45.5 -57.5t-64.5 -32.5t-73 -10q-40 0 -75.5 8t-59.5 19v57q29 -14 64.5 -23.5t70.5 -9.5q27 0 52 7
t44.5 24t31.5 45t12 69v9zM375 378q-18 6 -38.5 9.5t-43.5 3.5q-91 0 -141 -45t-50 -126q0 -79 49 -125t134 -46q27 0 47 4.5t43 12.5v312z" />
    <glyph glyph-name="h" unicode="h" horiz-adv-x="505" 
d="M75 680h60v-257q25 9 59 16t69 7q79 0 125.5 -35t46.5 -117v-294h-60v282q0 33 -11 54t-28 33t-39 16.5t-44 4.5q-35 0 -65 -6t-53 -14v-370h-60v680z" />
    <glyph glyph-name="i" unicode="i" horiz-adv-x="210" 
d="M135 0h-60v436h60v-436zM105 527q-18 0 -31.5 13.5t-13.5 31.5q0 19 13.5 32t31.5 13q19 0 32 -13t13 -32q0 -18 -13 -31.5t-32 -13.5z" />
    <glyph glyph-name="j" unicode="j" horiz-adv-x="210" 
d="M75 436h60v-490q0 -64 -30.5 -100t-100.5 -36q-16 0 -34.5 4t-31.5 10v55q11 -8 28.5 -12.5t37.5 -4.5q32 0 51.5 18.5t19.5 69.5v486zM105 527q-18 0 -31.5 13.5t-13.5 31.5q0 19 13.5 32t31.5 13q19 0 32 -13t13 -32q0 -18 -13 -31.5t-32 -13.5z" />
    <glyph glyph-name="k" unicode="k" horiz-adv-x="457" 
d="M138 236l221 200h84l-226 -198l230 -238h-80zM135 0h-60v680h60v-680z" />
    <glyph glyph-name="l" unicode="l" horiz-adv-x="210" 
d="M135 0h-60v680h60v-680z" />
    <glyph glyph-name="m" unicode="m" horiz-adv-x="760" 
d="M400 367q13 -31 13 -72v-295h-60v292q0 30 -9 49.5t-23.5 31t-33 15.5t-37.5 4q-37 0 -66 -6t-49 -14v-372h-60v408q43 17 87 27.5t88 10.5q77 0 117 -34q39 15 80 24.5t81 9.5q79 0 120.5 -35t41.5 -117v-294h-60v292q0 30 -9.5 49.5t-24 31t-32.5 15.5t-36 4
q-39 0 -73.5 -8t-54.5 -17z" />
    <glyph glyph-name="n" unicode="n" horiz-adv-x="505" 
d="M75 413q44 16 91 24.5t92 8.5q83 0 130 -35t47 -117v-294h-60v282q0 33 -11 54t-28 33t-39 16.5t-44 4.5q-35 0 -65 -5t-53 -11v-374h-60v413z" />
    <glyph glyph-name="o" unicode="o" horiz-adv-x="522" 
d="M42 218q0 51 16 93t45 72t69 46.5t89 16.5t89 -16.5t69 -46.5t45 -72t16 -93t-16 -93t-45 -72t-69 -46.5t-89 -16.5t-89 16.5t-69 46.5t-45 72t-16 93zM419 218q0 40 -12 72.5t-33 55.5t-50 35.5t-63 12.5q-35 0 -64 -12.5t-50 -35.5t-32.5 -55.5t-11.5 -72.5t11.5 -72.5
t32.5 -55.5t50 -35.5t64 -12.5q34 0 63 12.5t50 35.5t33 55.5t12 72.5z" />
    <glyph glyph-name="p" unicode="p" horiz-adv-x="510" 
d="M75 418q30 11 70 19.5t82 8.5q113 0 177 -57.5t64 -170.5q0 -53 -17 -95.5t-48 -72t-74.5 -45t-97.5 -15.5q-26 0 -52.5 5t-43.5 13v-188h-60v598zM407 218q0 81 -46.5 127t-133.5 46q-26 0 -50.5 -3t-41.5 -9v-319q42 -18 96 -18q80 0 128 46t48 130z" />
    <glyph glyph-name="q" unicode="q" horiz-adv-x="512" 
d="M437 -180h-60v189q-11 -8 -37.5 -13.5t-52.5 -5.5q-54 0 -99 14.5t-77.5 43.5t-50.5 71.5t-18 98.5q0 53 18 95t51 71.5t80 45.5t104 16q34 0 74 -8t68 -20v-598zM377 378q-18 6 -38.5 9.5t-43.5 3.5q-91 0 -142 -46t-51 -127q0 -79 50 -127t135 -48q27 0 47 4.5t43 12.5
v318z" />
    <glyph glyph-name="r" unicode="r" horiz-adv-x="330" 
d="M135 0h-60v396q35 22 76 34.5t86 12.5q35 0 73 -9v-59q-20 7 -41 9t-36 2q-32 0 -56.5 -6t-41.5 -16v-364z" />
    <glyph glyph-name="s" unicode="s" horiz-adv-x="366" 
d="M49 93q28 -25 57.5 -38.5t65.5 -13.5q42 0 66 16.5t24 53.5q0 19 -7 32.5t-20.5 23t-33.5 17t-46 16.5q-58 20 -84 47.5t-26 80.5q0 58 38.5 88t98.5 30q32 0 62.5 -7.5t56.5 -25.5v-65q-26 21 -53.5 34t-65.5 13q-36 0 -57.5 -18t-21.5 -49q0 -30 20 -48t71 -34
q28 -9 51.5 -19.5t40.5 -25.5t26 -35.5t9 -50.5q0 -32 -12 -55.5t-32 -39t-47 -23t-58 -7.5q-37 0 -70 9.5t-53 25.5v68z" />
    <glyph glyph-name="t" unicode="t" horiz-adv-x="316" 
d="M15 436h67v106h60v-106h123v-51h-123v-266q0 -42 16 -60t47 -18q21 0 39.5 6.5t41.5 17.5v-53q-20 -10 -42.5 -16t-51.5 -6q-24 0 -44 6.5t-34.5 21t-23 38t-8.5 57.5v272h-67v51z" />
    <glyph glyph-name="u" unicode="u" horiz-adv-x="490" 
d="M415 5q-40 -8 -79 -11.5t-73 -3.5q-95 0 -146.5 35t-51.5 117v294h60v-291q0 -31 11 -51t30 -31.5t43 -16t50 -4.5q23 0 47.5 1.5t48.5 4.5v388h60v-431z" />
    <glyph glyph-name="v" unicode="v" horiz-adv-x="418" 
d="M176 0l-171 436h63l142 -380l142 380h61l-171 -436h-66z" />
    <glyph glyph-name="w" unicode="w" horiz-adv-x="630" 
d="M456 55l109 381h60l-132 -436h-73l-105 371l-105 -371h-73l-132 436h63l109 -381l108 381h62z" />
    <glyph glyph-name="x" unicode="x" horiz-adv-x="410" 
d="M238 225l162 -225h-67l-129 182l-130 -182h-64l162 224l-153 212h67l121 -168l118 168h67z" />
    <glyph glyph-name="y" unicode="y" horiz-adv-x="428" 
d="M217 39l144 397h62l-236 -616h-59l59 151l-182 465h66z" />
    <glyph glyph-name="z" unicode="z" horiz-adv-x="408" 
d="M375 0h-340v52l261 333h-248v51h319v-52l-265 -333h273v-51z" />
    <glyph glyph-name="braceleft" unicode="{" horiz-adv-x="335" 
d="M105 271q14 -2 29 -9.5t28 -21.5t21 -35t8 -50v-154q0 -92 76 -92h24v-47h-21q-69 0 -100.5 35t-31.5 104v152q0 27 -7 45t-18.5 29.5t-26 16t-30.5 4.5h-30v46h30q16 0 30.5 4.5t26 16t18.5 29.5t7 45v152q0 69 31.5 104t100.5 35h21v-47h-24q-76 0 -76 -92v-154
q0 -29 -8 -50t-21 -35t-28 -21.5t-29 -9.5z" />
    <glyph glyph-name="bar" unicode="|" horiz-adv-x="257" 
d="M102 680h53v-818h-53v818z" />
    <glyph glyph-name="braceright" unicode="}" horiz-adv-x="335" 
d="M230 271q-14 2 -29 9.5t-28 21.5t-21 35t-8 50v154q0 92 -76 92h-24v47h21q69 0 100.5 -35t31.5 -104v-152q0 -27 7 -45t18.5 -29.5t26 -16t30.5 -4.5h30v-46h-30q-16 0 -30.5 -4.5t-26 -16t-18.5 -29.5t-7 -45v-152q0 -69 -31.5 -104t-100.5 -35h-21v47h24q76 0 76 92
v154q0 29 8 50t21 35t28 21.5t29 9.5z" />
    <glyph glyph-name="asciitilde" unicode="~" horiz-adv-x="459" 
d="M389 316q0 -56 -24.5 -85.5t-66.5 -29.5q-21 0 -39.5 10.5t-35 23t-31.5 23t-29 10.5q-17 0 -28 -16.5t-11 -48.5h-54q0 56 24.5 85.5t66.5 29.5q21 0 39.5 -10.5t35 -23t31.5 -23t29 -10.5q17 0 28 16.5t11 48.5h54z" />
    <glyph glyph-name="Adieresis" unicode="&#xc4;" horiz-adv-x="562" 
d="M136 164l-62 -164h-64l230 594h79l233 -594h-66l-63 164h-287zM155 216h249l-125 328zM202 641q-18 0 -31.5 13.5t-13.5 31.5q0 19 13.5 32t31.5 13q19 0 32 -13t13 -32q0 -18 -13 -31.5t-32 -13.5zM360 641q-18 0 -31.5 13.5t-13.5 31.5q0 19 13.5 32t31.5 13
q19 0 32 -13t13 -32q0 -18 -13 -31.5t-32 -13.5z" />
    <glyph glyph-name="Aring" unicode="&#xc5;" horiz-adv-x="562" 
d="M136 164l-62 -164h-64l230 594h79l233 -594h-66l-63 164h-287zM155 216h249l-125 328zM196 716q0 35 24 58.5t61 23.5t61 -23.5t24 -58.5t-24 -58.5t-61 -23.5t-61 23.5t-24 58.5zM326 716q0 18 -11 31t-34 13t-34 -13t-11 -31t11 -31t34 -13t34 13t11 31z" />
    <glyph glyph-name="Ccedilla" unicode="&#xc7;" horiz-adv-x="559" 
d="M516 487q-32 31 -74.5 46t-90.5 15q-50 0 -94.5 -17.5t-77.5 -50.5t-52 -79.5t-19 -103.5t19 -103.5t52 -79.5t77.5 -50.5t94.5 -17.5q48 0 92 14.5t76 44.5v-71q-35 -21 -79 -33q-33 -8 -68 -10q-1 -11 -4 -23q-5 -24 -14.5 -46t-22.5 -39.5t-28 -28.5h-61q37 34 57 76
q15 30 19 62q-48 4 -90 20q-56 23 -97 63.5t-63.5 97t-22.5 124.5q0 69 24 125.5t65.5 97t97.5 62.5t120 22q90 0 164 -45v-72z" />
    <glyph glyph-name="Eacute" unicode="&#xc9;" horiz-adv-x="477" 
d="M427 54v-54h-342v594h338v-54h-276v-210h258v-54h-258v-222h280zM230 647l73 131h59l-73 -131h-59z" />
    <glyph glyph-name="Ntilde" unicode="&#xd1;" horiz-adv-x="646" 
d="M501 90v504h60v-594h-62l-354 503v-503h-60v594h64zM463 756q0 -57 -19.5 -87t-56.5 -30q-19 0 -36 10.5t-33 23.5t-30 23.5t-26 10.5q-31 0 -31 -66h-47q0 57 19.5 87t56.5 30q19 0 36 -10.5t33 -23.5t30 -23.5t26 -10.5q31 0 31 66h47z" />
    <glyph glyph-name="Odieresis" unicode="&#xd6;" horiz-adv-x="704" 
d="M45 297q0 68 24 124.5t65.5 97t97.5 63t120 22.5t120 -22.5t97.5 -63t65.5 -97t24 -124.5t-24 -124.5t-65.5 -97t-97.5 -63t-120 -22.5t-120 22.5t-97.5 63t-65.5 97t-24 124.5zM596 297q0 57 -19.5 103.5t-52.5 79.5t-77.5 50.5t-94.5 17.5t-94.5 -17.5t-77.5 -50.5
t-52.5 -79.5t-19.5 -103.5t19.5 -103.5t52.5 -79.5t77.5 -50.5t94.5 -17.5t94.5 17.5t77.5 50.5t52.5 79.5t19.5 103.5zM273 641q-18 0 -31.5 13.5t-13.5 31.5q0 19 13.5 32t31.5 13q19 0 32 -13t13 -32q0 -18 -13 -31.5t-32 -13.5zM431 641q-18 0 -31.5 13.5t-13.5 31.5
q0 19 13.5 32t31.5 13q19 0 32 -13t13 -32q0 -18 -13 -31.5t-32 -13.5z" />
    <glyph glyph-name="Udieresis" unicode="&#xdc;" horiz-adv-x="599" 
d="M70 594h62v-395q0 -48 14 -78t38.5 -47t58 -23t72.5 -6q38 0 72 3t65 8v538h62v-581q-45 -11 -96.5 -17t-102.5 -6q-50 0 -94.5 9t-78 32t-53 62.5t-19.5 100.5v400zM213 641q-18 0 -31.5 13.5t-13.5 31.5q0 19 13.5 32t31.5 13q19 0 32 -13t13 -32q0 -18 -13 -31.5
t-32 -13.5zM371 641q-18 0 -31.5 13.5t-13.5 31.5q0 19 13.5 32t31.5 13q19 0 32 -13t13 -32q0 -18 -13 -31.5t-32 -13.5z" />
    <glyph glyph-name="aacute" unicode="&#xe1;" horiz-adv-x="429" 
d="M301 203h-45q-34 0 -62.5 -4.5t-49.5 -14.5t-32.5 -25.5t-11.5 -37.5t10.5 -37t29.5 -24.5t44.5 -13.5t55.5 -4q29 0 61 6v155zM301 305q0 42 -25 63.5t-67 21.5q-38 0 -68 -9.5t-60 -25.5v57q28 15 62.5 24.5t72.5 9.5q66 0 105.5 -31.5t39.5 -105.5v-301
q-30 -8 -63 -12t-61 -4q-44 0 -80.5 7t-62.5 23t-40 40t-14 59q0 65 56 98t156 33h49v53zM182 513l85 152h59l-85 -152h-59z" />
    <glyph glyph-name="agrave" unicode="&#xe0;" horiz-adv-x="429" 
d="M301 203h-45q-34 0 -62.5 -4.5t-49.5 -14.5t-32.5 -25.5t-11.5 -37.5t10.5 -37t29.5 -24.5t44.5 -13.5t55.5 -4q29 0 61 6v155zM301 305q0 42 -25 63.5t-67 21.5q-38 0 -68 -9.5t-60 -25.5v57q28 15 62.5 24.5t72.5 9.5q66 0 105.5 -31.5t39.5 -105.5v-301
q-30 -8 -63 -12t-61 -4q-44 0 -80.5 7t-62.5 23t-40 40t-14 59q0 65 56 98t156 33h49v53zM191 513l-85 152h59l85 -152h-59z" />
    <glyph glyph-name="acircumflex" unicode="&#xe2;" horiz-adv-x="429" 
d="M301 203h-45q-34 0 -62.5 -4.5t-49.5 -14.5t-32.5 -25.5t-11.5 -37.5t10.5 -37t29.5 -24.5t44.5 -13.5t55.5 -4q29 0 61 6v155zM301 305q0 42 -25 63.5t-67 21.5q-38 0 -68 -9.5t-60 -25.5v57q28 15 62.5 24.5t72.5 9.5q66 0 105.5 -31.5t39.5 -105.5v-301
q-30 -8 -63 -12t-61 -4q-44 0 -80.5 7t-62.5 23t-40 40t-14 59q0 65 56 98t156 33h49v53zM349 513h-64l-67 87l-67 -87h-64l114 142h34z" />
    <glyph glyph-name="adieresis" unicode="&#xe4;" horiz-adv-x="429" 
d="M301 203h-45q-34 0 -62.5 -4.5t-49.5 -14.5t-32.5 -25.5t-11.5 -37.5t10.5 -37t29.5 -24.5t44.5 -13.5t55.5 -4q29 0 61 6v155zM301 305q0 42 -25 63.5t-67 21.5q-38 0 -68 -9.5t-60 -25.5v57q28 15 62.5 24.5t72.5 9.5q66 0 105.5 -31.5t39.5 -105.5v-301
q-30 -8 -63 -12t-61 -4q-44 0 -80.5 7t-62.5 23t-40 40t-14 59q0 65 56 98t156 33h49v53zM131 527q-18 0 -31.5 13.5t-13.5 31.5q0 19 13.5 32t31.5 13q19 0 32 -13t13 -32q0 -18 -13 -31.5t-32 -13.5zM289 527q-18 0 -31.5 13.5t-13.5 31.5q0 19 13.5 32t31.5 13
q19 0 32 -13t13 -32q0 -18 -13 -31.5t-32 -13.5z" />
    <glyph glyph-name="atilde" unicode="&#xe3;" horiz-adv-x="429" 
d="M301 203h-45q-34 0 -62.5 -4.5t-49.5 -14.5t-32.5 -25.5t-11.5 -37.5t10.5 -37t29.5 -24.5t44.5 -13.5t55.5 -4q29 0 61 6v155zM301 305q0 42 -25 63.5t-67 21.5q-38 0 -68 -9.5t-60 -25.5v57q28 15 62.5 24.5t72.5 9.5q66 0 105.5 -31.5t39.5 -105.5v-301
q-30 -8 -63 -12t-61 -4q-44 0 -80.5 7t-62.5 23t-40 40t-14 59q0 65 56 98t156 33h49v53zM352 628q0 -57 -19.5 -87t-56.5 -30q-19 0 -36 10.5t-33 23.5t-30 23.5t-26 10.5q-31 0 -31 -66h-47q0 57 19.5 87t56.5 30q19 0 36 -10.5t33 -23.5t30 -23.5t26 -10.5q31 0 31 66h47
z" />
    <glyph glyph-name="aring" unicode="&#xe5;" horiz-adv-x="429" 
d="M301 203h-45q-34 0 -62.5 -4.5t-49.5 -14.5t-32.5 -25.5t-11.5 -37.5t10.5 -37t29.5 -24.5t44.5 -13.5t55.5 -4q29 0 61 6v155zM301 305q0 42 -25 63.5t-67 21.5q-38 0 -68 -9.5t-60 -25.5v57q28 15 62.5 24.5t72.5 9.5q66 0 105.5 -31.5t39.5 -105.5v-301
q-30 -8 -63 -12t-61 -4q-44 0 -80.5 7t-62.5 23t-40 40t-14 59q0 65 56 98t156 33h49v53zM127 579q0 35 24 58.5t61 23.5t61 -23.5t24 -58.5t-24 -58.5t-61 -23.5t-61 23.5t-24 58.5zM257 579q0 18 -11 31t-34 13t-34 -13t-11 -31t11 -31t34 -13t34 13t11 31z" />
    <glyph glyph-name="ccedilla" unicode="&#xe7;" horiz-adv-x="440" 
d="M393 350q-28 20 -59.5 30.5t-62.5 10.5q-34 0 -64.5 -11t-53.5 -33t-36.5 -54.5t-13.5 -75.5q0 -41 13.5 -73t37 -54t54.5 -33.5t67 -11.5q35 0 65 10.5t60 30.5v-63q-32 -17 -64 -25q-21 -5 -43 -7q-1 -11 -4 -23q-5 -24 -14.5 -46t-22.5 -39.5t-28 -28.5h-61
q37 34 57 76q15 30 19 62q-30 3 -57 13q-41 16 -72 45.5t-49.5 71.5t-18.5 96q0 55 18.5 97.5t50 71.5t72.5 44t85 15q36 0 66 -8t59 -25v-63z" />
    <glyph glyph-name="eacute" unicode="&#xe9;" horiz-adv-x="472" 
d="M102 215v-2q0 -40 13.5 -71.5t36 -53.5t51.5 -33.5t61 -11.5q47 0 81.5 12t67.5 37v-60q-29 -22 -68.5 -32t-80.5 -10q-47 0 -87.5 15.5t-70.5 45t-47 72t-17 95.5q0 49 16 91t43.5 72.5t65.5 47.5t82 17q83 0 133 -48t50 -142v-41h-330zM246 393q-51 0 -89 -33t-51 -95
h266q-3 69 -37 98.5t-89 29.5zM217 513l85 152h59l-85 -152h-59z" />
    <glyph glyph-name="egrave" unicode="&#xe8;" horiz-adv-x="472" 
d="M102 215v-2q0 -40 13.5 -71.5t36 -53.5t51.5 -33.5t61 -11.5q47 0 81.5 12t67.5 37v-60q-29 -22 -68.5 -32t-80.5 -10q-47 0 -87.5 15.5t-70.5 45t-47 72t-17 95.5q0 49 16 91t43.5 72.5t65.5 47.5t82 17q83 0 133 -48t50 -142v-41h-330zM246 393q-51 0 -89 -33t-51 -95
h266q-3 69 -37 98.5t-89 29.5zM226 513l-85 152h59l85 -152h-59z" />
    <glyph glyph-name="ecircumflex" unicode="&#xea;" horiz-adv-x="472" 
d="M102 215v-2q0 -40 13.5 -71.5t36 -53.5t51.5 -33.5t61 -11.5q47 0 81.5 12t67.5 37v-60q-29 -22 -68.5 -32t-80.5 -10q-47 0 -87.5 15.5t-70.5 45t-47 72t-17 95.5q0 49 16 91t43.5 72.5t65.5 47.5t82 17q83 0 133 -48t50 -142v-41h-330zM246 393q-51 0 -89 -33t-51 -95
h266q-3 69 -37 98.5t-89 29.5zM377 513h-64l-67 87l-67 -87h-64l114 142h34z" />
    <glyph glyph-name="edieresis" unicode="&#xeb;" horiz-adv-x="472" 
d="M102 215v-2q0 -40 13.5 -71.5t36 -53.5t51.5 -33.5t61 -11.5q47 0 81.5 12t67.5 37v-60q-29 -22 -68.5 -32t-80.5 -10q-47 0 -87.5 15.5t-70.5 45t-47 72t-17 95.5q0 49 16 91t43.5 72.5t65.5 47.5t82 17q83 0 133 -48t50 -142v-41h-330zM246 393q-51 0 -89 -33t-51 -95
h266q-3 69 -37 98.5t-89 29.5zM169 527q-18 0 -31.5 13.5t-13.5 31.5q0 19 13.5 32t31.5 13q19 0 32 -13t13 -32q0 -18 -13 -31.5t-32 -13.5zM327 527q-18 0 -31.5 13.5t-13.5 31.5q0 19 13.5 32t31.5 13q19 0 32 -13t13 -32q0 -18 -13 -31.5t-32 -13.5z" />
    <glyph glyph-name="iacute" unicode="&#xed;" horiz-adv-x="210" 
d="M135 0h-60v436h60v-436zM77 513l85 152h59l-85 -152h-59z" />
    <glyph glyph-name="igrave" unicode="&#xec;" horiz-adv-x="210" 
d="M135 0h-60v436h60v-436zM76 513l-85 152h59l85 -152h-59z" />
    <glyph glyph-name="icircumflex" unicode="&#xee;" horiz-adv-x="210" 
d="M135 0h-60v436h60v-436zM236 513h-64l-67 87l-67 -87h-64l114 142h34z" />
    <glyph glyph-name="idieresis" unicode="&#xef;" horiz-adv-x="210" 
d="M135 0h-60v436h60v-436zM26 527q-18 0 -31.5 13.5t-13.5 31.5q0 19 13.5 32t31.5 13q19 0 32 -13t13 -32q0 -18 -13 -31.5t-32 -13.5zM184 527q-18 0 -31.5 13.5t-13.5 31.5q0 19 13.5 32t31.5 13q19 0 32 -13t13 -32q0 -18 -13 -31.5t-32 -13.5z" />
    <glyph glyph-name="ntilde" unicode="&#xf1;" horiz-adv-x="505" 
d="M75 413q44 16 91 24.5t92 8.5q83 0 130 -35t47 -117v-294h-60v282q0 33 -11 54t-28 33t-39 16.5t-44 4.5q-35 0 -65 -5t-53 -11v-374h-60v413zM388 628q0 -57 -19.5 -87t-56.5 -30q-19 0 -36 10.5t-33 23.5t-30 23.5t-26 10.5q-31 0 -31 -66h-47q0 57 19.5 87t56.5 30
q19 0 36 -10.5t33 -23.5t30 -23.5t26 -10.5q31 0 31 66h47z" />
    <glyph glyph-name="oacute" unicode="&#xf3;" horiz-adv-x="522" 
d="M42 218q0 51 16 93t45 72t69 46.5t89 16.5t89 -16.5t69 -46.5t45 -72t16 -93t-16 -93t-45 -72t-69 -46.5t-89 -16.5t-89 16.5t-69 46.5t-45 72t-16 93zM419 218q0 40 -12 72.5t-33 55.5t-50 35.5t-63 12.5q-35 0 -64 -12.5t-50 -35.5t-32.5 -55.5t-11.5 -72.5t11.5 -72.5
t32.5 -55.5t50 -35.5t64 -12.5q34 0 63 12.5t50 35.5t33 55.5t12 72.5zM225 513l85 152h59l-85 -152h-59z" />
    <glyph glyph-name="ograve" unicode="&#xf2;" horiz-adv-x="522" 
d="M42 218q0 51 16 93t45 72t69 46.5t89 16.5t89 -16.5t69 -46.5t45 -72t16 -93t-16 -93t-45 -72t-69 -46.5t-89 -16.5t-89 16.5t-69 46.5t-45 72t-16 93zM419 218q0 40 -12 72.5t-33 55.5t-50 35.5t-63 12.5q-35 0 -64 -12.5t-50 -35.5t-32.5 -55.5t-11.5 -72.5t11.5 -72.5
t32.5 -55.5t50 -35.5t64 -12.5q34 0 63 12.5t50 35.5t33 55.5t12 72.5zM234 513l-85 152h59l85 -152h-59z" />
    <glyph glyph-name="ocircumflex" unicode="&#xf4;" horiz-adv-x="522" 
d="M42 218q0 51 16 93t45 72t69 46.5t89 16.5t89 -16.5t69 -46.5t45 -72t16 -93t-16 -93t-45 -72t-69 -46.5t-89 -16.5t-89 16.5t-69 46.5t-45 72t-16 93zM419 218q0 40 -12 72.5t-33 55.5t-50 35.5t-63 12.5q-35 0 -64 -12.5t-50 -35.5t-32.5 -55.5t-11.5 -72.5t11.5 -72.5
t32.5 -55.5t50 -35.5t64 -12.5q34 0 63 12.5t50 35.5t33 55.5t12 72.5zM392 513h-64l-67 87l-67 -87h-64l114 142h34z" />
    <glyph glyph-name="odieresis" unicode="&#xf6;" horiz-adv-x="522" 
d="M42 218q0 51 16 93t45 72t69 46.5t89 16.5t89 -16.5t69 -46.5t45 -72t16 -93t-16 -93t-45 -72t-69 -46.5t-89 -16.5t-89 16.5t-69 46.5t-45 72t-16 93zM419 218q0 40 -12 72.5t-33 55.5t-50 35.5t-63 12.5q-35 0 -64 -12.5t-50 -35.5t-32.5 -55.5t-11.5 -72.5t11.5 -72.5
t32.5 -55.5t50 -35.5t64 -12.5q34 0 63 12.5t50 35.5t33 55.5t12 72.5zM182 527q-18 0 -31.5 13.5t-13.5 31.5q0 19 13.5 32t31.5 13q19 0 32 -13t13 -32q0 -18 -13 -31.5t-32 -13.5zM340 527q-18 0 -31.5 13.5t-13.5 31.5q0 19 13.5 32t31.5 13q19 0 32 -13t13 -32
q0 -18 -13 -31.5t-32 -13.5z" />
    <glyph glyph-name="otilde" unicode="&#xf5;" horiz-adv-x="522" 
d="M42 218q0 51 16 93t45 72t69 46.5t89 16.5t89 -16.5t69 -46.5t45 -72t16 -93t-16 -93t-45 -72t-69 -46.5t-89 -16.5t-89 16.5t-69 46.5t-45 72t-16 93zM419 218q0 40 -12 72.5t-33 55.5t-50 35.5t-63 12.5q-35 0 -64 -12.5t-50 -35.5t-32.5 -55.5t-11.5 -72.5t11.5 -72.5
t32.5 -55.5t50 -35.5t64 -12.5q34 0 63 12.5t50 35.5t33 55.5t12 72.5zM401 628q0 -57 -19.5 -87t-56.5 -30q-19 0 -36 10.5t-33 23.5t-30 23.5t-26 10.5q-31 0 -31 -66h-47q0 57 19.5 87t56.5 30q19 0 36 -10.5t33 -23.5t30 -23.5t26 -10.5q31 0 31 66h47z" />
    <glyph glyph-name="uacute" unicode="&#xfa;" horiz-adv-x="490" 
d="M415 5q-40 -8 -79 -11.5t-73 -3.5q-95 0 -146.5 35t-51.5 117v294h60v-291q0 -31 11 -51t30 -31.5t43 -16t50 -4.5q23 0 47.5 1.5t48.5 4.5v388h60v-431zM204 513l85 152h59l-85 -152h-59z" />
    <glyph glyph-name="ugrave" unicode="&#xf9;" horiz-adv-x="490" 
d="M415 5q-40 -8 -79 -11.5t-73 -3.5q-95 0 -146.5 35t-51.5 117v294h60v-291q0 -31 11 -51t30 -31.5t43 -16t50 -4.5q23 0 47.5 1.5t48.5 4.5v388h60v-431zM213 513l-85 152h59l85 -152h-59z" />
    <glyph glyph-name="ucircumflex" unicode="&#xfb;" horiz-adv-x="490" 
d="M415 5q-40 -8 -79 -11.5t-73 -3.5q-95 0 -146.5 35t-51.5 117v294h60v-291q0 -31 11 -51t30 -31.5t43 -16t50 -4.5q23 0 47.5 1.5t48.5 4.5v388h60v-431zM371 513h-64l-67 87l-67 -87h-64l114 142h34z" />
    <glyph glyph-name="udieresis" unicode="&#xfc;" horiz-adv-x="490" 
d="M415 5q-40 -8 -79 -11.5t-73 -3.5q-95 0 -146.5 35t-51.5 117v294h60v-291q0 -31 11 -51t30 -31.5t43 -16t50 -4.5q23 0 47.5 1.5t48.5 4.5v388h60v-431zM161 527q-18 0 -31.5 13.5t-13.5 31.5q0 19 13.5 32t31.5 13q19 0 32 -13t13 -32q0 -18 -13 -31.5t-32 -13.5z
M319 527q-18 0 -31.5 13.5t-13.5 31.5q0 19 13.5 32t31.5 13q19 0 32 -13t13 -32q0 -18 -13 -31.5t-32 -13.5z" />
    <glyph glyph-name="dagger" unicode="&#x2020;" horiz-adv-x="254" 
d="M20 505h81v89h52v-89h81v-51h-81v-202h-52v202h-81v51z" />
    <glyph glyph-name="degree" unicode="&#xb0;" horiz-adv-x="286" 
d="M25 487q0 24 9 45t25 36.5t37.5 24.5t46.5 9t46.5 -9t37.5 -24.5t25 -36.5t9 -45t-9 -45t-25 -36.5t-37.5 -24.5t-46.5 -9t-46.5 9t-37.5 24.5t-25 36.5t-9 45zM73 487q0 -31 18.5 -51.5t51.5 -20.5t51.5 20.5t18.5 51.5t-18.5 51.5t-51.5 20.5t-51.5 -20.5t-18.5 -51.5z
" />
    <glyph glyph-name="cent" unicode="&#xa2;" horiz-adv-x="440" 
d="M230 528h50v-82q29 -2 54 -8q30 -8 59 -25v-63q-28 20 -60 30q-27 9 -53 11v-346q32 0 60 10q30 11 60 31v-63q-32 -17 -64 -25q-27 -6 -56 -8v-85h-50v88q-25 4 -48 12q-41 16 -72 45.5t-49.5 71.5t-18.5 96q0 55 18.5 97.5t50 71.5t72.5 44q23 8 47 12v85zM206 380
q-30 -11 -53 -33t-36.5 -54.5t-13.5 -75.5q0 -41 13.5 -73t37 -54t54.5 -34q11 -4 22 -7v338q-12 -3 -24 -7z" />
    <glyph glyph-name="sterling" unicode="&#xa3;" horiz-adv-x="453" 
d="M42 311h81v102q0 94 45.5 142.5t122.5 48.5q38 0 71 -13t50 -31v-71q-27 32 -56.5 45.5t-64.5 13.5q-52 0 -80.5 -32.5t-28.5 -102.5v-102h146v-52h-146v-28q0 -37 -5 -64.5t-14 -48t-21 -36t-26 -28.5h306v-54h-380v54q42 28 61.5 68.5t19.5 109.5v27h-81v52z" />
    <glyph glyph-name="section" unicode="&#xa7;" horiz-adv-x="430" 
d="M35 245q0 51 30.5 84.5t74.5 51.5q-32 19 -48 43.5t-16 61.5q0 56 38.5 87t98.5 31q32 0 62.5 -8t56.5 -27v-63q-26 21 -53.5 34t-65.5 13q-36 0 -57.5 -18t-21.5 -49q0 -15 5 -26.5t17.5 -22t32.5 -20.5t50 -21q36 -14 65 -27t49.5 -30t31 -40.5t10.5 -56.5
q0 -52 -31 -85.5t-75 -51.5q30 -19 43.5 -43.5t13.5 -60.5q0 -56 -38.5 -87t-98.5 -31q-32 0 -64.5 8.5t-58.5 27.5v63q26 -21 55.5 -34.5t67.5 -13.5q36 0 57.5 18t21.5 49q0 15 -4 26.5t-14.5 22t-29.5 20.5t-49 21q-36 13 -65 26.5t-49.5 30.5t-31 40.5t-10.5 56.5z
M339 242q0 19 -7.5 34t-24 27.5t-41.5 24t-61 24.5l-10 3q-46 -14 -75 -42t-29 -68q0 -20 7.5 -34.5t23.5 -26.5t41.5 -23.5t60.5 -25.5l11 -4q46 14 75 42.5t29 68.5z" />
    <glyph glyph-name="bullet" unicode="&#x2022;" horiz-adv-x="320" 
d="M70 259q0 38 26 64t64 26t64 -26t26 -64t-26 -64t-64 -26t-64 26t-26 64z" />
    <glyph glyph-name="paragraph" unicode="&#xb6;" horiz-adv-x="496" 
d="M362 594h59v-700h-59v700zM232 266q-38 0 -74 8.5t-64.5 28t-46 50.5t-17.5 77t17.5 77t46 50.5t64.5 28t74 8.5h59v-700h-59v372z" />
    <glyph glyph-name="germandbls" unicode="&#xdf;" horiz-adv-x="516" 
d="M75 509q0 37 11 70t32.5 57.5t52.5 39t71 14.5q71 0 115.5 -37t44.5 -103q0 -32 -14.5 -57.5t-31.5 -47t-31.5 -39.5t-14.5 -36t13 -32.5t32.5 -29t42.5 -30.5t42.5 -36t32.5 -46t13 -61q0 -26 -9.5 -52t-29 -46.5t-49 -33.5t-70.5 -13q-39 0 -67 9t-48 25v67
q28 -25 54 -38t61 -13q42 0 69.5 23.5t27.5 71.5q0 26 -13 46t-32.5 37t-42.5 33t-42.5 33t-32.5 38t-13 48q0 24 15 45t33 41.5t33 43t15 50.5q0 38 -27.5 64t-75.5 26q-53 0 -80 -37t-27 -100v-503h-60v509z" />
    <glyph glyph-name="registered" unicode="&#xae;" horiz-adv-x="455" 
d="M227 225q-41 0 -75 14.5t-59 40t-39 60t-14 74.5t14 75t39 60.5t59 40t75 14.5t75.5 -14.5t59.5 -40t39 -60.5t14 -75t-14 -74.5t-39 -60t-59.5 -40t-75.5 -14.5zM227 260q33 0 60.5 12t47 33t30.5 49t11 60q0 33 -11 61t-30.5 49t-47 33t-60.5 12t-60 -12t-46.5 -33
t-30.5 -49t-11 -61q0 -32 11 -60t30.5 -49t46.5 -33t60 -12zM206 325h-44v182q11 2 27.5 4t30.5 2q34 0 56.5 -16t22.5 -50q0 -19 -9.5 -33t-23.5 -21l49 -68h-51l-40 58h-18v-58zM206 421h14q15 0 24 6t9 20t-9 20t-23 6h-7t-8 -1v-51z" />
    <glyph glyph-name="copyright" unicode="&#xa9;" horiz-adv-x="698" 
d="M45 297q0 65 22.5 121t63 97.5t96.5 65t122 23.5t121.5 -23.5t96 -65t63.5 -97.5t23 -121t-23 -121t-63.5 -97.5t-96 -65t-121.5 -23.5t-122 23.5t-96.5 65t-63 97.5t-22.5 121zM85 297q0 -59 19.5 -108.5t55 -85.5t84 -56t105.5 -20t105.5 20t84 56t55 85.5t19.5 108.5
t-19.5 108.5t-55 85.5t-84 56t-105.5 20t-105.5 -20t-84 -56t-55 -85.5t-19.5 -108.5zM179 295q0 42 14 76t38.5 59t58.5 38.5t74 13.5q58 0 100 -26v-64q-39 37 -100 37q-57 0 -91.5 -37.5t-34.5 -96.5q0 -60 35.5 -97t92.5 -37q31 0 55.5 8.5t46.5 28.5v-63
q-45 -26 -104 -26q-41 0 -75 14t-58.5 38.5t-38 58.5t-13.5 75z" />
    <glyph glyph-name="trademark" unicode="&#x2122;" horiz-adv-x="678" 
d="M179 317h-51v235h-88v42h226v-42h-87v-235zM434 317l-66 215l-34 -215h-48l44 277h61l68 -220l66 220h61l44 -277h-49l-34 215l-65 -215h-48z" />
    <glyph glyph-name="acute" unicode="&#xb4;" horiz-adv-x="500" 
d="M178 513l85 152h59l-85 -152h-59z" />
    <glyph glyph-name="dieresis" unicode="&#xa8;" horiz-adv-x="500" 
d="M171 527q-18 0 -31.5 13.5t-13.5 31.5q0 19 13.5 32t31.5 13q19 0 32 -13t13 -32q0 -18 -13 -31.5t-32 -13.5zM329 527q-18 0 -31.5 13.5t-13.5 31.5q0 19 13.5 32t31.5 13q19 0 32 -13t13 -32q0 -18 -13 -31.5t-32 -13.5z" />
    <glyph glyph-name="notequal" unicode="&#x2260;" horiz-adv-x="469" 
d="M45 259h135l49 67h-184v53h223l66 90h60l-66 -90h96v-53h-135l-49 -67h184v-53h-223l-66 -90h-60l66 90h-96v53z" />
    <glyph glyph-name="AE" unicode="&#xc6;" horiz-adv-x="820" 
d="M184 164l-105 -164h-69l385 594h371v-54h-276v-210h258v-54h-258v-222h280v-54h-342v164h-244zM217 216h211v329z" />
    <glyph glyph-name="Oslash" unicode="&#xd8;" horiz-adv-x="704" 
d="M352 -10q-57 0 -107.5 17.5t-90.5 49.5l-54 -57h-66l86 90q-35 40 -55 92t-20 115q0 68 24 124.5t65.5 97t97.5 63t120 22.5q57 0 106.5 -17.5t89.5 -49.5l55 57h66l-86 -90q35 -40 55.5 -92t20.5 -115q0 -68 -24 -124.5t-65.5 -97t-97.5 -63t-120 -22.5zM195 99
q65 -53 157 -53q50 0 94.5 17.5t77.5 50.5t52.5 79.5t19.5 103.5q0 50 -14 91t-40 73zM508 495q-65 53 -156 53q-50 0 -94.5 -17.5t-77.5 -50.5t-52.5 -79.5t-19.5 -103.5q0 -50 14 -91t39 -73z" />
    <glyph glyph-name="infinity" unicode="&#x221e;" horiz-adv-x="710" 
d="M275 333q-20 22 -40.5 33.5t-47.5 11.5q-36 0 -62.5 -25t-26.5 -70t26.5 -70t62.5 -25q26 0 47 11.5t41 33.5l45 50zM390 283l45 -50q20 -23 40.5 -34t47.5 -11q36 0 62.5 25t26.5 70t-26.5 70t-62.5 25q-27 0 -47.5 -11.5t-40.5 -33.5zM316 199q-27 -30 -57.5 -47
t-73.5 -17q-30 0 -56 10t-46 29t-31.5 46.5t-11.5 62.5t11.5 62.5t31.5 46.5t46 29t56 10q43 0 73.5 -17t57.5 -47l39 -44l39 44q27 30 57.5 47t73.5 17q30 0 56 -10t46 -29t31.5 -46.5t11.5 -62.5t-11.5 -62.5t-31.5 -46.5t-46 -29t-56 -10q-43 0 -74 17t-57 47l-39 44z
" />
    <glyph glyph-name="plusminus" unicode="&#xb1;" horiz-adv-x="459" 
d="M40 369h163v123h53v-123h163v-53h-163v-123h-53v123h-163v53zM40 149h379v-53h-379v53z" />
    <glyph glyph-name="lessequal" unicode="&#x2264;" horiz-adv-x="329" 
d="M20 325l269 144v-62l-165 -86l165 -86v-62l-269 144v8zM20 149h269v-53h-269v53z" />
    <glyph glyph-name="greaterequal" unicode="&#x2265;" horiz-adv-x="329" 
d="M309 317l-269 -144v62l165 86l-165 86v62l269 -144v-8zM309 96h-269v53h269v-53z" />
    <glyph glyph-name="yen" unicode="&#xa5;" horiz-adv-x="494" 
d="M71 172h148v62h-148v49h131l-182 311h68l160 -288l160 288h66l-183 -311h132v-49h-148v-62h148v-49h-148v-123h-56v123h-148v49z" />
    <glyph glyph-name="mu" unicode="&#xb5;" horiz-adv-x="490" 
d="M65 436h60v-291q0 -31 11 -51t30 -31.5t43 -16t50 -4.5q23 0 47.5 1.5t48.5 4.5v388h60v-431q-40 -8 -79 -11.5t-73 -3.5q-39 0 -76.5 7t-62.5 33v-210h-59v616z" />
    <glyph glyph-name="mu" unicode="&#x3bc;" horiz-adv-x="490" 
d="M65 436h60v-291q0 -31 11 -51t30 -31.5t43 -16t50 -4.5q23 0 47.5 1.5t48.5 4.5v388h60v-431q-40 -8 -79 -11.5t-73 -3.5q-39 0 -76.5 7t-62.5 33v-210h-59v616z" />
    <glyph glyph-name="partialdiff" unicode="&#x2202;" horiz-adv-x="521" 
d="M404 372q-10 27 -32 62.5t-55.5 76t-79.5 84t-103 85.5h79q55 -43 103.5 -92.5t84.5 -105.5t57 -119.5t21 -133.5q0 -55 -16 -99t-44.5 -75t-68.5 -48t-89 -17t-89 16.5t-69 46.5t-45 72t-16 93t16 93t45 72t69 46.5t89 16.5q90 0 143 -74zM419 218q0 40 -12 72.5
t-33 55.5t-50 35.5t-63 12.5q-35 0 -64 -12.5t-50 -35.5t-32.5 -55.5t-11.5 -72.5t11.5 -72.5t32.5 -55.5t50 -35.5t64 -12.5q34 0 63 12.5t50 35.5t33 55.5t12 72.5z" />
    <glyph glyph-name="summation" unicode="&#x2211;" horiz-adv-x="443" 
d="M30 540v54h383v-54h-315l219 -333l-219 -333h315v-54h-383v54l214 333z" />
    <glyph glyph-name="product" unicode="&#x220f;" horiz-adv-x="590" 
d="M443 -180v719h-296v-719h-62v774h420v-774h-62z" />
    <glyph glyph-name="pi" unicode="&#x3c0;" horiz-adv-x="539" 
d="M493 1q-8 -5 -19.5 -8t-28.5 -3q-47 0 -72.5 28t-25.5 86v276h-174v-380h-60v380h-79v56h459v-56h-86v-276q0 -31 11 -46.5t39 -15.5q9 0 18.5 3t17.5 7v-51z" />
    <glyph glyph-name="pi" unicode="&#x3d6;" horiz-adv-x="539" 
d="M493 1q-8 -5 -19.5 -8t-28.5 -3q-47 0 -72.5 28t-25.5 86v276h-174v-380h-60v380h-79v56h459v-56h-86v-276q0 -31 11 -46.5t39 -15.5q9 0 18.5 3t17.5 7v-51z" />
    <glyph glyph-name="integral" unicode="&#x222b;" horiz-adv-x="324" 
d="M113 476q0 60 30.5 94t87.5 34q43 0 69 -19v-56q-14 10 -30 16.5t-38 6.5q-59 0 -59 -81v-533q0 -60 -30.5 -94t-87.5 -34q-43 0 -69 19v56q14 -10 30 -16.5t38 -6.5q59 0 59 81v533z" />
    <glyph glyph-name="ordfeminine" unicode="&#xaa;" horiz-adv-x="326" 
d="M233 412h-39q-50 0 -81.5 -15t-31.5 -48q0 -17 8 -28.5t22 -18.5t32 -10t39 -3q14 0 26.5 1t24.5 3v119zM233 487q0 34 -20 50.5t-53 16.5q-30 0 -54 -7t-47 -20v50q21 12 48.5 19.5t57.5 7.5q26 0 48.5 -6t39 -19.5t25.5 -35.5t9 -53v-233q-23 -6 -53 -9t-52 -3
q-71 0 -114 24t-43 79q0 51 44.5 79.5t124.5 28.5h39v31z" />
    <glyph glyph-name="ordmasculine" unicode="&#xba;" horiz-adv-x="405" 
d="M28 424q0 40 13 73t36 57t55 37t70 13q39 0 71 -13t55 -37t36 -57t13 -73t-13 -73t-36 -56.5t-55 -36.5t-71 -13q-38 0 -70 13t-55 36.5t-36 56.5t-13 73zM320 424q0 60 -33 95.5t-85 35.5q-51 0 -84.5 -35.5t-33.5 -95.5t33.5 -95.5t84.5 -35.5q52 0 85 35.5t33 95.5z
" />
    <glyph glyph-name="Omega" unicode="&#x3a9;" horiz-adv-x="592" 
d="M296 556q-44 0 -79.5 -16.5t-61 -46t-39.5 -71t-14 -92.5q0 -49 12 -89.5t32.5 -73.5t47.5 -58.5t57 -44.5v-64h-210v52h149q-23 14 -49.5 39t-49 60t-37 80t-14.5 99q0 57 17 106.5t50 87t80.5 59t108.5 21.5t108.5 -21.5t80.5 -59t50 -87t17 -106.5q0 -54 -14.5 -99
t-37 -80t-49 -60t-49.5 -39h149v-52h-210v64q30 19 57 44.5t47.5 58.5t32.5 73.5t12 89.5q0 51 -14 92.5t-39.5 71t-61.5 46t-79 16.5z" />
    <glyph glyph-name="Omega" unicode="&#x2126;" horiz-adv-x="592" 
d="M296 556q-44 0 -79.5 -16.5t-61 -46t-39.5 -71t-14 -92.5q0 -49 12 -89.5t32.5 -73.5t47.5 -58.5t57 -44.5v-64h-210v52h149q-23 14 -49.5 39t-49 60t-37 80t-14.5 99q0 57 17 106.5t50 87t80.5 59t108.5 21.5t108.5 -21.5t80.5 -59t50 -87t17 -106.5q0 -54 -14.5 -99
t-37 -80t-49 -60t-49.5 -39h149v-52h-210v64q30 19 57 44.5t47.5 58.5t32.5 73.5t12 89.5q0 51 -14 92.5t-39.5 71t-61.5 46t-79 16.5z" />
    <glyph glyph-name="ae" unicode="&#xe6;" horiz-adv-x="730" 
d="M301 20q-46 -30 -106 -30q-69 0 -112 32t-43 93q0 67 56 102t156 35h53q2 21 8 40q-1 26 -8 44q-8 20 -21.5 32.5t-31 17.5t-36.5 5q-43 0 -74 -10t-61 -26v57q28 15 62.5 24.5t72.5 9.5q31 0 57.5 -7.5t46 -24t30.5 -42.5q0 -2 1 -3l10 12q27 31 64.5 48t81.5 17
q86 0 134.5 -54.5t48.5 -148.5v-41h-330q2 -31 12 -57q12 -32 33.5 -54.5t51.5 -35t65 -12.5q47 0 81.5 12t67.5 37v-60q-29 -22 -68.5 -32t-80.5 -10q-47 0 -87.5 15.5t-69.5 44.5q-7 7 -13 14q-22 -25 -51 -44zM630 252q-3 69 -34.5 105t-91.5 36q-32 0 -58.5 -12.5
t-45.5 -36t-30 -55.5q-5 -18 -8 -37h268zM319 122q-14 36 -16 80h-47q-34 0 -62.5 -4.5t-49.5 -15t-32.5 -27t-11.5 -40.5q0 -39 28.5 -56.5t66.5 -17.5q41 0 77 18q30 16 53 48z" />
    <glyph glyph-name="oslash" unicode="&#xf8;" horiz-adv-x="522" 
d="M358 363q-40 31 -97 31q-35 0 -64 -12.5t-50 -35.5t-32.5 -55.5t-11.5 -72.5q0 -34 8 -62t22 -50zM261 -10q-39 0 -73 10.5t-61 30.5l-36 -41h-59l63 72q-26 29 -39.5 68.5t-13.5 87.5q0 51 16 93t45 72t69 46.5t89 16.5q77 0 133 -42l37 42h59l-63 -72q25 -30 39 -69
t14 -87q0 -51 -16 -93t-45 -72t-69 -46.5t-89 -16.5zM164 73q39 -31 97 -31q34 0 63 12.5t50 35.5t33 55.5t12 72.5q0 65 -31 112z" />
    <glyph glyph-name="questiondown" unicode="&#xbf;" horiz-adv-x="380" 
d="M362 -102q-22 -27 -61 -46t-90 -19q-43 0 -76.5 13.5t-56 36t-34 53t-11.5 63.5q0 46 17.5 77.5t43 53t55.5 34t55 21.5v83h60v-111q-36 -12 -67.5 -26t-54.5 -32t-36 -42.5t-13 -57.5q0 -25 9.5 -46t26 -35t37.5 -22t45 -8q49 0 84 19.5t67 54.5v-64zM282 396
q0 -20 -14.5 -34.5t-34.5 -14.5t-35 14.5t-15 34.5t15 35t35 15t34.5 -15t14.5 -35z" />
    <glyph glyph-name="exclamdown" unicode="&#xa1;" horiz-adv-x="269" 
d="M164 -158h-59v426h59v-426zM85 396q0 20 14.5 35t34.5 15t35 -15t15 -35t-15 -34.5t-35 -14.5t-34.5 14.5t-14.5 34.5z" />
    <glyph glyph-name="radical" unicode="&#x221a;" horiz-adv-x="528" 
d="M498 594l-185 -594h-72l-116 315h-73v58h115l108 -314l164 535h59z" />
    <glyph glyph-name="florin" unicode="&#x192;" horiz-adv-x="346" 
d="M28 -120l58 382h-66v50h74l23 147q10 66 42 105.5t92 39.5q22 0 38 -4.5t27 -12.5v-57q-16 12 -31 16.5t-33 4.5q-33 0 -50.5 -24t-24.5 -69l-23 -146h103v-50h-110l-59 -382h-60z" />
    <glyph glyph-name="approxequal" unicode="&#x2248;" horiz-adv-x="469" 
d="M45 362q28 18 53.5 26t48.5 8q24 0 45 -5t41.5 -11.5t41.5 -11.5t45 -5q23 0 49 7.5t55 26.5v-57q-29 -19 -55 -26.5t-49 -7.5q-24 0 -45 5t-41.5 11.5t-41.5 11.5t-45 5q-23 0 -48.5 -8t-53.5 -26v57zM45 250q28 18 53.5 26t48.5 8q24 0 45 -5t41.5 -11.5t41.5 -11.5
t45 -5q23 0 49 7.5t55 26.5v-57q-29 -19 -55 -26.5t-49 -7.5q-24 0 -45 5t-41.5 11.5t-41.5 11.5t-45 5q-23 0 -48.5 -8t-53.5 -26v57z" />
    <glyph glyph-name="guillemotleft" unicode="&#xab;" horiz-adv-x="448" 
d="M128 215l122 -158h-67l-123 158l123 158h67zM266 215l122 -158h-67l-123 158l123 158h67z" />
    <glyph glyph-name="guillemotright" unicode="&#xbb;" horiz-adv-x="448" 
d="M60 373h67l123 -158l-123 -158h-67l122 158zM198 373h67l123 -158l-123 -158h-67l122 158z" />
    <glyph glyph-name="ellipsis" unicode="&#x2026;" horiz-adv-x="708" 
d="M169 41q0 -20 -15 -35t-35 -15t-34.5 15t-14.5 35t14.5 34.5t34.5 14.5t35 -14.5t15 -34.5zM403 41q0 -20 -14.5 -35t-34.5 -15t-34.5 15t-14.5 35t14.5 34.5t34.5 14.5t34.5 -14.5t14.5 -34.5zM638 41q0 -20 -14.5 -35t-35.5 -15q-20 0 -34.5 15t-14.5 35t14.5 34.5
t34.5 14.5q21 0 35.5 -14.5t14.5 -34.5z" />
    <glyph glyph-name="Agrave" unicode="&#xc0;" horiz-adv-x="562" 
d="M136 164l-62 -164h-64l230 594h79l233 -594h-66l-63 164h-287zM155 216h249l-125 328zM246 647l-73 131h59l73 -131h-59z" />
    <glyph glyph-name="Atilde" unicode="&#xc3;" horiz-adv-x="562" 
d="M136 164l-62 -164h-64l230 594h79l233 -594h-66l-63 164h-287zM155 216h249l-125 328zM421 756q0 -57 -19.5 -87t-56.5 -30q-19 0 -36 10.5t-33 23.5t-30 23.5t-26 10.5q-31 0 -31 -66h-47q0 57 19.5 87t56.5 30q19 0 36 -10.5t33 -23.5t30 -23.5t26 -10.5q31 0 31 66h47
z" />
    <glyph glyph-name="Otilde" unicode="&#xd5;" horiz-adv-x="704" 
d="M45 297q0 68 24 124.5t65.5 97t97.5 63t120 22.5t120 -22.5t97.5 -63t65.5 -97t24 -124.5t-24 -124.5t-65.5 -97t-97.5 -63t-120 -22.5t-120 22.5t-97.5 63t-65.5 97t-24 124.5zM596 297q0 57 -19.5 103.5t-52.5 79.5t-77.5 50.5t-94.5 17.5t-94.5 -17.5t-77.5 -50.5
t-52.5 -79.5t-19.5 -103.5t19.5 -103.5t52.5 -79.5t77.5 -50.5t94.5 -17.5t94.5 17.5t77.5 50.5t52.5 79.5t19.5 103.5zM492 756q0 -57 -19.5 -87t-56.5 -30q-19 0 -36 10.5t-33 23.5t-30 23.5t-26 10.5q-31 0 -31 -66h-47q0 57 19.5 87t56.5 30q19 0 36 -10.5t33 -23.5
t30 -23.5t26 -10.5q31 0 31 66h47z" />
    <glyph glyph-name="OE" unicode="&#x152;" horiz-adv-x="805" 
d="M755 0h-403q-64 0 -120 21t-97.5 59.5t-65.5 93.5t-24 123t24 123t65.5 93.5t97.5 59.5t120 21h399v-54h-276v-210h258v-54h-258v-222h280v-54zM352 540q-50 0 -94.5 -16.5t-77.5 -47.5t-52.5 -76.5t-19.5 -102.5t19.5 -102.5t52.5 -76.5t77.5 -47.5t94.5 -16.5h61v486
h-61z" />
    <glyph glyph-name="oe" unicode="&#x153;" horiz-adv-x="846" 
d="M476 215v-2q0 -40 13.5 -71.5t36 -53.5t51.5 -33.5t61 -11.5q47 0 81.5 12t67.5 37v-60q-29 -22 -68.5 -32t-80.5 -10q-71 0 -125 34q-41 25 -65 67q-24 -41 -65 -68q-52 -33 -122 -33q-49 0 -89 16.5t-69 46.5t-45 72t-16 93t16 93t45 72t69 46.5t89 16.5q76 0 130 -39
q36 -26 57 -64q22 38 57 64q51 39 118 39q83 0 133 -48t50 -142v-41h-330zM419 218q0 40 -12 72.5t-33 55.5t-50 35.5t-63 12.5q-35 0 -64 -12.5t-50 -35.5t-32.5 -55.5t-11.5 -72.5t11.5 -72.5t32.5 -55.5t50 -35.5t64 -12.5q34 0 63 12.5t50 35.5t33 55.5t12 72.5z
M620 393q-51 0 -89 -33t-51 -95h266q-3 69 -37 98.5t-89 29.5z" />
    <glyph glyph-name="endash" unicode="&#x2013;" horiz-adv-x="572" 
d="M70 283h432v-48h-432v48z" />
    <glyph glyph-name="emdash" unicode="&#x2014;" horiz-adv-x="952" 
d="M70 283h812v-48h-812v48z" />
    <glyph glyph-name="quotedblleft" unicode="&#x201c;" horiz-adv-x="344" 
d="M70 457q0 63 30 112t70 75h48q-36 -38 -57 -82.5t-21 -104.5h-70zM206 457q0 63 30 112t70 75h48q-36 -38 -57 -82.5t-21 -104.5h-70z" />
    <glyph glyph-name="quotedblright" unicode="&#x201d;" horiz-adv-x="344" 
d="M173 644q0 -63 -30 -112t-70 -75h-48q36 38 57 82.5t21 104.5h70zM309 644q0 -63 -30 -112t-70 -75h-48q36 38 57 82.5t21 104.5h70z" />
    <glyph glyph-name="quoteleft" unicode="&#x2018;" horiz-adv-x="208" 
d="M70 457q0 63 30 112t70 75h48q-36 -38 -57 -82.5t-21 -104.5h-70z" />
    <glyph glyph-name="quoteright" unicode="&#x2019;" horiz-adv-x="208" 
d="M173 644q0 -63 -30 -112t-70 -75h-48q36 38 57 82.5t21 104.5h70z" />
    <glyph glyph-name="divide" unicode="&#xf7;" horiz-adv-x="459" 
d="M40 319h379v-53h-379v53zM180 147q0 20 14.5 34.5t34.5 14.5t35 -14.5t15 -34.5t-15 -35t-35 -15t-34.5 15t-14.5 35zM180 439q0 20 14.5 34.5t34.5 14.5t35 -14.5t15 -34.5t-15 -35t-35 -15t-34.5 15t-14.5 35z" />
    <glyph glyph-name="lozenge" unicode="&#x25ca;" horiz-adv-x="468" 
d="M198 594h72l170 -297l-170 -297h-72l-170 297zM234 550l-142 -253l142 -253l142 253z" />
    <glyph glyph-name="ydieresis" unicode="&#xff;" horiz-adv-x="428" 
d="M217 39l144 397h62l-236 -616h-59l59 151l-182 465h66zM135 527q-18 0 -31.5 13.5t-13.5 31.5q0 19 13.5 32t31.5 13q19 0 32 -13t13 -32q0 -18 -13 -31.5t-32 -13.5zM293 527q-18 0 -31.5 13.5t-13.5 31.5q0 19 13.5 32t31.5 13q19 0 32 -13t13 -32q0 -18 -13 -31.5
t-32 -13.5z" />
    <glyph glyph-name="Ydieresis" unicode="&#x178;" horiz-adv-x="514" 
d="M436 594h68l-216 -357v-237h-62v237l-216 357h68l179 -301zM178 641q-18 0 -31.5 13.5t-13.5 31.5q0 19 13.5 32t31.5 13q19 0 32 -13t13 -32q0 -18 -13 -31.5t-32 -13.5zM336 641q-18 0 -31.5 13.5t-13.5 31.5q0 19 13.5 32t31.5 13q19 0 32 -13t13 -32q0 -18 -13 -31.5
t-32 -13.5z" />
    <glyph glyph-name="fraction" unicode="&#x2044;" horiz-adv-x="195" 
d="M237 594h58l-337 -594h-58z" />
    <glyph glyph-name="Euro" unicode="&#x20ac;" horiz-adv-x="514" 
d="M336 -10q-58 0 -104.5 22.5t-79.5 63t-51 96.5q-8 23 -12 48h-69v51h63v26q0 17 1 34h-64v51h70q5 20 11 39q18 57 51 97.5t79.5 63t104.5 22.5q75 0 135 -43v-72q-26 30 -61.5 44.5t-74.5 14.5q-41 0 -76.5 -17.5t-61 -50.5t-40.5 -80q-3 -9 -5 -18h196l-10 -51h-194
q-1 -17 -1 -34v-26h182l-10 -51h-165q3 -14 7 -27q15 -46 40.5 -79t61 -50.5t76.5 -17.5q39 0 76 14.5t63 44.5v-72q-29 -21 -64.5 -32t-73.5 -11z" />
    <glyph glyph-name="guilsinglleft" unicode="&#x2039;" horiz-adv-x="310" 
d="M128 215l122 -158h-67l-123 158l123 158h67z" />
    <glyph glyph-name="guilsinglright" unicode="&#x203a;" horiz-adv-x="310" 
d="M60 373h67l123 -158l-123 -158h-67l122 158z" />
    <glyph glyph-name="daggerdbl" unicode="&#x2021;" horiz-adv-x="254" 
d="M20 389h83v68h-83v48h83v89h48v-89h83v-48h-83v-68h83v-48h-83v-89h-48v89h-83v48z" />
    <glyph glyph-name="periodcentered" unicode="&#xb7;" horiz-adv-x="239" 
d="M70 259q0 20 14.5 34.5t34.5 14.5t35 -14.5t15 -34.5t-15 -35t-35 -15t-34.5 15t-14.5 35z" />
    <glyph glyph-name="quotesinglbase" unicode="&#x201a;" horiz-adv-x="208" 
d="M143 80q0 -63 -30 -112t-70 -75h-48q36 38 57 82.5t21 104.5h70z" />
    <glyph glyph-name="quotedblbase" unicode="&#x201e;" horiz-adv-x="344" 
d="M143 80q0 -63 -30 -112t-70 -75h-48q36 38 57 82.5t21 104.5h70zM279 80q0 -63 -30 -112t-70 -75h-48q36 38 57 82.5t21 104.5h70z" />
    <glyph glyph-name="perthousand" unicode="&#x2030;" horiz-adv-x="1000" 
d="M40 466q0 30 11 55.5t29.5 44t43.5 28.5t53 10t53.5 -10t44 -28.5t29.5 -44t11 -55.5t-11 -55t-29.5 -43.5t-44 -28.5t-53.5 -10t-53 10t-43.5 28.5t-29.5 43.5t-11 55zM96 466q0 -42 23 -63.5t58 -21.5t58.5 21.5t23.5 63.5t-23.5 64t-58.5 22t-58 -22t-23 -64zM652 127
q0 -30 -11 -55t-29.5 -43.5t-44 -28.5t-53.5 -10t-53 10t-43.5 28.5t-29.5 43.5t-11 55t11 55.5t29.5 44t43.5 28.5t53 10t53.5 -10t44 -28.5t29.5 -44t11 -55.5zM197 0h-58l357 594h58zM596 127q0 42 -23.5 64t-58.5 22t-58 -22t-23 -64t23 -63.5t58 -21.5t58.5 21.5
t23.5 63.5zM960 127q0 -30 -11 -55t-29.5 -43.5t-44 -28.5t-53.5 -10t-53 10t-43.5 28.5t-29.5 43.5t-11 55t11 55.5t29.5 44t43.5 28.5t53 10t53.5 -10t44 -28.5t29.5 -44t11 -55.5zM904 127q0 42 -23.5 64t-58.5 22t-58 -22t-23 -64t23 -63.5t58 -21.5t58.5 21.5
t23.5 63.5z" />
    <glyph glyph-name="Acircumflex" unicode="&#xc2;" horiz-adv-x="562" 
d="M136 164l-62 -164h-64l230 594h79l233 -594h-66l-63 164h-287zM155 216h249l-125 328zM412 641h-62l-69 80l-69 -80h-62l114 133h34z" />
    <glyph glyph-name="Ecircumflex" unicode="&#xca;" horiz-adv-x="477" 
d="M427 54v-54h-342v594h338v-54h-276v-210h258v-54h-258v-222h280zM395 641h-62l-69 80l-69 -80h-62l114 133h34z" />
    <glyph glyph-name="Aacute" unicode="&#xc1;" horiz-adv-x="562" 
d="M136 164l-62 -164h-64l230 594h79l233 -594h-66l-63 164h-287zM155 216h249l-125 328zM257 647l73 131h59l-73 -131h-59z" />
    <glyph glyph-name="Edieresis" unicode="&#xcb;" horiz-adv-x="477" 
d="M427 54v-54h-342v594h338v-54h-276v-210h258v-54h-258v-222h280zM185 641q-18 0 -31.5 13.5t-13.5 31.5q0 19 13.5 32t31.5 13q19 0 32 -13t13 -32q0 -18 -13 -31.5t-32 -13.5zM343 641q-18 0 -31.5 13.5t-13.5 31.5q0 19 13.5 32t31.5 13q19 0 32 -13t13 -32
q0 -18 -13 -31.5t-32 -13.5z" />
    <glyph glyph-name="Egrave" unicode="&#xc8;" horiz-adv-x="477" 
d="M427 54v-54h-342v594h338v-54h-276v-210h258v-54h-258v-222h280zM239 647l-73 131h59l73 -131h-59z" />
    <glyph glyph-name="Iacute" unicode="&#xcd;" horiz-adv-x="232" 
d="M147 0h-62v594h62v-594zM82 647l73 131h59l-73 -131h-59z" />
    <glyph glyph-name="Icircumflex" unicode="&#xce;" horiz-adv-x="232" 
d="M147 0h-62v594h62v-594zM247 641h-62l-69 80l-69 -80h-62l114 133h34z" />
    <glyph glyph-name="Idieresis" unicode="&#xcf;" horiz-adv-x="232" 
d="M147 0h-62v594h62v-594zM37 641q-18 0 -31.5 13.5t-13.5 31.5q0 19 13.5 32t31.5 13q19 0 32 -13t13 -32q0 -18 -13 -31.5t-32 -13.5zM195 641q-18 0 -31.5 13.5t-13.5 31.5q0 19 13.5 32t31.5 13q19 0 32 -13t13 -32q0 -18 -13 -31.5t-32 -13.5z" />
    <glyph glyph-name="Igrave" unicode="&#xcc;" horiz-adv-x="232" 
d="M147 0h-62v594h62v-594zM91 647l-73 131h59l73 -131h-59z" />
    <glyph glyph-name="Oacute" unicode="&#xd3;" horiz-adv-x="704" 
d="M45 297q0 68 24 124.5t65.5 97t97.5 63t120 22.5t120 -22.5t97.5 -63t65.5 -97t24 -124.5t-24 -124.5t-65.5 -97t-97.5 -63t-120 -22.5t-120 22.5t-97.5 63t-65.5 97t-24 124.5zM596 297q0 57 -19.5 103.5t-52.5 79.5t-77.5 50.5t-94.5 17.5t-94.5 -17.5t-77.5 -50.5
t-52.5 -79.5t-19.5 -103.5t19.5 -103.5t52.5 -79.5t77.5 -50.5t94.5 -17.5t94.5 17.5t77.5 50.5t52.5 79.5t19.5 103.5zM318 647l73 131h59l-73 -131h-59z" />
    <glyph glyph-name="Ocircumflex" unicode="&#xd4;" horiz-adv-x="704" 
d="M45 297q0 68 24 124.5t65.5 97t97.5 63t120 22.5t120 -22.5t97.5 -63t65.5 -97t24 -124.5t-24 -124.5t-65.5 -97t-97.5 -63t-120 -22.5t-120 22.5t-97.5 63t-65.5 97t-24 124.5zM596 297q0 57 -19.5 103.5t-52.5 79.5t-77.5 50.5t-94.5 17.5t-94.5 -17.5t-77.5 -50.5
t-52.5 -79.5t-19.5 -103.5t19.5 -103.5t52.5 -79.5t77.5 -50.5t94.5 -17.5t94.5 17.5t77.5 50.5t52.5 79.5t19.5 103.5zM483 641h-62l-69 80l-69 -80h-62l114 133h34z" />
    <glyph glyph-name="Ograve" unicode="&#xd2;" horiz-adv-x="704" 
d="M45 297q0 68 24 124.5t65.5 97t97.5 63t120 22.5t120 -22.5t97.5 -63t65.5 -97t24 -124.5t-24 -124.5t-65.5 -97t-97.5 -63t-120 -22.5t-120 22.5t-97.5 63t-65.5 97t-24 124.5zM596 297q0 57 -19.5 103.5t-52.5 79.5t-77.5 50.5t-94.5 17.5t-94.5 -17.5t-77.5 -50.5
t-52.5 -79.5t-19.5 -103.5t19.5 -103.5t52.5 -79.5t77.5 -50.5t94.5 -17.5t94.5 17.5t77.5 50.5t52.5 79.5t19.5 103.5zM327 647l-73 131h59l73 -131h-59z" />
    <glyph glyph-name="Uacute" unicode="&#xda;" horiz-adv-x="599" 
d="M70 594h62v-395q0 -48 14 -78t38.5 -47t58 -23t72.5 -6q38 0 72 3t65 8v538h62v-581q-45 -11 -96.5 -17t-102.5 -6q-50 0 -94.5 9t-78 32t-53 62.5t-19.5 100.5v400zM258 647l73 131h59l-73 -131h-59z" />
    <glyph glyph-name="Ucircumflex" unicode="&#xdb;" horiz-adv-x="599" 
d="M70 594h62v-395q0 -48 14 -78t38.5 -47t58 -23t72.5 -6q38 0 72 3t65 8v538h62v-581q-45 -11 -96.5 -17t-102.5 -6q-50 0 -94.5 9t-78 32t-53 62.5t-19.5 100.5v400zM423 641h-62l-69 80l-69 -80h-62l114 133h34z" />
    <glyph glyph-name="Ugrave" unicode="&#xd9;" horiz-adv-x="599" 
d="M70 594h62v-395q0 -48 14 -78t38.5 -47t58 -23t72.5 -6q38 0 72 3t65 8v538h62v-581q-45 -11 -96.5 -17t-102.5 -6q-50 0 -94.5 9t-78 32t-53 62.5t-19.5 100.5v400zM267 647l-73 131h59l73 -131h-59z" />
    <glyph glyph-name="dotlessi" unicode="&#x131;" horiz-adv-x="210" 
d="M135 0h-60v436h60v-436z" />
    <glyph glyph-name="circumflex" unicode="&#x2c6;" horiz-adv-x="500" 
d="M381 513h-64l-67 87l-67 -87h-64l114 142h34z" />
    <glyph glyph-name="tilde" unicode="&#x2dc;" horiz-adv-x="500" 
d="M389 628q0 -57 -19.5 -87t-56.5 -30q-19 0 -36 10.5t-33 23.5t-30 23.5t-26 10.5q-31 0 -31 -66h-47q0 57 19.5 87t56.5 30q19 0 36 -10.5t33 -23.5t30 -23.5t26 -10.5q31 0 31 66h47z" />
    <glyph glyph-name="macron" unicode="&#xaf;" horiz-adv-x="500" 
d="M143 587h213v-50h-213v50z" />
    <glyph glyph-name="breve" unicode="&#x2d8;" horiz-adv-x="500" 
d="M250 508q-55 0 -83 35.5t-28 94.5h52q0 -34 12.5 -59t46.5 -25t46.5 25t12.5 59h52q0 -59 -28 -94.5t-83 -35.5z" />
    <glyph glyph-name="dotaccent" unicode="&#x2d9;" horiz-adv-x="500" 
d="M250 527q-18 0 -31.5 13.5t-13.5 31.5q0 19 13.5 32t31.5 13q19 0 32 -13t13 -32q0 -18 -13 -31.5t-32 -13.5z" />
    <glyph glyph-name="ring" unicode="&#x2da;" horiz-adv-x="500" 
d="M165 579q0 35 24 58.5t61 23.5t61 -23.5t24 -58.5t-24 -58.5t-61 -23.5t-61 23.5t-24 58.5zM295 579q0 18 -11 31t-34 13t-34 -13t-11 -31t11 -31t34 -13t34 13t11 31z" />
    <glyph glyph-name="cedilla" unicode="&#xb8;" horiz-adv-x="500" 
d="M293 16q0 -24 -5.5 -48t-15 -46t-22.5 -39.5t-28 -28.5h-61q37 34 57.5 76t20.5 86h54z" />
    <glyph glyph-name="hungarumlaut" unicode="&#x2dd;" horiz-adv-x="500" 
d="M124 513l85 152h56l-85 -152h-56zM234 513l85 152h56l-85 -152h-56z" />
    <glyph glyph-name="ogonek" unicode="&#x2db;" horiz-adv-x="500" 
d="M303 12q-39 -34 -56.5 -65t-17.5 -56q0 -17 9.5 -25.5t25.5 -8.5q12 0 23 2t22 7v-47q-13 -5 -25 -7t-26 -2q-34 0 -58 18t-24 57q0 31 21.5 66.5t59.5 60.5h46z" />
    <glyph glyph-name="caron" unicode="&#x2c7;" horiz-adv-x="500" 
d="M267 503h-34l-114 142h64l67 -87l67 87h64z" />
    <glyph glyph-name="Eth" unicode="&#xd0;" horiz-adv-x="628" 
d="M40 330h57v266q33 4 63.5 6t58.5 2q102 0 171.5 -24.5t112.5 -65t61.5 -93.5t18.5 -110q0 -63 -19 -121t-61.5 -102.5t-110.5 -71t-165 -26.5q-38 0 -68 2.5t-62 6.5v276h-57v55zM159 48q18 -2 35 -3t34 -1q64 0 117 16t91.5 49t60 83t21.5 118q0 52 -17 96t-54 75.5
t-94 49t-136 17.5q-27 0 -58 -3v-215h135v-55h-135v-227z" />
    <glyph glyph-name="currency" unicode="&#xa4;" horiz-adv-x="582" 
d="M132 185q-18 24 -28 54.5t-10 65.5q0 70 39 121l-73 72l39 38l72 -72q25 18 55.5 28t64.5 10t64.5 -10t55.5 -28l72 71l38 -38l-72 -72q18 -24 28.5 -54.5t10.5 -65.5t-10.5 -65.5t-28.5 -55.5l73 -71l-39 -38l-72 71q-25 -18 -55.5 -28t-64.5 -10q-35 0 -65 10t-56 28
l-72 -72l-38 38zM148 305q0 -33 11 -60.5t30 -47.5t45.5 -31.5t56.5 -11.5t56.5 11.5t45.5 31.5t30 47.5t11 60.5t-11 60.5t-30 47.5t-45.5 31.5t-56.5 11.5t-56.5 -11.5t-45.5 -31.5t-30 -47.5t-11 -60.5z" />
    <glyph glyph-name="zero.op" unicode="&#xe048;" horiz-adv-x="560" 
d="M45 225q0 52 18.5 95.5t50 74.5t74.5 48t92 17t92 -17t74.5 -48t50 -74.5t18.5 -95.5t-18.5 -95.5t-50 -74.5t-74.5 -48t-92 -17t-92 17t-74.5 48t-50 74.5t-18.5 95.5zM107 225q0 -41 14 -74.5t37.5 -57.5t55 -37t66.5 -13t66.5 13t55 37t37.5 57.5t14 74.5t-14 74.5
t-37.5 57.5t-55 37t-66.5 13t-66.5 -13t-55 -37t-37.5 -57.5t-14 -74.5z" />
    <glyph glyph-name="one.op" unicode="&#xe02f;" horiz-adv-x="295" 
d="M20 428l185 33v-461h-60v394l-125 -20v54z" />
    <glyph glyph-name="two.op" unicode="&#xe045;" horiz-adv-x="400" 
d="M375 54v-54h-345v49q61 44 109 79.5t80.5 67t49.5 61t17 62.5q0 45 -27.5 66t-68.5 21q-27 0 -49.5 -7.5t-42 -19.5t-36 -27t-30.5 -30v65q23 29 66 51t94 22q69 0 112 -36.5t43 -102.5q0 -39 -17.5 -73.5t-49 -66.5t-74.5 -63.5t-94 -63.5h263z" />
    <glyph glyph-name="three.op" unicode="&#xe042;" horiz-adv-x="396" 
d="M212 159q31 -4 58 -16t47 -31t32 -45.5t12 -58.5q0 -33 -12.5 -62.5t-37.5 -51.5t-62 -35t-85 -13q-41 0 -81.5 11.5t-62.5 30.5v57q32 -22 65 -35t79 -13q61 0 98 30t37 81q0 56 -38 84.5t-128 43.5v42q77 17 114 49.5t37 85.5q0 45 -29.5 69t-72.5 24q-51 0 -89 -25
t-66 -55v65q10 13 26.5 25.5t36.5 22t43.5 15.5t48.5 6q42 0 73 -12t52 -32t31 -46.5t10 -56.5q0 -27 -10 -53t-28 -47t-43 -35.5t-55 -18.5z" />
    <glyph glyph-name="four.op" unicode="&#xe013;" horiz-adv-x="491" 
d="M368 75h113v-51h-113v-165h-59v165h-294v51l281 378h72v-378zM79 75h230v313z" />
    <glyph glyph-name="five.op" unicode="&#xe010;" horiz-adv-x="381" 
d="M119 222q51 -6 95 -19.5t77 -37.5t51.5 -59t18.5 -85q0 -34 -12.5 -65.5t-38 -56t-64.5 -39t-92 -14.5q-39 0 -73.5 10.5t-60.5 27.5v58q32 -21 65 -33t68 -12q72 0 109 34.5t37 89.5q0 40 -18 67.5t-50 45.5t-75 27.5t-94 15.5l19 273h265v-54h-215z" />
    <glyph glyph-name="six.op" unicode="&#xe03e;" horiz-adv-x="494" 
d="M318 594l-131 -199l-51 -72q45 54 123 54q37 0 71 -12.5t60.5 -37t42 -60.5t15.5 -83q0 -39 -13.5 -74t-39.5 -62t-64 -42.5t-86 -15.5t-84.5 15.5t-62 42.5t-38.5 62t-13 74q0 54 19 102.5t51 97.5l136 210h65zM108 183q0 -33 10.5 -59.5t29.5 -45t44 -28.5t54 -10
q30 0 56 10t45 28.5t29.5 45t10.5 59.5q0 65 -39.5 103.5t-100.5 38.5q-30 0 -55 -10t-44 -28.5t-29.5 -45t-10.5 -58.5z" />
    <glyph glyph-name="seven.op" unicode="&#xe03b;" horiz-adv-x="409" 
d="M10 396v54h366v-54l-259 -540h-63l259 540h-303z" />
    <glyph glyph-name="eight.op" unicode="&#xe00a;" horiz-adv-x="476" 
d="M238 346q43 0 74 27.5t31 76.5q0 50 -31 78t-74 28t-74 -28t-31 -78q0 -49 31 -76.5t74 -27.5zM238 40q28 0 52.5 7.5t43 22.5t29 38t10.5 54q0 30 -10.5 53.5t-29 40t-43 25.5t-52.5 9t-52.5 -9t-43 -25.5t-29 -40t-10.5 -53.5q0 -31 10.5 -54t29 -38t43 -22.5
t52.5 -7.5zM238 -10q-41 0 -77 11.5t-63 33.5t-42.5 54t-15.5 73q0 32 11.5 58.5t30.5 46t42 32t46 17.5q-19 6 -36.5 17.5t-30.5 28.5t-21 39t-8 48q0 38 13 67t35.5 48.5t52.5 29.5t63 10t62.5 -10t52 -29.5t36 -48.5t13.5 -67q0 -26 -8 -48t-21 -39t-30.5 -28.5
t-36.5 -17.5q23 -5 46 -17.5t42 -32t30.5 -46t11.5 -58.5q0 -41 -15.5 -73t-42.5 -54t-63 -33.5t-77 -11.5z" />
    <glyph glyph-name="nine.op" unicode="&#xe029;" horiz-adv-x="494" 
d="M176 -144l131 199l51 72q-45 -54 -123 -54q-37 0 -71 12.5t-60.5 37t-42 60.5t-15.5 83q0 39 13.5 74t39.5 62t64 42.5t86 15.5t84.5 -15.5t62 -42.5t38.5 -62t13 -74q0 -54 -19 -102.5t-51 -97.5l-136 -210h-65zM386 267q0 33 -10.5 59.5t-29.5 45t-44 28.5t-54 10
q-30 0 -56 -10t-45 -28.5t-29.5 -45t-10.5 -59.5q0 -65 39.5 -103.5t100.5 -38.5q30 0 55 10t44 28.5t29.5 45t10.5 58.5z" />
    <glyph glyph-name="commaturn" unicode="&#xe005;" horiz-adv-x="500" 
d="M202 513q0 46 24 87.5t61 64.5h42q-34 -34 -50.5 -72.5t-16.5 -79.5h-60z" />
    <glyph glyph-name="registered.cap" unicode="&#xe038;" horiz-adv-x="698" 
d="M45 297q0 65 22.5 121t63 97.5t96.5 65t122 23.5t121.5 -23.5t96 -65t63.5 -97.5t23 -121t-23 -121t-63.5 -97.5t-96 -65t-121.5 -23.5t-122 23.5t-96.5 65t-63 97.5t-22.5 121zM85 297q0 -59 19.5 -108.5t55 -85.5t84 -56t105.5 -20t105.5 20t84 56t55 85.5t19.5 108.5
t-19.5 108.5t-55 85.5t-84 56t-105.5 20t-105.5 -20t-84 -56t-55 -85.5t-19.5 -108.5zM297 124h-55v349q17 3 42 5.5t46 2.5q68 0 105.5 -30t37.5 -88q0 -36 -19.5 -63t-50.5 -39l106 -137h-66l-95 125h-51v-125zM297 296h38q38 0 59 16t21 51q0 32 -20.5 49.5t-63.5 17.5
q-8 0 -18 -0.5t-16 -1.5v-132z" />
    <glyph glyph-name="plus.op" unicode="&#xe033;" horiz-adv-x="459" 
d="M40 259h163v163h53v-163h163v-53h-163v-163h-53v163h-163v53z" />
    <glyph glyph-name="minus.op" unicode="&#xe023;" horiz-adv-x="459" 
d="M40 259h379v-53h-379v53z" />
    <glyph glyph-name="multiply.op" unicode="&#xe026;" horiz-adv-x="393" 
d="M40 348l38 38l118 -120l119 120l38 -38l-119 -119l119 -119l-38 -37l-119 118l-118 -118l-38 37l119 119z" />
    <glyph glyph-name="divide.op" unicode="&#xe007;" horiz-adv-x="459" 
d="M40 259h379v-53h-379v53zM180 87q0 20 14.5 34.5t34.5 14.5t35 -14.5t15 -34.5t-15 -35t-35 -15t-34.5 15t-14.5 35zM180 379q0 20 14.5 34.5t34.5 14.5t35 -14.5t15 -34.5t-15 -35t-35 -15t-34.5 15t-14.5 35z" />
    <glyph glyph-name="equal.op" unicode="&#xe00d;" horiz-adv-x="469" 
d="M45 199h379v-53h-379v53zM45 319h379v-53h-379v53z" />
    <glyph glyph-name="less.op" unicode="&#xe01d;" horiz-adv-x="329" 
d="M20 235l269 164v-66l-173 -102l173 -102v-66l-269 164v8z" />
    <glyph glyph-name="greater.op" unicode="&#xe016;" horiz-adv-x="329" 
d="M309 227l-269 -164v66l173 102l-173 102v66l269 -164v-8z" />
    <glyph glyph-name="idotaccent" unicode="&#xe01b;" horiz-adv-x="210" 
d="M135 0h-60v436h60v-436zM105 527q-18 0 -31.5 13.5t-13.5 31.5q0 19 13.5 32t31.5 13q19 0 32 -13t13 -32q0 -18 -13 -31.5t-32 -13.5z" />
    <glyph glyph-name="zero_slash.op" unicode="&#xe04b;" horiz-adv-x="560" 
d="M357 389q-17 8 -37 13t-40 5q-35 0 -66.5 -13t-55 -37t-37.5 -57.5t-14 -74.5q0 -45 15.5 -79.5t41.5 -58.5zM280 43q35 0 66.5 13t55 37t37.5 57.5t14 74.5q0 44 -15.5 78.5t-41.5 58.5l-193 -302q36 -17 77 -17zM280 -10q-49 0 -92 17t-74.5 48t-50 74.5t-18.5 95.5
t18.5 95.5t50 74.5t74.5 48t92 17t92 -17t74.5 -48t50 -74.5t18.5 -95.5t-18.5 -95.5t-50 -74.5t-74.5 -48t-92 -17z" />
    <glyph glyph-name="zero_slash.lt" unicode="&#xe04a;" 
d="M320 535q-26 16 -60 16q-36 0 -65.5 -18.5t-50 -52.5t-32 -80.5t-11.5 -102.5q0 -67 15.5 -120t44.5 -86zM260 43q36 0 65.5 18.5t50 52.5t32 80.5t11.5 102.5q0 66 -15.5 119t-44.5 87l-160 -445q27 -15 61 -15zM260 -10q-51 0 -92 23t-69.5 64t-44 97t-15.5 123
t15.5 123t44 97t69.5 64t92 23t92 -23t69.5 -64t44 -97t15.5 -123t-15.5 -123t-44 -97t-69.5 -64t-92 -23z" />
    <glyph glyph-name="zero.lt" unicode="&#xe047;" 
d="M101 297q0 -56 11.5 -102.5t32 -80.5t50 -52.5t65.5 -18.5t65.5 18.5t50 52.5t32 80.5t11.5 102.5t-11.5 102.5t-32 80.5t-50 52.5t-65.5 18.5t-65.5 -18.5t-50 -52.5t-32 -80.5t-11.5 -102.5zM39 297q0 67 15.5 123t44 97t69.5 64t92 23t92 -23t69.5 -64t44 -97
t15.5 -123t-15.5 -123t-44 -97t-69.5 -64t-92 -23t-92 23t-69.5 64t-44 97t-15.5 123z" />
    <glyph glyph-name="one.lt" unicode="&#xe02e;" 
d="M99 563l230 40v-603h-61v535l-169 -26v54z" />
    <glyph glyph-name="two.lt" unicode="&#xe044;" 
d="M438 54v-54h-377v46q57 48 111.5 96.5t96.5 97t67.5 97.5t25.5 98q0 58 -31 85.5t-79 27.5q-58 0 -98.5 -25t-70.5 -55v67q27 28 70.5 48.5t98.5 20.5q36 0 67.5 -10t54.5 -30.5t36 -52.5t13 -76q0 -50 -25 -101.5t-65.5 -101t-91.5 -95t-102 -83.5h299z" />
    <glyph glyph-name="three.lt" unicode="&#xe041;" 
d="M278 303q31 -4 58 -16t47 -31t32 -45.5t12 -58.5q0 -33 -12.5 -62.5t-37.5 -51.5t-62 -35t-85 -13q-41 0 -81.5 11.5t-62.5 30.5v57q32 -22 65 -35t79 -13q61 0 98 30t37 81q0 56 -38 84.5t-128 43.5v42q77 17 114 49.5t37 85.5q0 45 -29.5 69t-72.5 24q-51 0 -89 -25
t-66 -55v65q10 13 26.5 25.5t36.5 22t43.5 15.5t48.5 6q42 0 73 -12t52 -32t31 -46.5t10 -56.5q0 -27 -10 -53t-28 -47t-43 -35.5t-55 -18.5z" />
    <glyph glyph-name="four.lt" unicode="&#xe012;" 
d="M380 216h103v-51h-103v-165h-59v165h-294v51l281 378h72v-378zM91 216h230v313z" />
    <glyph glyph-name="five.lt" unicode="&#xe00f;" 
d="M178 366q51 -6 95 -19.5t77 -37.5t51.5 -59t18.5 -85q0 -34 -12.5 -65.5t-38 -56t-64.5 -39t-92 -14.5q-39 0 -73.5 10.5t-60.5 27.5v58q32 -21 65 -33t68 -12q72 0 109 34.5t37 89.5q0 40 -18 67.5t-50 45.5t-75 27.5t-94 15.5l19 273h265v-54h-215z" />
    <glyph glyph-name="six.lt" unicode="&#xe03d;" 
d="M330 594l-131 -199l-51 -72q45 54 123 54q37 0 71 -12.5t60.5 -37t42 -60.5t15.5 -83q0 -39 -13.5 -74t-39.5 -62t-64 -42.5t-86 -15.5t-84.5 15.5t-62 42.5t-38.5 62t-13 74q0 54 19 102.5t51 97.5l136 210h65zM120 183q0 -33 10.5 -59.5t29.5 -45t44 -28.5t54 -10
q30 0 56 10t45 28.5t29.5 45t10.5 59.5q0 65 -39.5 103.5t-100.5 38.5q-30 0 -55 -10t-44 -28.5t-29.5 -45t-10.5 -58.5z" />
    <glyph glyph-name="seven.lt" unicode="&#xe03a;" 
d="M66 540v54h386v-54l-259 -540h-63l259 540h-323z" />
    <glyph glyph-name="eight.lt" unicode="&#xe009;" 
d="M260 346q43 0 74 27.5t31 76.5q0 50 -31 78t-74 28t-74 -28t-31 -78q0 -49 31 -76.5t74 -27.5zM260 40q28 0 52.5 7.5t43 22.5t29 38t10.5 54q0 30 -10.5 53.5t-29 40t-43 25.5t-52.5 9t-52.5 -9t-43 -25.5t-29 -40t-10.5 -53.5q0 -31 10.5 -54t29 -38t43 -22.5
t52.5 -7.5zM260 -10q-41 0 -77 11.5t-63 33.5t-42.5 54t-15.5 73q0 32 11.5 58.5t30.5 46t42 32t46 17.5q-19 6 -36.5 17.5t-30.5 28.5t-21 39t-8 48q0 38 13 67t35.5 48.5t52.5 29.5t63 10t62.5 -10t52 -29.5t36 -48.5t13.5 -67q0 -26 -8 -48t-21 -39t-30.5 -28.5
t-36.5 -17.5q23 -5 46 -17.5t42 -32t30.5 -46t11.5 -58.5q0 -41 -15.5 -73t-42.5 -54t-63 -33.5t-77 -11.5z" />
    <glyph glyph-name="nine.lt" unicode="&#xe028;" 
d="M189 0l131 199l51 72q-45 -54 -123 -54q-37 0 -71 12.5t-60.5 37t-42 60.5t-15.5 83q0 39 13.5 74t39.5 62t64 42.5t86 15.5t84.5 -15.5t62 -42.5t38.5 -62t13 -74q0 -54 -19 -102.5t-51 -97.5l-136 -210h-65zM399 411q0 33 -10.5 59.5t-29.5 45t-44 28.5t-54 10
q-30 0 -56 -10t-45 -28.5t-29.5 -45t-10.5 -59.5q0 -65 39.5 -103.5t100.5 -38.5q30 0 55 10t44 28.5t29.5 45t10.5 58.5z" />
    <glyph glyph-name="zero_slash.ot" unicode="&#xe04c;" 
d="M336 387q-34 20 -76 20q-35 0 -64 -13.5t-50 -37.5t-32.5 -57.5t-11.5 -73.5q0 -83 45 -133zM260 43q35 0 64 13.5t50 37.5t32.5 57.5t11.5 73.5q0 41 -12 74.5t-33 57.5l-189 -295q35 -19 76 -19zM260 -10q-49 0 -89.5 17.5t-69.5 49t-45 74.5t-16 94q0 52 16 95.5
t45 74.5t69.5 48t89.5 17t89.5 -17.5t69.5 -49t45 -74.5t16 -94t-16 -94t-45 -74.5t-69.5 -49t-89.5 -17.5z" />
    <glyph glyph-name="zero.ot" unicode="&#xe049;" 
d="M40 225q0 52 16 95.5t45 74.5t69.5 48t89.5 17t89.5 -17.5t69.5 -49t45 -74.5t16 -94t-16 -94t-45 -74.5t-69.5 -49t-89.5 -17.5t-89.5 17.5t-69.5 49t-45 74.5t-16 94zM102 225q0 -40 11.5 -73.5t32.5 -57.5t50 -37.5t64 -13.5t64 13.5t50 37.5t32.5 57.5t11.5 73.5
t-11.5 73.5t-32.5 57.5t-50 37.5t-64 13.5t-64 -13.5t-50 -37.5t-32.5 -57.5t-11.5 -73.5z" />
    <glyph glyph-name="one.ot" unicode="&#xe030;" 
d="M108 423l224 38v-461h-60v394l-164 -25v54z" />
    <glyph glyph-name="two.ot" unicode="&#xe046;" 
d="M427 54v-54h-345v49q61 44 109 79.5t80.5 67t49.5 61t17 62.5q0 45 -27.5 66t-68.5 21q-27 0 -49.5 -7.5t-42 -19.5t-36 -27t-30.5 -30v65q23 29 66 51t94 22q69 0 112 -36.5t43 -102.5q0 -39 -17.5 -73.5t-49 -66.5t-74.5 -63.5t-94 -63.5h263z" />
    <glyph glyph-name="three.ot" unicode="&#xe043;" 
d="M271 159q31 -4 58 -16t47 -31t32 -45.5t12 -58.5q0 -33 -12.5 -62.5t-37.5 -51.5t-62 -35t-85 -13q-41 0 -81.5 11.5t-62.5 30.5v57q32 -22 65 -35t79 -13q61 0 98 30t37 81q0 56 -38 84.5t-128 43.5v42q77 17 114 49.5t37 85.5q0 45 -29.5 69t-72.5 24q-51 0 -89 -25
t-66 -55v65q10 13 26.5 25.5t36.5 22t43.5 15.5t48.5 6q42 0 73 -12t52 -32t31 -46.5t10 -56.5q0 -27 -10 -53t-28 -47t-43 -35.5t-55 -18.5z" />
    <glyph glyph-name="four.ot" unicode="&#xe014;" 
d="M381 75h103v-51h-103v-165h-59v165h-294v51l281 378h72v-378zM92 75h230v313z" />
    <glyph glyph-name="five.ot" unicode="&#xe011;" 
d="M188 222q51 -6 95 -19.5t77 -37.5t51.5 -59t18.5 -85q0 -34 -12.5 -65.5t-38 -56t-64.5 -39t-92 -14.5q-39 0 -73.5 10.5t-60.5 27.5v58q32 -21 65 -33t68 -12q72 0 109 34.5t37 89.5q0 40 -18 67.5t-50 45.5t-75 27.5t-94 15.5l19 273h265v-54h-215z" />
    <glyph glyph-name="six.ot" unicode="&#xe03f;" 
d="M330 594l-131 -199l-51 -72q45 54 123 54q37 0 71 -12.5t60.5 -37t42 -60.5t15.5 -83q0 -39 -13.5 -74t-39.5 -62t-64 -42.5t-86 -15.5t-84.5 15.5t-62 42.5t-38.5 62t-13 74q0 54 19 102.5t51 97.5l136 210h65zM120 183q0 -33 10.5 -59.5t29.5 -45t44 -28.5t54 -10
q30 0 56 10t45 28.5t29.5 45t10.5 59.5q0 65 -39.5 103.5t-100.5 38.5q-30 0 -55 -10t-44 -28.5t-29.5 -45t-10.5 -58.5z" />
    <glyph glyph-name="seven.ot" unicode="&#xe03c;" 
d="M66 396v54h380v-54l-259 -540h-63l259 540h-317z" />
    <glyph glyph-name="eight.ot" unicode="&#xe00b;" 
d="M260 346q43 0 74 27.5t31 76.5q0 50 -31 78t-74 28t-74 -28t-31 -78q0 -49 31 -76.5t74 -27.5zM260 40q28 0 52.5 7.5t43 22.5t29 38t10.5 54q0 30 -10.5 53.5t-29 40t-43 25.5t-52.5 9t-52.5 -9t-43 -25.5t-29 -40t-10.5 -53.5q0 -31 10.5 -54t29 -38t43 -22.5
t52.5 -7.5zM260 -10q-41 0 -77 11.5t-63 33.5t-42.5 54t-15.5 73q0 32 11.5 58.5t30.5 46t42 32t46 17.5q-19 6 -36.5 17.5t-30.5 28.5t-21 39t-8 48q0 38 13 67t35.5 48.5t52.5 29.5t63 10t62.5 -10t52 -29.5t36 -48.5t13.5 -67q0 -26 -8 -48t-21 -39t-30.5 -28.5
t-36.5 -17.5q23 -5 46 -17.5t42 -32t30.5 -46t11.5 -58.5q0 -41 -15.5 -73t-42.5 -54t-63 -33.5t-77 -11.5z" />
    <glyph glyph-name="nine.ot" unicode="&#xe02a;" 
d="M189 -144l131 199l51 72q-45 -54 -123 -54q-37 0 -71 12.5t-60.5 37t-42 60.5t-15.5 83q0 39 13.5 74t39.5 62t64 42.5t86 15.5t84.5 -15.5t62 -42.5t38.5 -62t13 -74q0 -54 -19 -102.5t-51 -97.5l-136 -210h-65zM399 267q0 33 -10.5 59.5t-29.5 45t-44 28.5t-54 10
q-30 0 -56 -10t-45 -28.5t-29.5 -45t-10.5 -59.5q0 -65 39.5 -103.5t100.5 -38.5q30 0 55 10t44 28.5t29.5 45t10.5 58.5z" />
    <glyph glyph-name="period.tab" unicode="&#xe031;" horiz-adv-x="260" 
d="M80 41q0 20 14.5 34.5t34.5 14.5t35 -14.5t15 -34.5t-15 -35t-35 -15t-34.5 15t-14.5 35z" />
    <glyph glyph-name="colon.tab" unicode="&#xe003;" horiz-adv-x="260" 
d="M80 41q0 20 14.5 34.5t34.5 14.5t35 -14.5t15 -34.5t-15 -35t-35 -15t-34.5 15t-14.5 35zM80 376q0 20 14.5 34.5t34.5 14.5t35 -14.5t15 -34.5t-15 -35t-35 -15t-34.5 15t-14.5 35z" />
    <glyph glyph-name="comma.tab" unicode="&#xe004;" horiz-adv-x="260" 
d="M163 80q0 -31 -8 -62t-22 -58.5t-32 -49t-37 -34.5h-48q36 38 56.5 91t20.5 113h70z" />
    <glyph glyph-name="semicolon.tab" unicode="&#xe039;" horiz-adv-x="260" 
d="M163 80q0 -31 -8 -62t-22 -58.5t-32 -49t-37 -34.5h-48q36 38 56.5 91t20.5 113h70zM80 376q0 20 14.5 34.5t34.5 14.5t35 -14.5t15 -34.5t-15 -35t-35 -15t-34.5 15t-14.5 35z" />
    <glyph glyph-name="space.tab" unicode="&#xe040;" horiz-adv-x="260" 
 />
    <glyph glyph-name="plusminus.op" unicode="&#xe036;" horiz-adv-x="459" 
d="M40 309h163v123h53v-123h163v-53h-163v-123h-53v123h-163v53zM40 89h379v-53h-379v53z" />
    <glyph glyph-name="lessequal.op" unicode="&#xe020;" horiz-adv-x="329" 
d="M20 265l269 144v-62l-165 -86l165 -86v-62l-269 144v8zM20 89h269v-53h-269v53z" />
    <glyph glyph-name="greaterequal.op" unicode="&#xe019;" horiz-adv-x="329" 
d="M309 257l-269 -144v62l165 86l-165 86v62l269 -144v-8zM309 36h-269v53h269v-53z" />
    <glyph glyph-name="notequal.op" unicode="&#xe02c;" horiz-adv-x="469" 
d="M45 199h135l49 67h-184v53h223l66 90h60l-66 -90h96v-53h-135l-49 -67h184v-53h-223l-66 -90h-60l66 90h-96v53z" />
    <glyph glyph-name="approxequal.op" unicode="&#xe001;" horiz-adv-x="469" 
d="M45 292q28 18 53.5 26t48.5 8q24 0 45 -5t41.5 -11.5t41.5 -11.5t45 -5q23 0 49 7.5t55 26.5v-57q-29 -19 -55 -26.5t-49 -7.5q-24 0 -45 5t-41.5 11.5t-41.5 11.5t-45 5q-23 0 -48.5 -8t-53.5 -26v57zM45 180q28 18 53.5 26t48.5 8q24 0 45 -5t41.5 -11.5t41.5 -11.5
t45 -5q23 0 49 7.5t55 26.5v-57q-29 -19 -55 -26.5t-49 -7.5q-24 0 -45 5t-41.5 11.5t-41.5 11.5t-45 5q-23 0 -48.5 -8t-53.5 -26v57z" />
    <glyph glyph-name="plus.lt" unicode="&#xe032;" 
d="M70 319h163v163h53v-163h163v-53h-163v-163h-53v163h-163v53z" />
    <glyph glyph-name="minus.lt" unicode="&#xe022;" 
d="M70 319h379v-53h-379v53z" />
    <glyph glyph-name="multiply.lt" unicode="&#xe025;" 
d="M103 408l38 38l118 -120l119 120l38 -38l-119 -119l119 -119l-38 -37l-119 118l-118 -118l-38 37l119 119z" />
    <glyph glyph-name="divide.lt" unicode="&#xe006;" 
d="M70 319h379v-53h-379v53zM210 147q0 20 14.5 34.5t34.5 14.5t35 -14.5t15 -34.5t-15 -35t-35 -15t-34.5 15t-14.5 35zM210 439q0 20 14.5 34.5t34.5 14.5t35 -14.5t15 -34.5t-15 -35t-35 -15t-34.5 15t-14.5 35z" />
    <glyph glyph-name="equal.lt" unicode="&#xe00c;" 
d="M70 259h379v-53h-379v53zM70 379h379v-53h-379v53z" />
    <glyph glyph-name="less.lt" unicode="&#xe01c;" 
d="M125 295l269 164v-66l-173 -102l173 -102v-66l-269 164v8z" />
    <glyph glyph-name="greater.lt" unicode="&#xe015;" 
d="M394 287l-269 -164v66l173 102l-173 102v66l269 -164v-8z" />
    <glyph glyph-name="plusminus.lt" unicode="&#xe035;" 
d="M70 369h163v123h53v-123h163v-53h-163v-123h-53v123h-163v53zM70 149h379v-53h-379v53z" />
    <glyph glyph-name="lessequal.lt" unicode="&#xe01f;" 
d="M125 325l269 144v-62l-165 -86l165 -86v-62l-269 144v8zM125 149h269v-53h-269v53z" />
    <glyph glyph-name="greaterequal.lt" unicode="&#xe018;" 
d="M394 317l-269 -144v62l165 86l-165 86v62l269 -144v-8zM394 96h-269v53h269v-53z" />
    <glyph glyph-name="notequal.lt" unicode="&#xe02b;" 
d="M70 259h135l49 67h-184v53h223l66 90h60l-66 -90h96v-53h-135l-49 -67h184v-53h-223l-66 -90h-60l66 90h-96v53z" />
    <glyph glyph-name="approxequal.lt" unicode="&#xe000;" 
d="M70 362q28 18 53.5 26t48.5 8q24 0 45 -5t41.5 -11.5t41.5 -11.5t45 -5q23 0 49 7.5t55 26.5v-57q-29 -19 -55 -26.5t-49 -7.5q-24 0 -45 5t-41.5 11.5t-41.5 11.5t-45 5q-23 0 -48.5 -8t-53.5 -26v57zM70 250q28 18 53.5 26t48.5 8q24 0 45 -5t41.5 -11.5t41.5 -11.5
t45 -5q23 0 49 7.5t55 26.5v-57q-29 -19 -55 -26.5t-49 -7.5q-24 0 -45 5t-41.5 11.5t-41.5 11.5t-45 5q-23 0 -48.5 -8t-53.5 -26v57z" />
    <glyph glyph-name="plus.ot" unicode="&#xe034;" 
d="M70 259h163v163h53v-163h163v-53h-163v-163h-53v163h-163v53z" />
    <glyph glyph-name="minus.ot" unicode="&#xe024;" 
d="M70 259h379v-53h-379v53z" />
    <glyph glyph-name="multiply.ot" unicode="&#xe027;" 
d="M103 348l38 38l118 -120l119 120l38 -38l-119 -119l119 -119l-38 -37l-119 118l-118 -118l-38 37l119 119z" />
    <glyph glyph-name="divide.ot" unicode="&#xe008;" 
d="M70 259h379v-53h-379v53zM210 87q0 20 14.5 34.5t34.5 14.5t35 -14.5t15 -34.5t-15 -35t-35 -15t-34.5 15t-14.5 35zM210 379q0 20 14.5 34.5t34.5 14.5t35 -14.5t15 -34.5t-15 -35t-35 -15t-34.5 15t-14.5 35z" />
    <glyph glyph-name="equal.ot" unicode="&#xe00e;" 
d="M70 199h379v-53h-379v53zM70 319h379v-53h-379v53z" />
    <glyph glyph-name="less.ot" unicode="&#xe01e;" 
d="M125 235l269 164v-66l-173 -102l173 -102v-66l-269 164v8z" />
    <glyph glyph-name="greater.ot" unicode="&#xe017;" 
d="M394 227l-269 -164v66l173 102l-173 102v66l269 -164v-8z" />
    <glyph glyph-name="plusminus.ot" unicode="&#xe037;" 
d="M70 309h163v123h53v-123h163v-53h-163v-123h-53v123h-163v53zM70 89h379v-53h-379v53z" />
    <glyph glyph-name="lessequal.ot" unicode="&#xe021;" 
d="M125 265l269 144v-62l-165 -86l165 -86v-62l-269 144v8zM125 89h269v-53h-269v53z" />
    <glyph glyph-name="greaterequal.ot" unicode="&#xe01a;" 
d="M394 257l-269 -144v62l165 86l-165 86v62l269 -144v-8zM394 36h-269v53h269v-53z" />
    <glyph glyph-name="notequal.ot" unicode="&#xe02d;" 
d="M70 199h135l49 67h-184v53h223l66 90h60l-66 -90h96v-53h-135l-49 -67h184v-53h-223l-66 -90h-60l66 90h-96v53z" />
    <glyph glyph-name="approxequal.ot" unicode="&#xe002;" 
d="M70 292q28 18 53.5 26t48.5 8q24 0 45 -5t41.5 -11.5t41.5 -11.5t45 -5q23 0 49 7.5t55 26.5v-57q-29 -19 -55 -26.5t-49 -7.5q-24 0 -45 5t-41.5 11.5t-41.5 11.5t-45 5q-23 0 -48.5 -8t-53.5 -26v57zM70 180q28 18 53.5 26t48.5 8q24 0 45 -5t41.5 -11.5t41.5 -11.5
t45 -5q23 0 49 7.5t55 26.5v-57q-29 -19 -55 -26.5t-49 -7.5q-24 0 -45 5t-41.5 11.5t-41.5 11.5t-45 5q-23 0 -48.5 -8t-53.5 -26v57z" />
    <glyph glyph-name="Amacron" unicode="&#x100;" horiz-adv-x="562" 
d="M136 164l-62 -164h-64l230 594h79l233 -594h-66l-63 164h-287zM155 216h249l-125 328zM175 708h213v-50h-213v50z" />
    <glyph glyph-name="amacron" unicode="&#x101;" horiz-adv-x="429" 
d="M301 203h-45q-34 0 -62.5 -4.5t-49.5 -14.5t-32.5 -25.5t-11.5 -37.5t10.5 -37t29.5 -24.5t44.5 -13.5t55.5 -4q29 0 61 6v155zM301 305q0 42 -25 63.5t-67 21.5q-38 0 -68 -9.5t-60 -25.5v57q28 15 62.5 24.5t72.5 9.5q66 0 105.5 -31.5t39.5 -105.5v-301
q-30 -8 -63 -12t-61 -4q-44 0 -80.5 7t-62.5 23t-40 40t-14 59q0 65 56 98t156 33h49v53zM105 587h213v-50h-213v50z" />
    <glyph glyph-name="Abreve" unicode="&#x102;" horiz-adv-x="562" 
d="M136 164l-62 -164h-64l230 594h79l233 -594h-66l-63 164h-287zM155 216h249l-125 328zM281 647q-55 0 -83 33.5t-28 92.5h52q0 -34 12.5 -57t46.5 -23t46.5 23t12.5 57h52q0 -59 -28 -92.5t-83 -33.5z" />
    <glyph glyph-name="abreve" unicode="&#x103;" horiz-adv-x="429" 
d="M301 203h-45q-34 0 -62.5 -4.5t-49.5 -14.5t-32.5 -25.5t-11.5 -37.5t10.5 -37t29.5 -24.5t44.5 -13.5t55.5 -4q29 0 61 6v155zM301 305q0 42 -25 63.5t-67 21.5q-38 0 -68 -9.5t-60 -25.5v57q28 15 62.5 24.5t72.5 9.5q66 0 105.5 -31.5t39.5 -105.5v-301
q-30 -8 -63 -12t-61 -4q-44 0 -80.5 7t-62.5 23t-40 40t-14 59q0 65 56 98t156 33h49v53zM218 508q-55 0 -83 35.5t-28 94.5h52q0 -34 12.5 -59t46.5 -25t46.5 25t12.5 59h52q0 -59 -28 -94.5t-83 -35.5z" />
    <glyph glyph-name="Aogonek" unicode="&#x104;" horiz-adv-x="562" 
d="M530 0q-32 -30 -46.5 -58t-14.5 -51q0 -17 9.5 -25.5t25.5 -8.5q12 0 23 2t22 7v-47q-13 -5 -25 -7t-26 -2q-34 0 -58 18t-24 57q0 29 17.5 63t48.5 61l-59 155h-287l-62 -164h-64l230 594h79l233 -594h-22zM155 216h249l-125 328z" />
    <glyph glyph-name="aogonek" unicode="&#x105;" horiz-adv-x="429" 
d="M301 305q0 42 -25 63.5t-67 21.5q-38 0 -68 -9.5t-60 -25.5v57q28 15 62.5 24.5t72.5 9.5q66 0 105.5 -31.5t39.5 -105.5v-301q-42 -33 -61 -62.5t-19 -54.5q0 -17 9.5 -25.5t25.5 -8.5q12 0 23 2t22 7v-47q-13 -5 -25 -7t-26 -2q-34 0 -58 18t-24 57q0 26 16.5 56.5
t46.5 54.5q-13 -2 -28 -3t-26 -1q-44 0 -80.5 7t-62.5 23t-40 40t-14 59q0 65 56 98t156 33h49v53zM301 203h-45q-34 0 -62.5 -4.5t-49.5 -14.5t-32.5 -25.5t-11.5 -37.5t10.5 -37t29.5 -24.5t44.5 -13.5t55.5 -4q29 0 61 6v155z" />
    <glyph glyph-name="Cacute" unicode="&#x106;" horiz-adv-x="559" 
d="M516 487q-32 31 -74.5 46t-90.5 15q-50 0 -94.5 -17.5t-77.5 -50.5t-52 -79.5t-19 -103.5t19 -103.5t52 -79.5t77.5 -50.5t94.5 -17.5q48 0 92 14.5t76 44.5v-71q-35 -21 -78.5 -32.5t-88.5 -11.5q-68 0 -124 22.5t-97 63t-63.5 97t-22.5 124.5q0 69 24 125.5t65.5 97
t97.5 62.5t120 22q90 0 164 -45v-72zM310 647l73 131h59l-73 -131h-59z" />
    <glyph glyph-name="cacute" unicode="&#x107;" horiz-adv-x="440" 
d="M393 350q-28 20 -59.5 30.5t-62.5 10.5q-34 0 -64.5 -11t-53.5 -33t-36.5 -54.5t-13.5 -75.5q0 -41 13.5 -73t37 -54t54.5 -33.5t67 -11.5q35 0 65 10.5t60 30.5v-63q-32 -17 -64 -25t-67 -8q-46 0 -87 15.5t-72 45t-49.5 71.5t-18.5 96q0 55 18.5 97.5t50 71.5t72.5 44
t85 15q36 0 66 -8t59 -25v-63zM229 513l85 152h59l-85 -152h-59z" />
    <glyph glyph-name="Ccircumflex" unicode="&#x108;" horiz-adv-x="559" 
d="M516 487q-32 31 -74.5 46t-90.5 15q-50 0 -94.5 -17.5t-77.5 -50.5t-52 -79.5t-19 -103.5t19 -103.5t52 -79.5t77.5 -50.5t94.5 -17.5q48 0 92 14.5t76 44.5v-71q-35 -21 -78.5 -32.5t-88.5 -11.5q-68 0 -124 22.5t-97 63t-63.5 97t-22.5 124.5q0 69 24 125.5t65.5 97
t97.5 62.5t120 22q90 0 164 -45v-72zM475 641h-62l-69 80l-69 -80h-62l114 133h34z" />
    <glyph glyph-name="ccircumflex" unicode="&#x109;" horiz-adv-x="440" 
d="M393 350q-28 20 -59.5 30.5t-62.5 10.5q-34 0 -64.5 -11t-53.5 -33t-36.5 -54.5t-13.5 -75.5q0 -41 13.5 -73t37 -54t54.5 -33.5t67 -11.5q35 0 65 10.5t60 30.5v-63q-32 -17 -64 -25t-67 -8q-46 0 -87 15.5t-72 45t-49.5 71.5t-18.5 96q0 55 18.5 97.5t50 71.5t72.5 44
t85 15q36 0 66 -8t59 -25v-63zM389 513h-64l-67 87l-67 -87h-64l114 142h34z" />
    <glyph glyph-name="Cdotaccent" unicode="&#x10a;" horiz-adv-x="559" 
d="M516 487q-32 31 -74.5 46t-90.5 15q-50 0 -94.5 -17.5t-77.5 -50.5t-52 -79.5t-19 -103.5t19 -103.5t52 -79.5t77.5 -50.5t94.5 -17.5q48 0 92 14.5t76 44.5v-71q-35 -21 -78.5 -32.5t-88.5 -11.5q-68 0 -124 22.5t-97 63t-63.5 97t-22.5 124.5q0 69 24 125.5t65.5 97
t97.5 62.5t120 22q90 0 164 -45v-72zM344 641q-18 0 -31.5 13.5t-13.5 31.5q0 19 13.5 32t31.5 13q19 0 32 -13t13 -32q0 -18 -13 -31.5t-32 -13.5z" />
    <glyph glyph-name="cdotaccent" unicode="&#x10b;" horiz-adv-x="440" 
d="M393 350q-28 20 -59.5 30.5t-62.5 10.5q-34 0 -64.5 -11t-53.5 -33t-36.5 -54.5t-13.5 -75.5q0 -41 13.5 -73t37 -54t54.5 -33.5t67 -11.5q35 0 65 10.5t60 30.5v-63q-32 -17 -64 -25t-67 -8q-46 0 -87 15.5t-72 45t-49.5 71.5t-18.5 96q0 55 18.5 97.5t50 71.5t72.5 44
t85 15q36 0 66 -8t59 -25v-63zM260 527q-18 0 -31.5 13.5t-13.5 31.5q0 19 13.5 32t31.5 13q19 0 32 -13t13 -32q0 -18 -13 -31.5t-32 -13.5z" />
    <glyph glyph-name="Ccaron" unicode="&#x10c;" horiz-adv-x="559" 
d="M516 487q-32 31 -74.5 46t-90.5 15q-50 0 -94.5 -17.5t-77.5 -50.5t-52 -79.5t-19 -103.5t19 -103.5t52 -79.5t77.5 -50.5t94.5 -17.5q48 0 92 14.5t76 44.5v-71q-35 -21 -78.5 -32.5t-88.5 -11.5q-68 0 -124 22.5t-97 63t-63.5 97t-22.5 124.5q0 69 24 125.5t65.5 97
t97.5 62.5t120 22q90 0 164 -45v-72zM361 644h-34l-114 133h62l69 -80l69 80h62z" />
    <glyph glyph-name="ccaron" unicode="&#x10d;" horiz-adv-x="440" 
d="M393 350q-28 20 -59.5 30.5t-62.5 10.5q-34 0 -64.5 -11t-53.5 -33t-36.5 -54.5t-13.5 -75.5q0 -41 13.5 -73t37 -54t54.5 -33.5t67 -11.5q35 0 65 10.5t60 30.5v-63q-32 -17 -64 -25t-67 -8q-46 0 -87 15.5t-72 45t-49.5 71.5t-18.5 96q0 55 18.5 97.5t50 71.5t72.5 44
t85 15q36 0 66 -8t59 -25v-63zM275 503h-34l-114 142h64l67 -87l67 87h64z" />
    <glyph glyph-name="Dcaron" unicode="&#x10e;" horiz-adv-x="616" 
d="M85 596q33 4 63.5 6t58.5 2q102 0 171.5 -24.5t112.5 -65t61.5 -93.5t18.5 -110q0 -63 -19 -121t-61.5 -102.5t-110.5 -71t-165 -26.5q-38 0 -68 2.5t-62 6.5v597zM147 48q18 -2 35 -3t34 -1q64 0 117 16t91.5 49t60 83t21.5 118q0 52 -17 96t-54 75.5t-94 49t-136 17.5
q-27 0 -58 -3v-497zM289 644h-34l-114 133h62l69 -80l69 80h62z" />
    <glyph glyph-name="dcaron" unicode="&#x10f;" horiz-adv-x="512" 
d="M437 6q-35 -8 -71 -12t-71 -4q-57 0 -103.5 15t-79.5 44t-51.5 71.5t-18.5 97.5t19 97.5t52 71.5t76.5 44t92.5 15q25 0 51.5 -5t43.5 -15v254h60v-674zM377 372q-17 9 -41 14.5t-54 5.5q-38 0 -70.5 -11.5t-56.5 -33.5t-38 -54.5t-14 -74.5q0 -84 52.5 -129.5
t139.5 -45.5q21 0 41.5 1t40.5 4v324zM580 680l-40 -148h-53l40 148h53z" />
    <glyph glyph-name="Dcroat" unicode="&#x110;" horiz-adv-x="628" 
d="M40 330h57v266q33 4 63.5 6t58.5 2q102 0 171.5 -24.5t112.5 -65t61.5 -93.5t18.5 -110q0 -63 -19 -121t-61.5 -102.5t-110.5 -71t-165 -26.5q-38 0 -68 2.5t-62 6.5v276h-57v55zM159 48q18 -2 35 -3t34 -1q64 0 117 16t91.5 49t60 83t21.5 118q0 52 -17 96t-54 75.5
t-94 49t-136 17.5q-27 0 -58 -3v-215h135v-55h-135v-227z" />
    <glyph glyph-name="dcroat" unicode="&#x111;" horiz-adv-x="518" 
d="M437 6q-35 -8 -71 -12t-71 -4q-57 0 -103.5 15t-79.5 44t-51.5 71.5t-18.5 97.5t19 97.5t52 71.5t76.5 44t92.5 15q25 0 51.5 -5t43.5 -15v97h-124v51h124v106h60v-106h51v-51h-51v-517zM377 372q-17 9 -41 14.5t-54 5.5q-38 0 -70.5 -11.5t-56.5 -33.5t-38 -54.5
t-14 -74.5q0 -84 52.5 -129.5t139.5 -45.5q21 0 41.5 1t40.5 4v324z" />
    <glyph glyph-name="Emacron" unicode="&#x112;" horiz-adv-x="477" 
d="M427 54v-54h-342v594h338v-54h-276v-210h258v-54h-258v-222h280zM158 708h213v-50h-213v50z" />
    <glyph glyph-name="emacron" unicode="&#x113;" horiz-adv-x="472" 
d="M102 215v-2q0 -40 13.5 -71.5t36 -53.5t51.5 -33.5t61 -11.5q47 0 81.5 12t67.5 37v-60q-29 -22 -68.5 -32t-80.5 -10q-47 0 -87.5 15.5t-70.5 45t-47 72t-17 95.5q0 49 16 91t43.5 72.5t65.5 47.5t82 17q83 0 133 -48t50 -142v-41h-330zM246 393q-51 0 -89 -33t-51 -95
h266q-3 69 -37 98.5t-89 29.5zM142 587h213v-50h-213v50z" />
    <glyph glyph-name="Ebreve" unicode="&#x114;" horiz-adv-x="477" 
d="M427 54v-54h-342v594h338v-54h-276v-210h258v-54h-258v-222h280zM264 647q-55 0 -83 33.5t-28 92.5h52q0 -34 12.5 -57t46.5 -23t46.5 23t12.5 57h52q0 -59 -28 -92.5t-83 -33.5z" />
    <glyph glyph-name="ebreve" unicode="&#x115;" horiz-adv-x="472" 
d="M102 215v-2q0 -40 13.5 -71.5t36 -53.5t51.5 -33.5t61 -11.5q47 0 81.5 12t67.5 37v-60q-29 -22 -68.5 -32t-80.5 -10q-47 0 -87.5 15.5t-70.5 45t-47 72t-17 95.5q0 49 16 91t43.5 72.5t65.5 47.5t82 17q83 0 133 -48t50 -142v-41h-330zM246 393q-51 0 -89 -33t-51 -95
h266q-3 69 -37 98.5t-89 29.5zM251 508q-55 0 -83 35.5t-28 94.5h52q0 -34 12.5 -59t46.5 -25t46.5 25t12.5 59h52q0 -59 -28 -94.5t-83 -35.5z" />
    <glyph glyph-name="Edotaccent" unicode="&#x116;" horiz-adv-x="477" 
d="M427 54v-54h-342v594h338v-54h-276v-210h258v-54h-258v-222h280zM264 641q-18 0 -31.5 13.5t-13.5 31.5q0 19 13.5 32t31.5 13q19 0 32 -13t13 -32q0 -18 -13 -31.5t-32 -13.5z" />
    <glyph glyph-name="edotaccent" unicode="&#x117;" horiz-adv-x="472" 
d="M102 215v-2q0 -40 13.5 -71.5t36 -53.5t51.5 -33.5t61 -11.5q47 0 81.5 12t67.5 37v-60q-29 -22 -68.5 -32t-80.5 -10q-47 0 -87.5 15.5t-70.5 45t-47 72t-17 95.5q0 49 16 91t43.5 72.5t65.5 47.5t82 17q83 0 133 -48t50 -142v-41h-330zM246 393q-51 0 -89 -33t-51 -95
h266q-3 69 -37 98.5t-89 29.5zM253 527q-18 0 -31.5 13.5t-13.5 31.5q0 19 13.5 32t31.5 13q19 0 32 -13t13 -32q0 -18 -13 -31.5t-32 -13.5z" />
    <glyph glyph-name="Eogonek" unicode="&#x118;" horiz-adv-x="477" 
d="M427 54v-54h-34q-28 -27 -43 -53q-17 -31 -17 -56q0 -17 9.5 -25.5t25.5 -8.5q12 0 23 2t22 7v-47q-13 -5 -25 -7t-26 -2q-34 0 -58 18t-24 57q0 31 21 67q17 27 43 48h-259v594h338v-54h-276v-210h258v-54h-258v-222h280z" />
    <glyph glyph-name="eogonek" unicode="&#x119;" horiz-adv-x="472" 
d="M102 215v-2q0 -40 13.5 -71.5t36 -53.5t51.5 -33.5t61 -11.5q47 0 81.5 12t67.5 37v-60q-9 -6 -19.5 -10.5t-22.5 -12.5q-33 -20 -51.5 -49t-18.5 -61q0 -20 11 -31t27 -11q12 0 23 2t22 7v-47q-13 -5 -25 -7t-26 -2q-35 0 -60 18.5t-25 60.5q0 26 12.5 53.5t41.5 50.5
q-21 -3 -38 -3q-47 0 -87.5 15.5t-70.5 45t-47 72t-17 95.5q0 49 16 91t43.5 72.5t65.5 47.5t82 17q83 0 133 -48t50 -142v-41h-330zM246 393q-51 0 -89 -33t-51 -95h266q-3 69 -37 98.5t-89 29.5z" />
    <glyph glyph-name="Ecaron" unicode="&#x11a;" horiz-adv-x="477" 
d="M427 54v-54h-342v594h338v-54h-276v-210h258v-54h-258v-222h280zM281 644h-34l-114 133h62l69 -80l69 80h62z" />
    <glyph glyph-name="ecaron" unicode="&#x11b;" horiz-adv-x="472" 
d="M102 215v-2q0 -40 13.5 -71.5t36 -53.5t51.5 -33.5t61 -11.5q47 0 81.5 12t67.5 37v-60q-29 -22 -68.5 -32t-80.5 -10q-47 0 -87.5 15.5t-70.5 45t-47 72t-17 95.5q0 49 16 91t43.5 72.5t65.5 47.5t82 17q83 0 133 -48t50 -142v-41h-330zM246 393q-51 0 -89 -33t-51 -95
h266q-3 69 -37 98.5t-89 29.5zM265 503h-34l-114 142h64l67 -87l67 87h64z" />
    <glyph glyph-name="Gcircumflex" unicode="&#x11c;" horiz-adv-x="593" 
d="M108 297q0 -57 19.5 -103.5t52.5 -79.5t77 -51t94 -18q42 0 68 5t54 17v201h62v-234q-35 -21 -80.5 -32.5t-102.5 -11.5q-67 0 -123.5 22.5t-97 63t-63.5 97t-23 124.5t24 124.5t65.5 97t97.5 63t120 22.5q89 0 163 -45v-71q-32 30 -74 45t-90 15q-50 0 -94 -18
t-77 -50.5t-52.5 -79t-19.5 -103.5zM475 641h-62l-69 80l-69 -80h-62l114 133h34z" />
    <glyph glyph-name="gcircumflex" unicode="&#x11d;" horiz-adv-x="510" 
d="M375 15q-11 -8 -37.5 -13.5t-52.5 -5.5q-54 0 -98.5 14t-76.5 42t-50 70t-18 98q0 53 17.5 95t50.5 71t79.5 44.5t103.5 15.5q34 0 74 -8t68 -20v-423q0 -50 -17 -85t-45.5 -57.5t-64.5 -32.5t-73 -10q-40 0 -75.5 8t-59.5 19v57q29 -14 64.5 -23.5t70.5 -9.5q27 0 52 7
t44.5 24t31.5 45t12 69v9zM375 378q-18 6 -38.5 9.5t-43.5 3.5q-91 0 -141 -45t-50 -126q0 -79 49 -125t134 -46q27 0 47 4.5t43 12.5v312zM406 513h-64l-67 87l-67 -87h-64l114 142h34z" />
    <glyph glyph-name="Gbreve" unicode="&#x11e;" horiz-adv-x="593" 
d="M108 297q0 -57 19.5 -103.5t52.5 -79.5t77 -51t94 -18q42 0 68 5t54 17v201h62v-234q-35 -21 -80.5 -32.5t-102.5 -11.5q-67 0 -123.5 22.5t-97 63t-63.5 97t-23 124.5t24 124.5t65.5 97t97.5 63t120 22.5q89 0 163 -45v-71q-32 30 -74 45t-90 15q-50 0 -94 -18
t-77 -50.5t-52.5 -79t-19.5 -103.5zM344 647q-55 0 -83 33.5t-28 92.5h52q0 -34 12.5 -57t46.5 -23t46.5 23t12.5 57h52q0 -59 -28 -92.5t-83 -33.5z" />
    <glyph glyph-name="gbreve" unicode="&#x11f;" horiz-adv-x="510" 
d="M375 15q-11 -8 -37.5 -13.5t-52.5 -5.5q-54 0 -98.5 14t-76.5 42t-50 70t-18 98q0 53 17.5 95t50.5 71t79.5 44.5t103.5 15.5q34 0 74 -8t68 -20v-423q0 -50 -17 -85t-45.5 -57.5t-64.5 -32.5t-73 -10q-40 0 -75.5 8t-59.5 19v57q29 -14 64.5 -23.5t70.5 -9.5q27 0 52 7
t44.5 24t31.5 45t12 69v9zM375 378q-18 6 -38.5 9.5t-43.5 3.5q-91 0 -141 -45t-50 -126q0 -79 49 -125t134 -46q27 0 47 4.5t43 12.5v312zM277 508q-55 0 -83 35.5t-28 94.5h52q0 -34 12.5 -59t46.5 -25t46.5 25t12.5 59h52q0 -59 -28 -94.5t-83 -35.5z" />
    <glyph glyph-name="Gdotaccent" unicode="&#x120;" horiz-adv-x="593" 
d="M108 297q0 -57 19.5 -103.5t52.5 -79.5t77 -51t94 -18q42 0 68 5t54 17v201h62v-234q-35 -21 -80.5 -32.5t-102.5 -11.5q-67 0 -123.5 22.5t-97 63t-63.5 97t-23 124.5t24 124.5t65.5 97t97.5 63t120 22.5q89 0 163 -45v-71q-32 30 -74 45t-90 15q-50 0 -94 -18
t-77 -50.5t-52.5 -79t-19.5 -103.5zM344 641q-18 0 -31.5 13.5t-13.5 31.5q0 19 13.5 32t31.5 13q19 0 32 -13t13 -32q0 -18 -13 -31.5t-32 -13.5z" />
    <glyph glyph-name="gdotaccent" unicode="&#x121;" horiz-adv-x="510" 
d="M375 15q-11 -8 -37.5 -13.5t-52.5 -5.5q-54 0 -98.5 14t-76.5 42t-50 70t-18 98q0 53 17.5 95t50.5 71t79.5 44.5t103.5 15.5q34 0 74 -8t68 -20v-423q0 -50 -17 -85t-45.5 -57.5t-64.5 -32.5t-73 -10q-40 0 -75.5 8t-59.5 19v57q29 -14 64.5 -23.5t70.5 -9.5q27 0 52 7
t44.5 24t31.5 45t12 69v9zM375 378q-18 6 -38.5 9.5t-43.5 3.5q-91 0 -141 -45t-50 -126q0 -79 49 -125t134 -46q27 0 47 4.5t43 12.5v312zM275 527q-18 0 -31.5 13.5t-13.5 31.5q0 19 13.5 32t31.5 13q19 0 32 -13t13 -32q0 -18 -13 -31.5t-32 -13.5z" />
    <glyph glyph-name="Gcommaaccent" unicode="&#x122;" horiz-adv-x="593" 
d="M108 297q0 -57 19.5 -103.5t52.5 -79.5t77 -51t94 -18q42 0 68 5t54 17v201h62v-234q-35 -21 -80.5 -32.5t-102.5 -11.5q-67 0 -123.5 22.5t-97 63t-63.5 97t-23 124.5t24 124.5t65.5 97t97.5 63t120 22.5q89 0 163 -45v-71q-32 30 -74 45t-90 15q-50 0 -94 -18
t-77 -50.5t-52.5 -79t-19.5 -103.5zM376 -46q0 -46 -22 -78.5t-59 -55.5h-42q34 34 47.5 63.5t13.5 70.5h62z" />
    <glyph glyph-name="gcommaaccent" unicode="&#x123;" horiz-adv-x="510" 
d="M375 15q-11 -8 -37.5 -13.5t-52.5 -5.5q-54 0 -98.5 14t-76.5 42t-50 70t-18 98q0 53 17.5 95t50.5 71t79.5 44.5t103.5 15.5q34 0 74 -8t68 -20v-423q0 -50 -17 -85t-45.5 -57.5t-64.5 -32.5t-73 -10q-40 0 -75.5 8t-59.5 19v57q29 -14 64.5 -23.5t70.5 -9.5q27 0 52 7
t44.5 24t31.5 45t12 69v9zM375 378q-18 6 -38.5 9.5t-43.5 3.5q-91 0 -141 -45t-50 -126q0 -79 49 -125t134 -46q27 0 47 4.5t43 12.5v312zM246 513q0 46 24 87.5t61 64.5h42q-34 -34 -50.5 -72.5t-16.5 -79.5h-60z" />
    <glyph glyph-name="Hcircumflex" unicode="&#x124;" horiz-adv-x="660" 
d="M513 594h62v-594h-62v275h-366v-275h-62v594h62v-264h366v264zM461 641h-62l-69 80l-69 -80h-62l114 133h34z" />
    <glyph glyph-name="hcircumflex" unicode="&#x125;" horiz-adv-x="505" 
d="M75 680h60v-257q25 9 59 16t69 7q79 0 125.5 -35t46.5 -117v-294h-60v282q0 33 -11 54t-28 33t-39 16.5t-44 4.5q-35 0 -65 -6t-53 -14v-370h-60v680zM386 709h-62l-69 80l-69 -80h-62l114 133h34z" />
    <glyph glyph-name="Hbar" unicode="&#x126;" horiz-adv-x="680" 
d="M20 469h75v125h62v-125h366v125h62v-125h75v-54h-75v-415h-62v245h-366v-245h-62v415h-75v54zM523 300v115h-366v-115h366z" />
    <glyph glyph-name="hbar" unicode="&#x127;" horiz-adv-x="511" 
d="M30 574h51v106h60v-106h124v-51h-124v-100q25 9 59 16t69 7q79 0 125.5 -35t46.5 -117v-294h-60v282q0 33 -11 54t-28 33t-39 16.5t-44 4.5q-35 0 -65 -6t-53 -14v-370h-60v523h-51v51z" />
    <glyph glyph-name="Itilde" unicode="&#x128;" horiz-adv-x="232" 
d="M147 0h-62v594h62v-594zM256 756q0 -57 -19.5 -87t-56.5 -30q-19 0 -36 10.5t-33 23.5t-30 23.5t-26 10.5q-31 0 -31 -66h-47q0 57 19.5 87t56.5 30q19 0 36 -10.5t33 -23.5t30 -23.5t26 -10.5q31 0 31 66h47z" />
    <glyph glyph-name="itilde" unicode="&#x129;" horiz-adv-x="210" 
d="M135 0h-60v436h60v-436zM245 628q0 -57 -19.5 -87t-56.5 -30q-19 0 -36 10.5t-33 23.5t-30 23.5t-26 10.5q-31 0 -31 -66h-47q0 57 19.5 87t56.5 30q19 0 36 -10.5t33 -23.5t30 -23.5t26 -10.5q31 0 31 66h47z" />
    <glyph glyph-name="Imacron" unicode="&#x12a;" horiz-adv-x="232" 
d="M147 0h-62v594h62v-594zM10 708h213v-50h-213v50z" />
    <glyph glyph-name="imacron" unicode="&#x12b;" horiz-adv-x="210" 
d="M135 0h-60v436h60v-436zM-1 587h213v-50h-213v50z" />
    <glyph glyph-name="Ibreve" unicode="&#x12c;" horiz-adv-x="232" 
d="M147 0h-62v594h62v-594zM116 647q-55 0 -83 33.5t-28 92.5h52q0 -34 12.5 -57t46.5 -23t46.5 23t12.5 57h52q0 -59 -28 -92.5t-83 -33.5z" />
    <glyph glyph-name="ibreve" unicode="&#x12d;" horiz-adv-x="210" 
d="M135 0h-60v436h60v-436zM105 508q-55 0 -83 35.5t-28 94.5h52q0 -34 12.5 -59t46.5 -25t46.5 25t12.5 59h52q0 -59 -28 -94.5t-83 -35.5z" />
    <glyph glyph-name="Iogonek" unicode="&#x12e;" horiz-adv-x="232" 
d="M147 0q-30 -30 -45.5 -58.5t-15.5 -50.5q0 -17 9.5 -25.5t25.5 -8.5q12 0 23 2t22 7v-47q-13 -5 -25 -7t-26 -2q-34 0 -58 18t-24 57q0 35 18 63.5t49 51.5h-15v594h62v-594z" />
    <glyph glyph-name="iogonek" unicode="&#x12f;" horiz-adv-x="210" 
d="M105 527q-18 0 -31.5 13.5t-13.5 31.5q0 19 13.5 32t31.5 13q19 0 32 -13t13 -32q0 -18 -13 -31.5t-32 -13.5zM75 436h60v-436q-33 -24 -49 -52t-16 -53q0 -17 8.5 -27.5t25.5 -10.5q9 0 19.5 2t21.5 7v-47q-13 -5 -24.5 -7t-24.5 -2q-32 0 -55.5 19.5t-23.5 55.5
q0 38 22.5 68t49.5 47h-14v436z" />
    <glyph glyph-name="Idotaccent" unicode="&#x130;" horiz-adv-x="232" 
d="M147 0h-62v594h62v-594zM116 641q-18 0 -31.5 13.5t-13.5 31.5q0 19 13.5 32t31.5 13q19 0 32 -13t13 -32q0 -18 -13 -31.5t-32 -13.5z" />
    <glyph glyph-name="IJ" unicode="&#x132;" horiz-adv-x="596" 
d="M147 0h-62v594h62v-594zM247 111q26 -32 60.5 -50t70.5 -18q48 0 67 26t19 80v445h62v-454q0 -75 -39 -112.5t-109 -37.5q-42 0 -75.5 14t-55.5 37v70z" />
    <glyph glyph-name="ij" unicode="&#x133;" horiz-adv-x="420" 
d="M135 0h-60v436h60v-436zM105 527q-18 0 -31.5 13.5t-13.5 31.5q0 19 13.5 32t31.5 13q19 0 32 -13t13 -32q0 -18 -13 -31.5t-32 -13.5zM285 436h60v-490q0 -64 -30.5 -100t-100.5 -36q-16 0 -34.5 4t-31.5 10v55q11 -8 28.5 -12.5t37.5 -4.5q32 0 51.5 18.5t19.5 69.5
v486zM315 527q-18 0 -31.5 13.5t-13.5 31.5q0 19 13.5 32t31.5 13q19 0 32 -13t13 -32q0 -18 -13 -31.5t-32 -13.5z" />
    <glyph glyph-name="Jcircumflex" unicode="&#x134;" horiz-adv-x="364" 
d="M15 111q26 -32 60.5 -50t70.5 -18q48 0 67 26t19 80v445h62v-454q0 -75 -39 -112.5t-109 -37.5q-42 0 -75.5 14t-55.5 37v70zM395 641h-62l-69 80l-69 -80h-62l114 133h34z" />
    <glyph glyph-name="jcircumflex" unicode="&#x135;" horiz-adv-x="210" 
d="M75 436h60v-490q0 -64 -30.5 -100t-100.5 -36q-16 0 -34.5 4t-31.5 10v55q11 -8 28.5 -12.5t37.5 -4.5q32 0 51.5 18.5t19.5 69.5v486zM237 513h-64l-67 87l-67 -87h-64l114 142h34z" />
    <glyph glyph-name="Kcommaaccent" unicode="&#x136;" horiz-adv-x="518" 
d="M85 594h62v-594h-62v594zM419 594h77l-268 -296l287 -298h-80l-284 292zM300 -46q0 -46 -22 -78.5t-59 -55.5h-42q34 34 47.5 63.5t13.5 70.5h62z" />
    <glyph glyph-name="kcommaaccent" unicode="&#x137;" horiz-adv-x="457" 
d="M138 236l221 200h84l-226 -198l230 -238h-80zM135 0h-60v680h60v-680zM273 -46q0 -46 -22 -78.5t-59 -55.5h-42q34 34 47.5 63.5t13.5 70.5h62z" />
    <glyph glyph-name="kgreenlandic" unicode="&#x138;" horiz-adv-x="457" 
d="M138 236l221 200h84l-226 -198l230 -238h-80zM135 0h-60v437h60v-437z" />
    <glyph glyph-name="Lacute" unicode="&#x139;" horiz-adv-x="423" 
d="M85 594h62v-540h256v-54h-318v594zM90 647l73 131h59l-73 -131h-59z" />
    <glyph glyph-name="lacute" unicode="&#x13a;" horiz-adv-x="210" 
d="M135 0h-60v680h60v-680zM74 721l73 131h59l-73 -131h-59z" />
    <glyph glyph-name="Lcommaaccent" unicode="&#x13b;" horiz-adv-x="423" 
d="M85 594h62v-540h256v-54h-318v594zM276 -46q0 -46 -22 -78.5t-59 -55.5h-42q34 34 47.5 63.5t13.5 70.5h62z" />
    <glyph glyph-name="lcommaaccent" unicode="&#x13c;" horiz-adv-x="210" 
d="M135 0h-60v680h60v-680zM137 -46q0 -46 -22 -78.5t-59 -55.5h-42q34 34 47.5 63.5t13.5 70.5h62z" />
    <glyph glyph-name="Lcaron" unicode="&#x13d;" horiz-adv-x="423" 
d="M85 594h62v-540h256v-54h-318v594zM365 594l-40 -148h-53l40 148h53z" />
    <glyph glyph-name="lcaron" unicode="&#x13e;" horiz-adv-x="210" 
d="M135 0h-60v680h60v-680zM278 680l-40 -148h-53l40 148h53z" />
    <glyph glyph-name="Ldot" unicode="&#x13f;" horiz-adv-x="423" 
d="M85 594h62v-540h256v-54h-318v594zM314 272q-18 0 -31.5 13.5t-13.5 31.5q0 19 13.5 32t31.5 13q19 0 32 -13t13 -32q0 -18 -13 -31.5t-32 -13.5z" />
    <glyph glyph-name="ldot" unicode="&#x140;" horiz-adv-x="285" 
d="M135 0h-60v680h60v-680zM246 295q-18 0 -31.5 13.5t-13.5 31.5q0 19 13.5 32t31.5 13q19 0 32 -13t13 -32q0 -18 -13 -31.5t-32 -13.5z" />
    <glyph glyph-name="Nacute" unicode="&#x143;" horiz-adv-x="646" 
d="M501 90v504h60v-594h-62l-354 503v-503h-60v594h64zM289 647l73 131h59l-73 -131h-59z" />
    <glyph glyph-name="nacute" unicode="&#x144;" horiz-adv-x="505" 
d="M75 413q44 16 91 24.5t92 8.5q83 0 130 -35t47 -117v-294h-60v282q0 33 -11 54t-28 33t-39 16.5t-44 4.5q-35 0 -65 -5t-53 -11v-374h-60v413zM219 513l85 152h59l-85 -152h-59z" />
    <glyph glyph-name="Ncommaaccent" unicode="&#x145;" horiz-adv-x="646" 
d="M501 90v504h60v-594h-62l-354 503v-503h-60v594h64zM355 -46q0 -46 -22 -78.5t-59 -55.5h-42q34 34 47.5 63.5t13.5 70.5h62z" />
    <glyph glyph-name="ncommaaccent" unicode="&#x146;" horiz-adv-x="505" 
d="M75 413q44 16 91 24.5t92 8.5q83 0 130 -35t47 -117v-294h-60v282q0 33 -11 54t-28 33t-39 16.5t-44 4.5q-35 0 -65 -5t-53 -11v-374h-60v413zM287 -46q0 -46 -22 -78.5t-59 -55.5h-42q34 34 47.5 63.5t13.5 70.5h62z" />
    <glyph glyph-name="Ncaron" unicode="&#x147;" horiz-adv-x="646" 
d="M501 90v504h60v-594h-62l-354 503v-503h-60v594h64zM340 644h-34l-114 133h62l69 -80l69 80h62z" />
    <glyph glyph-name="ncaron" unicode="&#x148;" horiz-adv-x="505" 
d="M75 413q44 16 91 24.5t92 8.5q83 0 130 -35t47 -117v-294h-60v282q0 33 -11 54t-28 33t-39 16.5t-44 4.5q-35 0 -65 -5t-53 -11v-374h-60v413zM272 503h-34l-114 142h64l67 -87l67 87h64z" />
    <glyph glyph-name="Eng" unicode="&#x14a;" horiz-adv-x="646" 
d="M561 -40q0 -75 -39 -112.5t-109 -37.5q-42 0 -75.5 14t-55.5 37v70q26 -32 60.5 -50t70.5 -18q48 0 67 26t19 80v31l-354 503v-503h-60v594h64l352 -504v504h60v-634z" />
    <glyph glyph-name="eng" unicode="&#x14b;" horiz-adv-x="505" 
d="M375 282q0 33 -11 54t-28 33t-39 16.5t-44 4.5q-35 0 -65 -5t-53 -11v-374h-60v413q44 16 91 24.5t92 8.5q83 0 130 -35t47 -117v-348q0 -64 -30.5 -100t-100.5 -36q-16 0 -34.5 4t-31.5 10v55q11 -8 28.5 -12.5t37.5 -4.5q32 0 51.5 18.5t19.5 69.5v332z" />
    <glyph glyph-name="Omacron" unicode="&#x14c;" horiz-adv-x="704" 
d="M45 297q0 68 24 124.5t65.5 97t97.5 63t120 22.5t120 -22.5t97.5 -63t65.5 -97t24 -124.5t-24 -124.5t-65.5 -97t-97.5 -63t-120 -22.5t-120 22.5t-97.5 63t-65.5 97t-24 124.5zM596 297q0 57 -19.5 103.5t-52.5 79.5t-77.5 50.5t-94.5 17.5t-94.5 -17.5t-77.5 -50.5
t-52.5 -79.5t-19.5 -103.5t19.5 -103.5t52.5 -79.5t77.5 -50.5t94.5 -17.5t94.5 17.5t77.5 50.5t52.5 79.5t19.5 103.5zM246 708h213v-50h-213v50z" />
    <glyph glyph-name="omacron" unicode="&#x14d;" horiz-adv-x="522" 
d="M42 218q0 51 16 93t45 72t69 46.5t89 16.5t89 -16.5t69 -46.5t45 -72t16 -93t-16 -93t-45 -72t-69 -46.5t-89 -16.5t-89 16.5t-69 46.5t-45 72t-16 93zM419 218q0 40 -12 72.5t-33 55.5t-50 35.5t-63 12.5q-35 0 -64 -12.5t-50 -35.5t-32.5 -55.5t-11.5 -72.5t11.5 -72.5
t32.5 -55.5t50 -35.5t64 -12.5q34 0 63 12.5t50 35.5t33 55.5t12 72.5zM155 587h213v-50h-213v50z" />
    <glyph glyph-name="Obreve" unicode="&#x14e;" horiz-adv-x="704" 
d="M45 297q0 68 24 124.5t65.5 97t97.5 63t120 22.5t120 -22.5t97.5 -63t65.5 -97t24 -124.5t-24 -124.5t-65.5 -97t-97.5 -63t-120 -22.5t-120 22.5t-97.5 63t-65.5 97t-24 124.5zM596 297q0 57 -19.5 103.5t-52.5 79.5t-77.5 50.5t-94.5 17.5t-94.5 -17.5t-77.5 -50.5
t-52.5 -79.5t-19.5 -103.5t19.5 -103.5t52.5 -79.5t77.5 -50.5t94.5 -17.5t94.5 17.5t77.5 50.5t52.5 79.5t19.5 103.5zM352 647q-55 0 -83 33.5t-28 92.5h52q0 -34 12.5 -57t46.5 -23t46.5 23t12.5 57h52q0 -59 -28 -92.5t-83 -33.5z" />
    <glyph glyph-name="obreve" unicode="&#x14f;" horiz-adv-x="522" 
d="M42 218q0 51 16 93t45 72t69 46.5t89 16.5t89 -16.5t69 -46.5t45 -72t16 -93t-16 -93t-45 -72t-69 -46.5t-89 -16.5t-89 16.5t-69 46.5t-45 72t-16 93zM419 218q0 40 -12 72.5t-33 55.5t-50 35.5t-63 12.5q-35 0 -64 -12.5t-50 -35.5t-32.5 -55.5t-11.5 -72.5t11.5 -72.5
t32.5 -55.5t50 -35.5t64 -12.5q34 0 63 12.5t50 35.5t33 55.5t12 72.5zM261 508q-55 0 -83 35.5t-28 94.5h52q0 -34 12.5 -59t46.5 -25t46.5 25t12.5 59h52q0 -59 -28 -94.5t-83 -35.5z" />
    <glyph glyph-name="Ohungarumlaut" unicode="&#x150;" horiz-adv-x="704" 
d="M45 297q0 68 24 124.5t65.5 97t97.5 63t120 22.5t120 -22.5t97.5 -63t65.5 -97t24 -124.5t-24 -124.5t-65.5 -97t-97.5 -63t-120 -22.5t-120 22.5t-97.5 63t-65.5 97t-24 124.5zM596 297q0 57 -19.5 103.5t-52.5 79.5t-77.5 50.5t-94.5 17.5t-94.5 -17.5t-77.5 -50.5
t-52.5 -79.5t-19.5 -103.5t19.5 -103.5t52.5 -79.5t77.5 -50.5t94.5 -17.5t94.5 17.5t77.5 50.5t52.5 79.5t19.5 103.5zM265 647l73 131h56l-73 -131h-56zM375 647l73 131h56l-73 -131h-56z" />
    <glyph glyph-name="ohungarumlaut" unicode="&#x151;" horiz-adv-x="522" 
d="M42 218q0 51 16 93t45 72t69 46.5t89 16.5t89 -16.5t69 -46.5t45 -72t16 -93t-16 -93t-45 -72t-69 -46.5t-89 -16.5t-89 16.5t-69 46.5t-45 72t-16 93zM419 218q0 40 -12 72.5t-33 55.5t-50 35.5t-63 12.5q-35 0 -64 -12.5t-50 -35.5t-32.5 -55.5t-11.5 -72.5t11.5 -72.5
t32.5 -55.5t50 -35.5t64 -12.5q34 0 63 12.5t50 35.5t33 55.5t12 72.5zM174 513l85 152h56l-85 -152h-56zM284 513l85 152h56l-85 -152h-56z" />
    <glyph glyph-name="Racute" unicode="&#x154;" horiz-adv-x="497" 
d="M147 0h-62v595q20 3 53.5 6t59.5 3q60 0 103.5 -13.5t72 -37.5t42 -58t13.5 -75q0 -66 -34.5 -112.5t-94.5 -63.5l197 -244h-77l-184 230h-89v-230zM147 281h62q74 0 115 34t41 103q0 28 -9 52.5t-29.5 42t-52.5 27.5t-77 10q-9 0 -24 -0.5t-26 -1.5v-267zM209 647
l73 131h59l-73 -131h-59z" />
    <glyph glyph-name="racute" unicode="&#x155;" horiz-adv-x="330" 
d="M135 0h-60v396q35 22 76 34.5t86 12.5q35 0 73 -9v-59q-20 7 -41 9t-36 2q-32 0 -56.5 -6t-41.5 -16v-364zM168 513l85 152h59l-85 -152h-59z" />
    <glyph glyph-name="Rcommaaccent" unicode="&#x156;" horiz-adv-x="497" 
d="M147 0h-62v595q20 3 53.5 6t59.5 3q60 0 103.5 -13.5t72 -37.5t42 -58t13.5 -75q0 -66 -34.5 -112.5t-94.5 -63.5l197 -244h-77l-184 230h-89v-230zM147 281h62q74 0 115 34t41 103q0 28 -9 52.5t-29.5 42t-52.5 27.5t-77 10q-9 0 -24 -0.5t-26 -1.5v-267zM289 -46
q0 -46 -22 -78.5t-59 -55.5h-42q34 34 47.5 63.5t13.5 70.5h62z" />
    <glyph glyph-name="rcommaaccent" unicode="&#x157;" horiz-adv-x="330" 
d="M135 0h-60v396q35 22 76 34.5t86 12.5q35 0 73 -9v-59q-20 7 -41 9t-36 2q-32 0 -56.5 -6t-41.5 -16v-364zM136 -46q0 -46 -22 -78.5t-59 -55.5h-42q34 34 47.5 63.5t13.5 70.5h62z" />
    <glyph glyph-name="Rcaron" unicode="&#x158;" horiz-adv-x="497" 
d="M147 0h-62v595q20 3 53.5 6t59.5 3q60 0 103.5 -13.5t72 -37.5t42 -58t13.5 -75q0 -66 -34.5 -112.5t-94.5 -63.5l197 -244h-77l-184 230h-89v-230zM147 281h62q74 0 115 34t41 103q0 28 -9 52.5t-29.5 42t-52.5 27.5t-77 10q-9 0 -24 -0.5t-26 -1.5v-267zM260 644h-34
l-114 133h62l69 -80l69 80h62z" />
    <glyph glyph-name="rcaron" unicode="&#x159;" horiz-adv-x="330" 
d="M135 0h-60v396q35 22 76 34.5t86 12.5q35 0 73 -9v-59q-20 7 -41 9t-36 2q-32 0 -56.5 -6t-41.5 -16v-364zM215 503h-34l-114 142h64l67 -87l67 87h64z" />
    <glyph glyph-name="Sacute" unicode="&#x15a;" horiz-adv-x="429" 
d="M42 104q36 -29 71 -45t80 -16q27 0 51 6t42 19t28.5 34t10.5 50q0 27 -9.5 46t-26 33t-39 24.5t-49.5 20.5q-40 15 -70.5 30t-51 34.5t-31 46t-10.5 64.5t14.5 66.5t38.5 48t55.5 29t64.5 9.5q44 0 79.5 -12.5t62.5 -34.5v-64q-36 29 -68.5 43.5t-73.5 14.5
q-51 0 -82 -27.5t-31 -73.5q0 -43 27.5 -68t92.5 -47q41 -14 72.5 -30t52.5 -37t32 -49t11 -67q0 -41 -15 -71.5t-41.5 -50.5t-61.5 -30t-75 -10q-48 0 -86 12.5t-65 33.5v68zM178 647l73 131h59l-73 -131h-59z" />
    <glyph glyph-name="sacute" unicode="&#x15b;" horiz-adv-x="366" 
d="M49 93q28 -25 57.5 -38.5t65.5 -13.5q42 0 66 16.5t24 53.5q0 19 -7 32.5t-20.5 23t-33.5 17t-46 16.5q-58 20 -84 47.5t-26 80.5q0 58 38.5 88t98.5 30q32 0 62.5 -7.5t56.5 -25.5v-65q-26 21 -53.5 34t-65.5 13q-36 0 -57.5 -18t-21.5 -49q0 -30 20 -48t71 -34
q28 -9 51.5 -19.5t40.5 -25.5t26 -35.5t9 -50.5q0 -32 -12 -55.5t-32 -39t-47 -23t-58 -7.5q-37 0 -70 9.5t-53 25.5v68zM153 513l85 152h59l-85 -152h-59z" />
    <glyph glyph-name="Scircumflex" unicode="&#x15c;" horiz-adv-x="429" 
d="M42 104q36 -29 71 -45t80 -16q27 0 51 6t42 19t28.5 34t10.5 50q0 27 -9.5 46t-26 33t-39 24.5t-49.5 20.5q-40 15 -70.5 30t-51 34.5t-31 46t-10.5 64.5t14.5 66.5t38.5 48t55.5 29t64.5 9.5q44 0 79.5 -12.5t62.5 -34.5v-64q-36 29 -68.5 43.5t-73.5 14.5
q-51 0 -82 -27.5t-31 -73.5q0 -43 27.5 -68t92.5 -47q41 -14 72.5 -30t52.5 -37t32 -49t11 -67q0 -41 -15 -71.5t-41.5 -50.5t-61.5 -30t-75 -10q-48 0 -86 12.5t-65 33.5v68zM343 641h-62l-69 80l-69 -80h-62l114 133h34z" />
    <glyph glyph-name="scircumflex" unicode="&#x15d;" horiz-adv-x="366" 
d="M49 93q28 -25 57.5 -38.5t65.5 -13.5q42 0 66 16.5t24 53.5q0 19 -7 32.5t-20.5 23t-33.5 17t-46 16.5q-58 20 -84 47.5t-26 80.5q0 58 38.5 88t98.5 30q32 0 62.5 -7.5t56.5 -25.5v-65q-26 21 -53.5 34t-65.5 13q-36 0 -57.5 -18t-21.5 -49q0 -30 20 -48t71 -34
q28 -9 51.5 -19.5t40.5 -25.5t26 -35.5t9 -50.5q0 -32 -12 -55.5t-32 -39t-47 -23t-58 -7.5q-37 0 -70 9.5t-53 25.5v68zM320 513h-64l-67 87l-67 -87h-64l114 142h34z" />
    <glyph glyph-name="Scedilla" unicode="&#x15e;" horiz-adv-x="429" 
d="M42 104q36 -29 71 -45t80 -16q27 0 51 6t42 19t28.5 34t10.5 50q0 27 -9.5 46t-26 33t-39 24.5t-49.5 20.5q-40 15 -70.5 30t-51 34.5t-31 46t-10.5 64.5t14.5 66.5t38.5 48t55.5 29t64.5 9.5q44 0 79.5 -12.5t62.5 -34.5v-64q-36 29 -68.5 43.5t-73.5 14.5
q-51 0 -82 -27.5t-31 -73.5q0 -43 27.5 -68t92.5 -47q41 -14 72.5 -30t52.5 -37t32 -49t11 -67q0 -41 -15 -71.5t-41.5 -50.5t-61.5 -30q-13 -3 -27 -6q-2 -13 -5 -26q-5 -24 -14.5 -46t-22.5 -39.5t-28 -28.5h-61q37 34 57 76q15 30 19 60q-44 1 -79 12q-38 13 -65 34v68z
" />
    <glyph glyph-name="scedilla" unicode="&#x15f;" horiz-adv-x="366" 
d="M49 93q28 -25 57.5 -38.5t65.5 -13.5q42 0 66 16.5t24 53.5q0 19 -7 32.5t-20.5 23t-33.5 17t-46 16.5q-58 20 -84 47.5t-26 80.5q0 58 38.5 88t98.5 30q32 0 62.5 -7.5t56.5 -25.5v-65q-26 21 -53.5 34t-65.5 13q-36 0 -57.5 -18t-21.5 -49q0 -30 20 -48t71 -34
q28 -9 51.5 -19.5t40.5 -25.5t26 -35.5t9 -50.5q0 -32 -12 -55.5t-32 -39t-47 -22.5q-11 -3 -22 -5q-2 -13 -5 -25q-5 -24 -14.5 -46t-22.5 -39.5t-28 -28.5h-61q37 34 57 76q15 30 19 61q-27 2 -51 9q-33 9 -53 25v68z" />
    <glyph glyph-name="Tcommaaccent" unicode="&#x162;" horiz-adv-x="484" 
d="M273 0h-62v540h-196v54h454v-54h-196v-540zM274 -46q0 -46 -22 -78.5t-59 -55.5h-42q34 34 47.5 63.5t13.5 70.5h62z" />
    <glyph glyph-name="tcommaaccent" unicode="&#x163;" horiz-adv-x="316" 
d="M15 436h67v106h60v-106h123v-51h-123v-266q0 -42 16 -60t47 -18q21 0 39.5 6.5t41.5 17.5v-53q-20 -10 -42.5 -16t-51.5 -6q-24 0 -44 6.5t-34.5 21t-23 38t-8.5 57.5v272h-67v51zM224 -46q0 -46 -22 -78.5t-59 -55.5h-42q34 34 47.5 63.5t13.5 70.5h62z" />
    <glyph glyph-name="Tcaron" unicode="&#x164;" horiz-adv-x="484" 
d="M273 0h-62v540h-196v54h454v-54h-196v-540zM259 644h-34l-114 133h62l69 -80l69 80h62z" />
    <glyph glyph-name="tcaron" unicode="&#x165;" horiz-adv-x="316" 
d="M15 436h67v106h60v-106h123v-51h-123v-266q0 -42 16 -60t47 -18q21 0 39.5 6.5t41.5 17.5v-53q-20 -10 -42.5 -16t-51.5 -6q-24 0 -44 6.5t-34.5 21t-23 38t-8.5 57.5v272h-67v51zM281 650l-40 -148h-53l40 148h53z" />
    <glyph glyph-name="Tbar" unicode="&#x166;" horiz-adv-x="484" 
d="M273 0h-62v297h-111v53h111v190h-196v54h454v-54h-196v-190h111v-53h-111v-297z" />
    <glyph glyph-name="tbar" unicode="&#x167;" horiz-adv-x="316" 
d="M15 276h67v109h-67v51h67v106h60v-106h123v-51h-123v-109h123v-51h-123v-106q0 -42 16 -60t47 -18q21 0 39.5 6.5t41.5 17.5v-53q-20 -10 -42.5 -16t-51.5 -6q-24 0 -44 6.5t-34.5 21t-23 38t-8.5 57.5v112h-67v51z" />
    <glyph glyph-name="Utilde" unicode="&#x168;" horiz-adv-x="599" 
d="M70 594h62v-395q0 -48 14 -78t38.5 -47t58 -23t72.5 -6q38 0 72 3t65 8v538h62v-581q-45 -11 -96.5 -17t-102.5 -6q-50 0 -94.5 9t-78 32t-53 62.5t-19.5 100.5v400zM432 756q0 -57 -19.5 -87t-56.5 -30q-19 0 -36 10.5t-33 23.5t-30 23.5t-26 10.5q-31 0 -31 -66h-47
q0 57 19.5 87t56.5 30q19 0 36 -10.5t33 -23.5t30 -23.5t26 -10.5q31 0 31 66h47z" />
    <glyph glyph-name="utilde" unicode="&#x169;" horiz-adv-x="490" 
d="M415 5q-40 -8 -79 -11.5t-73 -3.5q-95 0 -146.5 35t-51.5 117v294h60v-291q0 -31 11 -51t30 -31.5t43 -16t50 -4.5q23 0 47.5 1.5t48.5 4.5v388h60v-431zM380 628q0 -57 -19.5 -87t-56.5 -30q-19 0 -36 10.5t-33 23.5t-30 23.5t-26 10.5q-31 0 -31 -66h-47q0 57 19.5 87
t56.5 30q19 0 36 -10.5t33 -23.5t30 -23.5t26 -10.5q31 0 31 66h47z" />
    <glyph glyph-name="Umacron" unicode="&#x16a;" horiz-adv-x="599" 
d="M70 594h62v-395q0 -48 14 -78t38.5 -47t58 -23t72.5 -6q38 0 72 3t65 8v538h62v-581q-45 -11 -96.5 -17t-102.5 -6q-50 0 -94.5 9t-78 32t-53 62.5t-19.5 100.5v400zM186 708h213v-50h-213v50z" />
    <glyph glyph-name="umacron" unicode="&#x16b;" horiz-adv-x="490" 
d="M415 5q-40 -8 -79 -11.5t-73 -3.5q-95 0 -146.5 35t-51.5 117v294h60v-291q0 -31 11 -51t30 -31.5t43 -16t50 -4.5q23 0 47.5 1.5t48.5 4.5v388h60v-431zM134 587h213v-50h-213v50z" />
    <glyph glyph-name="Ubreve" unicode="&#x16c;" horiz-adv-x="599" 
d="M70 594h62v-395q0 -48 14 -78t38.5 -47t58 -23t72.5 -6q38 0 72 3t65 8v538h62v-581q-45 -11 -96.5 -17t-102.5 -6q-50 0 -94.5 9t-78 32t-53 62.5t-19.5 100.5v400zM292 647q-55 0 -83 33.5t-28 92.5h52q0 -34 12.5 -57t46.5 -23t46.5 23t12.5 57h52q0 -59 -28 -92.5
t-83 -33.5z" />
    <glyph glyph-name="ubreve" unicode="&#x16d;" horiz-adv-x="490" 
d="M415 5q-40 -8 -79 -11.5t-73 -3.5q-95 0 -146.5 35t-51.5 117v294h60v-291q0 -31 11 -51t30 -31.5t43 -16t50 -4.5q23 0 47.5 1.5t48.5 4.5v388h60v-431zM240 508q-55 0 -83 35.5t-28 94.5h52q0 -34 12.5 -59t46.5 -25t46.5 25t12.5 59h52q0 -59 -28 -94.5t-83 -35.5z
" />
    <glyph glyph-name="Uring" unicode="&#x16e;" horiz-adv-x="599" 
d="M70 594h62v-395q0 -48 14 -78t38.5 -47t58 -23t72.5 -6q38 0 72 3t65 8v538h62v-581q-45 -11 -96.5 -17t-102.5 -6q-50 0 -94.5 9t-78 32t-53 62.5t-19.5 100.5v400zM207 716q0 35 24 58.5t61 23.5t61 -23.5t24 -58.5t-24 -58.5t-61 -23.5t-61 23.5t-24 58.5zM337 716
q0 18 -11 31t-34 13t-34 -13t-11 -31t11 -31t34 -13t34 13t11 31z" />
    <glyph glyph-name="uring" unicode="&#x16f;" horiz-adv-x="490" 
d="M415 5q-40 -8 -79 -11.5t-73 -3.5q-95 0 -146.5 35t-51.5 117v294h60v-291q0 -31 11 -51t30 -31.5t43 -16t50 -4.5q23 0 47.5 1.5t48.5 4.5v388h60v-431zM155 579q0 35 24 58.5t61 23.5t61 -23.5t24 -58.5t-24 -58.5t-61 -23.5t-61 23.5t-24 58.5zM285 579q0 18 -11 31
t-34 13t-34 -13t-11 -31t11 -31t34 -13t34 13t11 31z" />
    <glyph glyph-name="Uhungarumlaut" unicode="&#x170;" horiz-adv-x="599" 
d="M70 594h62v-395q0 -48 14 -78t38.5 -47t58 -23t72.5 -6q38 0 72 3t65 8v538h62v-581q-45 -11 -96.5 -17t-102.5 -6q-50 0 -94.5 9t-78 32t-53 62.5t-19.5 100.5v400zM205 647l73 131h56l-73 -131h-56zM315 647l73 131h56l-73 -131h-56z" />
    <glyph glyph-name="uhungarumlaut" unicode="&#x171;" horiz-adv-x="490" 
d="M415 5q-40 -8 -79 -11.5t-73 -3.5q-95 0 -146.5 35t-51.5 117v294h60v-291q0 -31 11 -51t30 -31.5t43 -16t50 -4.5q23 0 47.5 1.5t48.5 4.5v388h60v-431zM153 513l85 152h56l-85 -152h-56zM263 513l85 152h56l-85 -152h-56z" />
    <glyph glyph-name="Uogonek" unicode="&#x172;" horiz-adv-x="599" 
d="M70 594h62v-395q0 -48 14 -78t38.5 -47t58 -23t72.5 -6q38 0 72 3t65 8v538h62v-581q-39 -34 -61 -65.5t-22 -56.5q0 -17 9.5 -25.5t25.5 -8.5q12 0 23 2t22 7v-47q-13 -5 -25 -7t-26 -2q-34 0 -58 18t-24 57q0 28 20.5 60.5t52.5 55.5q-33 -5 -67.5 -8t-68.5 -3
q-50 0 -94.5 9t-78 32t-53 62.5t-19.5 100.5v400z" />
    <glyph glyph-name="uogonek" unicode="&#x173;" horiz-adv-x="490" 
d="M356 -3q-25 -3 -48.5 -5t-44.5 -2q-95 0 -146.5 35t-51.5 117v294h60v-291q0 -31 11 -51t30 -31.5t43 -16t50 -4.5q23 0 47.5 1.5t48.5 4.5v388h60v-431q-39 -34 -59.5 -61.5t-20.5 -52.5q0 -17 9.5 -25.5t25.5 -8.5q12 0 23 2t22 7v-47q-13 -5 -25 -7t-26 -2
q-34 0 -58 18t-24 57q0 29 19.5 60t54.5 52z" />
    <glyph glyph-name="Wcircumflex" unicode="&#x174;" horiz-adv-x="762" 
d="M419 594l132 -537l140 537h61l-161 -594h-82l-128 523l-128 -523h-82l-161 594h64l139 -537l133 537h73zM512 641h-62l-69 80l-69 -80h-62l114 133h34z" />
    <glyph glyph-name="wcircumflex" unicode="&#x175;" horiz-adv-x="630" 
d="M456 55l109 381h60l-132 -436h-73l-105 371l-105 -371h-73l-132 436h63l109 -381l108 381h62zM446 513h-64l-67 87l-67 -87h-64l114 142h34z" />
    <glyph glyph-name="Ycircumflex" unicode="&#x176;" horiz-adv-x="514" 
d="M436 594h68l-216 -357v-237h-62v237l-216 357h68l179 -301zM388 641h-62l-69 80l-69 -80h-62l114 133h34z" />
    <glyph glyph-name="ycircumflex" unicode="&#x177;" horiz-adv-x="428" 
d="M217 39l144 397h62l-236 -616h-59l59 151l-182 465h66zM345 513h-64l-67 87l-67 -87h-64l114 142h34z" />
    <glyph glyph-name="Zacute" unicode="&#x179;" horiz-adv-x="479" 
d="M44 594h399v-53l-351 -487h362v-54h-429v54l346 486h-327v54zM215 647l73 131h59l-73 -131h-59z" />
    <glyph glyph-name="zacute" unicode="&#x17a;" horiz-adv-x="408" 
d="M375 0h-340v52l261 333h-248v51h319v-52l-265 -333h273v-51zM181 513l85 152h59l-85 -152h-59z" />
    <glyph glyph-name="Zdotaccent" unicode="&#x17b;" horiz-adv-x="479" 
d="M44 594h399v-53l-351 -487h362v-54h-429v54l346 486h-327v54zM249 641q-18 0 -31.5 13.5t-13.5 31.5q0 19 13.5 32t31.5 13q19 0 32 -13t13 -32q0 -18 -13 -31.5t-32 -13.5z" />
    <glyph glyph-name="zdotaccent" unicode="&#x17c;" horiz-adv-x="408" 
d="M375 0h-340v52l261 333h-248v51h319v-52l-265 -333h273v-51zM217 527q-18 0 -31.5 13.5t-13.5 31.5q0 19 13.5 32t31.5 13q19 0 32 -13t13 -32q0 -18 -13 -31.5t-32 -13.5z" />
    <glyph glyph-name="Aringacute" unicode="&#x1fa;" horiz-adv-x="562" 
d="M136 164l-62 -164h-64l221 572q-7 4 -13 10q-24 21 -24 53t24 53t61 21t61 -21t24 -53t-24 -53q-6 -5 -13 -9l225 -573h-66l-63 164h-287zM155 216h249l-125 328zM234 635q0 -17 12.5 -27.5t32.5 -10.5t32.5 10.5t12.5 27.5t-12.5 27.5t-32.5 10.5t-32.5 -10.5
t-12.5 -27.5zM251 743l45 80h59l-45 -80h-59z" />
    <glyph glyph-name="aringacute" unicode="&#x1fb;" horiz-adv-x="429" 
d="M173 552q0 -17 12.5 -27.5t32.5 -10.5t32.5 10.5t12.5 27.5t-12.5 27.5t-32.5 10.5t-32.5 -10.5t-12.5 -27.5zM190 662l45 80h59l-45 -80h-59zM133 552q0 32 24 53t61 21t61 -21t24 -53t-24 -53t-61 -21t-61 21t-24 53zM301 203h-45q-34 0 -62.5 -4.5t-49.5 -14.5
t-32.5 -25.5t-11.5 -37.5t10.5 -37t29.5 -24.5t44.5 -13.5t55.5 -4q29 0 61 6v155zM301 305q0 42 -25 63.5t-67 21.5q-38 0 -68 -9.5t-60 -25.5v57q28 15 62.5 24.5t72.5 9.5q66 0 105.5 -31.5t39.5 -105.5v-301q-30 -8 -63 -12t-61 -4q-44 0 -80.5 7t-62.5 23t-40 40
t-14 59q0 65 56 98t156 33h49v53z" />
    <glyph glyph-name="AEacute" unicode="&#x1fc;" horiz-adv-x="820" 
d="M184 164l-105 -164h-69l385 594h371v-54h-276v-210h258v-54h-258v-222h280v-54h-342v164h-244zM217 216h211v329zM536 647l73 131h59l-73 -131h-59z" />
    <glyph glyph-name="aeacute" unicode="&#x1fd;" horiz-adv-x="730" 
d="M301 20q-46 -30 -106 -30q-69 0 -112 32t-43 93q0 67 56 102t156 35h53q2 21 8 40q-1 26 -8 44q-8 20 -21.5 32.5t-31 17.5t-36.5 5q-43 0 -74 -10t-61 -26v57q28 15 62.5 24.5t72.5 9.5q31 0 57.5 -7.5t46 -24t30.5 -42.5q0 -2 1 -3l10 12q27 31 64.5 48t81.5 17
q86 0 134.5 -54.5t48.5 -148.5v-41h-330q2 -31 12 -57q12 -32 33.5 -54.5t51.5 -35t65 -12.5q47 0 81.5 12t67.5 37v-60q-29 -22 -68.5 -32t-80.5 -10q-47 0 -87.5 15.5t-69.5 44.5q-7 7 -13 14q-22 -25 -51 -44zM630 252q-3 69 -34.5 105t-91.5 36q-32 0 -58.5 -12.5
t-45.5 -36t-30 -55.5q-5 -18 -8 -37h268zM319 122q-14 36 -16 80h-47q-34 0 -62.5 -4.5t-49.5 -15t-32.5 -27t-11.5 -40.5q0 -39 28.5 -56.5t66.5 -17.5q41 0 77 18q30 16 53 48zM329 513l85 152h59l-85 -152h-59z" />
    <glyph glyph-name="Oslashacute" unicode="&#x1fe;" horiz-adv-x="704" 
d="M352 -10q-57 0 -107.5 17.5t-90.5 49.5l-54 -57h-66l86 90q-35 40 -55 92t-20 115q0 68 24 124.5t65.5 97t97.5 63t120 22.5q57 0 106.5 -17.5t89.5 -49.5l55 57h66l-86 -90q35 -40 55.5 -92t20.5 -115q0 -68 -24 -124.5t-65.5 -97t-97.5 -63t-120 -22.5zM195 99
q65 -53 157 -53q50 0 94.5 17.5t77.5 50.5t52.5 79.5t19.5 103.5q0 50 -14 91t-40 73zM508 495q-65 53 -156 53q-50 0 -94.5 -17.5t-77.5 -50.5t-52.5 -79.5t-19.5 -103.5q0 -50 14 -91t39 -73zM317 647l73 131h59l-73 -131h-59z" />
    <glyph glyph-name="oslashacute" unicode="&#x1ff;" horiz-adv-x="522" 
d="M358 363q-40 31 -97 31q-35 0 -64 -12.5t-50 -35.5t-32.5 -55.5t-11.5 -72.5q0 -34 8 -62t22 -50zM261 -10q-39 0 -73 10.5t-61 30.5l-36 -41h-59l63 72q-26 29 -39.5 68.5t-13.5 87.5q0 51 16 93t45 72t69 46.5t89 16.5q77 0 133 -42l37 42h59l-63 -72q25 -30 39 -69
t14 -87q0 -51 -16 -93t-45 -72t-69 -46.5t-89 -16.5zM164 73q39 -31 97 -31q34 0 63 12.5t50 35.5t33 55.5t12 72.5q0 65 -31 112zM225 513l85 152h59l-85 -152h-59z" />
    <glyph glyph-name="Scommaaccent" unicode="&#x218;" horiz-adv-x="429" 
d="M42 104q36 -29 71 -45t80 -16q27 0 51 6t42 19t28.5 34t10.5 50q0 27 -9.5 46t-26 33t-39 24.5t-49.5 20.5q-40 15 -70.5 30t-51 34.5t-31 46t-10.5 64.5t14.5 66.5t38.5 48t55.5 29t64.5 9.5q44 0 79.5 -12.5t62.5 -34.5v-64q-36 29 -68.5 43.5t-73.5 14.5
q-51 0 -82 -27.5t-31 -73.5q0 -43 27.5 -68t92.5 -47q41 -14 72.5 -30t52.5 -37t32 -49t11 -67q0 -41 -15 -71.5t-41.5 -50.5t-61.5 -30t-75 -10q-48 0 -86 12.5t-65 33.5v68zM244 -46q0 -46 -22 -78.5t-59 -55.5h-42q34 34 47.5 63.5t13.5 70.5h62z" />
    <glyph glyph-name="scommaaccent" unicode="&#x219;" horiz-adv-x="366" 
d="M49 93q28 -25 57.5 -38.5t65.5 -13.5q42 0 66 16.5t24 53.5q0 19 -7 32.5t-20.5 23t-33.5 17t-46 16.5q-58 20 -84 47.5t-26 80.5q0 58 38.5 88t98.5 30q32 0 62.5 -7.5t56.5 -25.5v-65q-26 21 -53.5 34t-65.5 13q-36 0 -57.5 -18t-21.5 -49q0 -30 20 -48t71 -34
q28 -9 51.5 -19.5t40.5 -25.5t26 -35.5t9 -50.5q0 -32 -12 -55.5t-32 -39t-47 -23t-58 -7.5q-37 0 -70 9.5t-53 25.5v68zM221 -46q0 -46 -22 -78.5t-59 -55.5h-42q34 34 47.5 63.5t13.5 70.5h62z" />
    <glyph glyph-name="dotlessj" unicode="&#x237;" horiz-adv-x="210" 
d="M75 436h60v-490q0 -64 -30.5 -100t-100.5 -36q-16 0 -34.5 4t-31.5 10v55q11 -8 28.5 -12.5t37.5 -4.5q32 0 51.5 18.5t19.5 69.5v486z" />
    <glyph glyph-name="Wgrave" unicode="&#x1e80;" horiz-adv-x="762" 
d="M419 594l132 -537l140 537h61l-161 -594h-82l-128 523l-128 -523h-82l-161 594h64l139 -537l133 537h73zM356 647l-73 131h59l73 -131h-59z" />
    <glyph glyph-name="wgrave" unicode="&#x1e81;" horiz-adv-x="630" 
d="M456 55l109 381h60l-132 -436h-73l-105 371l-105 -371h-73l-132 436h63l109 -381l108 381h62zM282 513l-85 152h59l85 -152h-59z" />
    <glyph glyph-name="Wacute" unicode="&#x1e82;" horiz-adv-x="762" 
d="M419 594l132 -537l140 537h61l-161 -594h-82l-128 523l-128 -523h-82l-161 594h64l139 -537l133 537h73zM347 647l73 131h59l-73 -131h-59z" />
    <glyph glyph-name="wacute" unicode="&#x1e83;" horiz-adv-x="630" 
d="M456 55l109 381h60l-132 -436h-73l-105 371l-105 -371h-73l-132 436h63l109 -381l108 381h62zM291 513l85 152h59l-85 -152h-59z" />
    <glyph glyph-name="Wdieresis" unicode="&#x1e84;" horiz-adv-x="762" 
d="M419 594l132 -537l140 537h61l-161 -594h-82l-128 523l-128 -523h-82l-161 594h64l139 -537l133 537h73zM302 641q-18 0 -31.5 13.5t-13.5 31.5q0 19 13.5 32t31.5 13q19 0 32 -13t13 -32q0 -18 -13 -31.5t-32 -13.5zM460 641q-18 0 -31.5 13.5t-13.5 31.5q0 19 13.5 32
t31.5 13q19 0 32 -13t13 -32q0 -18 -13 -31.5t-32 -13.5z" />
    <glyph glyph-name="wdieresis" unicode="&#x1e85;" horiz-adv-x="630" 
d="M456 55l109 381h60l-132 -436h-73l-105 371l-105 -371h-73l-132 436h63l109 -381l108 381h62zM236 527q-18 0 -31.5 13.5t-13.5 31.5q0 19 13.5 32t31.5 13q19 0 32 -13t13 -32q0 -18 -13 -31.5t-32 -13.5zM394 527q-18 0 -31.5 13.5t-13.5 31.5q0 19 13.5 32t31.5 13
q19 0 32 -13t13 -32q0 -18 -13 -31.5t-32 -13.5z" />
    <glyph glyph-name="Ygrave" unicode="&#x1ef2;" horiz-adv-x="514" 
d="M436 594h68l-216 -357v-237h-62v237l-216 357h68l179 -301zM232 647l-73 131h59l73 -131h-59z" />
    <glyph glyph-name="ygrave" unicode="&#x1ef3;" horiz-adv-x="428" 
d="M217 39l144 397h62l-236 -616h-59l59 151l-182 465h66zM187 513l-85 152h59l85 -152h-59z" />
    <glyph glyph-name="doublebar" unicode="&#x2016;" horiz-adv-x="377" 
d="M102 680h53v-818h-53v818zM222 680h53v-818h-53v818z" />
    <glyph glyph-name="uni2070" unicode="&#x2070;" horiz-adv-x="308" 
d="M281 428q0 -37 -9 -68.5t-25.5 -54t-40 -35.5t-52.5 -13t-52.5 13t-40 35.5t-25.5 54t-9 68.5t9 68.5t25.5 54.5t40 35.5t52.5 12.5t52.5 -12.5t40 -35.5t25.5 -54.5t9 -68.5zM226 428q0 58 -20 91t-52 33t-52 -33t-20 -91q0 -57 20 -90.5t52 -33.5t52 33.5t20 90.5z" />
    <glyph glyph-name="uni2074" unicode="&#x2074;" horiz-adv-x="305" 
d="M231 392h55v-44h-55v-85h-53v85h-160v45l156 201h57v-202zM72 392h106v140z" />
    <glyph glyph-name="uni2075" unicode="&#x2075;" horiz-adv-x="238" 
d="M87 472q27 -3 50 -10.5t40 -21t27 -33t10 -47.5q0 -45 -31 -74t-89 -29q-23 0 -44 6.5t-35 16.5v50q16 -11 35.5 -19t41.5 -8q33 0 51 14.5t18 41.5q0 19 -10 32t-27 21.5t-40 13t-48 6.5l11 162h159v-49h-114z" />
    <glyph glyph-name="uni2076" unicode="&#x2076;" horiz-adv-x="277" 
d="M187 594l-60 -99l-23 -35q17 17 46 17q21 0 40 -7t34 -20.5t24 -34t9 -46.5q0 -46 -31 -79t-88 -33q-55 0 -85 33t-30 79q0 32 13 61.5t27 52.5l66 111h58zM75 368q0 -30 19 -48t45 -18q28 0 46.5 18t18.5 48q0 29 -18.5 47t-46.5 18q-27 0 -45.5 -18t-18.5 -47z" />
    <glyph glyph-name="uni2077" unicode="&#x2077;" horiz-adv-x="239" 
d="M6 545v49h216v-49l-139 -282h-56l138 282h-159z" />
    <glyph glyph-name="uni2078" unicode="&#x2078;" horiz-adv-x="272" 
d="M136 460q20 0 33.5 12.5t13.5 35.5q0 22 -13.5 34.5t-33.5 12.5t-34 -12.5t-14 -34.5q0 -23 14 -35.5t34 -12.5zM136 302q25 0 42 13.5t17 39.5t-17 41t-42 15t-42 -15t-17 -41t17 -39.5t42 -13.5zM136 257q-48 0 -80.5 25t-32.5 71q0 34 20.5 55t44.5 27q-21 8 -35 27
t-14 47q0 44 28.5 67t68.5 23t68.5 -23t28.5 -67q0 -28 -14.5 -47t-34.5 -27q23 -6 44 -27t21 -55q0 -46 -32.5 -71t-80.5 -25z" />
    <glyph glyph-name="uni2079" unicode="&#x2079;" horiz-adv-x="277" 
d="M90 263l60 99l23 35q-8 -8 -20 -12.5t-26 -4.5q-21 0 -40 7t-34 20.5t-24 34t-9 46.5q0 46 31 78.5t88 32.5q55 0 85 -32.5t30 -78.5q0 -32 -13 -61.5t-27 -53.5l-66 -110h-58zM202 489q0 30 -19 48t-45 18q-28 0 -46.5 -18t-18.5 -48t18.5 -48t46.5 -18q27 0 45.5 18
t18.5 48z" />
    <glyph glyph-name="uni2080" unicode="&#x2080;" horiz-adv-x="308" 
d="M281 165q0 -37 -9 -68.5t-25.5 -54t-40 -35.5t-52.5 -13t-52.5 13t-40 35.5t-25.5 54t-9 68.5t9 68.5t25.5 54.5t40 35.5t52.5 12.5t52.5 -12.5t40 -35.5t25.5 -54.5t9 -68.5zM226 165q0 58 -20 91t-52 33t-52 -33t-20 -91q0 -57 20 -90.5t52 -33.5t52 33.5t20 90.5z" />
    <glyph glyph-name="uni2081" unicode="&#x2081;" horiz-adv-x="186" 
d="M15 316l120 20v-336h-55v275l-65 -9v50z" />
    <glyph glyph-name="uni2082" unicode="&#x2082;" horiz-adv-x="252" 
d="M229 49v-49h-219v41q30 25 57.5 50t49 49t34 47t12.5 46q0 27 -15 40t-39 13q-27 0 -49.5 -13t-39.5 -28v54q17 17 42 27t57 10q43 0 72 -23.5t29 -72.5q0 -26 -11.5 -51.5t-30.5 -50t-44.5 -47t-52.5 -42.5h148z" />
    <glyph glyph-name="uni2083" unicode="&#x2083;" horiz-adv-x="237" 
d="M142 168q32 -7 52.5 -27.5t20.5 -54.5q0 -43 -32 -67.5t-82 -24.5q-26 0 -48.5 6.5t-36.5 17.5v51q17 -12 36.5 -20.5t45.5 -8.5q28 0 45 13t17 36q0 27 -19 39t-63 17v42q75 9 75 60q0 20 -13.5 30.5t-33.5 10.5q-26 0 -47.5 -12.5t-37.5 -27.5v53q17 16 40.5 25.5
t50.5 9.5q47 0 72 -23.5t25 -60.5q0 -32 -19 -54t-48 -30z" />
    <glyph glyph-name="uni2084" unicode="&#x2084;" horiz-adv-x="305" 
d="M231 129h55v-44h-55v-85h-53v85h-160v45l156 201h57v-202zM72 129h106v140z" />
    <glyph glyph-name="uni2085" unicode="&#x2085;" horiz-adv-x="238" 
d="M87 209q27 -3 50 -10.5t40 -21t27 -33t10 -47.5q0 -45 -31 -74t-89 -29q-23 0 -44 6.5t-35 16.5v50q16 -11 35.5 -19t41.5 -8q33 0 51 14.5t18 41.5q0 19 -10 32t-27 21.5t-40 13t-48 6.5l11 162h159v-49h-114z" />
    <glyph glyph-name="uni2086" unicode="&#x2086;" horiz-adv-x="277" 
d="M187 331l-60 -99l-23 -35q17 17 46 17q21 0 40 -7t34 -20.5t24 -34t9 -46.5q0 -46 -31 -79t-88 -33q-55 0 -85 33t-30 79q0 32 13 61.5t27 52.5l66 111h58zM75 105q0 -30 19 -48t45 -18q28 0 46.5 18t18.5 48q0 29 -18.5 47t-46.5 18q-27 0 -45.5 -18t-18.5 -47z" />
    <glyph glyph-name="uni2087" unicode="&#x2087;" horiz-adv-x="239" 
d="M6 282v49h216v-49l-139 -282h-56l138 282h-159z" />
    <glyph glyph-name="uni2088" unicode="&#x2088;" horiz-adv-x="272" 
d="M136 197q20 0 33.5 12.5t13.5 35.5q0 22 -13.5 34.5t-33.5 12.5t-34 -12.5t-14 -34.5q0 -23 14 -35.5t34 -12.5zM136 39q25 0 42 13.5t17 39.5t-17 41t-42 15t-42 -15t-17 -41t17 -39.5t42 -13.5zM136 -6q-48 0 -80.5 25t-32.5 71q0 34 20.5 55t44.5 27q-21 8 -35 27
t-14 47q0 44 28.5 67t68.5 23t68.5 -23t28.5 -67q0 -28 -14.5 -47t-34.5 -27q23 -6 44 -27t21 -55q0 -46 -32.5 -71t-80.5 -25z" />
    <glyph glyph-name="uni2089" unicode="&#x2089;" horiz-adv-x="277" 
d="M90 0l60 99l23 35q-8 -8 -20 -12.5t-26 -4.5q-21 0 -40 7t-34 20.5t-24 34t-9 46.5q0 46 31 78.5t88 32.5q55 0 85 -32.5t30 -78.5q0 -32 -13 -61.5t-27 -53.5l-66 -110h-58zM202 226q0 30 -19 48t-45 18q-28 0 -46.5 -18t-18.5 -48t18.5 -48t46.5 -18q27 0 45.5 18
t18.5 48z" />
    <glyph glyph-name="published" unicode="&#x2117;" horiz-adv-x="698" 
d="M45 297q0 65 22.5 121t63 97.5t96.5 65t122 23.5t121.5 -23.5t96 -65t63.5 -97.5t23 -121t-23 -121t-63.5 -97.5t-96 -65t-121.5 -23.5t-122 23.5t-96.5 65t-63 97.5t-22.5 121zM85 297q0 -59 19.5 -108.5t55 -85.5t84 -56t105.5 -20t105.5 20t84 56t55 85.5t19.5 108.5
t-19.5 108.5t-55 85.5t-84 56t-105.5 20t-105.5 -20t-84 -56t-55 -85.5t-19.5 -108.5zM315 286q8 -1 17 -1.5t19 -0.5q38 0 60 16.5t22 54.5q0 32 -20.5 52t-63.5 20q-8 0 -18 -0.5t-16 -1.5v-139zM315 121h-55v349q17 3 42 5.5t46 2.5q68 0 105.5 -32.5t37.5 -90.5
q0 -60 -37.5 -89t-100.5 -29h-17.5t-20.5 2v-118z" />
    <glyph glyph-name="uni2153" unicode="&#x2153;" horiz-adv-x="659" 
d="M40 579l120 20v-336h-55v275l-65 -9v50zM441 594h58l-337 -594h-58zM536 168q32 -7 52.5 -27.5t20.5 -54.5q0 -43 -32 -67.5t-82 -24.5q-26 0 -48.5 6.5t-36.5 17.5v51q17 -12 36.5 -20.5t45.5 -8.5q28 0 45 13t17 36q0 27 -19 39t-63 17v42q75 9 75 60q0 20 -13.5 30.5
t-33.5 10.5q-26 0 -47.5 -12.5t-37.5 -27.5v53q17 16 40.5 25.5t50.5 9.5q47 0 72 -23.5t25 -60.5q0 -32 -19 -54t-48 -30z" />
    <glyph glyph-name="uni2154" unicode="&#x2154;" horiz-adv-x="747" 
d="M269 312v-49h-219v41q30 25 57.5 50t49 49t34 47t12.5 46q0 27 -15 40t-39 13q-27 0 -49.5 -13t-39.5 -28v54q17 17 42 27t57 10q43 0 72 -23.5t29 -72.5q0 -26 -11.5 -51.5t-30.5 -50t-44.5 -47t-52.5 -42.5h148zM529 594h58l-337 -594h-58zM624 168q32 -7 52.5 -27.5
t20.5 -54.5q0 -43 -32 -67.5t-82 -24.5q-26 0 -48.5 6.5t-36.5 17.5v51q17 -12 36.5 -20.5t45.5 -8.5q28 0 45 13t17 36q0 27 -19 39t-63 17v42q75 9 75 60q0 20 -13.5 30.5t-33.5 10.5q-26 0 -47.5 -12.5t-37.5 -27.5v53q17 16 40.5 25.5t50.5 9.5q47 0 72 -23.5t25 -60.5
q0 -32 -19 -54t-48 -30z" />
    <glyph glyph-name="uni215B" unicode="&#x215b;" horiz-adv-x="668" 
d="M40 579l120 20v-336h-55v275l-65 -9v50zM441 594h58l-337 -594h-58zM505 197q20 0 33.5 12.5t13.5 35.5q0 22 -13.5 34.5t-33.5 12.5t-34 -12.5t-14 -34.5q0 -23 14 -35.5t34 -12.5zM505 39q25 0 42 13.5t17 39.5t-17 41t-42 15t-42 -15t-17 -41t17 -39.5t42 -13.5z
M505 -6q-48 0 -80.5 25t-32.5 71q0 34 20.5 55t44.5 27q-21 8 -35 27t-14 47q0 44 28.5 67t68.5 23t68.5 -23t28.5 -67q0 -28 -14.5 -47t-34.5 -27q23 -6 44 -27t21 -55q0 -46 -32.5 -71t-80.5 -25z" />
    <glyph glyph-name="uni215C" unicode="&#x215c;" horiz-adv-x="715" 
d="M176 431q32 -7 52.5 -27.5t20.5 -54.5q0 -43 -32 -67.5t-82 -24.5q-26 0 -48.5 6.5t-36.5 17.5v51q17 -12 36.5 -20.5t45.5 -8.5q28 0 45 13t17 36q0 27 -19 39t-63 17v42q75 9 75 60q0 20 -13.5 30.5t-33.5 10.5q-26 0 -47.5 -12.5t-37.5 -27.5v53q17 16 40.5 25.5
t50.5 9.5q47 0 72 -23.5t25 -60.5q0 -32 -19 -54t-48 -30zM488 594h58l-337 -594h-58zM552 197q20 0 33.5 12.5t13.5 35.5q0 22 -13.5 34.5t-33.5 12.5t-34 -12.5t-14 -34.5q0 -23 14 -35.5t34 -12.5zM552 39q25 0 42 13.5t17 39.5t-17 41t-42 15t-42 -15t-17 -41t17 -39.5
t42 -13.5zM552 -6q-48 0 -80.5 25t-32.5 71q0 34 20.5 55t44.5 27q-21 8 -35 27t-14 47q0 44 28.5 67t68.5 23t68.5 -23t28.5 -67q0 -28 -14.5 -47t-34.5 -27q23 -6 44 -27t21 -55q0 -46 -32.5 -71t-80.5 -25z" />
    <glyph glyph-name="uni215D" unicode="&#x215d;" horiz-adv-x="712" 
d="M117 472q27 -3 50 -10.5t40 -21t27 -33t10 -47.5q0 -45 -31 -74t-89 -29q-23 0 -44 6.5t-35 16.5v50q16 -11 35.5 -19t41.5 -8q33 0 51 14.5t18 41.5q0 19 -10 32t-27 21.5t-40 13t-48 6.5l11 162h159v-49h-114zM485 594h58l-337 -594h-58zM549 197q20 0 33.5 12.5
t13.5 35.5q0 22 -13.5 34.5t-33.5 12.5t-34 -12.5t-14 -34.5q0 -23 14 -35.5t34 -12.5zM549 39q25 0 42 13.5t17 39.5t-17 41t-42 15t-42 -15t-17 -41t17 -39.5t42 -13.5zM549 -6q-48 0 -80.5 25t-32.5 71q0 34 20.5 55t44.5 27q-21 8 -35 27t-14 47q0 44 28.5 67t68.5 23
t68.5 -23t28.5 -67q0 -28 -14.5 -47t-34.5 -27q23 -6 44 -27t21 -55q0 -46 -32.5 -71t-80.5 -25z" />
    <glyph glyph-name="uni215E" unicode="&#x215e;" horiz-adv-x="668" 
d="M35 545v49h216v-49l-139 -282h-56l138 282h-159zM441 594h58l-337 -594h-58zM505 197q20 0 33.5 12.5t13.5 35.5q0 22 -13.5 34.5t-33.5 12.5t-34 -12.5t-14 -34.5q0 -23 14 -35.5t34 -12.5zM505 39q25 0 42 13.5t17 39.5t-17 41t-42 15t-42 -15t-17 -41t17 -39.5
t42 -13.5zM505 -6q-48 0 -80.5 25t-32.5 71q0 34 20.5 55t44.5 27q-21 8 -35 27t-14 47q0 44 28.5 67t68.5 23t68.5 -23t28.5 -67q0 -28 -14.5 -47t-34.5 -27q23 -6 44 -27t21 -55q0 -46 -32.5 -71t-80.5 -25z" />
    <glyph glyph-name="Delta" unicode="&#x2206;" horiz-adv-x="562" 
d="M466 52l-187 492l-186 -492h373zM10 0l230 594h79l233 -594h-542z" />
    <glyph glyph-name="zero.slash" unicode="&#xe401;" horiz-adv-x="542" 
d="M331 535q-26 16 -60 16q-36 0 -65.5 -18.5t-50 -52.5t-32 -80.5t-11.5 -102.5q0 -67 15.5 -120t44.5 -86zM271 43q36 0 65.5 18.5t50 52.5t32 80.5t11.5 102.5q0 66 -15.5 119t-44.5 87l-160 -445q27 -15 61 -15zM271 -10q-51 0 -92 23t-69.5 64t-44 97t-15.5 123
t15.5 123t44 97t69.5 64t92 23t92 -23t69.5 -64t44 -97t15.5 -123t-15.5 -123t-44 -97t-69.5 -64t-92 -23z" />
    <glyph glyph-name="zero.slash" unicode="&#xe515;" horiz-adv-x="542" 
d="M331 535q-26 16 -60 16q-36 0 -65.5 -18.5t-50 -52.5t-32 -80.5t-11.5 -102.5q0 -67 15.5 -120t44.5 -86zM271 43q36 0 65.5 18.5t50 52.5t32 80.5t11.5 102.5q0 66 -15.5 119t-44.5 87l-160 -445q27 -15 61 -15zM271 -10q-51 0 -92 23t-69.5 64t-44 97t-15.5 123
t15.5 123t44 97t69.5 64t92 23t92 -23t69.5 -64t44 -97t15.5 -123t-15.5 -123t-44 -97t-69.5 -64t-92 -23z" />
    <glyph glyph-name="invertedbreve" unicode="&#xe411;" horiz-adv-x="500" 
d="M250 643q55 0 83 -35.5t28 -94.5h-52q0 34 -12.5 59t-46.5 25t-46.5 -25t-12.5 -59h-52q0 59 28 94.5t83 35.5z" />
    <glyph glyph-name="doublegrave" unicode="&#xe412;" horiz-adv-x="500" 
d="M319 513l-85 152h56l85 -152h-56zM209 513l-85 152h56l85 -152h-56z" />
    <glyph glyph-name="caronSlovak" unicode="&#xe413;" horiz-adv-x="500" 
d="M296 680l-40 -148h-53l40 148h53z" />
    <glyph glyph-name="commaaccent" unicode="&#xe414;" horiz-adv-x="500" 
d="M329 -46q0 -46 -22 -78.5t-59 -55.5h-42q34 34 47.5 63.5t13.5 70.5h62z" />
    <glyph glyph-name="commaaccent" unicode="&#xf6c3;" horiz-adv-x="500" 
d="M329 -46q0 -46 -22 -78.5t-59 -55.5h-42q34 34 47.5 63.5t13.5 70.5h62z" />
    <glyph glyph-name="dotbelow" unicode="&#xe415;" horiz-adv-x="500" 
d="M250 -175q-18 0 -31.5 13.5t-13.5 31.5q0 19 13.5 32t31.5 13q19 0 32 -13t13 -32q0 -18 -13 -31.5t-32 -13.5z" />
    <glyph glyph-name="altcedilla" unicode="&#xe416;" horiz-adv-x="500" 
d="M292 0q-4 -45 -23 -85.5t-47 -60.5h-61q33 31 53 68.5t24 77.5h54z" />
    <glyph glyph-name="grave.cap" unicode="&#xe421;" horiz-adv-x="500" 
d="M257 647l-73 131h59l73 -131h-59z" />
    <glyph glyph-name="acute.cap" unicode="&#xe422;" horiz-adv-x="500" 
d="M184 647l73 131h59l-73 -131h-59z" />
    <glyph glyph-name="circumflex.cap" unicode="&#xe423;" horiz-adv-x="500" 
d="M381 641h-62l-69 80l-69 -80h-62l114 133h34z" />
    <glyph glyph-name="tilde.cap" unicode="&#xe424;" horiz-adv-x="500" 
d="M389 756q0 -57 -19.5 -87t-56.5 -30q-19 0 -36 10.5t-33 23.5t-30 23.5t-26 10.5q-31 0 -31 -66h-47q0 57 19.5 87t56.5 30q19 0 36 -10.5t33 -23.5t30 -23.5t26 -10.5q31 0 31 66h47z" />
    <glyph glyph-name="macron.cap" unicode="&#xe425;" horiz-adv-x="500" 
d="M143 708h213v-50h-213v50z" />
    <glyph glyph-name="breve.cap" unicode="&#xe426;" horiz-adv-x="500" 
d="M250 647q-55 0 -83 33.5t-28 92.5h52q0 -34 12.5 -57t46.5 -23t46.5 23t12.5 57h52q0 -59 -28 -92.5t-83 -33.5z" />
    <glyph glyph-name="invertedbreve.cap" unicode="&#xe427;" horiz-adv-x="500" 
d="M250 773q55 0 83 -33.5t28 -92.5h-52q0 34 -12.5 57t-46.5 23t-46.5 -23t-12.5 -57h-52q0 59 28 92.5t83 33.5z" />
    <glyph glyph-name="dotaccent.cap" unicode="&#xe428;" horiz-adv-x="500" 
d="M250 641q-18 0 -31.5 13.5t-13.5 31.5q0 19 13.5 32t31.5 13q19 0 32 -13t13 -32q0 -18 -13 -31.5t-32 -13.5z" />
    <glyph glyph-name="dieresis.cap" unicode="&#xe429;" horiz-adv-x="500" 
d="M171 641q-18 0 -31.5 13.5t-13.5 31.5q0 19 13.5 32t31.5 13q19 0 32 -13t13 -32q0 -18 -13 -31.5t-32 -13.5zM329 641q-18 0 -31.5 13.5t-13.5 31.5q0 19 13.5 32t31.5 13q19 0 32 -13t13 -32q0 -18 -13 -31.5t-32 -13.5z" />
    <glyph glyph-name="ring.cap" unicode="&#xe42a;" horiz-adv-x="500" 
d="M165 716q0 35 24 58.5t61 23.5t61 -23.5t24 -58.5t-24 -58.5t-61 -23.5t-61 23.5t-24 58.5zM295 716q0 18 -11 31t-34 13t-34 -13t-11 -31t11 -31t34 -13t34 13t11 31z" />
    <glyph glyph-name="hungarumlaut.cap" unicode="&#xe42b;" horiz-adv-x="500" 
d="M124 647l73 131h56l-73 -131h-56zM234 647l73 131h56l-73 -131h-56z" />
    <glyph glyph-name="doublegrave.cap" unicode="&#xe42c;" horiz-adv-x="500" 
d="M307 647l-73 131h56l73 -131h-56zM197 647l-73 131h56l73 -131h-56z" />
    <glyph glyph-name="caron.cap" unicode="&#xe42d;" horiz-adv-x="500" 
d="M267 644h-34l-114 133h62l69 -80l69 80h62z" />
    <glyph glyph-name="exclamdown.cap" unicode="&#xe441;" horiz-adv-x="269" 
d="M164 0h-59v426h59v-426zM85 554q0 20 14.5 35t34.5 15t35 -15t15 -35t-15 -34.5t-35 -14.5t-34.5 14.5t-14.5 34.5z" />
    <glyph glyph-name="questiondown.cap" unicode="&#xe444;" horiz-adv-x="380" 
d="M355 55q-22 -27 -61 -46t-90 -19q-43 0 -76.5 13.5t-56 36t-34 53t-11.5 63.5q0 46 17.5 77.5t43 53t55.5 34t55 21.5v83h60v-111q-36 -12 -67.5 -26t-54.5 -32t-36 -42.5t-13 -57.5q0 -25 9.5 -46t26 -35t37.5 -22t45 -8q49 0 84 19.5t67 54.5v-64zM275 553
q0 -20 -14.5 -34.5t-34.5 -14.5t-35 14.5t-15 34.5t15 35t35 15t34.5 -15t14.5 -35z" />
    <glyph glyph-name="guilsinglleft.cap" unicode="&#xe451;" horiz-adv-x="310" 
d="M128 295l122 -158h-67l-123 158l123 158h67z" />
    <glyph glyph-name="guilsinglright.cap" unicode="&#xe452;" horiz-adv-x="310" 
d="M60 453h67l123 -158l-123 -158h-67l122 158z" />
    <glyph glyph-name="guillemotleft.cap" unicode="&#xe453;" horiz-adv-x="448" 
d="M128 295l122 -158h-67l-123 158l123 158h67zM266 295l122 -158h-67l-123 158l123 158h67z" />
    <glyph glyph-name="guillemotright.cap" unicode="&#xe454;" horiz-adv-x="448" 
d="M60 453h67l123 -158l-123 -158h-67l122 158zM198 453h67l123 -158l-123 -158h-67l122 158z" />
    <glyph glyph-name="slash.cap" unicode="&#xe461;" horiz-adv-x="402" 
d="M324 680h58l-304 -780h-58z" />
    <glyph glyph-name="backslash.cap" unicode="&#xe462;" horiz-adv-x="402" 
d="M382 -100h-58l-304 780h58z" />
    <glyph glyph-name="bar.cap" unicode="&#xe463;" horiz-adv-x="257" 
d="M102 680h53v-780h-53v780z" />
    <glyph glyph-name="doublebar.cap" unicode="&#xe464;" horiz-adv-x="377" 
d="M102 680h53v-780h-53v780zM222 680h53v-780h-53v780z" />
    <glyph glyph-name="brokenbar.cap" unicode="&#xe465;" horiz-adv-x="257" 
d="M102 680h53v-321h-53v321zM102 221h53v-321h-53v321z" />
    <glyph glyph-name="bullet.cap" unicode="&#xe466;" horiz-adv-x="320" 
d="M70 294q0 38 26 64t64 26t64 -26t26 -64t-26 -64t-64 -26t-64 26t-26 64z" />
    <glyph glyph-name="periodcentered.cap" unicode="&#xe481;" horiz-adv-x="239" 
d="M70 295q0 20 14.5 34.5t34.5 14.5t35 -14.5t15 -34.5t-15 -35t-35 -15t-34.5 15t-14.5 35z" />
    <glyph glyph-name="hyphen.cap" unicode="&#xe482;" horiz-adv-x="355" 
d="M70 321h215v-54h-215v54z" />
    <glyph glyph-name="endash.cap" unicode="&#xe484;" horiz-adv-x="572" 
d="M70 318h432v-48h-432v48z" />
    <glyph glyph-name="emdash.cap" unicode="&#xe486;" horiz-adv-x="952" 
d="M70 318h812v-48h-812v48z" />
    <glyph glyph-name="parenleft.cap" unicode="&#xe491;" horiz-adv-x="315" 
d="M59 290q0 63 13.5 119.5t37.5 105.5t56 90.5t70 74.5h69q-39 -36 -73.5 -77t-60 -88t-40.5 -103t-15 -122t15 -122t40.5 -103t60 -88t73.5 -77h-69q-38 33 -70 74.5t-56 90.5t-37.5 105.5t-13.5 119.5z" />
    <glyph glyph-name="parenright.cap" unicode="&#xe492;" horiz-adv-x="315" 
d="M256 290q0 -63 -13.5 -119.5t-37.5 -105.5t-56 -90.5t-70 -74.5h-69q39 36 73.5 77t60 88t40.5 103t15 122t-15 122t-40.5 103t-60 88t-73.5 77h69q38 -33 70 -74.5t56 -90.5t37.5 -105.5t13.5 -119.5z" />
    <glyph glyph-name="bracketleft.cap" unicode="&#xe493;" horiz-adv-x="304" 
d="M137 -53h117v-47h-169v780h169v-47h-117v-686z" />
    <glyph glyph-name="bracketright.cap" unicode="&#xe494;" horiz-adv-x="304" 
d="M167 633h-117v47h169v-780h-169v47h117v686z" />
    <glyph glyph-name="braceleft.cap" unicode="&#xe495;" horiz-adv-x="335" 
d="M105 290q14 -2 29 -9.5t28 -21.5t21 -35t8 -50v-135q0 -92 76 -92h24v-47h-21q-69 0 -100.5 35t-31.5 104v133q0 27 -7 45t-18.5 29.5t-26 16t-30.5 4.5h-30v46h30q16 0 30.5 4.5t26 16t18.5 29.5t7 45v133q0 69 31.5 104t100.5 35h21v-47h-24q-76 0 -76 -92v-135
q0 -29 -8 -50t-21 -35t-28 -21.5t-29 -9.5z" />
    <glyph glyph-name="braceright.cap" unicode="&#xe496;" horiz-adv-x="335" 
d="M230 290q-14 2 -29 9.5t-28 21.5t-21 35t-8 50v135q0 92 -76 92h-24v47h21q69 0 100.5 -35t31.5 -104v-133q0 -27 7 -45t18.5 -29.5t26 -16t30.5 -4.5h30v-46h-30q-16 0 -30.5 -4.5t-26 -16t-18.5 -29.5t-7 -45v-133q0 -69 -31.5 -104t-100.5 -35h-21v47h24q76 0 76 92
v135q0 29 8 50t21 35t28 21.5t29 9.5z" />
    <glyph glyph-name="at.cap" unicode="&#xe513;" horiz-adv-x="768" 
d="M543 154q60 23 91.5 71t31.5 127q0 56 -18 101t-52 77t-81.5 49.5t-106.5 17.5q-70 0 -127 -23t-97 -64.5t-62 -98t-22 -123.5q0 -86 31 -145.5t80.5 -97t110.5 -54.5t120 -17q57 0 103 8.5t94 27.5v-50q-37 -16 -86.5 -25t-110.5 -9q-69 0 -139.5 19.5t-127.5 62.5
t-93.5 112t-36.5 168q0 76 25.5 141.5t73 113.5t114.5 75t150 27q73 0 131.5 -21.5t99 -60t62.5 -92.5t22 -119q0 -64 -22 -113t-61.5 -82t-94 -50t-118.5 -17q-48 0 -87.5 13.5t-67.5 38.5t-43.5 61t-15.5 81t15 81t42.5 61.5t65.5 39.5t85 14q29 0 63.5 -6.5t58.5 -17.5
v-302zM491 419q-14 5 -32.5 7.5t-37.5 2.5q-69 0 -110.5 -39t-41.5 -106q0 -68 42.5 -107.5t114.5 -39.5q10 0 29.5 1t35.5 5v276z" />
    <glyph glyph-name="zero.inf" unicode="&#xe571;" horiz-adv-x="308" 
d="M281 -15q0 -37 -9 -68.5t-25.5 -54t-40 -35.5t-52.5 -13t-52.5 13t-40 35.5t-25.5 54t-9 68.5t9 68.5t25.5 54.5t40 35.5t52.5 12.5t52.5 -12.5t40 -35.5t25.5 -54.5t9 -68.5zM226 -15q0 58 -20 91t-52 33t-52 -33t-20 -91q0 -57 20 -90.5t52 -33.5t52 33.5t20 90.5z" />
    <glyph glyph-name="one.inf" unicode="&#xe572;" horiz-adv-x="186" 
d="M15 136l120 20v-336h-55v275l-65 -9v50z" />
    <glyph glyph-name="two.inf" unicode="&#xe573;" horiz-adv-x="252" 
d="M229 -131v-49h-219v41q30 25 57.5 50t49 49t34 47t12.5 46q0 27 -15 40t-39 13q-27 0 -49.5 -13t-39.5 -28v54q17 17 42 27t57 10q43 0 72 -23.5t29 -72.5q0 -26 -11.5 -51.5t-30.5 -50t-44.5 -47t-52.5 -42.5h148z" />
    <glyph glyph-name="three.inf" unicode="&#xe574;" horiz-adv-x="237" 
d="M142 -12q32 -7 52.5 -27.5t20.5 -54.5q0 -43 -32 -67.5t-82 -24.5q-26 0 -48.5 6.5t-36.5 17.5v51q17 -12 36.5 -20.5t45.5 -8.5q28 0 45 13t17 36q0 27 -19 39t-63 17v42q75 9 75 60q0 20 -13.5 30.5t-33.5 10.5q-26 0 -47.5 -12.5t-37.5 -27.5v53q17 16 40.5 25.5
t50.5 9.5q47 0 72 -23.5t25 -60.5q0 -32 -19 -54t-48 -30z" />
    <glyph glyph-name="four.inf" unicode="&#xe575;" horiz-adv-x="305" 
d="M231 -51h55v-44h-55v-85h-53v85h-160v45l156 201h57v-202zM72 -51h106v140z" />
    <glyph glyph-name="five.inf" unicode="&#xe576;" horiz-adv-x="238" 
d="M87 29q27 -3 50 -10.5t40 -21t27 -33t10 -47.5q0 -45 -31 -74t-89 -29q-23 0 -44 6.5t-35 16.5v50q16 -11 35.5 -19t41.5 -8q33 0 51 14.5t18 41.5q0 19 -10 32t-27 21.5t-40 13t-48 6.5l11 162h159v-49h-114z" />
    <glyph glyph-name="six.inf" unicode="&#xe577;" horiz-adv-x="277" 
d="M187 151l-60 -99l-23 -35q17 17 46 17q21 0 40 -7t34 -20.5t24 -34t9 -46.5q0 -46 -31 -79t-88 -33q-55 0 -85 33t-30 79q0 32 13 61.5t27 52.5l66 111h58zM75 -75q0 -30 19 -48t45 -18q28 0 46.5 18t18.5 48q0 29 -18.5 47t-46.5 18q-27 0 -45.5 -18t-18.5 -47z" />
    <glyph glyph-name="seven.inf" unicode="&#xe578;" horiz-adv-x="239" 
d="M6 102v49h216v-49l-139 -282h-56l138 282h-159z" />
    <glyph glyph-name="eight.inf" unicode="&#xe579;" horiz-adv-x="272" 
d="M136 17q20 0 33.5 12.5t13.5 35.5q0 22 -13.5 34.5t-33.5 12.5t-34 -12.5t-14 -34.5q0 -23 14 -35.5t34 -12.5zM136 -141q25 0 42 13.5t17 39.5t-17 41t-42 15t-42 -15t-17 -41t17 -39.5t42 -13.5zM136 -186q-48 0 -80.5 25t-32.5 71q0 34 20.5 55t44.5 27q-21 8 -35 27
t-14 47q0 44 28.5 67t68.5 23t68.5 -23t28.5 -67q0 -28 -14.5 -47t-34.5 -27q23 -6 44 -27t21 -55q0 -46 -32.5 -71t-80.5 -25z" />
    <glyph glyph-name="nine.inf" unicode="&#xe57a;" horiz-adv-x="277" 
d="M90 -180l60 99l23 35q-8 -8 -20 -12.5t-26 -4.5q-21 0 -40 7t-34 20.5t-24 34t-9 46.5q0 46 31 78.5t88 32.5q55 0 85 -32.5t30 -78.5q0 -32 -13 -61.5t-27 -53.5l-66 -110h-58zM202 46q0 30 -19 48t-45 18q-28 0 -46.5 -18t-18.5 -48t18.5 -48t46.5 -18q27 0 45.5 18
t18.5 48z" />
    </font>
</defs>
</svg>
