<?xml version="1.0" standalone="no"?>
<!DOCTYPE svg PUBLIC "-//W3C//DTD SVG 1.1//EN" "http://www.w3.org/Graphics/SVG/1.1/DTD/svg11.dtd" >
<svg xmlns="http://www.w3.org/2000/svg" xmlns:xlink="http://www.w3.org/1999/xlink" version="1.1">
<metadata>
Created by FontForge 20161116 at Thu Dec  1 20:28:44 2016
 By Jimmy Wärting
Copyright (c) 2003 by Kris Sowersby. All rights reserved.
</metadata>
<defs>
<font id="KarbonAppLight" horiz-adv-x="520" >
  <font-face 
    font-family="Karbon App Light"
    font-weight="300"
    font-stretch="normal"
    units-per-em="1000"
    panose-1="2 0 0 0 0 0 0 0 0 0"
    ascent="800"
    descent="-200"
    x-height="436"
    cap-height="594"
    bbox="-90 -188 994 848"
    underline-thickness="50"
    underline-position="-100"
    unicode-range="U+000D-E57A"
  />
<missing-glyph horiz-adv-x="253" 
 />
    <glyph glyph-name="fi" unicode="fi" horiz-adv-x="469" 
d="M123 0h-33v408h-66v28h66v105q0 66 34 106.5t102 40.5q35 0 62 -11t41 -22v-37q-21 17 -46.5 28.5t-56.5 11.5q-54 0 -78.5 -33t-24.5 -90v-99h266v-436h-33v408h-233v-408z" />
    <glyph glyph-name="fl" unicode="fl" horiz-adv-x="469" 
d="M90 559q0 62 30.5 95.5t87.5 33.5q25 0 43.5 -6t30.5 -15v-36q-16 13 -33.5 20t-40.5 7q-42 0 -63.5 -25t-21.5 -80v-117h133v-28h-133v-408h-33v408h-66v28h66v123zM389 0h-33v680h33v-680z" />
    <glyph glyph-name="f_f_b" unicode="ffb" horiz-adv-x="1040" 
d="M389 0h-33v408h-233v-408h-33v408h-66v28h66v114q0 62 30.5 95.5t87.5 33.5q25 0 43.5 -6t30.5 -15v-36q-16 13 -33.5 20t-40.5 7q-42 0 -63.5 -25t-21.5 -80v-108h233v123q0 62 30 95.5t88 33.5q25 0 43.5 -6t30.5 -15v-34q-16 13 -33.5 20t-40.5 7q-42 0 -63.5 -25
t-21.5 -80v-119h133v-28h-133v-408zM623 680h33v-259q17 9 46.5 16t64.5 7q48 0 89.5 -14t72 -42t48 -70t17.5 -98q0 -54 -18 -96t-50 -71.5t-76.5 -45t-97.5 -15.5q-29 0 -65.5 5t-63.5 15v668zM960 220q0 48 -15 84.5t-41 61t-61.5 37t-75.5 12.5q-36 0 -63 -6.5
t-48 -15.5v-358q20 -8 45.5 -11t50.5 -3q99 0 153.5 54t54.5 145z" />
    <glyph glyph-name="f_f_h" unicode="ffh" horiz-adv-x="1038" 
d="M389 0h-33v408h-233v-408h-33v408h-66v28h66v114q0 62 30.5 95.5t87.5 33.5q25 0 43.5 -6t30.5 -15v-36q-16 13 -33.5 20t-40.5 7q-42 0 -63.5 -25t-21.5 -80v-108h233v123q0 62 30 95.5t88 33.5q25 0 43.5 -6t30.5 -15v-34q-16 13 -33.5 20t-40.5 7q-42 0 -63.5 -25
t-21.5 -80v-119h133v-28h-133v-408zM623 680h33v-261q33 11 67 18t66 7q83 0 128.5 -34t45.5 -110v-300h-33v292q0 37 -11.5 60.5t-30.5 37t-45 18.5t-54 5q-41 0 -75 -7.5t-58 -15.5v-390h-33v680z" />
    <glyph glyph-name="f_f_j" unicode="ffj" horiz-adv-x="736" 
d="M389 408v-408h-33v408h-233v-408h-33v408h-66v28h66v114q0 62 30.5 95.5t87.5 33.5q25 0 43.5 -6t30.5 -15v-36q-16 13 -33.5 20t-40.5 7q-42 0 -63.5 -25t-21.5 -80v-108h233v105q0 66 34 106.5t102 40.5q35 0 62 -11t41 -22v-37q-21 17 -46.5 28.5t-56.5 11.5
q-54 0 -78.5 -33t-24.5 -90v-99h267v-502q0 -58 -24.5 -90t-81.5 -32q-16 0 -32 3.5t-26 8.5v31q12 -5 28 -9.5t30 -4.5q33 0 53 18.5t20 72.5v476h-234z" />
    <glyph glyph-name="f_f_k" unicode="ffk" horiz-adv-x="977" 
d="M389 0h-33v408h-233v-408h-33v408h-66v28h66v114q0 62 30.5 95.5t87.5 33.5q25 0 43.5 -6t30.5 -15v-36q-16 13 -33.5 20t-40.5 7q-42 0 -63.5 -25t-21.5 -80v-108h233v123q0 62 30 95.5t88 33.5q25 0 43.5 -6t30.5 -15v-34q-16 13 -33.5 20t-40.5 7q-42 0 -63.5 -25
t-21.5 -80v-119h133v-28h-133v-408zM661 236l247 200h48l-249 -200l257 -236h-45zM656 0h-33v680h33v-680z" />
    <glyph glyph-name="f_b" unicode="fb" horiz-adv-x="773" 
d="M90 559q0 62 30.5 95.5t87.5 33.5q25 0 43.5 -6t30.5 -15v-36q-16 13 -33.5 20t-40.5 7q-42 0 -63.5 -25t-21.5 -80v-117h133v-28h-133v-408h-33v408h-66v28h66v123zM356 680h33v-259q17 9 46.5 16t64.5 7q48 0 89.5 -14t72 -42t48 -70t17.5 -98q0 -54 -18 -96t-50 -71.5
t-76.5 -45t-97.5 -15.5q-29 0 -65.5 5t-63.5 15v668zM693 220q0 48 -15 84.5t-41 61t-61.5 37t-75.5 12.5q-36 0 -63 -6.5t-48 -15.5v-358q20 -8 45.5 -11t50.5 -3q99 0 153.5 54t54.5 145z" />
    <glyph glyph-name="f_h" unicode="fh" horiz-adv-x="771" 
d="M90 559q0 62 30.5 95.5t87.5 33.5q25 0 43.5 -6t30.5 -15v-36q-16 13 -33.5 20t-40.5 7q-42 0 -63.5 -25t-21.5 -80v-117h133v-28h-133v-408h-33v408h-66v28h66v123zM356 680h33v-261q33 11 67 18t66 7q83 0 128.5 -34t45.5 -110v-300h-33v292q0 37 -11.5 60.5t-30.5 37
t-45 18.5t-54 5q-41 0 -75 -7.5t-58 -15.5v-390h-33v680z" />
    <glyph glyph-name="f_j" unicode="fj" horiz-adv-x="469" 
d="M356 408h-233v-408h-33v408h-66v28h66v105q0 66 34 106.5t102 40.5q35 0 62 -11t41 -22v-37q-21 17 -46.5 28.5t-56.5 11.5q-54 0 -78.5 -33t-24.5 -90v-99h266v-502q0 -58 -24.5 -90t-81.5 -32q-16 0 -32 3.5t-26 8.5v31q12 -5 28 -9.5t30 -4.5q33 0 53 18.5t20 72.5
v476z" />
    <glyph glyph-name="f_k" unicode="fk" horiz-adv-x="710" 
d="M90 559q0 62 30.5 95.5t87.5 33.5q25 0 43.5 -6t30.5 -15v-36q-16 13 -33.5 20t-40.5 7q-42 0 -63.5 -25t-21.5 -80v-117h133v-28h-133v-408h-33v408h-66v28h66v123zM394 236l247 200h48l-249 -200l257 -236h-45zM389 0h-33v680h33v-680z" />
    <glyph glyph-name="ff" unicode="ff" horiz-adv-x="514" 
d="M123 0h-33v408h-66v28h66v114q0 62 30.5 95.5t87.5 33.5q25 0 43.5 -6t30.5 -15v-36q-16 13 -33.5 20t-40.5 7q-42 0 -63.5 -25t-21.5 -80v-108h233v123q0 62 30.5 95.5t87.5 33.5q25 0 43.5 -6t30.5 -15v-36q-16 13 -33.5 20t-40.5 7q-42 0 -63.5 -25t-21.5 -80v-117
h125v-28h-125v-408h-33v408h-233v-408z" />
    <glyph glyph-name="ffi" unicode="ffi" horiz-adv-x="736" 
d="M389 0h-33v408h-233v-408h-33v408h-66v28h66v114q0 62 30.5 95.5t87.5 33.5q25 0 43.5 -6t30.5 -15v-36q-16 13 -33.5 20t-40.5 7q-42 0 -63.5 -25t-21.5 -80v-108h233v105q0 66 34 106.5t102 40.5q35 0 62 -11t41 -22v-37q-21 17 -46.5 28.5t-56.5 11.5q-54 0 -78.5 -33
t-24.5 -90v-99h267v-436h-33v408h-234v-408z" />
    <glyph glyph-name="ffl" unicode="ffl" horiz-adv-x="736" 
d="M389 0h-33v408h-233v-408h-33v408h-66v28h66v114q0 62 30.5 95.5t87.5 33.5q25 0 43.5 -6t30.5 -15v-36q-16 13 -33.5 20t-40.5 7q-42 0 -63.5 -25t-21.5 -80v-108h233v123q0 62 30 95.5t88 33.5q25 0 43.5 -6t30.5 -15v-34q-16 13 -33.5 20t-40.5 7q-42 0 -63.5 -25
t-21.5 -80v-119h133v-28h-133v-408zM656 0h-33v680h33v-680z" />
    <glyph glyph-name=".notdef" horiz-adv-x="253" 
 />
    <glyph glyph-name=".null" horiz-adv-x="0" 
 />
    <glyph glyph-name=".null" horiz-adv-x="0" 
 />
    <glyph glyph-name="nonmarkingreturn" unicode="&#xd;" horiz-adv-x="253" 
 />
    <glyph glyph-name="space" unicode=" " horiz-adv-x="190" 
 />
    <glyph glyph-name="lslash" unicode="&#x142;" horiz-adv-x="223" 
d="M128 379l80 66v-36l-80 -66v-343h-33v319l-80 -66v36l80 66v325h33v-301z" />
    <glyph glyph-name="Scaron" unicode="&#x160;" horiz-adv-x="422" 
d="M42 81q36 -32 74 -45.5t80 -13.5q30 0 56 7.5t45.5 23t31 39t11.5 56.5q0 31 -10 53t-28 38.5t-44 29t-58 24.5q-35 13 -64 27t-49.5 33t-32 44.5t-11.5 61.5q0 35 13.5 62t36 45t52 27t61.5 9q40 0 76.5 -12t60.5 -33v-38q-32 28 -65 40.5t-72 12.5q-27 0 -50.5 -7.5
t-41 -21.5t-28 -35t-10.5 -49q0 -25 7 -44t22.5 -35t41 -29.5t62.5 -26.5q38 -14 68.5 -28.5t51.5 -34.5t32.5 -47t11.5 -66t-14 -68t-38.5 -48.5t-56.5 -29.5t-68 -10q-48 0 -88 13.5t-66 35.5v40zM218 646h-18l-106 132h34l81 -104l81 104h34z" />
    <glyph glyph-name="scaron" unicode="&#x161;" horiz-adv-x="348" 
d="M43 74q26 -26 57 -39.5t65 -13.5q48 0 76 21.5t28 66.5q0 44 -29 65t-80 39q-57 20 -86 46.5t-29 74.5q0 51 35 80.5t89 29.5q35 0 62 -9.5t48 -25.5v-38q-23 20 -50.5 32t-59.5 12q-44 0 -68 -21.5t-24 -59.5q0 -19 6 -32.5t18 -24t30.5 -19.5t43.5 -18q27 -10 50 -20
t40 -24.5t26.5 -35t9.5 -51.5q0 -30 -11 -52t-30 -36.5t-43.5 -21.5t-51.5 -7q-38 0 -71 12.5t-51 31.5v38zM187 503h-18l-106 137h35l80 -107l80 107h35z" />
    <glyph glyph-name="Yacute" unicode="&#xdd;" horiz-adv-x="497" 
d="M446 594h37l-218 -350v-244h-34v244l-217 350h38l197 -317zM230 647l73 131h32l-73 -131h-32z" />
    <glyph glyph-name="yacute" unicode="&#xfd;" horiz-adv-x="413" 
d="M213 15l160 421h33l-236 -616h-33l59 153l-189 463h35zM195 513l85 152h33l-85 -152h-33z" />
    <glyph glyph-name="Thorn" unicode="&#xde;" horiz-adv-x="427" 
d="M127 154q9 -1 20 -1.5t25 -0.5q97 0 147.5 39.5t50.5 120.5q0 31 -10 58t-33 47t-60.5 31.5t-92.5 11.5q-11 0 -25 -0.5t-22 -1.5v-304zM127 0h-34v594h34v-106q12 2 24.5 2h22.5q113 0 172 -45t59 -133q0 -89 -59 -139.5t-174 -50.5q-14 0 -25.5 0.5t-19.5 1.5v-124z
" />
    <glyph glyph-name="thorn" unicode="&#xfe;" horiz-adv-x="497" 
d="M80 680h33v-259q17 9 46.5 16t64.5 7q48 0 89.5 -14t72 -42t48 -70t17.5 -98q0 -53 -17 -95.5t-47 -72t-72 -45t-92 -15.5q-29 0 -59.5 5.5t-50.5 16.5v-194h-33v860zM417 220q0 48 -15 84.5t-41 61t-61.5 37t-75.5 12.5q-36 0 -63 -6.5t-48 -15.5v-349q25 -11 51.5 -17
t58.5 -6q46 0 82.5 15t61 41.5t37.5 63t13 79.5z" />
    <glyph glyph-name="eth" unicode="&#xf0;" horiz-adv-x="515" 
d="M130 519l160 43q-27 30 -60 59.5t-71 58.5h44q32 -25 62 -52.5t57 -56.5l100 27v-26l-82 -22q59 -70 94 -152t35 -176q0 -51 -15.5 -93.5t-43.5 -73t-67 -47t-85 -16.5t-85 16.5t-67 46.5t-44 71t-16 91t16 92t44 72t67 46.5t85 16.5q49 0 93.5 -22.5t73.5 -82.5
q-13 48 -41.5 98.5t-74.5 103.5l-179 -48v26zM436 217q0 43 -13 79.5t-36.5 63t-56 41t-72.5 14.5q-39 0 -71.5 -14.5t-56.5 -40.5t-37 -62.5t-13 -80.5t13 -80t37 -61.5t56.5 -40t71.5 -14.5t71.5 14.5t56.5 40t37 61.5t13 80z" />
    <glyph glyph-name="Zcaron" unicode="&#x17d;" horiz-adv-x="469" 
d="M49 594h391v-26l-377 -538h383v-30h-423v27l376 537h-350v30zM261 646h-18l-106 132h34l81 -104l81 104h34z" />
    <glyph glyph-name="zcaron" unicode="&#x17e;" horiz-adv-x="399" 
d="M363 0h-326v30l282 378h-266v28h305v-28l-286 -380h291v-28zM225 503h-18l-106 137h35l80 -107l80 107h35z" />
    <glyph glyph-name="onehalf" unicode="&#xbd;" horiz-adv-x="610" 
d="M550 27v-27h-200v23q32 24 61 50t50.5 52t34 52t12.5 50q0 29 -16 47t-48 18q-26 0 -47 -11.5t-38 -28.5v30q15 17 38.5 27.5t51.5 10.5q42 0 66 -24t24 -66q0 -26 -12 -53t-32.5 -53.5t-47.5 -51t-56 -45.5h159zM40 580l100 18v-320h-31v286l-69 -12v28zM412 595h32
l-337 -595h-32z" />
    <glyph glyph-name="onequarter" unicode="&#xbc;" horiz-adv-x="591" 
d="M40 580l100 18v-320h-31v286l-69 -12v28zM412 595h32l-337 -595h-32zM473 111h58v-24h-58v-87h-29v87h-163v25l161 206h31v-207zM311 111h133v172z" />
    <glyph glyph-name="onesuperior" unicode="&#xb9;" horiz-adv-x="158" 
d="M8 580l100 18v-320h-31v286l-69 -12v28z" />
    <glyph glyph-name="threequarters" unicode="&#xbe;" horiz-adv-x="644" 
d="M156 440q31 -4 55 -24t24 -55q0 -39 -28 -63t-78 -24q-23 0 -44.5 6.5t-34.5 17.5v28q15 -12 35 -19.5t43 -7.5q37 0 57 17t20 46q0 31 -23.5 46.5t-66.5 18.5v24q38 2 60 20t22 47q0 24 -16 38.5t-45 14.5q-26 0 -46 -11t-36 -26v30q15 14 37 24t48 10q45 0 67 -22
t22 -56q0 -32 -21.5 -53.5t-50.5 -26.5zM465 595h32l-337 -595h-32zM526 111h58v-24h-58v-87h-29v87h-163v25l161 206h31v-207zM364 111h133v172z" />
    <glyph glyph-name="threesuperior" unicode="&#xb3;" horiz-adv-x="216" 
d="M117 440q31 -4 55 -24t24 -55q0 -39 -28 -63t-78 -24q-23 0 -44.5 6.5t-34.5 17.5v28q15 -12 35 -19.5t43 -7.5q37 0 57 17t20 46q0 31 -23.5 46.5t-66.5 18.5v24q38 2 60 20t22 47q0 24 -16 38.5t-45 14.5q-26 0 -46 -11t-36 -26v30q15 14 37 24t48 10q45 0 67 -22
t22 -56q0 -32 -21.5 -53.5t-50.5 -26.5z" />
    <glyph glyph-name="twosuperior" unicode="&#xb2;" horiz-adv-x="224" 
d="M206 305v-27h-200v23q32 24 61 50t50.5 52.5t34 52t12.5 49.5q0 29 -16 47t-48 18q-26 0 -47 -11.5t-38 -28.5v30q15 17 38.5 27.5t51.5 10.5q42 0 66 -24t24 -65q0 -26 -12 -53.5t-32.5 -54t-47.5 -51t-56 -45.5h159z" />
    <glyph glyph-name="brokenbar" unicode="&#xa6;" horiz-adv-x="222" 
d="M96 680h30v-341h-30v341zM96 203h30v-341h-30v341z" />
    <glyph glyph-name="minus" unicode="&#x2212;" horiz-adv-x="435" 
d="M40 307h355v-29h-355v29z" />
    <glyph glyph-name="multiply" unicode="&#xd7;" horiz-adv-x="362" 
d="M40 413l21 20l120 -122l120 122l21 -20l-120 -122l120 -122l-21 -20l-120 121l-120 -121l-21 20l121 122z" />
    <glyph glyph-name="Lslash" unicode="&#x141;" horiz-adv-x="412" 
d="M25 257l68 29v308h34v-294l152 65v-30l-152 -65v-240h265v-30h-299v256l-68 -29v30z" />
    <glyph glyph-name="exclam" unicode="!" horiz-adv-x="236" 
d="M135 157h-34v437h34v-437zM90 26q0 12 8 20t20 8t20 -8t8 -20t-8 -20t-20 -8t-20 8t-8 20z" />
    <glyph glyph-name="quotedbl" unicode="&#x22;" horiz-adv-x="246" 
d="M75 644h31l-20 -187h-27zM160 644h31l-20 -187h-27z" />
    <glyph glyph-name="numbersign" unicode="#" horiz-adv-x="479" 
d="M285 196h-134l-39 -196h-31l39 196h-95v27h101l31 157h-100v27h106l38 187h31l-38 -187h134l38 187h31l-38 -187h95v-27h-101l-31 -157h100v-27h-106l-39 -196h-31zM157 223h134l31 157h-134z" />
    <glyph glyph-name="dollar" unicode="$" horiz-adv-x="422" 
d="M190 -8q-46 1 -84 14.5t-64 34.5v40q35 -31 71.5 -44.5t76.5 -14.5v275q-33 13 -60.5 27t-47 32t-30.5 43t-11 60q0 33 12 58.5t32.5 43.5t47.5 28t57 12v79h28v-79q37 -2 69.5 -13t55.5 -31v-38q-30 26 -60 38t-65 14v-252q36 -14 65 -28t49.5 -33t31.5 -45.5t11 -64.5
q0 -36 -12.5 -63.5t-34 -47t-50 -30.5t-60.5 -14v-88h-28v87zM342 148q0 29 -9 50t-25 36.5t-39 28t-51 23.5v-263q52 4 88 35t36 90zM74 459q0 -47 26.5 -75.5t89.5 -53.5v241q-48 -4 -82 -32.5t-34 -79.5z" />
    <glyph glyph-name="percent" unicode="%" horiz-adv-x="619" 
d="M40 474q0 28 10 51.5t27.5 40.5t41 26.5t49.5 9.5t49.5 -9.5t41 -26.5t27.5 -40.5t10 -51.5t-10 -51.5t-27.5 -40.5t-41 -26.5t-49.5 -9.5t-49.5 9.5t-41 26.5t-27.5 40.5t-10 51.5zM71 474q0 -46 28 -73t69 -27t69.5 27t28.5 73t-28.5 72.5t-69.5 26.5t-69 -26.5
t-28 -72.5zM579 120q0 -28 -10 -51.5t-27.5 -40t-41 -26t-50.5 -9.5q-26 0 -49.5 9.5t-41 26t-27.5 40t-10 51.5t10 52t27.5 41t41 26.5t49.5 9.5q27 0 50.5 -9.5t41 -26.5t27.5 -41t10 -52zM145 0h-33l362 595h33zM548 120q0 46 -28 73t-70 27q-41 0 -69 -27t-28 -73
q0 -45 28 -72t69 -27q42 0 70 27t28 72z" />
    <glyph glyph-name="ampersand" unicode="&#x26;" horiz-adv-x="541" 
d="M480 288q0 -48 -12.5 -92.5t-35.5 -82.5l109 -113h-41l-85 87q-34 -43 -83 -69t-113 -26q-38 0 -70.5 10.5t-56.5 30t-37.5 47.5t-13.5 64q0 29 7.5 52.5t25 45t45 41.5t67.5 42l-28 30q-9 9 -19.5 21t-19.5 27.5t-15 34.5t-6 41q0 24 8.5 46.5t25 39.5t40.5 27t55 10
q32 0 56.5 -10t41.5 -27t26 -40t9 -50q0 -28 -10 -50.5t-27 -41t-40 -34.5t-48 -30l177 -185q20 34 29.5 73t9.5 81h29zM219 20q58 0 102.5 24t73.5 64l-189 196q-63 -34 -97.5 -69.5t-34.5 -90.5q0 -30 12 -53t32 -38.5t46 -24t55 -8.5zM130 479q0 -32 13.5 -54.5
t37.5 -48.5l34 -36q19 10 39.5 22.5t36.5 28.5t26.5 36.5t10.5 47.5q0 42 -27 70t-74 28q-24 0 -42 -8t-30 -21.5t-18.5 -30t-6.5 -34.5z" />
    <glyph glyph-name="quotesingle" unicode="'" horiz-adv-x="161" 
d="M75 644h31l-20 -187h-27z" />
    <glyph glyph-name="parenleft" unicode="(" horiz-adv-x="280" 
d="M52 270q0 70 14.5 130t39.5 111t57.5 93.5t68.5 75.5h38q-36 -36 -70 -76t-60.5 -89t-42 -109.5t-15.5 -135.5t15.5 -135.5t42 -110t60.5 -89.5t70 -76h-38q-36 33 -68.5 75.5t-57.5 93.5t-39.5 111.5t-14.5 130.5z" />
    <glyph glyph-name="parenright" unicode=")" horiz-adv-x="280" 
d="M228 270q0 -70 -14.5 -130.5t-39.5 -111.5t-57.5 -93.5t-68.5 -75.5h-38q36 36 70 76t60.5 89.5t42 110t15.5 135.5t-15.5 135.5t-42 109.5t-60.5 89t-70 76h38q36 -33 68.5 -75.5t57.5 -93.5t39.5 -111t14.5 -130z" />
    <glyph glyph-name="asterisk" unicode="*" horiz-adv-x="303" 
d="M86 440l-21 14l67 90l-107 35l7 24l107 -36l-1 113h26l-1 -113l107 36l8 -24l-108 -34l68 -90l-21 -15l-66 90z" />
    <glyph glyph-name="plus" unicode="+" horiz-adv-x="435" 
d="M232 470v-163h163v-29h-163v-163h-29v163h-163v29h163v163h29z" />
    <glyph glyph-name="comma" unicode="," horiz-adv-x="196" 
d="M121 65q0 -29 -8 -58t-21 -55t-30 -47t-35 -33h-28q36 32 61 83.5t25 109.5h36z" />
    <glyph glyph-name="hyphen" unicode="-" horiz-adv-x="355" 
d="M64 276h227v-29h-227v29z" />
    <glyph glyph-name="period" unicode="." horiz-adv-x="196" 
d="M70 26q0 12 8 20t20 8t20 -8t8 -20t-8 -20t-20 -8t-20 8t-8 20z" />
    <glyph glyph-name="slash" unicode="/" horiz-adv-x="383" 
d="M328 680h32l-310 -818h-32z" />
    <glyph glyph-name="zero" unicode="0" horiz-adv-x="524" 
d="M78 297q0 -64 13.5 -115t38 -87t58 -55t74.5 -19q40 0 74 19t58.5 55t38 87t13.5 115t-13.5 115t-38 87t-58.5 55t-74 19q-41 0 -74.5 -19t-58 -55t-38 -87t-13.5 -115zM45 297q0 68 15.5 124t43.5 96.5t68 62.5t90 22q49 0 89.5 -22t68.5 -62.5t43.5 -96.5t15.5 -124
t-15.5 -124t-43.5 -96.5t-68.5 -62.5t-89.5 -22q-50 0 -90 22t-68 62.5t-43.5 96.5t-15.5 124z" />
    <glyph glyph-name="one" unicode="1" horiz-adv-x="273" 
d="M15 572l163 30v-602h-33v565l-130 -21v28z" />
    <glyph glyph-name="two" unicode="2" horiz-adv-x="409" 
d="M370 29v-29h-365v24q60 51 117.5 103t102 104t71.5 104t27 103q0 66 -34 100t-94 34q-51 0 -92 -25t-72 -65v39q25 32 67.5 56.5t96.5 24.5q35 0 64.5 -10t51 -30t33.5 -51t12 -73q0 -54 -28.5 -109.5t-73 -109t-98 -102t-103.5 -88.5h317z" />
    <glyph glyph-name="three" unicode="3" horiz-adv-x="387" 
d="M185 304q31 -3 60 -14.5t52 -30.5t37 -46t14 -61q0 -73 -49 -116.5t-133 -43.5q-44 0 -84 15.5t-62 37.5v35q32 -29 68 -44t78 -15q70 0 109 35.5t39 95.5t-46.5 93t-132.5 45v22q82 22 123 56.5t41 94.5q0 50 -33 80t-84 30t-88.5 -23.5t-66.5 -60.5v37q22 30 61.5 53
t93.5 23q35 0 63 -10.5t47.5 -29.5t30 -44t10.5 -55t-11.5 -56t-31 -46.5t-47 -35t-58.5 -21.5z" />
    <glyph glyph-name="four" unicode="4" horiz-adv-x="476" 
d="M353 203h103v-27h-103v-176h-32v176h-311v23l301 395h42v-391zM50 203h271v359z" />
    <glyph glyph-name="five" unicode="5" horiz-adv-x="394" 
d="M99 365q51 -6 96.5 -20t80 -38t54.5 -59t20 -83q0 -36 -12 -68t-36 -55t-60 -36.5t-83 -13.5q-44 0 -80 13.5t-57 32.5v35q31 -26 63.5 -39t73.5 -13q74 0 115.5 39t41.5 105q0 43 -18.5 73t-51.5 50.5t-79 32.5t-100 18l18 255h250v-30h-222z" />
    <glyph glyph-name="six" unicode="6" horiz-adv-x="460" 
d="M288 594l-154 -232l-42 -65q23 30 60 50.5t80 20.5q40 0 75.5 -12.5t61.5 -36.5t41 -59t15 -79q0 -37 -12.5 -71t-37 -60.5t-60.5 -42t-83 -15.5q-46 0 -82 15.5t-60.5 42t-37 60.5t-12.5 71q0 54 18 99.5t44 85.5l149 228h37zM72 181q0 -36 12.5 -65.5t34 -50.5
t50.5 -32.5t63 -11.5t63 11.5t50.5 32.5t34 50.5t12.5 65.5t-12 65t-33.5 50t-51 32t-63.5 11q-33 0 -62.5 -11t-51 -32t-34 -50t-12.5 -65z" />
    <glyph glyph-name="seven" unicode="7" horiz-adv-x="381" 
d="M10 564v30h351v-28l-269 -566h-35l269 564h-316z" />
    <glyph glyph-name="eight" unicode="8" horiz-adv-x="484" 
d="M242 328q25 0 48 8t40.5 23.5t27.5 38.5t10 52q0 30 -10 53t-27.5 38.5t-40.5 24t-48 8.5q-26 0 -48.5 -8.5t-40 -24t-27.5 -38.5t-10 -53q0 -29 10 -52t27.5 -38.5t40 -23.5t48.5 -8zM242 20q32 0 61 9t50.5 26.5t34 43.5t12.5 61q0 36 -13 62t-34.5 43.5t-50.5 26
t-60 8.5q-32 0 -60.5 -8.5t-50 -26t-34.5 -43.5t-13 -62q0 -35 12.5 -61t34 -43.5t50.5 -26.5t61 -9zM242 -8q-41 0 -76 11t-60.5 32.5t-40.5 52.5t-15 72q0 32 11 59t29.5 47t43 32.5t50.5 17.5q-19 6 -37 16.5t-32.5 27t-23 39t-8.5 51.5q0 36 12.5 64t34 47.5t50.5 30
t62 10.5t62 -10.5t50.5 -30t34 -47.5t12.5 -64q0 -29 -8.5 -51.5t-23 -39t-32.5 -27t-37 -16.5q26 -5 50.5 -17.5t43 -32.5t29.5 -47t11 -59q0 -41 -15 -72t-40.5 -52.5t-61 -32.5t-75.5 -11z" />
    <glyph glyph-name="nine" unicode="9" horiz-adv-x="460" 
d="M172 0l154 232l42 65q-23 -30 -60 -50.5t-80 -20.5q-41 0 -76 12.5t-61 36.5t-41 59t-15 79q0 37 12.5 71t37 60t60.5 42t83 16q46 0 82 -16t60.5 -42t37 -60t12.5 -71q0 -54 -18 -99.5t-44 -85.5l-149 -228h-37zM388 413q0 36 -12.5 65.5t-34 50.5t-50.5 32.5t-63 11.5
t-63 -11.5t-50.5 -32.5t-34 -50.5t-12.5 -65.5t12 -65t33.5 -50t51 -32t63.5 -11q33 0 62.5 11t51 32t34 50t12.5 65z" />
    <glyph glyph-name="colon" unicode=":" horiz-adv-x="196" 
d="M70 26q0 12 8 20t20 8t20 -8t8 -20t-8 -20t-20 -8t-20 8t-8 20zM70 386q0 12 8 20t20 8t20 -8t8 -20t-8 -20t-20 -8t-20 8t-8 20z" />
    <glyph glyph-name="semicolon" unicode=";" horiz-adv-x="196" 
d="M121 65q0 -29 -8 -58t-21 -55t-30 -47t-35 -33h-28q36 32 61 83.5t25 109.5h36zM73 386q0 12 8 20t20 8t20 -8t8 -20t-8 -20t-20 -8t-20 8t-8 20z" />
    <glyph glyph-name="less" unicode="&#x3c;" horiz-adv-x="319" 
d="M25 293l259 159v-35l-208 -126l208 -126v-35l-259 159v4z" />
    <glyph glyph-name="equal" unicode="=" horiz-adv-x="440" 
d="M42 248h356v-29h-356v29zM42 368h356v-29h-356v29z" />
    <glyph glyph-name="greater" unicode="&#x3e;" horiz-adv-x="319" 
d="M294 289l-259 -159v35l208 126l-208 126v35l259 -159v-4z" />
    <glyph glyph-name="question" unicode="?" horiz-adv-x="379" 
d="M28 533q21 29 62.5 49t89.5 20q42 0 73.5 -12.5t52.5 -34.5t31.5 -51.5t10.5 -62.5q0 -46 -16.5 -79t-42 -55.5t-55.5 -37t-56 -24.5v-88h-34v106q37 13 68 28.5t53.5 36.5t35.5 48.5t13 65.5q0 26 -8.5 49.5t-25 41t-41.5 28t-59 10.5q-89 0 -152 -77v39zM135 26
q0 12 8 20t20 8t20 -8t8 -20t-8 -20t-20 -8t-20 8t-8 20z" />
    <glyph glyph-name="at" unicode="@" horiz-adv-x="768" 
d="M539 61q33 12 60.5 30.5t48 45.5t31.5 63t11 82q0 60 -20.5 108.5t-57.5 83t-89 53.5t-115 19q-78 0 -139.5 -26t-104 -71t-64.5 -104.5t-22 -126.5q0 -91 33 -154t85 -102.5t115 -57.5t122 -18q63 0 110.5 9.5t95.5 28.5v-31q-37 -16 -87.5 -26.5t-118.5 -10.5
q-65 0 -134 19.5t-125.5 62.5t-92.5 112t-36 168q0 76 25.5 141.5t73 113.5t114.5 75t150 27q72 0 130 -21.5t99 -60t63 -92.5t22 -119q0 -63 -22 -112.5t-61 -83.5t-93 -52t-118 -18q-46 0 -84.5 13.5t-66.5 38.5t-43.5 61t-15.5 81q0 91 54.5 143.5t148.5 52.5
q31 0 62.5 -6.5t55.5 -17.5v-321zM507 362q-14 5 -37.5 9.5t-48.5 4.5q-36 0 -67.5 -10t-54 -30.5t-35.5 -51.5t-13 -74q0 -76 48 -120.5t128 -44.5q22 0 43 2.5t37 6.5v308z" />
    <glyph glyph-name="A" unicode="A" horiz-adv-x="537" 
d="M417 180h-299l-69 -180h-35l233 594h41l235 -594h-35zM130 210h275l-139 353z" />
    <glyph glyph-name="B" unicode="B" horiz-adv-x="469" 
d="M403 450q0 -63 -39 -101t-101 -46q35 -2 64.5 -12.5t51.5 -29t34 -44.5t12 -59q0 -77 -54.5 -121.5t-171.5 -44.5q-24 0 -52 3t-54 8v592q27 3 54 5t48 2q57 0 97 -11t64.5 -31t35.5 -48t11 -62zM127 29q17 -3 36 -4.5t36 -1.5q100 0 145.5 33.5t45.5 101.5
q0 65 -52 96.5t-146 31.5h-65v-257zM127 316h64q82 0 129.5 34t47.5 100q0 64 -45.5 93t-127.5 29q-31 0 -68 -3v-253z" />
    <glyph glyph-name="C" unicode="C" horiz-adv-x="567" 
d="M512 517q-33 29 -76.5 41.5t-87.5 12.5q-54 0 -102 -19t-84 -54.5t-57 -86t-21 -114.5q0 -63 21.5 -114t58.5 -86.5t87 -54.5t107 -19q45 0 87 10.5t77 36.5v-36q-28 -21 -73.5 -31.5t-90.5 -10.5q-67 0 -123.5 22t-97.5 62t-64 96t-23 125q0 67 22.5 123.5t62.5 96.5
t94.5 62.5t118.5 22.5q45 0 87 -11t77 -34v-40z" />
    <glyph glyph-name="D" unicode="D" horiz-adv-x="613" 
d="M93 595q33 4 58 5t42 1q99 0 169 -21.5t114.5 -60.5t65.5 -93t21 -118q0 -68 -20.5 -125.5t-64 -99.5t-110.5 -66t-160 -24q-31 0 -58 2t-57 6v594zM127 28q20 -2 39.5 -3.5t41.5 -1.5q76 0 135.5 18t100.5 53.5t63 89t22 124.5q0 61 -20.5 109.5t-62 82.5t-105 52.5
t-148.5 18.5q-17 0 -32 -0.5t-34 -2.5v-540z" />
    <glyph glyph-name="E" unicode="E" horiz-adv-x="468" 
d="M416 30v-30h-323v594h320v-30h-286v-244h269v-30h-269v-260h289z" />
    <glyph glyph-name="F" unicode="F" horiz-adv-x="422" 
d="M93 0v594h292v-30h-258v-251h239v-30h-239v-283h-34z" />
    <glyph glyph-name="G" unicode="G" horiz-adv-x="597" 
d="M84 294q0 -63 21.5 -113.5t59 -85.5t87.5 -53.5t106 -18.5q46 0 77.5 6.5t65.5 21.5v196h33v-215q-36 -19 -77.5 -29.5t-98.5 -10.5q-67 0 -123.5 22t-97.5 62t-64 95.5t-23 122.5t22.5 124t62.5 97.5t94.5 63.5t118.5 23q45 0 87 -11t77 -34v-40q-33 29 -76.5 41.5
t-87.5 12.5q-54 0 -102 -19.5t-84 -55.5t-57 -87t-21 -115z" />
    <glyph glyph-name="H" unicode="H" horiz-adv-x="661" 
d="M534 594h34v-594h-34v290h-407v-290h-34v594h34v-274h407v274z" />
    <glyph glyph-name="I" unicode="I" horiz-adv-x="220" 
d="M127 0h-34v594h34v-594z" />
    <glyph glyph-name="J" unicode="J" horiz-adv-x="343" 
d="M13 83q29 -30 60 -45t63 -15q51 0 74 26.5t23 87.5v457h34v-462q0 -72 -34.5 -106t-96.5 -34q-38 0 -70.5 14.5t-52.5 35.5v41z" />
    <glyph glyph-name="K" unicode="K" horiz-adv-x="498" 
d="M93 594h34v-594h-34v594zM427 594h45l-295 -300l316 -294h-49l-313 291z" />
    <glyph glyph-name="L" unicode="L" horiz-adv-x="412" 
d="M93 594h34v-564h265v-30h-299v594z" />
    <glyph glyph-name="M" unicode="M" horiz-adv-x="763" 
d="M363 0l-189 558l-102 -558h-34l109 594h48l187 -550l185 550h49l109 -594h-35l-102 562l-188 -562h-37z" />
    <glyph glyph-name="N" unicode="N" horiz-adv-x="647" 
d="M521 49v545h33v-594h-34l-394 545v-545h-33v594h34z" />
    <glyph glyph-name="O" unicode="O" horiz-adv-x="698" 
d="M50 297q0 68 22.5 124.5t62.5 96.5t95 62t119 22t119 -22t95 -62t62.5 -96.5t22.5 -124.5t-22.5 -124.5t-62.5 -96.5t-95 -62t-119 -22t-119 22t-95 62t-62.5 96.5t-22.5 124.5zM614 297q0 63 -20.5 114t-56 86.5t-84 54.5t-104.5 19t-104.5 -19t-84 -54.5t-56 -86.5
t-20.5 -114t20.5 -114t56 -86.5t84 -54.5t104.5 -19t104.5 19t84 54.5t56 86.5t20.5 114z" />
    <glyph glyph-name="P" unicode="P" horiz-adv-x="435" 
d="M127 266q9 -1 20 -1.5t25 -0.5q97 0 147.5 39.5t50.5 120.5q0 31 -10 58t-33 47t-60.5 31.5t-92.5 11.5q-11 0 -25 -0.5t-22 -1.5v-304zM127 0h-34v595q15 3 39 5t42 2q113 0 172 -45t59 -133q0 -89 -59 -139.5t-174 -50.5q-14 0 -25.5 0.5t-19.5 1.5v-236z" />
    <glyph glyph-name="Q" unicode="Q" horiz-adv-x="698" 
d="M50 297q0 68 22.5 124.5t62.5 96.5t95 62t119 22t119 -22t95 -62t62.5 -96.5t22.5 -124.5q0 -63 -19 -115.5t-53.5 -91.5t-81.5 -63.5t-103 -31.5l130 -131h-44l-125 128h-3q-64 0 -119 22t-95 62t-62.5 96.5t-22.5 124.5zM614 297q0 63 -20.5 114t-56 86.5t-84 54.5
t-104.5 19t-104.5 -19t-84 -54.5t-56 -86.5t-20.5 -114t20.5 -114t56 -86.5t84 -54.5t104.5 -19t104.5 19t84 54.5t56 86.5t20.5 114z" />
    <glyph glyph-name="R" unicode="R" horiz-adv-x="488" 
d="M127 0h-34v593q17 4 42.5 6.5t45.5 2.5q106 0 164.5 -44.5t58.5 -132.5q0 -38 -11 -67.5t-30.5 -51.5t-45.5 -36t-56 -20l217 -250h-44l-209 243h-98v-243zM127 272h71q78 0 124 39t46 114q0 73 -49.5 110.5t-137.5 37.5q-13 0 -28 -1t-26 -3v-297z" />
    <glyph glyph-name="S" unicode="S" horiz-adv-x="422" 
d="M42 81q36 -32 74 -45.5t80 -13.5q30 0 56 7.5t45.5 23t31 39t11.5 56.5q0 31 -10 53t-28 38.5t-44 29t-58 24.5q-35 13 -64 27t-49.5 33t-32 44.5t-11.5 61.5q0 35 13.5 62t36 45t52 27t61.5 9q40 0 76.5 -12t60.5 -33v-38q-32 28 -65 40.5t-72 12.5q-27 0 -50.5 -7.5
t-41 -21.5t-28 -35t-10.5 -49q0 -25 7 -44t22.5 -35t41 -29.5t62.5 -26.5q38 -14 68.5 -28.5t51.5 -34.5t32.5 -47t11.5 -66t-14 -68t-38.5 -48.5t-56.5 -29.5t-68 -10q-48 0 -88 13.5t-66 35.5v40z" />
    <glyph glyph-name="T" unicode="T" horiz-adv-x="470" 
d="M252 0h-34v564h-203v30h440v-30h-203v-564z" />
    <glyph glyph-name="U" unicode="U" horiz-adv-x="592" 
d="M76 594h34v-404q0 -50 17 -82t46 -51t67 -26.5t80 -7.5q79 0 145 15v556h34v-579q-45 -11 -88 -17t-91 -6q-50 0 -94 9t-77.5 32t-53 62t-19.5 99v400z" />
    <glyph glyph-name="V" unicode="V" horiz-adv-x="527" 
d="M245 0l-231 594h36l214 -556l214 556h35l-231 -594h-37z" />
    <glyph glyph-name="W" unicode="W" horiz-adv-x="750" 
d="M396 594l151 -563l156 563h33l-166 -594h-45l-150 555l-150 -555h-45l-166 594h34l156 -563l151 563h41z" />
    <glyph glyph-name="X" unicode="X" horiz-adv-x="501" 
d="M270 307l217 -307h-39l-199 281l-196 -281h-39l216 308l-201 286h39l183 -260l182 260h39z" />
    <glyph glyph-name="Y" unicode="Y" horiz-adv-x="497" 
d="M446 594h37l-218 -350v-244h-34v244l-217 350h38l197 -317z" />
    <glyph glyph-name="Z" unicode="Z" horiz-adv-x="469" 
d="M49 594h391v-26l-377 -538h383v-30h-423v27l376 537h-350v30z" />
    <glyph glyph-name="bracketleft" unicode="[" horiz-adv-x="273" 
d="M109 -112h114v-26h-144v818h144v-26h-114v-766z" />
    <glyph glyph-name="backslash" unicode="\" horiz-adv-x="383" 
d="M365 -138h-32l-310 818h32z" />
    <glyph glyph-name="bracketright" unicode="]" horiz-adv-x="273" 
d="M164 654h-114v26h144v-818h-144v26h114v766z" />
    <glyph glyph-name="asciicircum" unicode="^" horiz-adv-x="370" 
d="M345 354h-36l-124 212l-124 -212h-36l142 241h35z" />
    <glyph glyph-name="underscore" unicode="_" horiz-adv-x="432" 
d="M50 -87h332v-27h-332v27z" />
    <glyph glyph-name="grave" unicode="`" horiz-adv-x="500" 
d="M276 513l-85 152h33l85 -152h-33z" />
    <glyph glyph-name="a" unicode="a" horiz-adv-x="415" 
d="M310 220h-50q-42 0 -76 -5t-58 -17t-37.5 -31t-13.5 -47q0 -26 12.5 -45t35 -31t52 -18t64.5 -6q20 0 36.5 1.5t34.5 6.5v192zM310 314q0 48 -25.5 74t-73.5 26q-36 0 -66 -8.5t-58 -24.5v31q23 14 55.5 23t69.5 9q63 0 97 -30.5t34 -95.5v-311q-23 -7 -50.5 -11
t-53.5 -4q-92 0 -144.5 32t-52.5 96q0 68 59 98.5t158 30.5h51v65z" />
    <glyph glyph-name="b" unicode="b" horiz-adv-x="497" 
d="M80 680h33v-259q17 9 46.5 16t64.5 7q48 0 89.5 -14t72 -42t48 -70t17.5 -98q0 -54 -18 -96t-50 -71.5t-76.5 -45t-97.5 -15.5q-29 0 -65.5 5t-63.5 15v668zM417 220q0 48 -15 84.5t-41 61t-61.5 37t-75.5 12.5q-36 0 -63 -6.5t-48 -15.5v-358q20 -8 45.5 -11t50.5 -3
q99 0 153.5 54t54.5 145z" />
    <glyph glyph-name="c" unicode="c" horiz-adv-x="437" 
d="M385 372q-26 21 -58 31.5t-65 10.5q-37 0 -70 -13.5t-58 -38.5t-39.5 -61t-14.5 -82q0 -45 14.5 -81.5t39 -62t58.5 -39.5t73 -14t69.5 9t57.5 28v-32q-23 -17 -57 -26t-70 -9q-45 0 -85 16t-70 45t-47 71t-17 95t17.5 95t47.5 71t69 44t82 15q35 0 66.5 -9.5t56.5 -26.5
v-36z" />
    <glyph glyph-name="d" unicode="d" horiz-adv-x="495" 
d="M419 5q-64 -13 -124 -13q-55 0 -101 15t-79 43.5t-51 70.5t-18 96q0 56 19 98.5t51.5 71t74.5 43t87 14.5q30 0 60.5 -6.5t47.5 -15.5v258h33v-675zM386 392q-20 11 -48 17t-60 6q-41 0 -77 -13t-63 -38t-42.5 -62t-15.5 -85q0 -47 15.5 -83.5t44 -61.5t68 -38t87.5 -13
q26 0 48 1.5t43 5.5v364z" />
    <glyph glyph-name="e" unicode="e" horiz-adv-x="466" 
d="M78 227v-7q0 -46 13.5 -83t38 -62.5t58 -39t72.5 -13.5q43 0 77 11t67 39v-35q-29 -24 -67.5 -34.5t-76.5 -10.5q-44 0 -83 15t-68 44t-46 71.5t-17 97.5q0 45 15.5 86t42.5 71.5t64 48.5t81 18q81 0 127 -51.5t46 -138.5v-27h-344zM249 415q-32 0 -60 -12t-50.5 -33.5
t-37.5 -51t-20 -64.5h308q0 74 -37 117.5t-103 43.5z" />
    <glyph glyph-name="f" unicode="f" horiz-adv-x="248" 
d="M123 0h-33v408h-66v28h66v123q0 62 30.5 95.5t87.5 33.5q25 0 43.5 -6t30.5 -15v-36q-16 13 -33.5 20t-40.5 7q-42 0 -63.5 -25t-21.5 -80v-117h125v-28h-125v-408z" />
    <glyph glyph-name="g" unicode="g" horiz-adv-x="495" 
d="M386 15q-16 -10 -45 -15.5t-58 -5.5q-52 0 -95.5 14t-75 42.5t-49 70.5t-17.5 99q0 52 18 94t51 70.5t79 44t101 15.5q30 0 65.5 -7t58.5 -18v-425q0 -48 -15.5 -82.5t-41.5 -56.5t-60.5 -32.5t-71.5 -10.5q-39 0 -73 7.5t-54 19.5v34q55 -31 127 -31q31 0 59.5 8
t50 26.5t34 48.5t12.5 74v16zM386 401q-21 7 -43 10.5t-48 3.5q-51 0 -91 -14t-67.5 -40t-42 -62t-14.5 -79q0 -91 52 -144t151 -53q29 0 53 4t50 15v359z" />
    <glyph glyph-name="h" unicode="h" horiz-adv-x="495" 
d="M80 680h33v-261q33 11 67 18t66 7q83 0 128.5 -34t45.5 -110v-300h-33v292q0 37 -11.5 60.5t-30.5 37t-45 18.5t-54 5q-41 0 -75 -7.5t-58 -15.5v-390h-33v680z" />
    <glyph glyph-name="i" unicode="i" horiz-adv-x="193" 
d="M113 0h-33v436h33v-436zM96 536q-11 0 -19 7.5t-8 19.5t8 19.5t19 7.5t19 -7.5t8 -19.5t-8 -19.5t-19 -7.5z" />
    <glyph glyph-name="j" unicode="j" horiz-adv-x="193" 
d="M80 436h33v-502q0 -58 -24.5 -90t-81.5 -32q-16 0 -32 3.5t-26 8.5v31q12 -5 28 -9.5t30 -4.5q33 0 53 18.5t20 72.5v504zM96 536q-11 0 -19 7.5t-8 19.5t8 19.5t19 7.5t19 -7.5t8 -19.5t-8 -19.5t-19 -7.5z" />
    <glyph glyph-name="k" unicode="k" horiz-adv-x="434" 
d="M118 236l247 200h48l-249 -200l257 -236h-45zM113 0h-33v680h33v-680z" />
    <glyph glyph-name="l" unicode="l" horiz-adv-x="193" 
d="M113 0h-33v680h33v-680z" />
    <glyph glyph-name="m" unicode="m" horiz-adv-x="752" 
d="M380 381q17 -31 17 -79v-302h-33v297q0 34 -9.5 56.5t-26 36t-38 19t-44.5 5.5q-44 0 -78 -7t-55 -15v-392h-33v410q80 34 166 34q38 0 67 -9.5t49 -29.5q41 17 81.5 28t82.5 11q70 0 110.5 -33t40.5 -109v-302h-33v297q0 34 -9.5 56.5t-26 36t-38 19t-44.5 5.5
q-44 0 -82 -11t-64 -22z" />
    <glyph glyph-name="n" unicode="n" horiz-adv-x="495" 
d="M80 414q42 15 84.5 22.5t81.5 7.5q83 0 128.5 -34t45.5 -110v-300h-33v292q0 37 -11.5 60.5t-30.5 37t-45 18.5t-54 5q-41 0 -74 -6t-59 -12v-395h-33v414z" />
    <glyph glyph-name="o" unicode="o" horiz-adv-x="516" 
d="M46 218q0 50 15.5 91.5t44 71.5t67 46.5t85.5 16.5q46 0 85 -16.5t67.5 -46.5t44 -71.5t15.5 -91.5t-15.5 -91.5t-44 -71.5t-67.5 -46.5t-85 -16.5q-47 0 -85.5 16.5t-67 46.5t-44 71.5t-15.5 91.5zM436 218q0 44 -13 80.5t-36.5 62.5t-56.5 40t-72 14t-72 -14t-56.5 -40
t-36.5 -62.5t-13 -80.5t13 -80.5t36.5 -62.5t56.5 -40t72 -14t72 14t56.5 40t36.5 62.5t13 80.5z" />
    <glyph glyph-name="p" unicode="p" horiz-adv-x="497" 
d="M80 419q27 11 61.5 18t71.5 7q109 0 173.5 -56t64.5 -168q0 -53 -17 -95.5t-47 -72t-72 -45t-92 -15.5q-29 0 -59.5 5.5t-50.5 16.5v-194h-33v599zM417 220q0 96 -54 145.5t-150 49.5q-29 0 -55.5 -4t-44.5 -11v-356q25 -11 51.5 -17t58.5 -6q46 0 82.5 15t61 41.5
t37.5 63t13 79.5z" />
    <glyph glyph-name="q" unicode="q" horiz-adv-x="494" 
d="M418 -180h-33v194q-16 -8 -44 -15t-59 -7q-50 0 -93.5 14t-75 42.5t-49.5 71t-18 98.5q0 52 18.5 94t51.5 71.5t79 45t100 15.5q32 0 64.5 -7t58.5 -18v-599zM385 401q-21 7 -42.5 10.5t-47.5 3.5q-48 0 -87.5 -13.5t-68 -39t-44 -62t-15.5 -82.5q0 -94 54 -145.5
t148 -51.5q32 0 54.5 5t48.5 15v360z" />
    <glyph glyph-name="r" unicode="r" horiz-adv-x="301" 
d="M113 0h-33v395q67 46 148 46q18 0 32.5 -2t30.5 -6v-33q-32 9 -63 9q-35 0 -65.5 -8.5t-49.5 -20.5v-380z" />
    <glyph glyph-name="s" unicode="s" horiz-adv-x="348" 
d="M43 74q26 -26 57 -39.5t65 -13.5q48 0 76 21.5t28 66.5q0 44 -29 65t-80 39q-57 20 -86 46.5t-29 74.5q0 51 35 80.5t89 29.5q35 0 62 -9.5t48 -25.5v-38q-23 20 -50.5 32t-59.5 12q-44 0 -68 -21.5t-24 -59.5q0 -19 6 -32.5t18 -24t30.5 -19.5t43.5 -18q27 -10 50 -20
t40 -24.5t26.5 -35t9.5 -51.5q0 -30 -11 -52t-30 -36.5t-43.5 -21.5t-51.5 -7q-38 0 -71 12.5t-51 31.5v38z" />
    <glyph glyph-name="t" unicode="t" horiz-adv-x="296" 
d="M21 436h67v100h33v-100h135v-28h-135v-302q0 -47 17.5 -65t49.5 -18q22 0 39 5.5t39 18.5v-32q-15 -9 -34.5 -15t-43.5 -6q-44 0 -72 23.5t-28 82.5v308h-67v28z" />
    <glyph glyph-name="u" unicode="u" horiz-adv-x="482" 
d="M403 8q-36 -8 -69.5 -12t-65.5 -4q-97 0 -146.5 34.5t-49.5 110.5v299h33v-297q0 -36 14 -59t37.5 -36t52.5 -17.5t59 -4.5q23 0 50 2.5t52 7.5v404h33v-428z" />
    <glyph glyph-name="v" unicode="v" horiz-adv-x="398" 
d="M180 0l-173 436h35l158 -404l157 404h34l-172 -436h-39z" />
    <glyph glyph-name="w" unicode="w" horiz-adv-x="606" 
d="M437 32l130 404h32l-142 -436h-41l-113 394l-113 -394h-41l-142 436h33l130 -404l116 404h34z" />
    <glyph glyph-name="x" unicode="x" horiz-adv-x="379" 
d="M209 225l158 -225h-38l-141 201l-139 -201h-37l158 225l-149 211h38l132 -188l130 188h37z" />
    <glyph glyph-name="y" unicode="y" horiz-adv-x="413" 
d="M213 15l160 421h33l-236 -616h-33l59 153l-189 463h35z" />
    <glyph glyph-name="z" unicode="z" horiz-adv-x="399" 
d="M363 0h-326v30l282 378h-266v28h305v-28l-286 -380h291v-28z" />
    <glyph glyph-name="braceleft" unicode="{" horiz-adv-x="314" 
d="M89 271q10 -3 23 -9t25 -18t20 -31t8 -47v-169q0 -109 88 -109h21v-26h-13q-69 0 -98 34.5t-29 100.5v163q0 28 -7.5 47t-19.5 30.5t-27.5 16t-30.5 4.5h-31v26h31q15 0 30.5 4.5t27.5 16t19.5 30t7.5 47.5v163q0 66 29 100.5t98 34.5h13v-26h-21q-88 0 -88 -109v-169
q0 -28 -8 -47t-20 -31t-25 -18t-23 -9z" />
    <glyph glyph-name="bar" unicode="|" horiz-adv-x="222" 
d="M96 680h30v-818h-30v818z" />
    <glyph glyph-name="braceright" unicode="}" horiz-adv-x="314" 
d="M225 271q-10 3 -23 9t-25 18t-20 31t-8 47v169q0 109 -88 109h-21v26h13q69 0 98 -34.5t29 -100.5v-163q0 -29 7.5 -47.5t19.5 -30t27.5 -16t30.5 -4.5h31v-26h-31q-15 0 -30.5 -4.5t-27.5 -16t-19.5 -30.5t-7.5 -47v-163q0 -66 -29 -100.5t-98 -34.5h-13v26h21
q88 0 88 109v169q0 28 8 47t20 31t25 18t23 9z" />
    <glyph glyph-name="asciitilde" unicode="~" horiz-adv-x="401" 
d="M348 304q0 -43 -20.5 -68.5t-58.5 -25.5q-23 0 -40.5 11t-32.5 23.5t-30.5 23.5t-33.5 11q-24 0 -37 -18.5t-13 -47.5h-30q0 43 20.5 68.5t58.5 25.5q23 0 40 -11t32.5 -24t30.5 -24t34 -11q25 0 37.5 18.5t12.5 48.5h30z" />
    <glyph glyph-name="Adieresis" unicode="&#xc4;" horiz-adv-x="537" 
d="M417 180h-299l-69 -180h-35l233 594h41l235 -594h-35zM130 210h275l-139 353zM194 655q-11 0 -19 7.5t-8 19.5t8 19.5t19 7.5t19 -7.5t8 -19.5t-8 -19.5t-19 -7.5zM342 655q-11 0 -19 7.5t-8 19.5t8 19.5t19 7.5t19 -7.5t8 -19.5t-8 -19.5t-19 -7.5z" />
    <glyph glyph-name="Aring" unicode="&#xc5;" horiz-adv-x="537" 
d="M417 180h-299l-69 -180h-35l233 594h41l235 -594h-35zM130 210h275l-139 353zM191 702q0 32 22.5 53.5t54.5 21.5t54.5 -21.5t22.5 -53.5t-22.5 -53.5t-54.5 -21.5t-54.5 21.5t-22.5 53.5zM319 702q0 23 -13 37t-38 14q-24 0 -37.5 -14t-13.5 -37q0 -22 13.5 -36.5
t37.5 -14.5q25 0 38 14.5t13 36.5z" />
    <glyph glyph-name="Ccedilla" unicode="&#xc7;" horiz-adv-x="567" 
d="M512 517q-33 29 -76.5 41.5t-87.5 12.5q-54 0 -102 -19t-84 -54.5t-57 -86t-21 -114.5q0 -63 21.5 -114t58.5 -86.5t87 -54.5t107 -19q45 0 87 10.5t77 36.5v-36q-28 -21 -73.5 -31.5t-90.5 -10.5q-3 -42 -22.5 -79t-46.5 -60h-35q32 29 51.5 65t22.5 76q-61 4 -112 28
t-88 63.5t-57.5 93t-20.5 118.5q0 67 22.5 123.5t62.5 96.5t94.5 62.5t118.5 22.5q45 0 87 -11t77 -34v-40z" />
    <glyph glyph-name="Eacute" unicode="&#xc9;" horiz-adv-x="468" 
d="M416 30v-30h-323v594h320v-30h-286v-244h269v-30h-269v-260h289zM240 647l73 131h32l-73 -131h-32z" />
    <glyph glyph-name="Ntilde" unicode="&#xd1;" horiz-adv-x="647" 
d="M521 49v545h33v-594h-34l-394 545v-545h-33v594h34zM442 736q0 -44 -16 -69.5t-47 -25.5q-20 0 -34.5 11t-26.5 24t-23.5 24t-25.5 11q-19 0 -28.5 -18.5t-9.5 -48.5h-26q0 43 16 69t47 26q20 0 34.5 -11t26.5 -24t23.5 -24t25.5 -11q19 0 28.5 18.5t9.5 48.5h26z" />
    <glyph glyph-name="Odieresis" unicode="&#xd6;" horiz-adv-x="698" 
d="M50 297q0 68 22.5 124.5t62.5 96.5t95 62t119 22t119 -22t95 -62t62.5 -96.5t22.5 -124.5t-22.5 -124.5t-62.5 -96.5t-95 -62t-119 -22t-119 22t-95 62t-62.5 96.5t-22.5 124.5zM614 297q0 63 -20.5 114t-56 86.5t-84 54.5t-104.5 19t-104.5 -19t-84 -54.5t-56 -86.5
t-20.5 -114t20.5 -114t56 -86.5t84 -54.5t104.5 -19t104.5 19t84 54.5t56 86.5t20.5 114zM275 655q-11 0 -19 7.5t-8 19.5t8 19.5t19 7.5t19 -7.5t8 -19.5t-8 -19.5t-19 -7.5zM423 655q-11 0 -19 7.5t-8 19.5t8 19.5t19 7.5t19 -7.5t8 -19.5t-8 -19.5t-19 -7.5z" />
    <glyph glyph-name="Udieresis" unicode="&#xdc;" horiz-adv-x="592" 
d="M76 594h34v-404q0 -50 17 -82t46 -51t67 -26.5t80 -7.5q79 0 145 15v556h34v-579q-45 -11 -88 -17t-91 -6q-50 0 -94 9t-77.5 32t-53 62t-19.5 99v400zM213 655q-11 0 -19 7.5t-8 19.5t8 19.5t19 7.5t19 -7.5t8 -19.5t-8 -19.5t-19 -7.5zM361 655q-11 0 -19 7.5t-8 19.5
t8 19.5t19 7.5t19 -7.5t8 -19.5t-8 -19.5t-19 -7.5z" />
    <glyph glyph-name="aacute" unicode="&#xe1;" horiz-adv-x="415" 
d="M310 220h-50q-42 0 -76 -5t-58 -17t-37.5 -31t-13.5 -47q0 -26 12.5 -45t35 -31t52 -18t64.5 -6q20 0 36.5 1.5t34.5 6.5v192zM310 314q0 48 -25.5 74t-73.5 26q-36 0 -66 -8.5t-58 -24.5v31q23 14 55.5 23t69.5 9q63 0 97 -30.5t34 -95.5v-311q-23 -7 -50.5 -11
t-53.5 -4q-92 0 -144.5 32t-52.5 96q0 68 59 98.5t158 30.5h51v65zM193 513l85 152h33l-85 -152h-33z" />
    <glyph glyph-name="agrave" unicode="&#xe0;" horiz-adv-x="415" 
d="M310 220h-50q-42 0 -76 -5t-58 -17t-37.5 -31t-13.5 -47q0 -26 12.5 -45t35 -31t52 -18t64.5 -6q20 0 36.5 1.5t34.5 6.5v192zM310 314q0 48 -25.5 74t-73.5 26q-36 0 -66 -8.5t-58 -24.5v31q23 14 55.5 23t69.5 9q63 0 97 -30.5t34 -95.5v-311q-23 -7 -50.5 -11
t-53.5 -4q-92 0 -144.5 32t-52.5 96q0 68 59 98.5t158 30.5h51v65zM198 513l-85 152h33l85 -152h-33z" />
    <glyph glyph-name="acircumflex" unicode="&#xe2;" horiz-adv-x="415" 
d="M310 220h-50q-42 0 -76 -5t-58 -17t-37.5 -31t-13.5 -47q0 -26 12.5 -45t35 -31t52 -18t64.5 -6q20 0 36.5 1.5t34.5 6.5v192zM310 314q0 48 -25.5 74t-73.5 26q-36 0 -66 -8.5t-58 -24.5v31q23 14 55.5 23t69.5 9q63 0 97 -30.5t34 -95.5v-311q-23 -7 -50.5 -11
t-53.5 -4q-92 0 -144.5 32t-52.5 96q0 68 59 98.5t158 30.5h51v65zM321 514h-34l-81 106l-81 -106h-34l106 137h18z" />
    <glyph glyph-name="adieresis" unicode="&#xe4;" horiz-adv-x="415" 
d="M310 220h-50q-42 0 -76 -5t-58 -17t-37.5 -31t-13.5 -47q0 -26 12.5 -45t35 -31t52 -18t64.5 -6q20 0 36.5 1.5t34.5 6.5v192zM310 314q0 48 -25.5 74t-73.5 26q-36 0 -66 -8.5t-58 -24.5v31q23 14 55.5 23t69.5 9q63 0 97 -30.5t34 -95.5v-311q-23 -7 -50.5 -11
t-53.5 -4q-92 0 -144.5 32t-52.5 96q0 68 59 98.5t158 30.5h51v65zM138 536q-11 0 -19 7.5t-8 19.5t8 19.5t19 7.5t19 -7.5t8 -19.5t-8 -19.5t-19 -7.5zM286 536q-11 0 -19 7.5t-8 19.5t8 19.5t19 7.5t19 -7.5t8 -19.5t-8 -19.5t-19 -7.5z" />
    <glyph glyph-name="atilde" unicode="&#xe3;" horiz-adv-x="415" 
d="M310 220h-50q-42 0 -76 -5t-58 -17t-37.5 -31t-13.5 -47q0 -26 12.5 -45t35 -31t52 -18t64.5 -6q20 0 36.5 1.5t34.5 6.5v192zM310 314q0 48 -25.5 74t-73.5 26q-36 0 -66 -8.5t-58 -24.5v31q23 14 55.5 23t69.5 9q63 0 97 -30.5t34 -95.5v-311q-23 -7 -50.5 -11
t-53.5 -4q-92 0 -144.5 32t-52.5 96q0 68 59 98.5t158 30.5h51v65zM326 610q0 -44 -16 -69.5t-47 -25.5q-20 0 -34.5 11t-26.5 24t-23.5 24t-25.5 11q-19 0 -28.5 -18.5t-9.5 -48.5h-26q0 43 16 69t47 26q20 0 34.5 -11t26.5 -24t23.5 -24t25.5 -11q19 0 28.5 18.5t9.5 48.5
h26z" />
    <glyph glyph-name="aring" unicode="&#xe5;" horiz-adv-x="415" 
d="M310 220h-50q-42 0 -76 -5t-58 -17t-37.5 -31t-13.5 -47q0 -26 12.5 -45t35 -31t52 -18t64.5 -6q20 0 36.5 1.5t34.5 6.5v192zM310 314q0 48 -25.5 74t-73.5 26q-36 0 -66 -8.5t-58 -24.5v31q23 14 55.5 23t69.5 9q63 0 97 -30.5t34 -95.5v-311q-23 -7 -50.5 -11
t-53.5 -4q-92 0 -144.5 32t-52.5 96q0 68 59 98.5t158 30.5h51v65zM135 582q0 32 22.5 53.5t54.5 21.5t54.5 -21.5t22.5 -53.5t-22.5 -53.5t-54.5 -21.5t-54.5 21.5t-22.5 53.5zM263 582q0 23 -13 37t-38 14q-24 0 -37.5 -14t-13.5 -37q0 -22 13.5 -36.5t37.5 -14.5
q25 0 38 14.5t13 36.5z" />
    <glyph glyph-name="ccedilla" unicode="&#xe7;" horiz-adv-x="437" 
d="M385 372q-26 21 -58 31.5t-65 10.5q-37 0 -70 -13.5t-58 -38.5t-39.5 -61t-14.5 -82q0 -45 14.5 -81.5t39 -62t58.5 -39.5t73 -14t69.5 9t57.5 28v-32q-22 -17 -55 -25.5t-68 -9.5q-3 -42 -22.5 -79t-46.5 -60h-35q32 29 51.5 65t22.5 76q-41 4 -76 21.5t-61 46.5
t-41 68.5t-15 88.5q0 53 17.5 95t47.5 71t69 44t82 15q35 0 66.5 -9.5t56.5 -26.5v-36z" />
    <glyph glyph-name="eacute" unicode="&#xe9;" horiz-adv-x="466" 
d="M78 227v-7q0 -46 13.5 -83t38 -62.5t58 -39t72.5 -13.5q43 0 77 11t67 39v-35q-29 -24 -67.5 -34.5t-76.5 -10.5q-44 0 -83 15t-68 44t-46 71.5t-17 97.5q0 45 15.5 86t42.5 71.5t64 48.5t81 18q81 0 127 -51.5t46 -138.5v-27h-344zM249 415q-32 0 -60 -12t-50.5 -33.5
t-37.5 -51t-20 -64.5h308q0 74 -37 117.5t-103 43.5zM231 513l85 152h33l-85 -152h-33z" />
    <glyph glyph-name="egrave" unicode="&#xe8;" horiz-adv-x="466" 
d="M78 227v-7q0 -46 13.5 -83t38 -62.5t58 -39t72.5 -13.5q43 0 77 11t67 39v-35q-29 -24 -67.5 -34.5t-76.5 -10.5q-44 0 -83 15t-68 44t-46 71.5t-17 97.5q0 45 15.5 86t42.5 71.5t64 48.5t81 18q81 0 127 -51.5t46 -138.5v-27h-344zM249 415q-32 0 -60 -12t-50.5 -33.5
t-37.5 -51t-20 -64.5h308q0 74 -37 117.5t-103 43.5zM236 513l-85 152h33l85 -152h-33z" />
    <glyph glyph-name="ecircumflex" unicode="&#xea;" horiz-adv-x="466" 
d="M78 227v-7q0 -46 13.5 -83t38 -62.5t58 -39t72.5 -13.5q43 0 77 11t67 39v-35q-29 -24 -67.5 -34.5t-76.5 -10.5q-44 0 -83 15t-68 44t-46 71.5t-17 97.5q0 45 15.5 86t42.5 71.5t64 48.5t81 18q81 0 127 -51.5t46 -138.5v-27h-344zM249 415q-32 0 -60 -12t-50.5 -33.5
t-37.5 -51t-20 -64.5h308q0 74 -37 117.5t-103 43.5zM365 514h-34l-81 106l-81 -106h-34l106 137h18z" />
    <glyph glyph-name="edieresis" unicode="&#xeb;" horiz-adv-x="466" 
d="M78 227v-7q0 -46 13.5 -83t38 -62.5t58 -39t72.5 -13.5q43 0 77 11t67 39v-35q-29 -24 -67.5 -34.5t-76.5 -10.5q-44 0 -83 15t-68 44t-46 71.5t-17 97.5q0 45 15.5 86t42.5 71.5t64 48.5t81 18q81 0 127 -51.5t46 -138.5v-27h-344zM249 415q-32 0 -60 -12t-50.5 -33.5
t-37.5 -51t-20 -64.5h308q0 74 -37 117.5t-103 43.5zM176 536q-11 0 -19 7.5t-8 19.5t8 19.5t19 7.5t19 -7.5t8 -19.5t-8 -19.5t-19 -7.5zM324 536q-11 0 -19 7.5t-8 19.5t8 19.5t19 7.5t19 -7.5t8 -19.5t-8 -19.5t-19 -7.5z" />
    <glyph glyph-name="iacute" unicode="&#xed;" horiz-adv-x="193" 
d="M113 0h-33v436h33v-436zM81 513l85 152h33l-85 -152h-33z" />
    <glyph glyph-name="igrave" unicode="&#xec;" horiz-adv-x="193" 
d="M113 0h-33v436h33v-436zM82 513l-85 152h33l85 -152h-33z" />
    <glyph glyph-name="icircumflex" unicode="&#xee;" horiz-adv-x="193" 
d="M113 0h-33v436h33v-436zM211 514h-34l-81 106l-81 -106h-34l106 137h18z" />
    <glyph glyph-name="idieresis" unicode="&#xef;" horiz-adv-x="193" 
d="M113 0h-33v436h33v-436zM22 536q-11 0 -19 7.5t-8 19.5t8 19.5t19 7.5t19 -7.5t8 -19.5t-8 -19.5t-19 -7.5zM170 536q-11 0 -19 7.5t-8 19.5t8 19.5t19 7.5t19 -7.5t8 -19.5t-8 -19.5t-19 -7.5z" />
    <glyph glyph-name="ntilde" unicode="&#xf1;" horiz-adv-x="495" 
d="M80 414q42 15 84.5 22.5t81.5 7.5q83 0 128.5 -34t45.5 -110v-300h-33v292q0 37 -11.5 60.5t-30.5 37t-45 18.5t-54 5q-41 0 -74 -6t-59 -12v-395h-33v414zM360 610q0 -44 -16 -69.5t-47 -25.5q-20 0 -34.5 11t-26.5 24t-23.5 24t-25.5 11q-19 0 -28.5 -18.5t-9.5 -48.5
h-26q0 43 16 69t47 26q20 0 34.5 -11t26.5 -24t23.5 -24t25.5 -11q19 0 28.5 18.5t9.5 48.5h26z" />
    <glyph glyph-name="oacute" unicode="&#xf3;" horiz-adv-x="516" 
d="M46 218q0 50 15.5 91.5t44 71.5t67 46.5t85.5 16.5q46 0 85 -16.5t67.5 -46.5t44 -71.5t15.5 -91.5t-15.5 -91.5t-44 -71.5t-67.5 -46.5t-85 -16.5q-47 0 -85.5 16.5t-67 46.5t-44 71.5t-15.5 91.5zM436 218q0 44 -13 80.5t-36.5 62.5t-56.5 40t-72 14t-72 -14t-56.5 -40
t-36.5 -62.5t-13 -80.5t13 -80.5t36.5 -62.5t56.5 -40t72 -14t72 14t56.5 40t36.5 62.5t13 80.5zM239 513l85 152h33l-85 -152h-33z" />
    <glyph glyph-name="ograve" unicode="&#xf2;" horiz-adv-x="516" 
d="M46 218q0 50 15.5 91.5t44 71.5t67 46.5t85.5 16.5q46 0 85 -16.5t67.5 -46.5t44 -71.5t15.5 -91.5t-15.5 -91.5t-44 -71.5t-67.5 -46.5t-85 -16.5q-47 0 -85.5 16.5t-67 46.5t-44 71.5t-15.5 91.5zM436 218q0 44 -13 80.5t-36.5 62.5t-56.5 40t-72 14t-72 -14t-56.5 -40
t-36.5 -62.5t-13 -80.5t13 -80.5t36.5 -62.5t56.5 -40t72 -14t72 14t56.5 40t36.5 62.5t13 80.5zM244 513l-85 152h33l85 -152h-33z" />
    <glyph glyph-name="ocircumflex" unicode="&#xf4;" horiz-adv-x="516" 
d="M46 218q0 50 15.5 91.5t44 71.5t67 46.5t85.5 16.5q46 0 85 -16.5t67.5 -46.5t44 -71.5t15.5 -91.5t-15.5 -91.5t-44 -71.5t-67.5 -46.5t-85 -16.5q-47 0 -85.5 16.5t-67 46.5t-44 71.5t-15.5 91.5zM436 218q0 44 -13 80.5t-36.5 62.5t-56.5 40t-72 14t-72 -14t-56.5 -40
t-36.5 -62.5t-13 -80.5t13 -80.5t36.5 -62.5t56.5 -40t72 -14t72 14t56.5 40t36.5 62.5t13 80.5zM373 514h-34l-81 106l-81 -106h-34l106 137h18z" />
    <glyph glyph-name="odieresis" unicode="&#xf6;" horiz-adv-x="516" 
d="M46 218q0 50 15.5 91.5t44 71.5t67 46.5t85.5 16.5q46 0 85 -16.5t67.5 -46.5t44 -71.5t15.5 -91.5t-15.5 -91.5t-44 -71.5t-67.5 -46.5t-85 -16.5q-47 0 -85.5 16.5t-67 46.5t-44 71.5t-15.5 91.5zM436 218q0 44 -13 80.5t-36.5 62.5t-56.5 40t-72 14t-72 -14t-56.5 -40
t-36.5 -62.5t-13 -80.5t13 -80.5t36.5 -62.5t56.5 -40t72 -14t72 14t56.5 40t36.5 62.5t13 80.5zM184 536q-11 0 -19 7.5t-8 19.5t8 19.5t19 7.5t19 -7.5t8 -19.5t-8 -19.5t-19 -7.5zM332 536q-11 0 -19 7.5t-8 19.5t8 19.5t19 7.5t19 -7.5t8 -19.5t-8 -19.5t-19 -7.5z" />
    <glyph glyph-name="otilde" unicode="&#xf5;" horiz-adv-x="516" 
d="M46 218q0 50 15.5 91.5t44 71.5t67 46.5t85.5 16.5q46 0 85 -16.5t67.5 -46.5t44 -71.5t15.5 -91.5t-15.5 -91.5t-44 -71.5t-67.5 -46.5t-85 -16.5q-47 0 -85.5 16.5t-67 46.5t-44 71.5t-15.5 91.5zM436 218q0 44 -13 80.5t-36.5 62.5t-56.5 40t-72 14t-72 -14t-56.5 -40
t-36.5 -62.5t-13 -80.5t13 -80.5t36.5 -62.5t56.5 -40t72 -14t72 14t56.5 40t36.5 62.5t13 80.5zM377 610q0 -44 -16 -69.5t-47 -25.5q-20 0 -34.5 11t-26.5 24t-23.5 24t-25.5 11q-19 0 -28.5 -18.5t-9.5 -48.5h-26q0 43 16 69t47 26q20 0 34.5 -11t26.5 -24t23.5 -24
t25.5 -11q19 0 28.5 18.5t9.5 48.5h26z" />
    <glyph glyph-name="uacute" unicode="&#xfa;" horiz-adv-x="482" 
d="M403 8q-36 -8 -69.5 -12t-65.5 -4q-97 0 -146.5 34.5t-49.5 110.5v299h33v-297q0 -36 14 -59t37.5 -36t52.5 -17.5t59 -4.5q23 0 50 2.5t52 7.5v404h33v-428zM220 513l85 152h33l-85 -152h-33z" />
    <glyph glyph-name="ugrave" unicode="&#xf9;" horiz-adv-x="482" 
d="M403 8q-36 -8 -69.5 -12t-65.5 -4q-97 0 -146.5 34.5t-49.5 110.5v299h33v-297q0 -36 14 -59t37.5 -36t52.5 -17.5t59 -4.5q23 0 50 2.5t52 7.5v404h33v-428zM225 513l-85 152h33l85 -152h-33z" />
    <glyph glyph-name="ucircumflex" unicode="&#xfb;" horiz-adv-x="482" 
d="M403 8q-36 -8 -69.5 -12t-65.5 -4q-97 0 -146.5 34.5t-49.5 110.5v299h33v-297q0 -36 14 -59t37.5 -36t52.5 -17.5t59 -4.5q23 0 50 2.5t52 7.5v404h33v-428zM354 514h-34l-81 106l-81 -106h-34l106 137h18z" />
    <glyph glyph-name="udieresis" unicode="&#xfc;" horiz-adv-x="482" 
d="M403 8q-36 -8 -69.5 -12t-65.5 -4q-97 0 -146.5 34.5t-49.5 110.5v299h33v-297q0 -36 14 -59t37.5 -36t52.5 -17.5t59 -4.5q23 0 50 2.5t52 7.5v404h33v-428zM165 536q-11 0 -19 7.5t-8 19.5t8 19.5t19 7.5t19 -7.5t8 -19.5t-8 -19.5t-19 -7.5zM313 536q-11 0 -19 7.5
t-8 19.5t8 19.5t19 7.5t19 -7.5t8 -19.5t-8 -19.5t-19 -7.5z" />
    <glyph glyph-name="dagger" unicode="&#x2020;" horiz-adv-x="240" 
d="M20 506h86v88h28v-88h86v-29h-86v-199h-28v199h-86v29z" />
    <glyph glyph-name="degree" unicode="&#xb0;" horiz-adv-x="268" 
d="M28 494q0 45 30 74t76 29q22 0 41.5 -8t34 -21.5t22.5 -32.5t8 -41t-8 -41t-22.5 -33t-34 -22t-41.5 -8q-46 0 -76 29.5t-30 74.5zM55 494q0 -35 22 -57.5t57 -22.5t57 22.5t22 57.5t-22 57t-57 22t-57 -22t-22 -57z" />
    <glyph glyph-name="cent" unicode="&#xa2;" horiz-adv-x="441" 
d="M246 -7q-41 4 -77 21t-62.5 45.5t-41.5 68t-15 88.5q0 50 15.5 89.5t42.5 67.5t62.5 44.5t75.5 19.5v91h27v-90q33 -1 62.5 -10t53.5 -26v-37q-24 20 -54.5 30.5t-61.5 12.5v-386q38 0 67.5 9.5t55.5 28.5v-33q-22 -17 -55 -25.5t-68 -9.5v-87h-27v88zM84 215
q0 -42 12 -75.5t34 -58.5t51.5 -39.5t64.5 -18.5v384q-34 -3 -63.5 -17.5t-51.5 -39t-34.5 -58.5t-12.5 -77z" />
    <glyph glyph-name="sterling" unicode="&#xa3;" horiz-adv-x="430" 
d="M395 513q-50 59 -123 59q-62 0 -96.5 -40t-34.5 -117v-114h163v-27h-163v-58q0 -35 -4.5 -62.5t-13.5 -49.5t-22.5 -40t-31.5 -35h340v-29h-378v29q20 18 35 36.5t24.5 41t14.5 49t5 60.5v58h-76v27h76v114q0 90 43 138.5t119 48.5q40 0 72 -14t51 -36v-39z" />
    <glyph glyph-name="section" unicode="&#xa7;" horiz-adv-x="403" 
d="M32 259q0 26 9 47.5t23.5 37.5t33.5 27.5t40 18.5q-33 19 -50.5 42.5t-17.5 59.5q0 52 35.5 81t90.5 29q35 0 65 -10.5t53 -30.5v-35q-24 22 -53 35t-65 13q-42 0 -68 -22t-26 -60q0 -39 28.5 -60.5t86.5 -45.5q37 -15 66 -29t48.5 -30.5t29.5 -38t10 -51.5
q0 -26 -9 -47.5t-23.5 -37.5t-34 -27.5t-40.5 -18.5q32 -19 48.5 -42t16.5 -59q0 -52 -35.5 -81t-90.5 -29q-35 0 -66 10.5t-54 30.5v35q24 -22 54 -35t66 -13q42 0 68.5 21.5t26.5 60.5t-27 60t-85 45q-38 16 -66.5 30t-48 30.5t-29.5 37.5t-10 51zM340 237q0 22 -8.5 38.5
t-25.5 31t-43.5 27.5t-63.5 28q-7 3 -15.5 6.5t-14.5 6.5q-21 -6 -40 -16t-34 -24.5t-23.5 -33.5t-8.5 -42q0 -22 8 -38.5t25.5 -30t44 -26.5t62.5 -29q7 -4 16 -7.5t15 -6.5q21 6 40 16t34 24.5t23.5 33.5t8.5 42z" />
    <glyph glyph-name="bullet" unicode="&#x2022;" horiz-adv-x="287" 
d="M70 262q0 31 21.5 52t52.5 21t52 -21t21 -52t-21 -52.5t-52 -21.5t-52.5 21.5t-21.5 52.5z" />
    <glyph glyph-name="paragraph" unicode="&#xb6;" horiz-adv-x="394" 
d="M281 594h32v-700h-32v700zM190 316q-34 0 -65 8t-54 25t-37 43t-14 63q0 36 14 62.5t37 43.5t54 25t65 8h33v-700h-33v422z" />
    <glyph glyph-name="germandbls" unicode="&#xdf;" horiz-adv-x="475" 
d="M80 532q0 34 9.5 62.5t28 49.5t45.5 32.5t63 11.5q28 0 52 -8.5t42 -24t28 -38.5t10 -52q0 -31 -16 -56t-34.5 -47t-34.5 -42t-16 -41q0 -23 14 -40.5t35 -33t45 -31t45 -35t35 -44.5t14 -60q0 -30 -9.5 -56t-28 -45.5t-46 -30.5t-63.5 -11q-37 0 -63.5 8.5t-44.5 22.5
v38q24 -24 51 -32.5t57 -8.5q48 0 80.5 29t32.5 86q0 31 -14 52.5t-35 39t-45 33t-45 32.5t-35 37.5t-14 49.5q0 24 16 46.5t35 45t35 45.5t16 49q0 39 -27 66.5t-72 27.5q-53 0 -83 -32.5t-30 -100.5v-526h-33v532z" />
    <glyph glyph-name="registered" unicode="&#xae;" horiz-adv-x="455" 
d="M227 229q-40 0 -74 14.5t-58.5 39.5t-38.5 59t-14 73t14 73t38.5 59t58.5 39.5t74 14.5t73.5 -14.5t58.5 -39.5t39 -59t14 -73t-14 -73t-39 -59t-58.5 -39.5t-73.5 -14.5zM227 249q36 0 66 12.5t51.5 35t33.5 52.5t12 66t-12 66t-33.5 52.5t-51.5 35t-66 12.5t-66 -12.5
t-51.5 -35t-33.5 -52.5t-12 -66t12 -66t33.5 -52.5t51.5 -35t66 -12.5zM197 320h-24v192q23 5 44 5q36 0 56.5 -16t20.5 -47q0 -24 -13.5 -38t-31.5 -19l63 -77h-31l-57 72h-27v-72zM197 413h23q20 0 34.5 10t14.5 31q0 20 -13.5 30t-37.5 10q-5 0 -10.5 -0.5t-10.5 -1.5
v-79z" />
    <glyph glyph-name="copyright" unicode="&#xa9;" horiz-adv-x="693" 
d="M45 297q0 64 22.5 120t63 97t95.5 64.5t121 23.5q65 0 120.5 -23.5t95.5 -64.5t62.5 -97t22.5 -120t-22.5 -119.5t-62.5 -96.5t-95.5 -64.5t-120.5 -23.5q-66 0 -121 23.5t-95.5 64.5t-63 96.5t-22.5 119.5zM68 297q0 -61 21 -113t58 -89.5t88 -59t112 -21.5t112 21.5
t88 59t58 89.5t21 113t-21 113t-58 90t-88 59.5t-112 21.5t-112 -21.5t-88 -59.5t-58 -90t-21 -113zM175 296q0 42 14 77t39 60t59 38.5t73 13.5q31 0 58 -8.5t50 -24.5v-35q-44 38 -108 38q-33 0 -61 -11.5t-48.5 -32.5t-32 -50.5t-11.5 -64.5q0 -36 11.5 -65t32.5 -50
t49 -32.5t61 -11.5q64 0 109 38v-35q-49 -32 -110 -32q-40 0 -74 14t-58.5 38.5t-38.5 59t-14 76.5z" />
    <glyph glyph-name="trademark" unicode="&#x2122;" horiz-adv-x="613" 
d="M148 326h-28v244h-90v24h208v-24h-90v-244zM394 324l-77 235l-39 -234h-27l45 269h34l78 -238l77 238h34l45 -269h-27l-39 234l-77 -235h-27z" />
    <glyph glyph-name="acute" unicode="&#xb4;" horiz-adv-x="500" 
d="M191 513l85 152h33l-85 -152h-33z" />
    <glyph glyph-name="dieresis" unicode="&#xa8;" horiz-adv-x="500" 
d="M176 536q-11 0 -19 7.5t-8 19.5t8 19.5t19 7.5t19 -7.5t8 -19.5t-8 -19.5t-19 -7.5zM324 536q-11 0 -19 7.5t-8 19.5t8 19.5t19 7.5t19 -7.5t8 -19.5t-8 -19.5t-19 -7.5z" />
    <glyph glyph-name="notequal" unicode="&#x2260;" horiz-adv-x="440" 
d="M42 367h220l71 87h35l-71 -87h101v-28h-123l-74 -91h197v-28h-220l-71 -88h-35l71 88h-101v28h124l74 91h-198v28z" />
    <glyph glyph-name="AE" unicode="&#xc6;" horiz-adv-x="808" 
d="M753 594v-30h-286v-244h269v-30h-269v-260h289v-30h-323v180h-262l-121 -180h-36l402 594h337zM192 210h241v357z" />
    <glyph glyph-name="Oslash" unicode="&#xd8;" horiz-adv-x="698" 
d="M349 -8q-61 0 -113 19.5t-92 55.5l-65 -67h-39l85 87q-35 40 -55 93t-20 117q0 68 22.5 124.5t62.5 96.5t95 62t119 22q60 0 112 -20t92 -56l66 68h39l-85 -87q35 -40 55 -93t20 -117q0 -68 -22.5 -124.5t-62.5 -96.5t-95 -62t-119 -22zM165 89q72 -66 184 -66
q56 0 104.5 19t84 54.5t56 86.5t20.5 114q0 59 -16.5 106t-46.5 82zM532 505q-35 32 -82 49t-101 17q-56 0 -104.5 -19t-84 -54.5t-56 -86.5t-20.5 -114q0 -59 16.5 -106t45.5 -82z" />
    <glyph glyph-name="infinity" unicode="&#x221e;" horiz-adv-x="657" 
d="M261 340q-20 23 -43 36t-51 13q-38 0 -66.5 -27t-28.5 -75q0 -49 28.5 -76t66.5 -27q27 0 50.5 13t43.5 36l48 54zM347 287l48 -54q20 -23 43.5 -36t51.5 -13q38 0 66.5 27t28.5 76q0 48 -28.5 75t-66.5 27q-28 0 -51.5 -13t-43.5 -36zM284 214q-25 -27 -53.5 -43
t-64.5 -16q-26 0 -48.5 9t-40 26t-27.5 41.5t-10 55.5t10 55t27.5 41t40 26t48.5 9q36 0 64.5 -16t53.5 -43l44 -50l45 50q25 27 53 43t65 16q25 0 48 -9t40.5 -26t27.5 -41t10 -55t-10 -55.5t-27.5 -41.5t-40.5 -26t-48 -9q-37 0 -65.5 16t-52.5 43l-45 50z" />
    <glyph glyph-name="plusminus" unicode="&#xb1;" horiz-adv-x="435" 
d="M232 478v-123h163v-29h-163v-123h-29v123h-163v29h163v123h29zM40 145h355v-29h-355v29z" />
    <glyph glyph-name="lessequal" unicode="&#x2264;" horiz-adv-x="319" 
d="M24 323l259 122v-33l-199 -91l199 -91v-33l-259 122v4zM24 155h259v-29h-259v29z" />
    <glyph glyph-name="greaterequal" unicode="&#x2265;" horiz-adv-x="319" 
d="M295 319l-259 -122v33l199 91l-199 91v33l259 -122v-4zM295 126h-259v29h259v-29z" />
    <glyph glyph-name="yen" unicode="&#xa5;" horiz-adv-x="471" 
d="M80 275h128l-188 319h36l180 -309l180 309h35l-190 -319h130v-26h-140v-72h140v-26h-140v-151h-32v151h-139v26h139v72h-139v26z" />
    <glyph glyph-name="mu" unicode="&#xb5;" horiz-adv-x="482" 
d="M72 436h33v-297q0 -36 14 -59t37.5 -36t52.5 -17.5t59 -4.5q23 0 50 2.5t52 7.5v404h33v-428q-36 -8 -69.5 -12t-65.5 -4q-57 0 -99.5 13t-63.5 44v-229h-33v616z" />
    <glyph glyph-name="mu" unicode="&#x3bc;" horiz-adv-x="482" 
d="M72 436h33v-297q0 -36 14 -59t37.5 -36t52.5 -17.5t59 -4.5q23 0 50 2.5t52 7.5v404h33v-428q-36 -8 -69.5 -12t-65.5 -4q-57 0 -99.5 13t-63.5 44v-229h-33v616z" />
    <glyph glyph-name="partialdiff" unicode="&#x2202;" horiz-adv-x="515" 
d="M425 339q-21 79 -87 167.5t-179 173.5h44q55 -43 103.5 -93t84.5 -107.5t57 -122t21 -135.5q0 -51 -15.5 -93.5t-43.5 -73t-67 -47t-85 -16.5t-85 16.5t-67 46.5t-44 71t-16 91t16 92t44 72t67 46.5t85 16.5q49 0 93.5 -22.5t73.5 -82.5zM436 217q0 43 -13 79.5t-36.5 63
t-56 41t-72.5 14.5q-39 0 -71.5 -14.5t-56.5 -40.5t-37 -62.5t-13 -80.5t13 -80t37 -61.5t56.5 -40t71.5 -14.5t71.5 14.5t56.5 40t37 61.5t13 80z" />
    <glyph glyph-name="summation" unicode="&#x2211;" horiz-adv-x="411" 
d="M30 566v28h351v-28h-316l220 -358l-220 -361h316v-27h-351v27l217 361z" />
    <glyph glyph-name="product" unicode="&#x220f;" horiz-adv-x="565" 
d="M452 -180v743h-339v-743h-32v774h403v-774h-32z" />
    <glyph glyph-name="pi" unicode="&#x3c0;" horiz-adv-x="507" 
d="M472 4q-8 -5 -19.5 -8t-28.5 -3q-84 0 -84 102v313h-195v-408h-31v408h-79v28h425v-28h-89v-314q0 -36 13.5 -55t45.5 -19q13 0 23.5 3t18.5 8v-27z" />
    <glyph glyph-name="pi" unicode="&#x3d6;" horiz-adv-x="507" 
d="M472 4q-8 -5 -19.5 -8t-28.5 -3q-84 0 -84 102v313h-195v-408h-31v408h-79v28h425v-28h-89v-314q0 -36 13.5 -55t45.5 -19q13 0 23.5 3t18.5 8v-27z" />
    <glyph glyph-name="integral" unicode="&#x222b;" horiz-adv-x="283" 
d="M105 500q0 50 23 76t68 26q23 0 39 -7t28 -18v-31q-13 12 -29 19.5t-38 7.5q-58 0 -58 -75v-581q0 -50 -23 -76t-68 -26q-23 0 -39 7t-28 18v31q13 -12 29 -19.5t38 -7.5q58 0 58 75v581z" />
    <glyph glyph-name="ordfeminine" unicode="&#xaa;" horiz-adv-x="310" 
d="M238 422h-39q-64 0 -101.5 -15.5t-37.5 -60.5q0 -42 35 -58t88 -16q17 0 29 1.5t26 5.5v143zM238 495q0 77 -77 77q-29 0 -53 -7.5t-47 -20.5v32q19 12 45 19t55 7q51 0 80.5 -24.5t29.5 -76.5v-245q-19 -5 -43.5 -8.5t-44.5 -3.5q-74 0 -116 25.5t-42 76.5q0 55 46.5 80
t126.5 25h40v44z" />
    <glyph glyph-name="ordmasculine" unicode="&#xba;" horiz-adv-x="381" 
d="M20 423q0 40 12.5 73.5t35.5 56.5t54 36t69 13q37 0 68.5 -13t54 -36t35 -56.5t12.5 -73.5t-12.5 -73t-35 -56t-54 -36t-68.5 -13q-38 0 -69 13t-54 36t-35.5 56t-12.5 73zM327 423q0 69 -37.5 109t-98.5 40t-99 -40t-38 -109t38 -109t99 -40t98.5 40t37.5 109z" />
    <glyph glyph-name="Omega" unicode="&#x3a9;" horiz-adv-x="567" 
d="M283 575q-48 0 -87 -19.5t-66 -54t-41.5 -81.5t-14.5 -103q0 -53 14 -97t36.5 -79.5t49.5 -61.5t54 -44v-35h-185v29h150q-22 15 -48.5 40.5t-50 62t-39 83t-15.5 102.5q0 60 16.5 112t47.5 90.5t76 60.5t103 22t103.5 -22t76.5 -60.5t47.5 -90.5t16.5 -112
q0 -56 -15.5 -102.5t-39 -83t-50 -62t-48.5 -40.5h150v-29h-185v35q26 18 53.5 44t50 61.5t36.5 79.5t14 97q0 56 -14.5 103t-41.5 81.5t-66 54t-88 19.5z" />
    <glyph glyph-name="Omega" unicode="&#x2126;" horiz-adv-x="567" 
d="M283 575q-48 0 -87 -19.5t-66 -54t-41.5 -81.5t-14.5 -103q0 -53 14 -97t36.5 -79.5t49.5 -61.5t54 -44v-35h-185v29h150q-22 15 -48.5 40.5t-50 62t-39 83t-15.5 102.5q0 60 16.5 112t47.5 90.5t76 60.5t103 22t103.5 -22t76.5 -60.5t47.5 -90.5t16.5 -112
q0 -56 -15.5 -102.5t-39 -83t-50 -62t-48.5 -40.5h150v-29h-185v35q26 18 53.5 44t50 61.5t36.5 79.5t14 97q0 56 -14.5 103t-41.5 81.5t-66 54t-88 19.5z" />
    <glyph glyph-name="ae" unicode="&#xe6;" horiz-adv-x="737" 
d="M348 217q0 -45 14 -81.5t38 -62t57 -39t72 -13.5q83 0 145 48v-32q-29 -23 -67 -34t-78 -11q-57 0 -101.5 23t-73.5 66q-26 -38 -68 -63.5t-97 -25.5q-31 0 -58 7.5t-46.5 23t-31 38t-11.5 52.5q0 34 15.5 58.5t43.5 40.5t67.5 23.5t86.5 7.5h63q1 14 3.5 27.5t6.5 26.5
q-2 66 -34 92t-82 26q-37 0 -67.5 -9.5t-60.5 -24.5v31q28 15 60.5 23.5t67.5 8.5q54 0 90 -22t47 -74q26 45 69 70.5t97 25.5q45 0 78.5 -15.5t55.5 -43.5t33 -65.5t11 -80.5v-22h-345zM514 415q-35 0 -63.5 -12.5t-50.5 -35t-35 -54t-16 -70.5h312q-1 36 -9.5 67.5
t-26.5 55t-45.5 36.5t-65.5 13zM189 20q48 0 87 23t63 65q-22 49 -22 109h-60q-38 0 -71 -5.5t-58 -17.5t-39 -32t-14 -49q0 -24 9 -41.5t24.5 -29t36.5 -17t44 -5.5z" />
    <glyph glyph-name="oslash" unicode="&#xf8;" horiz-adv-x="516" 
d="M381 369q-48 46 -123 46q-39 0 -72 -14t-56.5 -40t-36.5 -62.5t-13 -80.5q0 -81 38 -131zM258 -8q-87 0 -143 53l-43 -45h-36l60 64q-24 29 -37 68t-13 86q0 50 15.5 91.5t44 71.5t67 46.5t85.5 16.5q43 0 79.5 -13.5t63.5 -39.5l43 45h36l-60 -64q24 -29 37 -68t13 -86
q0 -50 -15.5 -91.5t-44 -71.5t-67.5 -46.5t-85 -16.5zM135 67q48 -46 123 -46q39 0 72 14t56.5 40t36.5 62.5t13 80.5q0 81 -38 131z" />
    <glyph glyph-name="questiondown" unicode="&#xbf;" horiz-adv-x="379" 
d="M360 -97q-21 -29 -62.5 -49t-89.5 -20q-42 0 -73.5 12.5t-52.5 34.5t-31.5 51.5t-10.5 62.5q0 46 16.5 79t42 55.5t55.5 37t56 24.5v88h34v-106q-37 -13 -68 -28.5t-53.5 -36.5t-35.5 -48.5t-13 -65.5q0 -26 8.5 -49.5t25 -41t41.5 -28t59 -10.5q89 0 152 77v-39z
M253 410q0 -12 -8 -20t-20 -8t-20 8t-8 20t8 20t20 8t20 -8t8 -20z" />
    <glyph glyph-name="exclamdown" unicode="&#xa1;" horiz-adv-x="236" 
d="M135 -158h-34v437h34v-437zM90 410q0 12 8 20t20 8t20 -8t8 -20t-8 -20t-20 -8t-20 8t-8 20z" />
    <glyph glyph-name="radical" unicode="&#x221a;" horiz-adv-x="484" 
d="M459 595l-185 -595h-38l-118 343h-82v32h106l112 -338l172 558h33z" />
    <glyph glyph-name="florin" unicode="&#x192;" horiz-adv-x="331" 
d="M25 312h74l22 142q5 33 13.5 60t22.5 46.5t34.5 30.5t49.5 11q23 0 38.5 -7t26.5 -15v-32q-14 11 -29.5 18t-35.5 7q-22 0 -37 -9t-25 -24.5t-16 -37.5t-10 -49l-22 -141h111v-28h-116l-62 -406h-31l62 406h-70v28z" />
    <glyph glyph-name="approxequal" unicode="&#x2248;" horiz-adv-x="440" 
d="M42 335q26 26 49.5 37t45.5 11q23 0 43.5 -8t39.5 -17.5t38.5 -17.5t41.5 -8t47 12t51 40v-36q-26 -27 -51 -37.5t-47 -10.5q-23 0 -43 8t-39.5 17.5t-39 17.5t-41.5 8q-44 0 -95 -52v36zM42 237q26 26 49.5 37t45.5 11q23 0 43.5 -8t39.5 -17.5t38.5 -17.5t41.5 -8
t47 12t51 40v-36q-26 -27 -51 -37.5t-47 -10.5q-23 0 -43 8t-39.5 17.5t-39 17.5t-41.5 8q-44 0 -95 -52v36z" />
    <glyph glyph-name="guillemotleft" unicode="&#xab;" horiz-adv-x="378" 
d="M87 215l123 -158h-37l-123 158l123 158h37zM205 215l123 -158h-37l-123 158l123 158h37z" />
    <glyph glyph-name="guillemotright" unicode="&#xbb;" horiz-adv-x="378" 
d="M50 373h37l123 -158l-123 -158h-37l123 158zM168 373h37l123 -158l-123 -158h-37l123 158z" />
    <glyph glyph-name="ellipsis" unicode="&#x2026;" horiz-adv-x="588" 
d="M126 26q0 -12 -8 -20t-20 -8t-20 8t-8 20t8 20t20 8t20 -8t8 -20zM322 26q0 -12 -8 -20t-20 -8t-20 8t-8 20t8 20t20 8t20 -8t8 -20zM518 26q0 -12 -8 -20t-20 -8t-20 8t-8 20t8 20t20 8t20 -8t8 -20z" />
    <glyph glyph-name="Agrave" unicode="&#xc0;" horiz-adv-x="537" 
d="M417 180h-299l-69 -180h-35l233 594h41l235 -594h-35zM130 210h275l-139 353zM250 647l-73 131h32l73 -131h-32z" />
    <glyph glyph-name="Atilde" unicode="&#xc3;" horiz-adv-x="537" 
d="M417 180h-299l-69 -180h-35l233 594h41l235 -594h-35zM130 210h275l-139 353zM387 736q0 -44 -16 -69.5t-47 -25.5q-20 0 -34.5 11t-26.5 24t-23.5 24t-25.5 11q-19 0 -28.5 -18.5t-9.5 -48.5h-26q0 43 16 69t47 26q20 0 34.5 -11t26.5 -24t23.5 -24t25.5 -11
q19 0 28.5 18.5t9.5 48.5h26z" />
    <glyph glyph-name="Otilde" unicode="&#xd5;" horiz-adv-x="698" 
d="M50 297q0 68 22.5 124.5t62.5 96.5t95 62t119 22t119 -22t95 -62t62.5 -96.5t22.5 -124.5t-22.5 -124.5t-62.5 -96.5t-95 -62t-119 -22t-119 22t-95 62t-62.5 96.5t-22.5 124.5zM614 297q0 63 -20.5 114t-56 86.5t-84 54.5t-104.5 19t-104.5 -19t-84 -54.5t-56 -86.5
t-20.5 -114t20.5 -114t56 -86.5t84 -54.5t104.5 -19t104.5 19t84 54.5t56 86.5t20.5 114zM468 736q0 -44 -16 -69.5t-47 -25.5q-20 0 -34.5 11t-26.5 24t-23.5 24t-25.5 11q-19 0 -28.5 -18.5t-9.5 -48.5h-26q0 43 16 69t47 26q20 0 34.5 -11t26.5 -24t23.5 -24t25.5 -11
q19 0 28.5 18.5t9.5 48.5h26z" />
    <glyph glyph-name="OE" unicode="&#x152;" horiz-adv-x="804" 
d="M752 0h-394q-64 0 -120 21t-98 59.5t-66 93.5t-24 123t24 123t66 93.5t98 59.5t120 21h391v-30h-286v-244h269v-30h-269v-260h289v-30zM84 297q0 -63 22 -113t59.5 -84t87 -52t105.5 -18h71v534h-71q-56 0 -105.5 -18t-87 -52t-59.5 -84t-22 -113z" />
    <glyph glyph-name="oe" unicode="&#x153;" horiz-adv-x="854" 
d="M466 227v-7q0 -47 13.5 -83.5t38 -62t58 -39t72.5 -13.5q43 0 77 11.5t67 39.5v-35q-29 -25 -67.5 -35.5t-76.5 -10.5q-66 0 -118.5 32t-77.5 95q-24 -60 -74.5 -93.5t-119.5 -33.5q-47 0 -85.5 16t-67 46t-44 71.5t-15.5 92.5t15.5 92.5t44 71.5t67 46t85.5 16
q68 0 119.5 -34t74.5 -94q24 57 73 92.5t112 35.5q81 0 127 -51t46 -139v-27h-344zM436 218q0 45 -13 81.5t-36.5 62t-56.5 39.5t-72 14t-72 -14t-56.5 -39.5t-36.5 -62t-13 -81.5t13 -81.5t36.5 -62t56.5 -39.5t72 -14t72 14t56.5 39.5t36.5 62t13 81.5zM637 415
q-32 0 -59.5 -12t-50 -33t-37.5 -50.5t-21 -65.5h308q0 75 -37 118t-103 43z" />
    <glyph glyph-name="endash" unicode="&#x2013;" horiz-adv-x="572" 
d="M64 276h444v-28h-444v28z" />
    <glyph glyph-name="emdash" unicode="&#x2014;" horiz-adv-x="952" 
d="M64 276h824v-28h-824v28z" />
    <glyph glyph-name="quotedblleft" unicode="&#x201c;" horiz-adv-x="299" 
d="M70 474q0 58 27 103.5t67 66.5h28q-38 -31 -63 -71.5t-25 -98.5h-34zM175 474q0 58 27 103.5t67 66.5h28q-38 -31 -63 -71.5t-25 -98.5h-34z" />
    <glyph glyph-name="quotedblright" unicode="&#x201d;" horiz-adv-x="299" 
d="M149 644q0 -58 -27 -103.5t-67 -66.5h-28q38 31 63 71.5t25 98.5h34zM254 644q0 -58 -27 -103.5t-67 -66.5h-28q38 31 63 71.5t25 98.5h34z" />
    <glyph glyph-name="quoteleft" unicode="&#x2018;" horiz-adv-x="194" 
d="M70 474q0 58 27 103.5t67 66.5h28q-38 -31 -63 -71.5t-25 -98.5h-34z" />
    <glyph glyph-name="quoteright" unicode="&#x2019;" horiz-adv-x="194" 
d="M149 644q0 -58 -27 -103.5t-67 -66.5h-28q38 31 63 71.5t25 98.5h34z" />
    <glyph glyph-name="divide" unicode="&#xf7;" horiz-adv-x="435" 
d="M40 307h355v-29h-355v29zM188 143q0 13 8.5 21.5t20.5 8.5q13 0 21.5 -8.5t8.5 -21.5q0 -12 -8.5 -20.5t-21.5 -8.5q-12 0 -20.5 8.5t-8.5 20.5zM188 443q0 12 8.5 20.5t20.5 8.5q13 0 21.5 -8.5t8.5 -20.5q0 -13 -8.5 -21.5t-21.5 -8.5q-12 0 -20.5 8.5t-8.5 21.5z" />
    <glyph glyph-name="lozenge" unicode="&#x25ca;" horiz-adv-x="450" 
d="M207 594h36l171 -297l-171 -297h-36l-171 297zM225 569l-155 -272l155 -272l155 272z" />
    <glyph glyph-name="ydieresis" unicode="&#xff;" horiz-adv-x="413" 
d="M213 15l160 421h33l-236 -616h-33l59 153l-189 463h35zM140 536q-11 0 -19 7.5t-8 19.5t8 19.5t19 7.5t19 -7.5t8 -19.5t-8 -19.5t-19 -7.5zM288 536q-11 0 -19 7.5t-8 19.5t8 19.5t19 7.5t19 -7.5t8 -19.5t-8 -19.5t-19 -7.5z" />
    <glyph glyph-name="Ydieresis" unicode="&#x178;" horiz-adv-x="497" 
d="M446 594h37l-218 -350v-244h-34v244l-217 350h38l197 -317zM174 655q-11 0 -19 7.5t-8 19.5t8 19.5t19 7.5t19 -7.5t8 -19.5t-8 -19.5t-19 -7.5zM322 655q-11 0 -19 7.5t-8 19.5t8 19.5t19 7.5t19 -7.5t8 -19.5t-8 -19.5t-19 -7.5z" />
    <glyph glyph-name="fraction" unicode="&#x2044;" horiz-adv-x="189" 
d="M247 595h32l-337 -595h-32z" />
    <glyph glyph-name="Euro" unicode="&#x20ac;" horiz-adv-x="488" 
d="M20 360h63q7 55 27 100t51 76.5t72 48.5t90 17q73 0 131 -43v-37q-27 26 -61 38.5t-70 12.5q-85 0 -139.5 -57.5t-68.5 -155.5h217l-6 -26h-214q-1 -9 -1 -18.5v-18.5v-15.5t1 -15.5h198l-7 -26h-189q7 -50 25 -90.5t45 -69t62.5 -44t76.5 -15.5q36 0 71 13t61 39v-38
q-58 -43 -132 -43q-50 0 -91.5 17.5t-72.5 50t-50.5 78.5t-26.5 102h-62v26h60q-1 8 -1 15.5v15.5v18.5t1 18.5h-60v26z" />
    <glyph glyph-name="guilsinglleft" unicode="&#x2039;" horiz-adv-x="260" 
d="M87 215l123 -158h-37l-123 158l123 158h37z" />
    <glyph glyph-name="guilsinglright" unicode="&#x203a;" horiz-adv-x="260" 
d="M50 373h37l123 -158l-123 -158h-37l123 158z" />
    <glyph glyph-name="daggerdbl" unicode="&#x2021;" horiz-adv-x="240" 
d="M20 395h86v82h-86v29h86v88h28v-88h86v-29h-86v-82h86v-28h-86v-89h-28v89h-86v28z" />
    <glyph glyph-name="periodcentered" unicode="&#xb7;" horiz-adv-x="196" 
d="M70 261q0 12 8 20t20 8t20 -8t8 -20t-8 -20t-20 -8t-20 8t-8 20z" />
    <glyph glyph-name="quotesinglbase" unicode="&#x201a;" horiz-adv-x="194" 
d="M119 65q0 -58 -27 -103.5t-67 -66.5h-28q38 31 63 71.5t25 98.5h34z" />
    <glyph glyph-name="quotedblbase" unicode="&#x201e;" horiz-adv-x="299" 
d="M119 45q0 -58 -27 -103.5t-67 -66.5h-28q38 31 63 71.5t25 98.5h34zM224 45q0 -58 -27 -103.5t-67 -66.5h-28q38 31 63 71.5t25 98.5h34z" />
    <glyph glyph-name="perthousand" unicode="&#x2030;" horiz-adv-x="919" 
d="M40 474q0 28 10 51.5t27.5 40.5t41 26.5t49.5 9.5t49.5 -9.5t41 -26.5t27.5 -40.5t10 -51.5t-10 -51.5t-27.5 -40.5t-41 -26.5t-49.5 -9.5t-49.5 9.5t-41 26.5t-27.5 40.5t-10 51.5zM71 474q0 -46 28 -73t69 -27t69.5 27t28.5 73t-28.5 72.5t-69.5 26.5t-69 -26.5
t-28 -72.5zM579 120q0 -28 -10 -51.5t-27.5 -40t-41 -26t-50.5 -9.5q-26 0 -49.5 9.5t-41 26t-27.5 40t-10 51.5t10 52t27.5 41t41 26.5t49.5 9.5q27 0 50.5 -9.5t41 -26.5t27.5 -41t10 -52zM145 0h-33l362 595h33zM548 120q0 46 -28 73t-70 27q-41 0 -69 -27t-28 -73
q0 -45 28 -72t69 -27q42 0 70 27t28 72zM879 120q0 -28 -10 -51.5t-27.5 -40t-41 -26t-50.5 -9.5q-26 0 -49.5 9.5t-41 26t-27.5 40t-10 51.5t10 52t27.5 41t41 26.5t49.5 9.5q27 0 50.5 -9.5t41 -26.5t27.5 -41t10 -52zM848 120q0 46 -28 73t-70 27q-41 0 -69 -27t-28 -73
q0 -45 28 -72t69 -27q42 0 70 27t28 72z" />
    <glyph glyph-name="Acircumflex" unicode="&#xc2;" horiz-adv-x="537" 
d="M417 180h-299l-69 -180h-35l233 594h41l235 -594h-35zM130 210h275l-139 353zM385 641h-34l-83 101l-83 -101h-34l109 133h16z" />
    <glyph glyph-name="Ecircumflex" unicode="&#xca;" horiz-adv-x="468" 
d="M416 30v-30h-323v594h320v-30h-286v-244h269v-30h-269v-260h289zM375 641h-34l-83 101l-83 -101h-34l109 133h16z" />
    <glyph glyph-name="Aacute" unicode="&#xc1;" horiz-adv-x="537" 
d="M417 180h-299l-69 -180h-35l233 594h41l235 -594h-35zM130 210h275l-139 353zM254 647l73 131h32l-73 -131h-32z" />
    <glyph glyph-name="Edieresis" unicode="&#xcb;" horiz-adv-x="468" 
d="M416 30v-30h-323v594h320v-30h-286v-244h269v-30h-269v-260h289zM184 655q-11 0 -19 7.5t-8 19.5t8 19.5t19 7.5t19 -7.5t8 -19.5t-8 -19.5t-19 -7.5zM332 655q-11 0 -19 7.5t-8 19.5t8 19.5t19 7.5t19 -7.5t8 -19.5t-8 -19.5t-19 -7.5z" />
    <glyph glyph-name="Egrave" unicode="&#xc8;" horiz-adv-x="468" 
d="M416 30v-30h-323v594h320v-30h-286v-244h269v-30h-269v-260h289zM243 647l-73 131h32l73 -131h-32z" />
    <glyph glyph-name="Iacute" unicode="&#xcd;" horiz-adv-x="220" 
d="M127 0h-34v594h34v-594zM92 647l73 131h32l-73 -131h-32z" />
    <glyph glyph-name="Icircumflex" unicode="&#xce;" horiz-adv-x="220" 
d="M127 0h-34v594h34v-594zM227 641h-34l-83 101l-83 -101h-34l109 133h16z" />
    <glyph glyph-name="Idieresis" unicode="&#xcf;" horiz-adv-x="220" 
d="M127 0h-34v594h34v-594zM36 655q-11 0 -19 7.5t-8 19.5t8 19.5t19 7.5t19 -7.5t8 -19.5t-8 -19.5t-19 -7.5zM184 655q-11 0 -19 7.5t-8 19.5t8 19.5t19 7.5t19 -7.5t8 -19.5t-8 -19.5t-19 -7.5z" />
    <glyph glyph-name="Igrave" unicode="&#xcc;" horiz-adv-x="220" 
d="M127 0h-34v594h34v-594zM95 647l-73 131h32l73 -131h-32z" />
    <glyph glyph-name="Oacute" unicode="&#xd3;" horiz-adv-x="698" 
d="M50 297q0 68 22.5 124.5t62.5 96.5t95 62t119 22t119 -22t95 -62t62.5 -96.5t22.5 -124.5t-22.5 -124.5t-62.5 -96.5t-95 -62t-119 -22t-119 22t-95 62t-62.5 96.5t-22.5 124.5zM614 297q0 63 -20.5 114t-56 86.5t-84 54.5t-104.5 19t-104.5 -19t-84 -54.5t-56 -86.5
t-20.5 -114t20.5 -114t56 -86.5t84 -54.5t104.5 -19t104.5 19t84 54.5t56 86.5t20.5 114zM331 647l73 131h32l-73 -131h-32z" />
    <glyph glyph-name="Ocircumflex" unicode="&#xd4;" horiz-adv-x="698" 
d="M50 297q0 68 22.5 124.5t62.5 96.5t95 62t119 22t119 -22t95 -62t62.5 -96.5t22.5 -124.5t-22.5 -124.5t-62.5 -96.5t-95 -62t-119 -22t-119 22t-95 62t-62.5 96.5t-22.5 124.5zM614 297q0 63 -20.5 114t-56 86.5t-84 54.5t-104.5 19t-104.5 -19t-84 -54.5t-56 -86.5
t-20.5 -114t20.5 -114t56 -86.5t84 -54.5t104.5 -19t104.5 19t84 54.5t56 86.5t20.5 114zM466 641h-34l-83 101l-83 -101h-34l109 133h16z" />
    <glyph glyph-name="Ograve" unicode="&#xd2;" horiz-adv-x="698" 
d="M50 297q0 68 22.5 124.5t62.5 96.5t95 62t119 22t119 -22t95 -62t62.5 -96.5t22.5 -124.5t-22.5 -124.5t-62.5 -96.5t-95 -62t-119 -22t-119 22t-95 62t-62.5 96.5t-22.5 124.5zM614 297q0 63 -20.5 114t-56 86.5t-84 54.5t-104.5 19t-104.5 -19t-84 -54.5t-56 -86.5
t-20.5 -114t20.5 -114t56 -86.5t84 -54.5t104.5 -19t104.5 19t84 54.5t56 86.5t20.5 114zM334 647l-73 131h32l73 -131h-32z" />
    <glyph glyph-name="Uacute" unicode="&#xda;" horiz-adv-x="592" 
d="M76 594h34v-404q0 -50 17 -82t46 -51t67 -26.5t80 -7.5q79 0 145 15v556h34v-579q-45 -11 -88 -17t-91 -6q-50 0 -94 9t-77.5 32t-53 62t-19.5 99v400zM269 647l73 131h32l-73 -131h-32z" />
    <glyph glyph-name="Ucircumflex" unicode="&#xdb;" horiz-adv-x="592" 
d="M76 594h34v-404q0 -50 17 -82t46 -51t67 -26.5t80 -7.5q79 0 145 15v556h34v-579q-45 -11 -88 -17t-91 -6q-50 0 -94 9t-77.5 32t-53 62t-19.5 99v400zM404 641h-34l-83 101l-83 -101h-34l109 133h16z" />
    <glyph glyph-name="Ugrave" unicode="&#xd9;" horiz-adv-x="592" 
d="M76 594h34v-404q0 -50 17 -82t46 -51t67 -26.5t80 -7.5q79 0 145 15v556h34v-579q-45 -11 -88 -17t-91 -6q-50 0 -94 9t-77.5 32t-53 62t-19.5 99v400zM272 647l-73 131h32l73 -131h-32z" />
    <glyph glyph-name="dotlessi" unicode="&#x131;" horiz-adv-x="193" 
d="M113 0h-33v436h33v-436z" />
    <glyph glyph-name="circumflex" unicode="&#x2c6;" horiz-adv-x="500" 
d="M365 514h-34l-81 106l-81 -106h-34l106 137h18z" />
    <glyph glyph-name="tilde" unicode="&#x2dc;" horiz-adv-x="500" 
d="M368 610q0 -44 -16 -69.5t-47 -25.5q-20 0 -34.5 11t-26.5 24t-23.5 24t-25.5 11q-19 0 -28.5 -18.5t-9.5 -48.5h-26q0 43 16 69t47 26q20 0 34.5 -11t26.5 -24t23.5 -24t25.5 -11q19 0 28.5 18.5t9.5 48.5h26z" />
    <glyph glyph-name="macron" unicode="&#xaf;" horiz-adv-x="500" 
d="M153 563h193v-27h-193v27z" />
    <glyph glyph-name="breve" unicode="&#x2d8;" horiz-adv-x="500" 
d="M250 510q-48 0 -75.5 32t-27.5 88h28q0 -43 19.5 -68.5t55.5 -25.5t55.5 25.5t19.5 68.5h28q0 -56 -27.5 -88t-75.5 -32z" />
    <glyph glyph-name="dotaccent" unicode="&#x2d9;" horiz-adv-x="500" 
d="M250 536q-11 0 -19 7.5t-8 19.5t8 19.5t19 7.5t19 -7.5t8 -19.5t-8 -19.5t-19 -7.5z" />
    <glyph glyph-name="ring" unicode="&#x2da;" horiz-adv-x="500" 
d="M173 582q0 32 22.5 53.5t54.5 21.5t54.5 -21.5t22.5 -53.5t-22.5 -53.5t-54.5 -21.5t-54.5 21.5t-22.5 53.5zM301 582q0 23 -13 37t-38 14q-24 0 -37.5 -14t-13.5 -37q0 -22 13.5 -36.5t37.5 -14.5q25 0 38 14.5t13 36.5z" />
    <glyph glyph-name="cedilla" unicode="&#xb8;" horiz-adv-x="500" 
d="M291 8q0 -47 -20 -89t-50 -66h-35q35 31 55 71t20 84h30z" />
    <glyph glyph-name="hungarumlaut" unicode="&#x2dd;" horiz-adv-x="500" 
d="M140 513l85 152h31l-85 -152h-31zM243 513l85 152h31l-85 -152h-31z" />
    <glyph glyph-name="ogonek" unicode="&#x2db;" horiz-adv-x="500" 
d="M297 8q-42 -38 -61 -69.5t-19 -59.5q0 -20 11 -29.5t28 -9.5q14 0 25 2.5t22 9.5v-27q-22 -11 -50 -11q-27 0 -46 15t-19 47t19 65t61 67h29z" />
    <glyph glyph-name="caron" unicode="&#x2c7;" horiz-adv-x="500" 
d="M259 503h-18l-106 137h35l80 -107l80 107h35z" />
    <glyph glyph-name="Eth" unicode="&#xd0;" horiz-adv-x="620" 
d="M40 320h60v275q33 4 58 5t42 1q99 0 169 -21.5t114.5 -60.5t65.5 -93t21 -118q0 -68 -20.5 -125.5t-64 -99.5t-110.5 -66t-160 -24q-31 0 -58 2t-57 6v289h-60v30zM134 320h152v-30h-152v-262q20 -2 39.5 -3.5t41.5 -1.5q76 0 135.5 18t100.5 53.5t63 89t22 124.5
q0 61 -20.5 109.5t-62 82.5t-105 52.5t-148.5 18.5q-17 0 -32 -0.5t-34 -2.5v-248z" />
    <glyph glyph-name="currency" unicode="&#xa4;" horiz-adv-x="510" 
d="M117 189q-19 23 -29.5 51.5t-10.5 63.5t10.5 64t30.5 52l-63 63l22 21l62 -63q23 20 52.5 30.5t63.5 10.5q33 0 62.5 -10.5t52.5 -30.5l63 63l21 -21l-63 -63q20 -23 30.5 -52t10.5 -64t-10.5 -64t-30.5 -52l63 -61l-21 -21l-63 61q-23 -19 -52.5 -29.5t-62.5 -10.5
q-34 0 -63.5 10.5t-53.5 29.5l-62 -62l-21 21zM107 304q0 -33 11.5 -61t31.5 -48.5t47 -31.5t58 -11t57.5 11t46.5 31.5t31.5 48.5t11.5 61q0 34 -11.5 62t-31.5 48t-46.5 31.5t-57.5 11.5t-58 -11.5t-47 -31.5t-31.5 -48t-11.5 -62z" />
    <glyph glyph-name="zero.op" unicode="&#xe048;" horiz-adv-x="552" 
d="M45 225q0 52 17.5 94.5t48.5 73.5t73.5 48t91.5 17t91.5 -17t73.5 -48t48.5 -73.5t17.5 -94.5t-17.5 -95t-48.5 -73.5t-73.5 -47.5t-91.5 -17t-91.5 17t-73.5 47.5t-48.5 73.5t-17.5 95zM79 225q0 -46 15 -83.5t41.5 -64.5t62.5 -41.5t78 -14.5t78 14.5t62.5 41.5
t41.5 64.5t15 83.5t-15 83.5t-41.5 64.5t-62.5 41.5t-78 14.5t-78 -14.5t-62.5 -41.5t-41.5 -64.5t-15 -83.5z" />
    <glyph glyph-name="one.op" unicode="&#xe02f;" horiz-adv-x="278" 
d="M19 427l162 30v-457h-33v421l-129 -22v28z" />
    <glyph glyph-name="two.op" unicode="&#xe045;" horiz-adv-x="381" 
d="M359 30v-30h-331v27q133 84 203 154t70 141q0 51 -30.5 79t-79.5 28q-46 0 -81 -22t-69 -69v41q23 35 62.5 57t87.5 22q66 0 105 -36t39 -100q0 -41 -20 -79t-55 -74.5t-82.5 -71t-101.5 -67.5h283z" />
    <glyph glyph-name="three.op" unicode="&#xe042;" horiz-adv-x="385" 
d="M185 160q31 -3 60 -14.5t52 -30.5t37 -46t14 -61q0 -73 -49 -116.5t-133 -43.5q-44 0 -84 15.5t-62 37.5v35q32 -29 68 -44t78 -15q70 0 109 35.5t39 95.5t-46.5 93t-132.5 45v22q82 22 123 56.5t41 94.5q0 50 -33 80t-84 30t-88.5 -23.5t-66.5 -60.5v37q22 30 61.5 53
t93.5 23q35 0 63 -10.5t47.5 -29.5t30 -44t10.5 -55t-11.5 -56t-31 -46.5t-47 -35t-58.5 -21.5z" />
    <glyph glyph-name="four.op" unicode="&#xe013;" horiz-adv-x="467" 
d="M354 60h103v-27h-103v-176h-32v176h-311v23l301 395h42v-391zM51 60h271v359z" />
    <glyph glyph-name="five.op" unicode="&#xe010;" horiz-adv-x="366" 
d="M99 221q51 -6 96.5 -20t80 -38t54.5 -59t20 -83q0 -36 -12 -68t-36 -55t-60 -36.5t-83 -13.5q-44 0 -80 13.5t-57 32.5v35q31 -26 63.5 -39t73.5 -13q74 0 115.5 39t41.5 105q0 43 -18.5 73t-51.5 50.5t-79 32.5t-100 18l18 255h250v-30h-222z" />
    <glyph glyph-name="six.op" unicode="&#xe03e;" horiz-adv-x="480" 
d="M298 594l-154 -232l-42 -65q23 30 60 50.5t80 20.5q40 0 75.5 -12.5t61.5 -36.5t41 -59t15 -79q0 -37 -12.5 -71t-37 -60.5t-60.5 -42t-83 -15.5q-46 0 -82 15.5t-60.5 42t-37 60.5t-12.5 71q0 54 18 99.5t44 85.5l149 228h37zM82 181q0 -36 12.5 -65.5t34 -50.5
t50.5 -32.5t63 -11.5t63 11.5t50.5 32.5t34 50.5t12.5 65.5t-12 65t-33.5 50t-51 32t-63.5 11q-33 0 -62.5 -11t-51 -32t-34 -50t-12.5 -65z" />
    <glyph glyph-name="seven.op" unicode="&#xe03b;" horiz-adv-x="393" 
d="M14 420v30h351v-28l-269 -566h-35l269 564h-316z" />
    <glyph glyph-name="eight.op" unicode="&#xe00a;" horiz-adv-x="474" 
d="M237 328q25 0 48 8t40.5 23.5t27.5 38.5t10 52q0 30 -10 53t-27.5 38.5t-40.5 24t-48 8.5q-26 0 -48.5 -8.5t-40 -24t-27.5 -38.5t-10 -53q0 -29 10 -52t27.5 -38.5t40 -23.5t48.5 -8zM237 20q32 0 61 9t50.5 26.5t34 43.5t12.5 61q0 36 -13 62t-34.5 43.5t-50.5 26
t-60 8.5q-32 0 -60.5 -8.5t-50 -26t-34.5 -43.5t-13 -62q0 -35 12.5 -61t34 -43.5t50.5 -26.5t61 -9zM237 -8q-41 0 -76 11t-60.5 32.5t-40.5 52.5t-15 72q0 32 11 59t29.5 47t43 32.5t50.5 17.5q-19 6 -37 16.5t-32.5 27t-23 39t-8.5 51.5q0 36 12.5 64t34 47.5t50.5 30
t62 10.5t62 -10.5t50.5 -30t34 -47.5t12.5 -64q0 -29 -8.5 -51.5t-23 -39t-32.5 -27t-37 -16.5q26 -5 50.5 -17.5t43 -32.5t29.5 -47t11 -59q0 -41 -15 -72t-40.5 -52.5t-61 -32.5t-75.5 -11z" />
    <glyph glyph-name="nine.op" unicode="&#xe029;" horiz-adv-x="480" 
d="M182 -144l154 232l42 65q-23 -30 -60 -50.5t-80 -20.5q-41 0 -76 12.5t-61 36.5t-41 59t-15 79q0 37 12.5 71t37 60t60.5 42t83 16q46 0 82 -16t60.5 -42t37 -60t12.5 -71q0 -54 -18 -99.5t-44 -85.5l-149 -228h-37zM398 269q0 36 -12.5 65.5t-34 50.5t-50.5 32.5
t-63 11.5t-63 -11.5t-50.5 -32.5t-34 -50.5t-12.5 -65.5t12 -65t33.5 -50t51 -32t63.5 -11q33 0 62.5 11t51 32t34 50t12.5 65z" />
    <glyph glyph-name="registered.cap" unicode="&#xe038;" horiz-adv-x="693" 
d="M45 297q0 64 22.5 120t63 97t95.5 64.5t121 23.5q65 0 120.5 -23.5t95.5 -64.5t62.5 -97t22.5 -120t-22.5 -119.5t-62.5 -96.5t-95.5 -64.5t-120.5 -23.5q-66 0 -121 23.5t-95.5 64.5t-63 96.5t-22.5 119.5zM68 297q0 -61 21 -113t58 -89.5t88 -59t112 -21.5t112 21.5
t88 59t58 89.5t21 113t-21 113t-58 90t-88 59.5t-112 21.5t-112 -21.5t-88 -59.5t-58 -90t-21 -113zM283 118h-30v359q14 3 34.5 5t39.5 2q66 0 102 -29t36 -84q0 -45 -28 -72t-70 -33l130 -148h-36l-124 142h-54v-142zM283 286h50q43 0 71.5 20.5t28.5 64.5q0 40 -26 62.5
t-79 22.5q-11 0 -23.5 -1t-21.5 -3v-166z" />
    <glyph glyph-name="plus.op" unicode="&#xe033;" horiz-adv-x="435" 
d="M232 410v-163h163v-29h-163v-163h-29v163h-163v29h163v163h29z" />
    <glyph glyph-name="minus.op" unicode="&#xe023;" horiz-adv-x="435" 
d="M40 247h355v-29h-355v29z" />
    <glyph glyph-name="multiply.op" unicode="&#xe026;" horiz-adv-x="362" 
d="M40 353l21 20l120 -122l120 122l21 -20l-120 -122l120 -122l-21 -20l-120 121l-120 -121l-21 20l121 122z" />
    <glyph glyph-name="divide.op" unicode="&#xe007;" horiz-adv-x="435" 
d="M40 247h355v-29h-355v29zM188 83q0 13 8.5 21.5t20.5 8.5q13 0 21.5 -8.5t8.5 -21.5q0 -12 -8.5 -20.5t-21.5 -8.5q-12 0 -20.5 8.5t-8.5 20.5zM188 383q0 12 8.5 20.5t20.5 8.5q13 0 21.5 -8.5t8.5 -20.5q0 -13 -8.5 -21.5t-21.5 -8.5q-12 0 -20.5 8.5t-8.5 21.5z" />
    <glyph glyph-name="equal.op" unicode="&#xe00d;" horiz-adv-x="440" 
d="M42 188h356v-29h-356v29zM42 308h356v-29h-356v29z" />
    <glyph glyph-name="less.op" unicode="&#xe01d;" horiz-adv-x="319" 
d="M25 233l259 159v-35l-208 -126l208 -126v-35l-259 159v4z" />
    <glyph glyph-name="greater.op" unicode="&#xe016;" horiz-adv-x="319" 
d="M294 229l-259 -159v35l208 126l-208 126v35l259 -159v-4z" />
    <glyph glyph-name="commaturn" unicode="&#xe005;" horiz-adv-x="500" 
d="M207 513q0 44 20 80t55 59h26q-68 -57 -68 -139h-33z" />
    <glyph glyph-name="idotaccent" unicode="&#xe01b;" horiz-adv-x="193" 
d="M113 0h-33v436h33v-436zM96 536q-11 0 -19 7.5t-8 19.5t8 19.5t19 7.5t19 -7.5t8 -19.5t-8 -19.5t-19 -7.5z" />
    <glyph glyph-name="zero_slash.op" unicode="&#xe04b;" horiz-adv-x="552" 
d="M363 410q-41 19 -87 19q-42 0 -78 -14.5t-62.5 -41.5t-41.5 -64.5t-15 -83.5q0 -58 23 -102t63 -70zM276 21q42 0 78 14.5t62.5 41.5t41.5 64.5t15 83.5q0 58 -23.5 102t-62.5 70l-198 -357q41 -19 87 -19zM276 -8q-49 0 -91.5 17t-73.5 47.5t-48.5 73.5t-17.5 95
t17.5 94.5t48.5 73.5t73.5 48t91.5 17t91.5 -17t73.5 -48t48.5 -73.5t17.5 -94.5t-17.5 -95t-48.5 -73.5t-73.5 -47.5t-91.5 -17z" />
    <glyph glyph-name="zero_slash.lt" unicode="&#xe04a;" 
d="M349 544q-40 29 -89 29q-41 0 -74.5 -19t-58 -55t-38 -87t-13.5 -115q0 -78 19 -136t54 -93zM260 21q40 0 74 19t58.5 55t38 87t13.5 115q0 78 -19.5 136t-54.5 93l-200 -476q40 -29 90 -29zM260 -8q-50 0 -90 22t-68 62.5t-43.5 96.5t-15.5 124t15.5 124t43.5 96.5
t68 62.5t90 22q49 0 89.5 -22t68.5 -62.5t43.5 -96.5t15.5 -124t-15.5 -124t-43.5 -96.5t-68.5 -62.5t-89.5 -22z" />
    <glyph glyph-name="zero.lt" unicode="&#xe047;" 
d="M76 297q0 -64 13.5 -115t38 -87t58 -55t74.5 -19q40 0 74 19t58.5 55t38 87t13.5 115t-13.5 115t-38 87t-58.5 55t-74 19q-41 0 -74.5 -19t-58 -55t-38 -87t-13.5 -115zM43 297q0 68 15.5 124t43.5 96.5t68 62.5t90 22q49 0 89.5 -22t68.5 -62.5t43.5 -96.5t15.5 -124
t-15.5 -124t-43.5 -96.5t-68.5 -62.5t-89.5 -22q-50 0 -90 22t-68 62.5t-43.5 96.5t-15.5 124z" />
    <glyph glyph-name="one.lt" unicode="&#xe02e;" 
d="M109 560l214 42v-602h-33v565l-181 -35v30z" />
    <glyph glyph-name="two.lt" unicode="&#xe044;" 
d="M436 29v-29h-365v24q60 51 117.5 103t102 104t71.5 104t27 103q0 66 -34 100t-94 34q-51 0 -92 -25t-72 -65v39q25 32 67.5 56.5t96.5 24.5q35 0 64.5 -10t51 -30t33.5 -51t12 -73q0 -54 -28.5 -109.5t-73 -109t-98 -102t-103.5 -88.5h317z" />
    <glyph glyph-name="three.lt" unicode="&#xe041;" 
d="M257 304q31 -3 60 -14.5t52 -30.5t37 -46t14 -61q0 -73 -49 -116.5t-133 -43.5q-44 0 -84 15.5t-62 37.5v35q32 -29 68 -44t78 -15q70 0 109 35.5t39 95.5t-46.5 93t-132.5 45v22q82 22 123 56.5t41 94.5q0 50 -33 80t-84 30t-88.5 -23.5t-66.5 -60.5v37q22 30 61.5 53
t93.5 23q35 0 63 -10.5t47.5 -29.5t30 -44t10.5 -55t-11.5 -56t-31 -46.5t-47 -35t-58.5 -21.5z" />
    <glyph glyph-name="four.lt" unicode="&#xe012;" 
d="M380 203h93v-27h-93v-176h-32v176h-311v23l301 395h42v-391zM77 203h271v359z" />
    <glyph glyph-name="five.lt" unicode="&#xe00f;" 
d="M168 365q51 -6 96.5 -20t80 -38t54.5 -59t20 -83q0 -36 -12 -68t-36 -55t-60 -36.5t-83 -13.5q-44 0 -80 13.5t-57 32.5v35q31 -26 63.5 -39t73.5 -13q74 0 115.5 39t41.5 105q0 43 -18.5 73t-51.5 50.5t-79 32.5t-100 18l18 255h250v-30h-222z" />
    <glyph glyph-name="six.lt" unicode="&#xe03d;" 
d="M315 594l-154 -232l-42 -65q23 30 60 50.5t80 20.5q40 0 75.5 -12.5t61.5 -36.5t41 -59t15 -79q0 -37 -12.5 -71t-37 -60.5t-60.5 -42t-83 -15.5q-46 0 -82 15.5t-60.5 42t-37 60.5t-12.5 71q0 54 18 99.5t44 85.5l149 228h37zM99 181q0 -36 12.5 -66t34 -51t50.5 -32.5
t63 -11.5t63 11.5t50.5 32.5t34 51t12.5 66t-12 65t-33.5 50t-51 32t-63.5 11q-33 0 -62.5 -11t-51 -32t-34 -50t-12.5 -65z" />
    <glyph glyph-name="seven.lt" unicode="&#xe03a;" 
d="M64 564v30h381v-28l-269 -566h-35l269 564h-346z" />
    <glyph glyph-name="eight.lt" unicode="&#xe009;" 
d="M260 328q25 0 48 8t40.5 23.5t27.5 38.5t10 52q0 30 -10 53t-27.5 38.5t-40.5 24t-48 8.5q-26 0 -48.5 -8.5t-40 -24t-27.5 -38.5t-10 -53q0 -29 10 -52t27.5 -38.5t40 -23.5t48.5 -8zM260 20q32 0 61 9t50.5 26.5t34 43.5t12.5 61q0 36 -13 62t-34.5 43.5t-50.5 26
t-60 8.5q-32 0 -60.5 -8.5t-50 -26t-34.5 -43.5t-13 -62q0 -35 12.5 -61t34 -43.5t50.5 -26.5t61 -9zM260 -8q-41 0 -76 11t-60.5 32.5t-40.5 52.5t-15 72q0 32 11 59t29.5 47t43 32.5t50.5 17.5q-19 6 -37 16.5t-32.5 27t-23 39t-8.5 51.5q0 36 12.5 64t34 47.5t50.5 30
t62 10.5t62 -10.5t50.5 -30t34 -47.5t12.5 -64q0 -29 -8.5 -51.5t-23 -39t-32.5 -27t-37 -16.5q26 -5 50.5 -17.5t43 -32.5t29.5 -47t11 -59q0 -41 -15 -72t-40.5 -52.5t-61 -32.5t-75.5 -11z" />
    <glyph glyph-name="nine.lt" unicode="&#xe028;" 
d="M204 0l154 232l42 65q-23 -30 -60 -50.5t-80 -20.5q-41 0 -76 12.5t-61 36.5t-41 59t-15 79q0 37 12.5 71t37 60t60.5 42t83 16q46 0 82 -16t60.5 -42t37 -60t12.5 -71q0 -54 -18 -99.5t-44 -85.5l-149 -228h-37zM420 413q0 36 -12.5 66t-34 51t-50.5 32.5t-63 11.5
t-63 -11.5t-50.5 -32.5t-34 -51t-12.5 -66t12 -65t33.5 -50t51 -32t63.5 -11q33 0 62.5 11t51 32t34 50t12.5 65z" />
    <glyph glyph-name="zero_slash.ot" unicode="&#xe04c;" 
d="M39 225q0 52 17 94.5t46.5 73.5t70 48t87.5 17t87.5 -17t70 -48t46.5 -73.5t17 -94.5t-17 -95t-46.5 -73.5t-70 -47.5t-87.5 -17t-87.5 17t-70 47.5t-46.5 73.5t-17 95zM447 225q0 57 -21.5 100.5t-57.5 69.5l-195 -353q39 -21 87 -21q40 0 74 14.5t59 41.5t39.5 64.5
t14.5 83.5zM73 225q0 -57 21 -100t56 -69l195 353q-38 20 -85 20q-40 0 -74 -14.5t-59 -41.5t-39.5 -64.5t-14.5 -83.5z" />
    <glyph glyph-name="zero.ot" unicode="&#xe049;" 
d="M39 225q0 52 17 94.5t46.5 73.5t70 48t87.5 17t87.5 -17t70 -48t46.5 -73.5t17 -94.5t-17 -95t-46.5 -73.5t-70 -47.5t-87.5 -17t-87.5 17t-70 47.5t-46.5 73.5t-17 95zM73 225q0 -46 14.5 -83.5t39.5 -64.5t59 -41.5t74 -14.5t74 14.5t59 41.5t39.5 64.5t14.5 83.5
t-14.5 83.5t-39.5 64.5t-59 41.5t-74 14.5t-74 -14.5t-59 -41.5t-39.5 -64.5t-14.5 -83.5z" />
    <glyph glyph-name="one.ot" unicode="&#xe030;" 
d="M120 419l201 38v-457h-33v421l-168 -30v28z" />
    <glyph glyph-name="two.ot" unicode="&#xe046;" 
d="M425 30v-30h-331v27q133 84 203 154t70 141q0 51 -30.5 79t-79.5 28q-45 0 -80.5 -21.5t-69.5 -68.5v39q23 35 62.5 57.5t87.5 22.5q66 0 105 -36t39 -100q0 -41 -20 -79t-55 -74.5t-82.5 -71t-101.5 -67.5h283z" />
    <glyph glyph-name="three.ot" unicode="&#xe043;" 
d="M255 160q31 -3 60 -14.5t52 -30.5t37 -46t14 -61q0 -73 -49 -116.5t-133 -43.5q-44 0 -84 15.5t-62 37.5v35q32 -29 68 -44t78 -15q70 0 109 35.5t39 95.5t-46.5 93t-132.5 45v22q82 22 123 56.5t41 94.5q0 50 -33 80t-84 30t-88.5 -23.5t-66.5 -60.5v37q22 30 61.5 53
t93.5 23q35 0 63 -10.5t47.5 -29.5t30 -44t10.5 -55t-11.5 -56t-31 -46.5t-47 -35t-58.5 -21.5z" />
    <glyph glyph-name="four.ot" unicode="&#xe014;" 
d="M389 60h93v-27h-93v-176h-32v176h-311v23l301 395h42v-391zM86 60h271v359z" />
    <glyph glyph-name="five.ot" unicode="&#xe011;" 
d="M168 221q51 -6 96.5 -20t80 -38t54.5 -59t20 -83q0 -36 -12 -68t-36 -55t-60 -36.5t-83 -13.5q-44 0 -80 13.5t-57 32.5v35q31 -26 63.5 -39t73.5 -13q74 0 115.5 39t41.5 105q0 43 -18.5 73t-51.5 50.5t-79 32.5t-100 18l18 255h250v-30h-222z" />
    <glyph glyph-name="six.ot" unicode="&#xe03f;" 
d="M315 594l-154 -232l-42 -65q23 30 60 50.5t80 20.5q40 0 75.5 -12.5t61.5 -36.5t41 -59t15 -79q0 -37 -12.5 -71t-37 -60.5t-60.5 -42t-83 -15.5q-46 0 -82 15.5t-60.5 42t-37 60.5t-12.5 71q0 54 18 99.5t44 85.5l149 228h37zM99 181q0 -36 12.5 -66t34 -51t50.5 -32.5
t63 -11.5t63 11.5t50.5 32.5t34 51t12.5 66t-12 65t-33.5 50t-51 32t-63.5 11q-33 0 -62.5 -11t-51 -32t-34 -50t-12.5 -65z" />
    <glyph glyph-name="seven.ot" unicode="&#xe03c;" 
d="M68 420v30h371v-28l-269 -566h-35l269 564h-336z" />
    <glyph glyph-name="eight.ot" unicode="&#xe00b;" 
d="M260 328q25 0 48 8t40.5 23.5t27.5 38.5t10 52q0 30 -10 53t-27.5 38.5t-40.5 24t-48 8.5q-26 0 -48.5 -8.5t-40 -24t-27.5 -38.5t-10 -53q0 -29 10 -52t27.5 -38.5t40 -23.5t48.5 -8zM260 20q32 0 61 9t50.5 26.5t34 43.5t12.5 61q0 36 -13 62t-34.5 43.5t-50.5 26
t-60 8.5q-32 0 -60.5 -8.5t-50 -26t-34.5 -43.5t-13 -62q0 -35 12.5 -61t34 -43.5t50.5 -26.5t61 -9zM260 -8q-41 0 -76 11t-60.5 32.5t-40.5 52.5t-15 72q0 32 11 59t29.5 47t43 32.5t50.5 17.5q-19 6 -37 16.5t-32.5 27t-23 39t-8.5 51.5q0 36 12.5 64t34 47.5t50.5 30
t62 10.5t62 -10.5t50.5 -30t34 -47.5t12.5 -64q0 -29 -8.5 -51.5t-23 -39t-32.5 -27t-37 -16.5q26 -5 50.5 -17.5t43 -32.5t29.5 -47t11 -59q0 -41 -15 -72t-40.5 -52.5t-61 -32.5t-75.5 -11z" />
    <glyph glyph-name="nine.ot" unicode="&#xe02a;" 
d="M204 -144l154 232l42 65q-23 -30 -60 -50.5t-80 -20.5q-41 0 -76 12.5t-61 36.5t-41 59t-15 79q0 37 12.5 71t37 60t60.5 42t83 16q46 0 82 -16t60.5 -42t37 -60t12.5 -71q0 -54 -18 -99.5t-44 -85.5l-149 -228h-37zM420 269q0 36 -12.5 66t-34 51t-50.5 32.5t-63 11.5
t-63 -11.5t-50.5 -32.5t-34 -51t-12.5 -66t12 -65t33.5 -50t51 -32t63.5 -11q33 0 62.5 11t51 32t34 50t12.5 65z" />
    <glyph glyph-name="period.tab" unicode="&#xe031;" horiz-adv-x="260" 
d="M102 26q0 12 8 20t20 8t20 -8t8 -20t-8 -20t-20 -8t-20 8t-8 20z" />
    <glyph glyph-name="comma.tab" unicode="&#xe004;" horiz-adv-x="260" 
d="M150 65q0 -29 -8 -58t-21 -55t-30 -47t-35 -33h-28q36 32 61 83.5t25 109.5h36z" />
    <glyph glyph-name="colon.tab" unicode="&#xe003;" horiz-adv-x="260" 
d="M102 26q0 12 8 20t20 8t20 -8t8 -20t-8 -20t-20 -8t-20 8t-8 20zM102 386q0 12 8 20t20 8t20 -8t8 -20t-8 -20t-20 -8t-20 8t-8 20z" />
    <glyph glyph-name="semicolon.tab" unicode="&#xe039;" horiz-adv-x="260" 
d="M150 65q0 -29 -8 -58t-21 -55t-30 -47t-35 -33h-28q36 32 61 83.5t25 109.5h36zM102 386q0 12 8 20t20 8t20 -8t8 -20t-8 -20t-20 -8t-20 8t-8 20z" />
    <glyph glyph-name="space.tab" unicode="&#xe040;" horiz-adv-x="260" 
 />
    <glyph glyph-name="plusminus.op" unicode="&#xe036;" horiz-adv-x="435" 
d="M232 428v-123h163v-29h-163v-123h-29v123h-163v29h163v123h29zM40 95h355v-29h-355v29z" />
    <glyph glyph-name="lessequal.op" unicode="&#xe020;" horiz-adv-x="319" 
d="M24 263l259 122v-33l-199 -91l199 -91v-33l-259 122v4zM24 93h259v-27h-259v27z" />
    <glyph glyph-name="greaterequal.op" unicode="&#xe019;" horiz-adv-x="319" 
d="M295 259l-259 -122v33l199 91l-199 91v33l259 -122v-4zM295 66h-259v27h259v-27z" />
    <glyph glyph-name="notequal.op" unicode="&#xe02c;" horiz-adv-x="440" 
d="M42 307h220l71 87h35l-71 -87h101v-28h-123l-74 -91h197v-28h-220l-71 -88h-35l71 88h-101v28h124l74 91h-198v28z" />
    <glyph glyph-name="approxequal.op" unicode="&#xe001;" horiz-adv-x="440" 
d="M42 278q26 26 49.5 37t45.5 11q23 0 43.5 -8t39.5 -17.5t38.5 -17.5t41.5 -8t47 12t51 40v-36q-26 -27 -51 -37.5t-47 -10.5q-23 0 -43 8t-39.5 17.5t-39 17.5t-41.5 8q-44 0 -95 -52v36zM42 180q26 26 49.5 37t45.5 11q23 0 43.5 -8t39.5 -17.5t38.5 -17.5t41.5 -8
t47 12t51 40v-36q-26 -27 -51 -37.5t-47 -10.5q-23 0 -43 8t-39.5 17.5t-39 17.5t-41.5 8q-44 0 -95 -52v36z" />
    <glyph glyph-name="plus.lt" unicode="&#xe032;" 
d="M274 470v-163h163v-29h-163v-163h-29v163h-163v29h163v163h29z" />
    <glyph glyph-name="minus.lt" unicode="&#xe022;" 
d="M82 307h355v-29h-355v29z" />
    <glyph glyph-name="multiply.lt" unicode="&#xe025;" 
d="M119 413l21 20l120 -122l120 122l21 -20l-120 -122l120 -122l-21 -20l-120 121l-120 -121l-21 20l121 122z" />
    <glyph glyph-name="divide.lt" unicode="&#xe006;" 
d="M82 307h355v-29h-355v29zM230 143q0 13 8.5 21.5t20.5 8.5q13 0 21.5 -8.5t8.5 -21.5q0 -12 -8.5 -20.5t-21.5 -8.5q-12 0 -20.5 8.5t-8.5 20.5zM230 443q0 12 8.5 20.5t20.5 8.5q13 0 21.5 -8.5t8.5 -20.5q0 -13 -8.5 -21.5t-21.5 -8.5q-12 0 -20.5 8.5t-8.5 21.5z" />
    <glyph glyph-name="equal.lt" unicode="&#xe00c;" 
d="M82 248h356v-29h-356v29zM82 368h356v-29h-356v29z" />
    <glyph glyph-name="less.lt" unicode="&#xe01c;" 
d="M130 293l259 159v-35l-208 -126l208 -126v-35l-259 159v4z" />
    <glyph glyph-name="greater.lt" unicode="&#xe015;" 
d="M389 289l-259 -159v35l208 126l-208 126v35l259 -159v-4z" />
    <glyph glyph-name="plusminus.lt" unicode="&#xe035;" 
d="M274 478v-123h163v-29h-163v-123h-29v123h-163v29h163v123h29zM82 145h355v-29h-355v29z" />
    <glyph glyph-name="lessequal.lt" unicode="&#xe01f;" 
d="M130 323l259 122v-33l-199 -91l199 -91v-33l-259 122v4zM130 155h259v-29h-259v29z" />
    <glyph glyph-name="greaterequal.lt" unicode="&#xe018;" 
d="M389 319l-259 -122v33l199 91l-199 91v33l259 -122v-4zM389 126h-259v29h259v-29z" />
    <glyph glyph-name="notequal.lt" unicode="&#xe02b;" 
d="M82 367h220l71 87h35l-71 -87h101v-28h-123l-74 -91h197v-28h-220l-71 -88h-35l71 88h-101v28h124l74 91h-198v28z" />
    <glyph glyph-name="approxequal.lt" unicode="&#xe000;" 
d="M82 335q26 26 49.5 37t45.5 11q23 0 43.5 -8t39.5 -17.5t38.5 -17.5t41.5 -8t47 12t51 40v-36q-26 -27 -51 -37.5t-47 -10.5q-23 0 -43 8t-39.5 17.5t-39 17.5t-41.5 8q-44 0 -95 -52v36zM82 237q26 26 49.5 37t45.5 11q23 0 43.5 -8t39.5 -17.5t38.5 -17.5t41.5 -8
t47 12t51 40v-36q-26 -27 -51 -37.5t-47 -10.5q-23 0 -43 8t-39.5 17.5t-39 17.5t-41.5 8q-44 0 -95 -52v36z" />
    <glyph glyph-name="plus.ot" unicode="&#xe034;" 
d="M274 410v-163h163v-29h-163v-163h-29v163h-163v29h163v163h29z" />
    <glyph glyph-name="minus.ot" unicode="&#xe024;" 
d="M82 247h355v-29h-355v29z" />
    <glyph glyph-name="multiply.ot" unicode="&#xe027;" 
d="M119 353l21 20l120 -122l120 122l21 -20l-120 -122l120 -122l-21 -20l-120 121l-120 -121l-21 20l121 122z" />
    <glyph glyph-name="divide.ot" unicode="&#xe008;" 
d="M82 247h355v-29h-355v29zM230 83q0 13 8.5 21.5t20.5 8.5q13 0 21.5 -8.5t8.5 -21.5q0 -12 -8.5 -20.5t-21.5 -8.5q-12 0 -20.5 8.5t-8.5 20.5zM230 383q0 12 8.5 20.5t20.5 8.5q13 0 21.5 -8.5t8.5 -20.5q0 -13 -8.5 -21.5t-21.5 -8.5q-12 0 -20.5 8.5t-8.5 21.5z" />
    <glyph glyph-name="equal.ot" unicode="&#xe00e;" 
d="M82 188h356v-29h-356v29zM82 308h356v-29h-356v29z" />
    <glyph glyph-name="less.ot" unicode="&#xe01e;" 
d="M130 233l259 159v-35l-208 -126l208 -126v-35l-259 159v4z" />
    <glyph glyph-name="greater.ot" unicode="&#xe017;" 
d="M389 229l-259 -159v35l208 126l-208 126v35l259 -159v-4z" />
    <glyph glyph-name="plusminus.ot" unicode="&#xe037;" 
d="M274 428v-123h163v-29h-163v-123h-29v123h-163v29h163v123h29zM82 95h355v-29h-355v29z" />
    <glyph glyph-name="lessequal.ot" unicode="&#xe021;" 
d="M130 263l259 122v-33l-199 -91l199 -91v-33l-259 122v4zM130 93h259v-27h-259v27z" />
    <glyph glyph-name="greaterequal.ot" unicode="&#xe01a;" 
d="M389 259l-259 -122v33l199 91l-199 91v33l259 -122v-4zM389 66h-259v27h259v-27z" />
    <glyph glyph-name="notequal.ot" unicode="&#xe02d;" 
d="M82 307h220l71 87h35l-71 -87h101v-28h-123l-74 -91h197v-28h-220l-71 -88h-35l71 88h-101v28h124l74 91h-198v28z" />
    <glyph glyph-name="approxequal.ot" unicode="&#xe002;" 
d="M82 278q26 26 49.5 37t45.5 11q23 0 43.5 -8t39.5 -17.5t38.5 -17.5t41.5 -8t47 12t51 40v-36q-26 -27 -51 -37.5t-47 -10.5q-23 0 -43 8t-39.5 17.5t-39 17.5t-41.5 8q-44 0 -95 -52v36zM82 180q26 26 49.5 37t45.5 11q23 0 43.5 -8t39.5 -17.5t38.5 -17.5t41.5 -8
t47 12t51 40v-36q-26 -27 -51 -37.5t-47 -10.5q-23 0 -43 8t-39.5 17.5t-39 17.5t-41.5 8q-44 0 -95 -52v36z" />
    <glyph glyph-name="Amacron" unicode="&#x100;" horiz-adv-x="537" 
d="M417 180h-299l-69 -180h-35l233 594h41l235 -594h-35zM130 210h275l-139 353zM172 688h193v-28h-193v28z" />
    <glyph glyph-name="amacron" unicode="&#x101;" horiz-adv-x="415" 
d="M310 220h-50q-42 0 -76 -5t-58 -17t-37.5 -31t-13.5 -47q0 -26 12.5 -45t35 -31t52 -18t64.5 -6q20 0 36.5 1.5t34.5 6.5v192zM310 314q0 48 -25.5 74t-73.5 26q-36 0 -66 -8.5t-58 -24.5v31q23 14 55.5 23t69.5 9q63 0 97 -30.5t34 -95.5v-311q-23 -7 -50.5 -11
t-53.5 -4q-92 0 -144.5 32t-52.5 96q0 68 59 98.5t158 30.5h51v65zM112 563h193v-27h-193v27z" />
    <glyph glyph-name="Abreve" unicode="&#x102;" horiz-adv-x="537" 
d="M417 180h-299l-69 -180h-35l233 594h41l235 -594h-35zM130 210h275l-139 353zM268 644q-48 0 -75.5 31t-27.5 87h28q0 -43 19.5 -67.5t55.5 -24.5t55.5 24.5t19.5 67.5h28q0 -56 -27.5 -87t-75.5 -31z" />
    <glyph glyph-name="abreve" unicode="&#x103;" horiz-adv-x="415" 
d="M310 220h-50q-42 0 -76 -5t-58 -17t-37.5 -31t-13.5 -47q0 -26 12.5 -45t35 -31t52 -18t64.5 -6q20 0 36.5 1.5t34.5 6.5v192zM310 314q0 48 -25.5 74t-73.5 26q-36 0 -66 -8.5t-58 -24.5v31q23 14 55.5 23t69.5 9q63 0 97 -30.5t34 -95.5v-311q-23 -7 -50.5 -11
t-53.5 -4q-92 0 -144.5 32t-52.5 96q0 68 59 98.5t158 30.5h51v65zM212 510q-48 0 -75.5 32t-27.5 88h28q0 -43 19.5 -68.5t55.5 -25.5t55.5 25.5t19.5 68.5h28q0 -56 -27.5 -88t-75.5 -32z" />
    <glyph glyph-name="Aogonek" unicode="&#x104;" horiz-adv-x="537" 
d="M507 0q-37 -35 -54 -65t-17 -56q0 -20 11 -29.5t28 -9.5q14 0 25 2.5t22 9.5v-27q-22 -11 -50 -11q-27 0 -46 15t-19 47q0 65 77 133l-67 171h-299l-69 -180h-35l233 594h41l235 -594h-16zM130 210h275l-139 353z" />
    <glyph glyph-name="aogonek" unicode="&#x105;" horiz-adv-x="415" 
d="M310 314q0 48 -25.5 74t-73.5 26q-36 0 -66 -8.5t-58 -24.5v31q23 14 55.5 23t69.5 9q63 0 97 -30.5t34 -95.5v-311q-86 -75 -86 -128q0 -20 11 -29.5t28 -9.5q14 0 25 2.5t22 9.5v-27q-22 -11 -50 -11q-27 0 -46 15t-19 47q0 29 19.5 59.5t55.5 62.5q-16 -2 -32.5 -4
t-31.5 -2q-92 0 -144.5 32t-52.5 96q0 68 59 98.5t158 30.5h51v65zM310 220h-50q-42 0 -76 -5t-58 -17t-37.5 -31t-13.5 -47q0 -26 12.5 -45t35 -31t52 -18t64.5 -6q20 0 36.5 1.5t34.5 6.5v192z" />
    <glyph glyph-name="Cacute" unicode="&#x106;" horiz-adv-x="567" 
d="M512 517q-33 29 -76.5 41.5t-87.5 12.5q-54 0 -102 -19t-84 -54.5t-57 -86t-21 -114.5q0 -63 21.5 -114t58.5 -86.5t87 -54.5t107 -19q45 0 87 10.5t77 36.5v-36q-28 -21 -73.5 -31.5t-90.5 -10.5q-67 0 -123.5 22t-97.5 62t-64 96t-23 125q0 67 22.5 123.5t62.5 96.5
t94.5 62.5t118.5 22.5q45 0 87 -11t77 -34v-40zM328 647l73 131h32l-73 -131h-32z" />
    <glyph glyph-name="cacute" unicode="&#x107;" horiz-adv-x="437" 
d="M385 372q-26 21 -58 31.5t-65 10.5q-37 0 -70 -13.5t-58 -38.5t-39.5 -61t-14.5 -82q0 -45 14.5 -81.5t39 -62t58.5 -39.5t73 -14t69.5 9t57.5 28v-32q-23 -17 -57 -26t-70 -9q-45 0 -85 16t-70 45t-47 71t-17 95t17.5 95t47.5 71t69 44t82 15q35 0 66.5 -9.5t56.5 -26.5
v-36zM238 513l85 152h33l-85 -152h-33z" />
    <glyph glyph-name="Ccircumflex" unicode="&#x108;" horiz-adv-x="567" 
d="M512 517q-33 29 -76.5 41.5t-87.5 12.5q-54 0 -102 -19t-84 -54.5t-57 -86t-21 -114.5q0 -63 21.5 -114t58.5 -86.5t87 -54.5t107 -19q45 0 87 10.5t77 36.5v-36q-28 -21 -73.5 -31.5t-90.5 -10.5q-67 0 -123.5 22t-97.5 62t-64 96t-23 125q0 67 22.5 123.5t62.5 96.5
t94.5 62.5t118.5 22.5q45 0 87 -11t77 -34v-40zM463 641h-34l-83 101l-83 -101h-34l109 133h16z" />
    <glyph glyph-name="ccircumflex" unicode="&#x109;" horiz-adv-x="437" 
d="M385 372q-26 21 -58 31.5t-65 10.5q-37 0 -70 -13.5t-58 -38.5t-39.5 -61t-14.5 -82q0 -45 14.5 -81.5t39 -62t58.5 -39.5t73 -14t69.5 9t57.5 28v-32q-23 -17 -57 -26t-70 -9q-45 0 -85 16t-70 45t-47 71t-17 95t17.5 95t47.5 71t69 44t82 15q35 0 66.5 -9.5t56.5 -26.5
v-36zM372 514h-34l-81 106l-81 -106h-34l106 137h18z" />
    <glyph glyph-name="Cdotaccent" unicode="&#x10a;" horiz-adv-x="567" 
d="M512 517q-33 29 -76.5 41.5t-87.5 12.5q-54 0 -102 -19t-84 -54.5t-57 -86t-21 -114.5q0 -63 21.5 -114t58.5 -86.5t87 -54.5t107 -19q45 0 87 10.5t77 36.5v-36q-28 -21 -73.5 -31.5t-90.5 -10.5q-67 0 -123.5 22t-97.5 62t-64 96t-23 125q0 67 22.5 123.5t62.5 96.5
t94.5 62.5t118.5 22.5q45 0 87 -11t77 -34v-40zM346 655q-11 0 -19 7.5t-8 19.5t8 19.5t19 7.5t19 -7.5t8 -19.5t-8 -19.5t-19 -7.5z" />
    <glyph glyph-name="cdotaccent" unicode="&#x10b;" horiz-adv-x="437" 
d="M385 372q-26 21 -58 31.5t-65 10.5q-37 0 -70 -13.5t-58 -38.5t-39.5 -61t-14.5 -82q0 -45 14.5 -81.5t39 -62t58.5 -39.5t73 -14t69.5 9t57.5 28v-32q-23 -17 -57 -26t-70 -9q-45 0 -85 16t-70 45t-47 71t-17 95t17.5 95t47.5 71t69 44t82 15q35 0 66.5 -9.5t56.5 -26.5
v-36zM257 536q-11 0 -19 7.5t-8 19.5t8 19.5t19 7.5t19 -7.5t8 -19.5t-8 -19.5t-19 -7.5z" />
    <glyph glyph-name="Ccaron" unicode="&#x10c;" horiz-adv-x="567" 
d="M512 517q-33 29 -76.5 41.5t-87.5 12.5q-54 0 -102 -19t-84 -54.5t-57 -86t-21 -114.5q0 -63 21.5 -114t58.5 -86.5t87 -54.5t107 -19q45 0 87 10.5t77 36.5v-36q-28 -21 -73.5 -31.5t-90.5 -10.5q-67 0 -123.5 22t-97.5 62t-64 96t-23 125q0 67 22.5 123.5t62.5 96.5
t94.5 62.5t118.5 22.5q45 0 87 -11t77 -34v-40zM355 646h-18l-106 132h34l81 -104l81 104h34z" />
    <glyph glyph-name="ccaron" unicode="&#x10d;" horiz-adv-x="437" 
d="M385 372q-26 21 -58 31.5t-65 10.5q-37 0 -70 -13.5t-58 -38.5t-39.5 -61t-14.5 -82q0 -45 14.5 -81.5t39 -62t58.5 -39.5t73 -14t69.5 9t57.5 28v-32q-23 -17 -57 -26t-70 -9q-45 0 -85 16t-70 45t-47 71t-17 95t17.5 95t47.5 71t69 44t82 15q35 0 66.5 -9.5t56.5 -26.5
v-36zM266 503h-18l-106 137h35l80 -107l80 107h35z" />
    <glyph glyph-name="Dcaron" unicode="&#x10e;" horiz-adv-x="613" 
d="M93 595q33 4 58 5t42 1q99 0 169 -21.5t114.5 -60.5t65.5 -93t21 -118q0 -68 -20.5 -125.5t-64 -99.5t-110.5 -66t-160 -24q-31 0 -58 2t-57 6v594zM127 28q20 -2 39.5 -3.5t41.5 -1.5q76 0 135.5 18t100.5 53.5t63 89t22 124.5q0 61 -20.5 109.5t-62 82.5t-105 52.5
t-148.5 18.5q-17 0 -32 -0.5t-34 -2.5v-540zM297 646h-18l-106 132h34l81 -104l81 104h34z" />
    <glyph glyph-name="dcaron" unicode="&#x10f;" horiz-adv-x="495" 
d="M419 5q-64 -13 -124 -13q-55 0 -101 15t-79 43.5t-51 70.5t-18 96q0 56 19 98.5t51.5 71t74.5 43t87 14.5q30 0 60.5 -6.5t47.5 -15.5v258h33v-675zM386 392q-20 11 -48 17t-60 6q-41 0 -77 -13t-63 -38t-42.5 -62t-15.5 -85q0 -47 15.5 -83.5t44 -61.5t68 -38t87.5 -13
q26 0 48 1.5t43 5.5v364zM539 680l-40 -148h-30l40 148h30z" />
    <glyph glyph-name="Dcroat" unicode="&#x110;" horiz-adv-x="620" 
d="M40 320h60v275q33 4 58 5t42 1q99 0 169 -21.5t114.5 -60.5t65.5 -93t21 -118q0 -68 -20.5 -125.5t-64 -99.5t-110.5 -66t-160 -24q-31 0 -58 2t-57 6v289h-60v30zM134 320h152v-30h-152v-262q20 -2 39.5 -3.5t41.5 -1.5q76 0 135.5 18t100.5 53.5t63 89t22 124.5
q0 61 -20.5 109.5t-62 82.5t-105 52.5t-148.5 18.5q-17 0 -32 -0.5t-34 -2.5v-248z" />
    <glyph glyph-name="dcroat" unicode="&#x111;" horiz-adv-x="505" 
d="M419 561h71v-27h-71v-529q-64 -13 -124 -13q-55 0 -101 15t-79 43.5t-51 70.5t-18 96q0 56 19 98.5t51.5 71t74.5 43t87 14.5q30 0 60.5 -6.5t47.5 -15.5v112h-141v27h141v119h33v-119zM386 392q-20 11 -48 17t-60 6q-41 0 -77 -13t-63 -38t-42.5 -62t-15.5 -85
q0 -47 15.5 -83.5t44 -61.5t68 -38t87.5 -13q26 0 48 1.5t43 5.5v364z" />
    <glyph glyph-name="Emacron" unicode="&#x112;" horiz-adv-x="468" 
d="M416 30v-30h-323v594h320v-30h-286v-244h269v-30h-269v-260h289zM162 688h193v-28h-193v28z" />
    <glyph glyph-name="emacron" unicode="&#x113;" horiz-adv-x="466" 
d="M78 227v-7q0 -46 13.5 -83t38 -62.5t58 -39t72.5 -13.5q43 0 77 11t67 39v-35q-29 -24 -67.5 -34.5t-76.5 -10.5q-44 0 -83 15t-68 44t-46 71.5t-17 97.5q0 45 15.5 86t42.5 71.5t64 48.5t81 18q81 0 127 -51.5t46 -138.5v-27h-344zM249 415q-32 0 -60 -12t-50.5 -33.5
t-37.5 -51t-20 -64.5h308q0 74 -37 117.5t-103 43.5zM154 563h193v-27h-193v27z" />
    <glyph glyph-name="Ebreve" unicode="&#x114;" horiz-adv-x="468" 
d="M416 30v-30h-323v594h320v-30h-286v-244h269v-30h-269v-260h289zM258 644q-48 0 -75.5 31t-27.5 87h28q0 -43 19.5 -67.5t55.5 -24.5t55.5 24.5t19.5 67.5h28q0 -56 -27.5 -87t-75.5 -31z" />
    <glyph glyph-name="ebreve" unicode="&#x115;" horiz-adv-x="466" 
d="M78 227v-7q0 -46 13.5 -83t38 -62.5t58 -39t72.5 -13.5q43 0 77 11t67 39v-35q-29 -24 -67.5 -34.5t-76.5 -10.5q-44 0 -83 15t-68 44t-46 71.5t-17 97.5q0 45 15.5 86t42.5 71.5t64 48.5t81 18q81 0 127 -51.5t46 -138.5v-27h-344zM249 415q-32 0 -60 -12t-50.5 -33.5
t-37.5 -51t-20 -64.5h308q0 74 -37 117.5t-103 43.5zM250 510q-48 0 -75.5 32t-27.5 88h28q0 -43 19.5 -68.5t55.5 -25.5t55.5 25.5t19.5 68.5h28q0 -56 -27.5 -88t-75.5 -32z" />
    <glyph glyph-name="Edotaccent" unicode="&#x116;" horiz-adv-x="468" 
d="M416 30v-30h-323v594h320v-30h-286v-244h269v-30h-269v-260h289zM258 655q-11 0 -19 7.5t-8 19.5t8 19.5t19 7.5t19 -7.5t8 -19.5t-8 -19.5t-19 -7.5z" />
    <glyph glyph-name="edotaccent" unicode="&#x117;" horiz-adv-x="466" 
d="M78 227v-7q0 -46 13.5 -83t38 -62.5t58 -39t72.5 -13.5q43 0 77 11t67 39v-35q-29 -24 -67.5 -34.5t-76.5 -10.5q-44 0 -83 15t-68 44t-46 71.5t-17 97.5q0 45 15.5 86t42.5 71.5t64 48.5t81 18q81 0 127 -51.5t46 -138.5v-27h-344zM249 415q-32 0 -60 -12t-50.5 -33.5
t-37.5 -51t-20 -64.5h308q0 74 -37 117.5t-103 43.5zM250 536q-11 0 -19 7.5t-8 19.5t8 19.5t19 7.5t19 -7.5t8 -19.5t-8 -19.5t-19 -7.5z" />
    <glyph glyph-name="Eogonek" unicode="&#x118;" horiz-adv-x="468" 
d="M416 30v-30h-39q-37 -35 -54 -65t-17 -56q0 -20 11 -29.5t28 -9.5q14 0 25 2.5t22 9.5v-27q-22 -11 -50 -11q-27 0 -46 15t-19 47q0 30 17 61t53 63h-254v594h320v-30h-286v-244h269v-30h-269v-260h289z" />
    <glyph glyph-name="eogonek" unicode="&#x119;" horiz-adv-x="466" 
d="M78 227v-7q0 -46 13.5 -83t38 -62.5t58 -39t72.5 -13.5q43 0 77 11t67 39v-35q-11 -10 -23 -16l-26 -13q-42 -20 -66 -51t-24 -70q0 -24 12.5 -35.5t29.5 -11.5q14 0 25 2.5t22 9.5v-27q-22 -11 -50 -11q-27 0 -47.5 17t-20.5 52t17.5 64t46.5 49q-19 -4 -40 -4
q-44 0 -83 15t-68 44t-46 71.5t-17 97.5q0 45 15.5 86t42.5 71.5t64 48.5t81 18q81 0 127 -51.5t46 -138.5v-27h-344zM249 415q-32 0 -60 -12t-50.5 -33.5t-37.5 -51t-20 -64.5h308q0 74 -37 117.5t-103 43.5z" />
    <glyph glyph-name="Ecaron" unicode="&#x11a;" horiz-adv-x="468" 
d="M416 30v-30h-323v594h320v-30h-286v-244h269v-30h-269v-260h289zM267 646h-18l-106 132h34l81 -104l81 104h34z" />
    <glyph glyph-name="ecaron" unicode="&#x11b;" horiz-adv-x="466" 
d="M78 227v-7q0 -46 13.5 -83t38 -62.5t58 -39t72.5 -13.5q43 0 77 11t67 39v-35q-29 -24 -67.5 -34.5t-76.5 -10.5q-44 0 -83 15t-68 44t-46 71.5t-17 97.5q0 45 15.5 86t42.5 71.5t64 48.5t81 18q81 0 127 -51.5t46 -138.5v-27h-344zM249 415q-32 0 -60 -12t-50.5 -33.5
t-37.5 -51t-20 -64.5h308q0 74 -37 117.5t-103 43.5zM259 503h-18l-106 137h35l80 -107l80 107h35z" />
    <glyph glyph-name="Gcircumflex" unicode="&#x11c;" horiz-adv-x="597" 
d="M84 294q0 -63 21.5 -113.5t59 -85.5t87.5 -53.5t106 -18.5q46 0 77.5 6.5t65.5 21.5v196h33v-215q-36 -19 -77.5 -29.5t-98.5 -10.5q-67 0 -123.5 22t-97.5 62t-64 95.5t-23 122.5t22.5 124t62.5 97.5t94.5 63.5t118.5 23q45 0 87 -11t77 -34v-40q-33 29 -76.5 41.5
t-87.5 12.5q-54 0 -102 -19.5t-84 -55.5t-57 -87t-21 -115zM465 641h-34l-83 101l-83 -101h-34l109 133h16z" />
    <glyph glyph-name="gcircumflex" unicode="&#x11d;" horiz-adv-x="495" 
d="M386 15q-16 -10 -45 -15.5t-58 -5.5q-52 0 -95.5 14t-75 42.5t-49 70.5t-17.5 99q0 52 18 94t51 70.5t79 44t101 15.5q30 0 65.5 -7t58.5 -18v-425q0 -48 -15.5 -82.5t-41.5 -56.5t-60.5 -32.5t-71.5 -10.5q-39 0 -73 7.5t-54 19.5v34q55 -31 127 -31q31 0 59.5 8
t50 26.5t34 48.5t12.5 74v16zM386 401q-21 7 -43 10.5t-48 3.5q-51 0 -91 -14t-67.5 -40t-42 -62t-14.5 -79q0 -91 52 -144t151 -53q29 0 53 4t50 15v359zM391 514h-34l-81 106l-81 -106h-34l106 137h18z" />
    <glyph glyph-name="Gbreve" unicode="&#x11e;" horiz-adv-x="597" 
d="M84 294q0 -63 21.5 -113.5t59 -85.5t87.5 -53.5t106 -18.5q46 0 77.5 6.5t65.5 21.5v196h33v-215q-36 -19 -77.5 -29.5t-98.5 -10.5q-67 0 -123.5 22t-97.5 62t-64 95.5t-23 122.5t22.5 124t62.5 97.5t94.5 63.5t118.5 23q45 0 87 -11t77 -34v-40q-33 29 -76.5 41.5
t-87.5 12.5q-54 0 -102 -19.5t-84 -55.5t-57 -87t-21 -115zM348 644q-48 0 -75.5 31t-27.5 87h28q0 -43 19.5 -67.5t55.5 -24.5t55.5 24.5t19.5 67.5h28q0 -56 -27.5 -87t-75.5 -31z" />
    <glyph glyph-name="gbreve" unicode="&#x11f;" horiz-adv-x="495" 
d="M386 15q-16 -10 -45 -15.5t-58 -5.5q-52 0 -95.5 14t-75 42.5t-49 70.5t-17.5 99q0 52 18 94t51 70.5t79 44t101 15.5q30 0 65.5 -7t58.5 -18v-425q0 -48 -15.5 -82.5t-41.5 -56.5t-60.5 -32.5t-71.5 -10.5q-39 0 -73 7.5t-54 19.5v34q55 -31 127 -31q31 0 59.5 8
t50 26.5t34 48.5t12.5 74v16zM386 401q-21 7 -43 10.5t-48 3.5q-51 0 -91 -14t-67.5 -40t-42 -62t-14.5 -79q0 -91 52 -144t151 -53q29 0 53 4t50 15v359zM276 510q-48 0 -75.5 32t-27.5 88h28q0 -43 19.5 -68.5t55.5 -25.5t55.5 25.5t19.5 68.5h28q0 -56 -27.5 -88
t-75.5 -32z" />
    <glyph glyph-name="Gdotaccent" unicode="&#x120;" horiz-adv-x="597" 
d="M84 294q0 -63 21.5 -113.5t59 -85.5t87.5 -53.5t106 -18.5q46 0 77.5 6.5t65.5 21.5v196h33v-215q-36 -19 -77.5 -29.5t-98.5 -10.5q-67 0 -123.5 22t-97.5 62t-64 95.5t-23 122.5t22.5 124t62.5 97.5t94.5 63.5t118.5 23q45 0 87 -11t77 -34v-40q-33 29 -76.5 41.5
t-87.5 12.5q-54 0 -102 -19.5t-84 -55.5t-57 -87t-21 -115zM348 655q-11 0 -19 7.5t-8 19.5t8 19.5t19 7.5t19 -7.5t8 -19.5t-8 -19.5t-19 -7.5z" />
    <glyph glyph-name="gdotaccent" unicode="&#x121;" horiz-adv-x="495" 
d="M386 15q-16 -10 -45 -15.5t-58 -5.5q-52 0 -95.5 14t-75 42.5t-49 70.5t-17.5 99q0 52 18 94t51 70.5t79 44t101 15.5q30 0 65.5 -7t58.5 -18v-425q0 -48 -15.5 -82.5t-41.5 -56.5t-60.5 -32.5t-71.5 -10.5q-39 0 -73 7.5t-54 19.5v34q55 -31 127 -31q31 0 59.5 8
t50 26.5t34 48.5t12.5 74v16zM386 401q-21 7 -43 10.5t-48 3.5q-51 0 -91 -14t-67.5 -40t-42 -62t-14.5 -79q0 -91 52 -144t151 -53q29 0 53 4t50 15v359zM276 536q-11 0 -19 7.5t-8 19.5t8 19.5t19 7.5t19 -7.5t8 -19.5t-8 -19.5t-19 -7.5z" />
    <glyph glyph-name="Gcommaaccent" unicode="&#x122;" horiz-adv-x="597" 
d="M84 294q0 -63 21.5 -113.5t59 -85.5t87.5 -53.5t106 -18.5q46 0 77.5 6.5t65.5 21.5v196h33v-215q-36 -19 -77.5 -29.5t-98.5 -10.5q-67 0 -123.5 22t-97.5 62t-64 95.5t-23 122.5t22.5 124t62.5 97.5t94.5 63.5t118.5 23q45 0 87 -11t77 -34v-40q-33 29 -76.5 41.5
t-87.5 12.5q-54 0 -102 -19.5t-84 -55.5t-57 -87t-21 -115zM364 -46q0 -44 -17 -73.5t-52 -52.5h-26q35 29 48 56.5t13 69.5h34z" />
    <glyph glyph-name="gcommaaccent" unicode="&#x123;" horiz-adv-x="495" 
d="M386 15q-16 -10 -45 -15.5t-58 -5.5q-52 0 -95.5 14t-75 42.5t-49 70.5t-17.5 99q0 52 18 94t51 70.5t79 44t101 15.5q30 0 65.5 -7t58.5 -18v-425q0 -48 -15.5 -82.5t-41.5 -56.5t-60.5 -32.5t-71.5 -10.5q-39 0 -73 7.5t-54 19.5v34q55 -31 127 -31q31 0 59.5 8
t50 26.5t34 48.5t12.5 74v16zM386 401q-21 7 -43 10.5t-48 3.5q-51 0 -91 -14t-67.5 -40t-42 -62t-14.5 -79q0 -91 52 -144t151 -53q29 0 53 4t50 15v359zM260 513q0 44 20 80t55 59h26q-68 -57 -68 -139h-33z" />
    <glyph glyph-name="Hcircumflex" unicode="&#x124;" horiz-adv-x="661" 
d="M534 594h34v-594h-34v290h-407v-290h-34v594h34v-274h407v274zM447 641h-34l-83 101l-83 -101h-34l109 133h16z" />
    <glyph glyph-name="hcircumflex" unicode="&#x125;" horiz-adv-x="495" 
d="M80 680h33v-261q33 11 67 18t66 7q83 0 128.5 -34t45.5 -110v-300h-33v292q0 37 -11.5 60.5t-30.5 37t-45 18.5t-54 5q-41 0 -75 -7.5t-58 -15.5v-390h-33v680zM363 701h-34l-83 101l-83 -101h-34l109 133h16z" />
    <glyph glyph-name="Hbar" unicode="&#x126;" horiz-adv-x="681" 
d="M40 474h63v120h34v-120h407v120h34v-120h63v-29h-63v-445h-34v290h-407v-290h-34v445h-63v29zM544 445h-407v-125h407v125z" />
    <glyph glyph-name="hbar" unicode="&#x127;" horiz-adv-x="501" 
d="M15 561h71v119h33v-119h141v-27h-141v-115q33 11 67 18t66 7q83 0 128.5 -34t45.5 -110v-300h-33v292q0 37 -11.5 60.5t-30.5 37t-45 18.5t-54 5q-41 0 -75 -7.5t-58 -15.5v-390h-33v534h-71v27z" />
    <glyph glyph-name="Itilde" unicode="&#x128;" horiz-adv-x="220" 
d="M127 0h-34v594h34v-594zM229 736q0 -44 -16 -69.5t-47 -25.5q-20 0 -34.5 11t-26.5 24t-23.5 24t-25.5 11q-19 0 -28.5 -18.5t-9.5 -48.5h-26q0 43 16 69t47 26q20 0 34.5 -11t26.5 -24t23.5 -24t25.5 -11q19 0 28.5 18.5t9.5 48.5h26z" />
    <glyph glyph-name="itilde" unicode="&#x129;" horiz-adv-x="193" 
d="M113 0h-33v436h33v-436zM215 610q0 -44 -16 -69.5t-47 -25.5q-20 0 -34.5 11t-26.5 24t-23.5 24t-25.5 11q-19 0 -28.5 -18.5t-9.5 -48.5h-26q0 43 16 69t47 26q20 0 34.5 -11t26.5 -24t23.5 -24t25.5 -11q19 0 28.5 18.5t9.5 48.5h26z" />
    <glyph glyph-name="Imacron" unicode="&#x12a;" horiz-adv-x="220" 
d="M127 0h-34v594h34v-594zM14 688h193v-28h-193v28z" />
    <glyph glyph-name="imacron" unicode="&#x12b;" horiz-adv-x="193" 
d="M113 0h-33v436h33v-436zM0 563h193v-27h-193v27z" />
    <glyph glyph-name="Ibreve" unicode="&#x12c;" horiz-adv-x="220" 
d="M127 0h-34v594h34v-594zM110 644q-48 0 -75.5 31t-27.5 87h28q0 -43 19.5 -67.5t55.5 -24.5t55.5 24.5t19.5 67.5h28q0 -56 -27.5 -87t-75.5 -31z" />
    <glyph glyph-name="ibreve" unicode="&#x12d;" horiz-adv-x="193" 
d="M113 0h-33v436h33v-436zM96 510q-48 0 -75.5 32t-27.5 88h28q0 -43 19.5 -68.5t55.5 -25.5t55.5 25.5t19.5 68.5h28q0 -56 -27.5 -88t-75.5 -32z" />
    <glyph glyph-name="Iogonek" unicode="&#x12e;" horiz-adv-x="220" 
d="M127 0q-72 -69 -72 -121q0 -20 11 -29.5t28 -9.5q14 0 25 2.5t22 9.5v-27q-22 -11 -50 -11q-27 0 -46 15t-19 47q0 30 17.5 62.5t49.5 61.5v6v588h34v-594z" />
    <glyph glyph-name="iogonek" unicode="&#x12f;" horiz-adv-x="193" 
d="M96 536q-11 0 -19 7.5t-8 19.5t8 19.5t19 7.5t19 -7.5t8 -19.5t-8 -19.5t-19 -7.5zM80 436h33v-436q-44 -34 -58.5 -62.5t-14.5 -56.5q0 -20 11 -30.5t28 -10.5q14 0 25 2.5t22 9.5v-27q-22 -11 -50 -11q-27 0 -46 16.5t-19 50.5q0 29 17 60.5t52 58.5v8v428z" />
    <glyph glyph-name="Idotaccent" unicode="&#x130;" horiz-adv-x="220" 
d="M127 0h-34v594h34v-594zM110 655q-11 0 -19 7.5t-8 19.5t8 19.5t19 7.5t19 -7.5t8 -19.5t-8 -19.5t-19 -7.5z" />
    <glyph glyph-name="IJ" unicode="&#x132;" horiz-adv-x="563" 
d="M127 0h-34v594h34v-594zM233 83q29 -30 60 -45t63 -15q51 0 74 26.5t23 87.5v457h34v-462q0 -72 -34.5 -106t-96.5 -34q-38 0 -70.5 14.5t-52.5 35.5v41z" />
    <glyph glyph-name="ij" unicode="&#x133;" horiz-adv-x="386" 
d="M113 0h-33v436h33v-436zM96 536q-11 0 -19 7.5t-8 19.5t8 19.5t19 7.5t19 -7.5t8 -19.5t-8 -19.5t-19 -7.5zM273 436h33v-502q0 -58 -24.5 -90t-81.5 -32q-16 0 -32 3.5t-26 8.5v31q12 -5 28 -9.5t30 -4.5q33 0 53 18.5t20 72.5v504zM289 536q-11 0 -19 7.5t-8 19.5
t8 19.5t19 7.5t19 -7.5t8 -19.5t-8 -19.5t-19 -7.5z" />
    <glyph glyph-name="Jcircumflex" unicode="&#x134;" horiz-adv-x="343" 
d="M13 83q29 -30 60 -45t63 -15q51 0 74 26.5t23 87.5v457h34v-462q0 -72 -34.5 -106t-96.5 -34q-38 0 -70.5 14.5t-52.5 35.5v41zM369 641h-34l-83 101l-83 -101h-34l109 133h16z" />
    <glyph glyph-name="jcircumflex" unicode="&#x135;" horiz-adv-x="193" 
d="M80 436h33v-502q0 -58 -24.5 -90t-81.5 -32q-16 0 -32 3.5t-26 8.5v31q12 -5 28 -9.5t30 -4.5q33 0 53 18.5t20 72.5v504zM210 514h-34l-81 106l-81 -106h-34l106 137h18z" />
    <glyph glyph-name="Kcommaaccent" unicode="&#x136;" horiz-adv-x="498" 
d="M93 594h34v-594h-34v594zM427 594h45l-295 -300l316 -294h-49l-313 291zM286 -46q0 -44 -17 -73.5t-52 -52.5h-26q35 29 48 56.5t13 69.5h34z" />
    <glyph glyph-name="kcommaaccent" unicode="&#x137;" horiz-adv-x="434" 
d="M118 236l247 200h48l-249 -200l257 -236h-45zM113 0h-33v680h33v-680zM254 -46q0 -44 -17 -73.5t-52 -52.5h-26q35 29 48 56.5t13 69.5h34z" />
    <glyph glyph-name="kgreenlandic" unicode="&#x138;" horiz-adv-x="434" 
d="M118 236l247 200h48l-249 -200l257 -236h-45zM113 0h-33v436h33v-436z" />
    <glyph glyph-name="Lacute" unicode="&#x139;" horiz-adv-x="412" 
d="M93 594h34v-564h265v-30h-299v594zM95 647l73 131h32l-73 -131h-32z" />
    <glyph glyph-name="lacute" unicode="&#x13a;" horiz-adv-x="193" 
d="M113 0h-33v680h33v-680zM82 717l73 131h32l-73 -131h-32z" />
    <glyph glyph-name="Lcommaaccent" unicode="&#x13b;" horiz-adv-x="412" 
d="M93 594h34v-564h265v-30h-299v594zM258 -46q0 -44 -17 -73.5t-52 -52.5h-26q35 29 48 56.5t13 69.5h34z" />
    <glyph glyph-name="lcommaaccent" unicode="&#x13c;" horiz-adv-x="193" 
d="M113 0h-33v680h33v-680zM112 -46q0 -44 -17 -73.5t-52 -52.5h-26q35 29 48 56.5t13 69.5h34z" />
    <glyph glyph-name="Lcaron" unicode="&#x13d;" horiz-adv-x="412" 
d="M93 594h34v-564h265v-30h-299v594zM327 594l-40 -148h-30l40 148h30z" />
    <glyph glyph-name="lcaron" unicode="&#x13e;" horiz-adv-x="193" 
d="M113 0h-33v680h33v-680zM233 680l-40 -148h-30l40 148h30z" />
    <glyph glyph-name="Ldot" unicode="&#x13f;" horiz-adv-x="412" 
d="M93 594h34v-564h265v-30h-299v594zM342 270q-11 0 -19 7.5t-8 19.5t8 19.5t19 7.5t19 -7.5t8 -19.5t-8 -19.5t-19 -7.5z" />
    <glyph glyph-name="ldot" unicode="&#x140;" horiz-adv-x="240" 
d="M113 0h-33v680h33v-680zM219 313q-11 0 -19 7.5t-8 19.5t8 19.5t19 7.5t19 -7.5t8 -19.5t-8 -19.5t-19 -7.5z" />
    <glyph glyph-name="Nacute" unicode="&#x143;" horiz-adv-x="647" 
d="M521 49v545h33v-594h-34l-394 545v-545h-33v594h34zM305 647l73 131h32l-73 -131h-32z" />
    <glyph glyph-name="nacute" unicode="&#x144;" horiz-adv-x="495" 
d="M80 414q42 15 84.5 22.5t81.5 7.5q83 0 128.5 -34t45.5 -110v-300h-33v292q0 37 -11.5 60.5t-30.5 37t-45 18.5t-54 5q-41 0 -74 -6t-59 -12v-395h-33v414zM231 513l85 152h33l-85 -152h-33z" />
    <glyph glyph-name="Ncommaaccent" unicode="&#x145;" horiz-adv-x="647" 
d="M521 49v545h33v-594h-34l-394 545v-545h-33v594h34zM339 -46q0 -44 -17 -73.5t-52 -52.5h-26q35 29 48 56.5t13 69.5h34z" />
    <glyph glyph-name="ncommaaccent" unicode="&#x146;" horiz-adv-x="495" 
d="M80 414q42 15 84.5 22.5t81.5 7.5q83 0 128.5 -34t45.5 -110v-300h-33v292q0 37 -11.5 60.5t-30.5 37t-45 18.5t-54 5q-41 0 -74 -6t-59 -12v-395h-33v414zM266 -46q0 -44 -17 -73.5t-52 -52.5h-26q35 29 48 56.5t13 69.5h34z" />
    <glyph glyph-name="Ncaron" unicode="&#x147;" horiz-adv-x="647" 
d="M521 49v545h33v-594h-34l-394 545v-545h-33v594h34zM332 646h-18l-106 132h34l81 -104l81 104h34z" />
    <glyph glyph-name="ncaron" unicode="&#x148;" horiz-adv-x="495" 
d="M80 414q42 15 84.5 22.5t81.5 7.5q83 0 128.5 -34t45.5 -110v-300h-33v292q0 37 -11.5 60.5t-30.5 37t-45 18.5t-54 5q-41 0 -74 -6t-59 -12v-395h-33v414zM252 503h-18l-106 137h35l80 -107l80 107h35z" />
    <glyph glyph-name="Eng" unicode="&#x14a;" horiz-adv-x="647" 
d="M554 -48q0 -72 -34.5 -106t-96.5 -34q-38 0 -70.5 14.5t-52.5 35.5v41q29 -30 60 -45t63 -15q51 0 74 26.5t23 87.5v43l-394 542v-542h-33v594h34l394 -542v542h33v-642z" />
    <glyph glyph-name="eng" unicode="&#x14b;" horiz-adv-x="495" 
d="M387 292q0 37 -11.5 60.5t-30.5 37t-45 18.5t-54 5q-41 0 -74 -6t-59 -12v-395h-33v414q42 15 84.5 22.5t81.5 7.5q83 0 128.5 -34t45.5 -110v-366q0 -58 -24.5 -90t-81.5 -32q-16 0 -32 3.5t-26 8.5v31q12 -5 28 -9.5t30 -4.5q33 0 53 18.5t20 72.5v360z" />
    <glyph glyph-name="Omacron" unicode="&#x14c;" horiz-adv-x="698" 
d="M50 297q0 68 22.5 124.5t62.5 96.5t95 62t119 22t119 -22t95 -62t62.5 -96.5t22.5 -124.5t-22.5 -124.5t-62.5 -96.5t-95 -62t-119 -22t-119 22t-95 62t-62.5 96.5t-22.5 124.5zM614 297q0 63 -20.5 114t-56 86.5t-84 54.5t-104.5 19t-104.5 -19t-84 -54.5t-56 -86.5
t-20.5 -114t20.5 -114t56 -86.5t84 -54.5t104.5 -19t104.5 19t84 54.5t56 86.5t20.5 114zM253 688h193v-28h-193v28z" />
    <glyph glyph-name="omacron" unicode="&#x14d;" horiz-adv-x="516" 
d="M46 218q0 50 15.5 91.5t44 71.5t67 46.5t85.5 16.5q46 0 85 -16.5t67.5 -46.5t44 -71.5t15.5 -91.5t-15.5 -91.5t-44 -71.5t-67.5 -46.5t-85 -16.5q-47 0 -85.5 16.5t-67 46.5t-44 71.5t-15.5 91.5zM436 218q0 44 -13 80.5t-36.5 62.5t-56.5 40t-72 14t-72 -14t-56.5 -40
t-36.5 -62.5t-13 -80.5t13 -80.5t36.5 -62.5t56.5 -40t72 -14t72 14t56.5 40t36.5 62.5t13 80.5zM162 563h193v-27h-193v27z" />
    <glyph glyph-name="Obreve" unicode="&#x14e;" horiz-adv-x="698" 
d="M50 297q0 68 22.5 124.5t62.5 96.5t95 62t119 22t119 -22t95 -62t62.5 -96.5t22.5 -124.5t-22.5 -124.5t-62.5 -96.5t-95 -62t-119 -22t-119 22t-95 62t-62.5 96.5t-22.5 124.5zM614 297q0 63 -20.5 114t-56 86.5t-84 54.5t-104.5 19t-104.5 -19t-84 -54.5t-56 -86.5
t-20.5 -114t20.5 -114t56 -86.5t84 -54.5t104.5 -19t104.5 19t84 54.5t56 86.5t20.5 114zM349 644q-48 0 -75.5 31t-27.5 87h28q0 -43 19.5 -67.5t55.5 -24.5t55.5 24.5t19.5 67.5h28q0 -56 -27.5 -87t-75.5 -31z" />
    <glyph glyph-name="obreve" unicode="&#x14f;" horiz-adv-x="516" 
d="M46 218q0 50 15.5 91.5t44 71.5t67 46.5t85.5 16.5q46 0 85 -16.5t67.5 -46.5t44 -71.5t15.5 -91.5t-15.5 -91.5t-44 -71.5t-67.5 -46.5t-85 -16.5q-47 0 -85.5 16.5t-67 46.5t-44 71.5t-15.5 91.5zM436 218q0 44 -13 80.5t-36.5 62.5t-56.5 40t-72 14t-72 -14t-56.5 -40
t-36.5 -62.5t-13 -80.5t13 -80.5t36.5 -62.5t56.5 -40t72 -14t72 14t56.5 40t36.5 62.5t13 80.5zM258 510q-48 0 -75.5 32t-27.5 88h28q0 -43 19.5 -68.5t55.5 -25.5t55.5 25.5t19.5 68.5h28q0 -56 -27.5 -88t-75.5 -32z" />
    <glyph glyph-name="Ohungarumlaut" unicode="&#x150;" horiz-adv-x="698" 
d="M50 297q0 68 22.5 124.5t62.5 96.5t95 62t119 22t119 -22t95 -62t62.5 -96.5t22.5 -124.5t-22.5 -124.5t-62.5 -96.5t-95 -62t-119 -22t-119 22t-95 62t-62.5 96.5t-22.5 124.5zM614 297q0 63 -20.5 114t-56 86.5t-84 54.5t-104.5 19t-104.5 -19t-84 -54.5t-56 -86.5
t-20.5 -114t20.5 -114t56 -86.5t84 -54.5t104.5 -19t104.5 19t84 54.5t56 86.5t20.5 114zM277 647l73 131h31l-73 -131h-31zM380 647l73 131h31l-73 -131h-31z" />
    <glyph glyph-name="ohungarumlaut" unicode="&#x151;" horiz-adv-x="516" 
d="M46 218q0 50 15.5 91.5t44 71.5t67 46.5t85.5 16.5q46 0 85 -16.5t67.5 -46.5t44 -71.5t15.5 -91.5t-15.5 -91.5t-44 -71.5t-67.5 -46.5t-85 -16.5q-47 0 -85.5 16.5t-67 46.5t-44 71.5t-15.5 91.5zM436 218q0 44 -13 80.5t-36.5 62.5t-56.5 40t-72 14t-72 -14t-56.5 -40
t-36.5 -62.5t-13 -80.5t13 -80.5t36.5 -62.5t56.5 -40t72 -14t72 14t56.5 40t36.5 62.5t13 80.5zM195 513l85 152h31l-85 -152h-31zM298 513l85 152h31l-85 -152h-31z" />
    <glyph glyph-name="Racute" unicode="&#x154;" horiz-adv-x="488" 
d="M127 0h-34v593q17 4 42.5 6.5t45.5 2.5q106 0 164.5 -44.5t58.5 -132.5q0 -38 -11 -67.5t-30.5 -51.5t-45.5 -36t-56 -20l217 -250h-44l-209 243h-98v-243zM127 272h71q78 0 124 39t46 114q0 73 -49.5 110.5t-137.5 37.5q-13 0 -28 -1t-26 -3v-297zM217 647l73 131h32
l-73 -131h-32z" />
    <glyph glyph-name="racute" unicode="&#x155;" horiz-adv-x="301" 
d="M113 0h-33v395q67 46 148 46q18 0 32.5 -2t30.5 -6v-33q-32 9 -63 9q-35 0 -65.5 -8.5t-49.5 -20.5v-380zM174 513l85 152h33l-85 -152h-33z" />
    <glyph glyph-name="Rcommaaccent" unicode="&#x156;" horiz-adv-x="488" 
d="M127 0h-34v593q17 4 42.5 6.5t45.5 2.5q106 0 164.5 -44.5t58.5 -132.5q0 -38 -11 -67.5t-30.5 -51.5t-45.5 -36t-56 -20l217 -250h-44l-209 243h-98v-243zM127 272h71q78 0 124 39t46 114q0 73 -49.5 110.5t-137.5 37.5q-13 0 -28 -1t-26 -3v-297zM261 -46
q0 -44 -17 -73.5t-52 -52.5h-26q35 29 48 56.5t13 69.5h34z" />
    <glyph glyph-name="rcommaaccent" unicode="&#x157;" horiz-adv-x="301" 
d="M113 0h-33v395q67 46 148 46q18 0 32.5 -2t30.5 -6v-33q-32 9 -63 9q-35 0 -65.5 -8.5t-49.5 -20.5v-380zM114 -46q0 -44 -17 -73.5t-52 -52.5h-26q35 29 48 56.5t13 69.5h34z" />
    <glyph glyph-name="Rcaron" unicode="&#x158;" horiz-adv-x="488" 
d="M127 0h-34v593q17 4 42.5 6.5t45.5 2.5q106 0 164.5 -44.5t58.5 -132.5q0 -38 -11 -67.5t-30.5 -51.5t-45.5 -36t-56 -20l217 -250h-44l-209 243h-98v-243zM127 272h71q78 0 124 39t46 114q0 73 -49.5 110.5t-137.5 37.5q-13 0 -28 -1t-26 -3v-297zM244 646h-18l-106 132
h34l81 -104l81 104h34z" />
    <glyph glyph-name="rcaron" unicode="&#x159;" horiz-adv-x="301" 
d="M113 0h-33v395q67 46 148 46q18 0 32.5 -2t30.5 -6v-33q-32 9 -63 9q-35 0 -65.5 -8.5t-49.5 -20.5v-380zM202 503h-18l-106 137h35l80 -107l80 107h35z" />
    <glyph glyph-name="Sacute" unicode="&#x15a;" horiz-adv-x="422" 
d="M42 81q36 -32 74 -45.5t80 -13.5q30 0 56 7.5t45.5 23t31 39t11.5 56.5q0 31 -10 53t-28 38.5t-44 29t-58 24.5q-35 13 -64 27t-49.5 33t-32 44.5t-11.5 61.5q0 35 13.5 62t36 45t52 27t61.5 9q40 0 76.5 -12t60.5 -33v-38q-32 28 -65 40.5t-72 12.5q-27 0 -50.5 -7.5
t-41 -21.5t-28 -35t-10.5 -49q0 -25 7 -44t22.5 -35t41 -29.5t62.5 -26.5q38 -14 68.5 -28.5t51.5 -34.5t32.5 -47t11.5 -66t-14 -68t-38.5 -48.5t-56.5 -29.5t-68 -10q-48 0 -88 13.5t-66 35.5v40zM191 647l73 131h32l-73 -131h-32z" />
    <glyph glyph-name="sacute" unicode="&#x15b;" horiz-adv-x="348" 
d="M43 74q26 -26 57 -39.5t65 -13.5q48 0 76 21.5t28 66.5q0 44 -29 65t-80 39q-57 20 -86 46.5t-29 74.5q0 51 35 80.5t89 29.5q35 0 62 -9.5t48 -25.5v-38q-23 20 -50.5 32t-59.5 12q-44 0 -68 -21.5t-24 -59.5q0 -19 6 -32.5t18 -24t30.5 -19.5t43.5 -18q27 -10 50 -20
t40 -24.5t26.5 -35t9.5 -51.5q0 -30 -11 -52t-30 -36.5t-43.5 -21.5t-51.5 -7q-38 0 -71 12.5t-51 31.5v38zM159 513l85 152h33l-85 -152h-33z" />
    <glyph glyph-name="Scircumflex" unicode="&#x15c;" horiz-adv-x="422" 
d="M42 81q36 -32 74 -45.5t80 -13.5q30 0 56 7.5t45.5 23t31 39t11.5 56.5q0 31 -10 53t-28 38.5t-44 29t-58 24.5q-35 13 -64 27t-49.5 33t-32 44.5t-11.5 61.5q0 35 13.5 62t36 45t52 27t61.5 9q40 0 76.5 -12t60.5 -33v-38q-32 28 -65 40.5t-72 12.5q-27 0 -50.5 -7.5
t-41 -21.5t-28 -35t-10.5 -49q0 -25 7 -44t22.5 -35t41 -29.5t62.5 -26.5q38 -14 68.5 -28.5t51.5 -34.5t32.5 -47t11.5 -66t-14 -68t-38.5 -48.5t-56.5 -29.5t-68 -10q-48 0 -88 13.5t-66 35.5v40zM326 641h-34l-83 101l-83 -101h-34l109 133h16z" />
    <glyph glyph-name="scircumflex" unicode="&#x15d;" horiz-adv-x="348" 
d="M43 74q26 -26 57 -39.5t65 -13.5q48 0 76 21.5t28 66.5q0 44 -29 65t-80 39q-57 20 -86 46.5t-29 74.5q0 51 35 80.5t89 29.5q35 0 62 -9.5t48 -25.5v-38q-23 20 -50.5 32t-59.5 12q-44 0 -68 -21.5t-24 -59.5q0 -19 6 -32.5t18 -24t30.5 -19.5t43.5 -18q27 -10 50 -20
t40 -24.5t26.5 -35t9.5 -51.5q0 -30 -11 -52t-30 -36.5t-43.5 -21.5t-51.5 -7q-38 0 -71 12.5t-51 31.5v38zM293 514h-34l-81 106l-81 -106h-34l106 137h18z" />
    <glyph glyph-name="Scedilla" unicode="&#x15e;" horiz-adv-x="422" 
d="M42 81q36 -32 74 -45.5t80 -13.5q30 0 56 7.5t45.5 23t31 39t11.5 56.5q0 31 -10 53t-28 38.5t-44 29t-58 24.5q-35 13 -64 27t-49.5 33t-32 44.5t-11.5 61.5q0 35 13.5 62t36 45t52 27t61.5 9q40 0 76.5 -12t60.5 -33v-38q-32 28 -65 40.5t-72 12.5q-27 0 -50.5 -7.5
t-41 -21.5t-28 -35t-10.5 -49q0 -25 7 -44t22.5 -35t41 -29.5t62.5 -26.5q38 -14 68.5 -28.5t51.5 -34.5t32.5 -47t11.5 -66q0 -35 -12 -62.5t-32.5 -47t-48 -30.5t-59.5 -14q-3 -43 -22 -80.5t-47 -60.5h-35q32 28 51 64t23 75q-46 1 -84.5 14.5t-64.5 34.5v40z" />
    <glyph glyph-name="scedilla" unicode="&#x15f;" horiz-adv-x="348" 
d="M43 74q26 -26 57 -39.5t65 -13.5q48 0 76 21.5t28 66.5q0 44 -29 65t-80 39q-57 20 -86 46.5t-29 74.5q0 51 35 80.5t89 29.5q35 0 62 -9.5t48 -25.5v-38q-23 20 -50.5 32t-59.5 12q-44 0 -68 -21.5t-24 -59.5q0 -19 6 -32.5t18 -24t30.5 -19.5t43.5 -18q27 -10 50 -20
t40 -24.5t26.5 -35t9.5 -51.5q0 -53 -32.5 -81.5t-78.5 -33.5q-3 -43 -22 -80.5t-47 -60.5h-35q32 28 51 64t23 75q-36 1 -68 13.5t-49 30.5v38z" />
    <glyph glyph-name="Tcommaaccent" unicode="&#x162;" horiz-adv-x="470" 
d="M252 0h-34v564h-203v30h440v-30h-203v-564zM251 -46q0 -44 -17 -73.5t-52 -52.5h-26q35 29 48 56.5t13 69.5h34z" />
    <glyph glyph-name="tcommaaccent" unicode="&#x163;" horiz-adv-x="296" 
d="M21 436h67v100h33v-100h135v-28h-135v-302q0 -47 17.5 -65t49.5 -18q22 0 39 5.5t39 18.5v-32q-15 -9 -34.5 -15t-43.5 -6q-44 0 -72 23.5t-28 82.5v308h-67v28zM193 -46q0 -44 -17 -73.5t-52 -52.5h-26q35 29 48 56.5t13 69.5h34z" />
    <glyph glyph-name="Tcaron" unicode="&#x164;" horiz-adv-x="470" 
d="M252 0h-34v564h-203v30h440v-30h-203v-564zM244 646h-18l-106 132h34l81 -104l81 104h34z" />
    <glyph glyph-name="tcaron" unicode="&#x165;" horiz-adv-x="296" 
d="M21 436h67v100h33v-100h135v-28h-135v-302q0 -47 17.5 -65t49.5 -18q22 0 39 5.5t39 18.5v-32q-15 -9 -34.5 -15t-43.5 -6q-44 0 -72 23.5t-28 82.5v308h-67v28zM252 640l-40 -148h-30l40 148h30z" />
    <glyph glyph-name="Tbar" unicode="&#x166;" horiz-adv-x="470" 
d="M252 320h109v-30h-109v-290h-34v290h-108v30h108v244h-203v30h440v-30h-203v-244z" />
    <glyph glyph-name="tbar" unicode="&#x167;" horiz-adv-x="296" 
d="M21 264h67v144h-67v28h67v100h33v-100h135v-28h-135v-144h135v-27h-135v-131q0 -47 17.5 -65t49.5 -18q22 0 39 5.5t39 18.5v-32q-15 -9 -34.5 -15t-43.5 -6q-44 0 -72 23.5t-28 82.5v137h-67v27z" />
    <glyph glyph-name="Utilde" unicode="&#x168;" horiz-adv-x="592" 
d="M76 594h34v-404q0 -50 17 -82t46 -51t67 -26.5t80 -7.5q79 0 145 15v556h34v-579q-45 -11 -88 -17t-91 -6q-50 0 -94 9t-77.5 32t-53 62t-19.5 99v400zM406 736q0 -44 -16 -69.5t-47 -25.5q-20 0 -34.5 11t-26.5 24t-23.5 24t-25.5 11q-19 0 -28.5 -18.5t-9.5 -48.5h-26
q0 43 16 69t47 26q20 0 34.5 -11t26.5 -24t23.5 -24t25.5 -11q19 0 28.5 18.5t9.5 48.5h26z" />
    <glyph glyph-name="utilde" unicode="&#x169;" horiz-adv-x="482" 
d="M403 8q-36 -8 -69.5 -12t-65.5 -4q-97 0 -146.5 34.5t-49.5 110.5v299h33v-297q0 -36 14 -59t37.5 -36t52.5 -17.5t59 -4.5q23 0 50 2.5t52 7.5v404h33v-428zM358 610q0 -44 -16 -69.5t-47 -25.5q-20 0 -34.5 11t-26.5 24t-23.5 24t-25.5 11q-19 0 -28.5 -18.5
t-9.5 -48.5h-26q0 43 16 69t47 26q20 0 34.5 -11t26.5 -24t23.5 -24t25.5 -11q19 0 28.5 18.5t9.5 48.5h26z" />
    <glyph glyph-name="Umacron" unicode="&#x16a;" horiz-adv-x="592" 
d="M76 594h34v-404q0 -50 17 -82t46 -51t67 -26.5t80 -7.5q79 0 145 15v556h34v-579q-45 -11 -88 -17t-91 -6q-50 0 -94 9t-77.5 32t-53 62t-19.5 99v400zM191 688h193v-28h-193v28z" />
    <glyph glyph-name="umacron" unicode="&#x16b;" horiz-adv-x="482" 
d="M403 8q-36 -8 -69.5 -12t-65.5 -4q-97 0 -146.5 34.5t-49.5 110.5v299h33v-297q0 -36 14 -59t37.5 -36t52.5 -17.5t59 -4.5q23 0 50 2.5t52 7.5v404h33v-428zM143 563h193v-27h-193v27z" />
    <glyph glyph-name="Ubreve" unicode="&#x16c;" horiz-adv-x="592" 
d="M76 594h34v-404q0 -50 17 -82t46 -51t67 -26.5t80 -7.5q79 0 145 15v556h34v-579q-45 -11 -88 -17t-91 -6q-50 0 -94 9t-77.5 32t-53 62t-19.5 99v400zM287 644q-48 0 -75.5 31t-27.5 87h28q0 -43 19.5 -67.5t55.5 -24.5t55.5 24.5t19.5 67.5h28q0 -56 -27.5 -87
t-75.5 -31z" />
    <glyph glyph-name="ubreve" unicode="&#x16d;" horiz-adv-x="482" 
d="M403 8q-36 -8 -69.5 -12t-65.5 -4q-97 0 -146.5 34.5t-49.5 110.5v299h33v-297q0 -36 14 -59t37.5 -36t52.5 -17.5t59 -4.5q23 0 50 2.5t52 7.5v404h33v-428zM239 510q-48 0 -75.5 32t-27.5 88h28q0 -43 19.5 -68.5t55.5 -25.5t55.5 25.5t19.5 68.5h28q0 -56 -27.5 -88
t-75.5 -32z" />
    <glyph glyph-name="Uring" unicode="&#x16e;" horiz-adv-x="592" 
d="M76 594h34v-404q0 -50 17 -82t46 -51t67 -26.5t80 -7.5q79 0 145 15v556h34v-579q-45 -11 -88 -17t-91 -6q-50 0 -94 9t-77.5 32t-53 62t-19.5 99v400zM210 702q0 32 22.5 53.5t54.5 21.5t54.5 -21.5t22.5 -53.5t-22.5 -53.5t-54.5 -21.5t-54.5 21.5t-22.5 53.5zM338 702
q0 23 -13 37t-38 14q-24 0 -37.5 -14t-13.5 -37q0 -22 13.5 -36.5t37.5 -14.5q25 0 38 14.5t13 36.5z" />
    <glyph glyph-name="uring" unicode="&#x16f;" horiz-adv-x="482" 
d="M403 8q-36 -8 -69.5 -12t-65.5 -4q-97 0 -146.5 34.5t-49.5 110.5v299h33v-297q0 -36 14 -59t37.5 -36t52.5 -17.5t59 -4.5q23 0 50 2.5t52 7.5v404h33v-428zM162 582q0 32 22.5 53.5t54.5 21.5t54.5 -21.5t22.5 -53.5t-22.5 -53.5t-54.5 -21.5t-54.5 21.5t-22.5 53.5z
M290 582q0 23 -13 37t-38 14q-24 0 -37.5 -14t-13.5 -37q0 -22 13.5 -36.5t37.5 -14.5q25 0 38 14.5t13 36.5z" />
    <glyph glyph-name="Uhungarumlaut" unicode="&#x170;" horiz-adv-x="592" 
d="M76 594h34v-404q0 -50 17 -82t46 -51t67 -26.5t80 -7.5q79 0 145 15v556h34v-579q-45 -11 -88 -17t-91 -6q-50 0 -94 9t-77.5 32t-53 62t-19.5 99v400zM212 647l73 131h31l-73 -131h-31zM315 647l73 131h31l-73 -131h-31z" />
    <glyph glyph-name="uhungarumlaut" unicode="&#x171;" horiz-adv-x="482" 
d="M403 8q-36 -8 -69.5 -12t-65.5 -4q-97 0 -146.5 34.5t-49.5 110.5v299h33v-297q0 -36 14 -59t37.5 -36t52.5 -17.5t59 -4.5q23 0 50 2.5t52 7.5v404h33v-428zM166 513l85 152h31l-85 -152h-31zM269 513l85 152h31l-85 -152h-31z" />
    <glyph glyph-name="Uogonek" unicode="&#x172;" horiz-adv-x="592" 
d="M76 594h34v-404q0 -50 17 -82t46 -51t67 -26.5t80 -7.5q79 0 145 15v556h34v-579q-44 -38 -69 -73t-25 -63q0 -20 11 -29.5t28 -9.5q14 0 25 2.5t22 9.5v-27q-22 -11 -50 -11q-27 0 -46 15t-19 47q0 29 21.5 64.5t59.5 64.5q-33 -6 -67 -9.5t-70 -3.5q-50 0 -94 9
t-77.5 32t-53 62t-19.5 99v400z" />
    <glyph glyph-name="uogonek" unicode="&#x173;" horiz-adv-x="482" 
d="M365 0q-26 -4 -50 -6t-47 -2q-97 0 -146.5 34.5t-49.5 110.5v299h33v-297q0 -36 14 -59t37.5 -36t52.5 -17.5t59 -4.5q23 0 50 2.5t52 7.5v404h33v-428q-42 -38 -64 -69.5t-22 -59.5q0 -20 11 -29.5t28 -9.5q14 0 25 2.5t22 9.5v-27q-22 -11 -50 -11q-27 0 -46 15t-19 47
q0 62 77 124z" />
    <glyph glyph-name="Wcircumflex" unicode="&#x174;" horiz-adv-x="750" 
d="M396 594l151 -563l156 563h33l-166 -594h-45l-150 555l-150 -555h-45l-166 594h34l156 -563l151 563h41zM492 641h-34l-83 101l-83 -101h-34l109 133h16z" />
    <glyph glyph-name="wcircumflex" unicode="&#x175;" horiz-adv-x="606" 
d="M437 32l130 404h32l-142 -436h-41l-113 394l-113 -394h-41l-142 436h33l130 -404l116 404h34zM418 514h-34l-81 106l-81 -106h-34l106 137h18z" />
    <glyph glyph-name="Ycircumflex" unicode="&#x176;" horiz-adv-x="497" 
d="M446 594h37l-218 -350v-244h-34v244l-217 350h38l197 -317zM365 641h-34l-83 101l-83 -101h-34l109 133h16z" />
    <glyph glyph-name="ycircumflex" unicode="&#x177;" horiz-adv-x="413" 
d="M213 15l160 421h33l-236 -616h-33l59 153l-189 463h35zM329 514h-34l-81 106l-81 -106h-34l106 137h18z" />
    <glyph glyph-name="Zacute" unicode="&#x179;" horiz-adv-x="469" 
d="M49 594h391v-26l-377 -538h383v-30h-423v27l376 537h-350v30zM234 647l73 131h32l-73 -131h-32z" />
    <glyph glyph-name="zacute" unicode="&#x17a;" horiz-adv-x="399" 
d="M363 0h-326v30l282 378h-266v28h305v-28l-286 -380h291v-28zM197 513l85 152h33l-85 -152h-33z" />
    <glyph glyph-name="Zdotaccent" unicode="&#x17b;" horiz-adv-x="469" 
d="M49 594h391v-26l-377 -538h383v-30h-423v27l376 537h-350v30zM252 655q-11 0 -19 7.5t-8 19.5t8 19.5t19 7.5t19 -7.5t8 -19.5t-8 -19.5t-19 -7.5z" />
    <glyph glyph-name="zdotaccent" unicode="&#x17c;" horiz-adv-x="399" 
d="M363 0h-326v30l282 378h-266v28h305v-28l-286 -380h291v-28zM216 536q-11 0 -19 7.5t-8 19.5t8 19.5t19 7.5t19 -7.5t8 -19.5t-8 -19.5t-19 -7.5z" />
    <glyph glyph-name="Aringacute" unicode="&#x1fa;" horiz-adv-x="537" 
d="M417 180h-299l-69 -180h-35l226 575q-23 7 -37.5 24t-14.5 40q0 29 23 48.5t55 19.5t55 -19.5t23 -48.5q0 -22 -14 -38.5t-35 -24.5l228 -576h-35zM130 210h275l-139 353zM214 639q0 -19 14 -31.5t38 -12.5t38 12.5t14 31.5t-14 31.5t-38 12.5t-38 -12.5t-14 -31.5z
M253 740l38 68h31l-38 -68h-31z" />
    <glyph glyph-name="aringacute" unicode="&#x1fb;" horiz-adv-x="415" 
d="M162 543q0 -19 14 -31.5t38 -12.5t38 12.5t14 31.5t-14 31.5t-38 12.5t-38 -12.5t-14 -31.5zM201 649l38 69h31l-38 -69h-31zM136 543q0 29 23 48.5t55 19.5t55 -19.5t23 -48.5t-23 -48.5t-55 -19.5t-55 19.5t-23 48.5zM310 220h-50q-42 0 -76 -5t-58 -17t-37.5 -31
t-13.5 -47q0 -26 12.5 -45t35 -31t52 -18t64.5 -6q20 0 36.5 1.5t34.5 6.5v192zM310 314q0 48 -25.5 74t-73.5 26q-36 0 -66 -8.5t-58 -24.5v31q23 14 55.5 23t69.5 9q63 0 97 -30.5t34 -95.5v-311q-23 -7 -50.5 -11t-53.5 -4q-92 0 -144.5 32t-52.5 96q0 68 59 98.5
t158 30.5h51v65z" />
    <glyph glyph-name="AEacute" unicode="&#x1fc;" horiz-adv-x="808" 
d="M753 594v-30h-286v-244h269v-30h-269v-260h289v-30h-323v180h-262l-121 -180h-36l402 594h337zM192 210h241v357zM551 647l73 131h32l-73 -131h-32z" />
    <glyph glyph-name="aeacute" unicode="&#x1fd;" horiz-adv-x="737" 
d="M348 217q0 -45 14 -81.5t38 -62t57 -39t72 -13.5q83 0 145 48v-32q-29 -23 -67 -34t-78 -11q-57 0 -101.5 23t-73.5 66q-26 -38 -68 -63.5t-97 -25.5q-31 0 -58 7.5t-46.5 23t-31 38t-11.5 52.5q0 34 15.5 58.5t43.5 40.5t67.5 23.5t86.5 7.5h63q1 14 3.5 27.5t6.5 26.5
q-2 66 -34 92t-82 26q-37 0 -67.5 -9.5t-60.5 -24.5v31q28 15 60.5 23.5t67.5 8.5q54 0 90 -22t47 -74q26 45 69 70.5t97 25.5q45 0 78.5 -15.5t55.5 -43.5t33 -65.5t11 -80.5v-22h-345zM514 415q-35 0 -63.5 -12.5t-50.5 -35t-35 -54t-16 -70.5h312q-1 36 -9.5 67.5
t-26.5 55t-45.5 36.5t-65.5 13zM189 20q48 0 87 23t63 65q-22 49 -22 109h-60q-38 0 -71 -5.5t-58 -17.5t-39 -32t-14 -49q0 -24 9 -41.5t24.5 -29t36.5 -17t44 -5.5zM354 513l85 152h33l-85 -152h-33z" />
    <glyph glyph-name="Oslashacute" unicode="&#x1fe;" horiz-adv-x="698" 
d="M349 -8q-61 0 -113 19.5t-92 55.5l-65 -67h-39l85 87q-35 40 -55 93t-20 117q0 68 22.5 124.5t62.5 96.5t95 62t119 22q60 0 112 -20t92 -56l66 68h39l-85 -87q35 -40 55 -93t20 -117q0 -68 -22.5 -124.5t-62.5 -96.5t-95 -62t-119 -22zM165 89q72 -66 184 -66
q56 0 104.5 19t84 54.5t56 86.5t20.5 114q0 59 -16.5 106t-46.5 82zM532 505q-35 32 -82 49t-101 17q-56 0 -104.5 -19t-84 -54.5t-56 -86.5t-20.5 -114q0 -59 16.5 -106t45.5 -82zM331 647l73 131h32l-73 -131h-32z" />
    <glyph glyph-name="oslashacute" unicode="&#x1ff;" horiz-adv-x="516" 
d="M381 369q-48 46 -123 46q-39 0 -72 -14t-56.5 -40t-36.5 -62.5t-13 -80.5q0 -81 38 -131zM258 -8q-87 0 -143 53l-43 -45h-36l60 64q-24 29 -37 68t-13 86q0 50 15.5 91.5t44 71.5t67 46.5t85.5 16.5q43 0 79.5 -13.5t63.5 -39.5l43 45h36l-60 -64q24 -29 37 -68t13 -86
q0 -50 -15.5 -91.5t-44 -71.5t-67.5 -46.5t-85 -16.5zM135 67q48 -46 123 -46q39 0 72 14t56.5 40t36.5 62.5t13 80.5q0 81 -38 131zM239 513l85 152h33l-85 -152h-33z" />
    <glyph glyph-name="Scommaaccent" unicode="&#x218;" horiz-adv-x="422" 
d="M42 81q36 -32 74 -45.5t80 -13.5q30 0 56 7.5t45.5 23t31 39t11.5 56.5q0 31 -10 53t-28 38.5t-44 29t-58 24.5q-35 13 -64 27t-49.5 33t-32 44.5t-11.5 61.5q0 35 13.5 62t36 45t52 27t61.5 9q40 0 76.5 -12t60.5 -33v-38q-32 28 -65 40.5t-72 12.5q-27 0 -50.5 -7.5
t-41 -21.5t-28 -35t-10.5 -49q0 -25 7 -44t22.5 -35t41 -29.5t62.5 -26.5q38 -14 68.5 -28.5t51.5 -34.5t32.5 -47t11.5 -66t-14 -68t-38.5 -48.5t-56.5 -29.5t-68 -10q-48 0 -88 13.5t-66 35.5v40zM225 -46q0 -44 -17 -73.5t-52 -52.5h-26q35 29 48 56.5t13 69.5h34z" />
    <glyph glyph-name="scommaaccent" unicode="&#x219;" horiz-adv-x="348" 
d="M43 74q26 -26 57 -39.5t65 -13.5q48 0 76 21.5t28 66.5q0 44 -29 65t-80 39q-57 20 -86 46.5t-29 74.5q0 51 35 80.5t89 29.5q35 0 62 -9.5t48 -25.5v-38q-23 20 -50.5 32t-59.5 12q-44 0 -68 -21.5t-24 -59.5q0 -19 6 -32.5t18 -24t30.5 -19.5t43.5 -18q27 -10 50 -20
t40 -24.5t26.5 -35t9.5 -51.5q0 -30 -11 -52t-30 -36.5t-43.5 -21.5t-51.5 -7q-38 0 -71 12.5t-51 31.5v38zM194 -46q0 -44 -17 -73.5t-52 -52.5h-26q35 29 48 56.5t13 69.5h34z" />
    <glyph glyph-name="dotlessj" unicode="&#x237;" horiz-adv-x="193" 
d="M80 436h33v-502q0 -58 -24.5 -90t-81.5 -32q-16 0 -32 3.5t-26 8.5v31q12 -5 28 -9.5t30 -4.5q33 0 53 18.5t20 72.5v504z" />
    <glyph glyph-name="Wgrave" unicode="&#x1e80;" horiz-adv-x="750" 
d="M396 594l151 -563l156 563h33l-166 -594h-45l-150 555l-150 -555h-45l-166 594h34l156 -563l151 563h41zM360 647l-73 131h32l73 -131h-32z" />
    <glyph glyph-name="wgrave" unicode="&#x1e81;" horiz-adv-x="606" 
d="M437 32l130 404h32l-142 -436h-41l-113 394l-113 -394h-41l-142 436h33l130 -404l116 404h34zM281 513l-85 152h33l85 -152h-33z" />
    <glyph glyph-name="Wacute" unicode="&#x1e82;" horiz-adv-x="750" 
d="M396 594l151 -563l156 563h33l-166 -594h-45l-150 555l-150 -555h-45l-166 594h34l156 -563l151 563h41zM357 647l73 131h32l-73 -131h-32z" />
    <glyph glyph-name="wacute" unicode="&#x1e83;" horiz-adv-x="606" 
d="M437 32l130 404h32l-142 -436h-41l-113 394l-113 -394h-41l-142 436h33l130 -404l116 404h34zM292 513l85 152h33l-85 -152h-33z" />
    <glyph glyph-name="Wdieresis" unicode="&#x1e84;" horiz-adv-x="750" 
d="M396 594l151 -563l156 563h33l-166 -594h-45l-150 555l-150 -555h-45l-166 594h34l156 -563l151 563h41zM301 655q-11 0 -19 7.5t-8 19.5t8 19.5t19 7.5t19 -7.5t8 -19.5t-8 -19.5t-19 -7.5zM449 655q-11 0 -19 7.5t-8 19.5t8 19.5t19 7.5t19 -7.5t8 -19.5t-8 -19.5
t-19 -7.5z" />
    <glyph glyph-name="wdieresis" unicode="&#x1e85;" horiz-adv-x="606" 
d="M437 32l130 404h32l-142 -436h-41l-113 394l-113 -394h-41l-142 436h33l130 -404l116 404h34zM229 536q-11 0 -19 7.5t-8 19.5t8 19.5t19 7.5t19 -7.5t8 -19.5t-8 -19.5t-19 -7.5zM377 536q-11 0 -19 7.5t-8 19.5t8 19.5t19 7.5t19 -7.5t8 -19.5t-8 -19.5t-19 -7.5z" />
    <glyph glyph-name="Ygrave" unicode="&#x1ef2;" horiz-adv-x="497" 
d="M446 594h37l-218 -350v-244h-34v244l-217 350h38l197 -317zM233 647l-73 131h32l73 -131h-32z" />
    <glyph glyph-name="ygrave" unicode="&#x1ef3;" horiz-adv-x="413" 
d="M213 15l160 421h33l-236 -616h-33l59 153l-189 463h35zM200 513l-85 152h33l85 -152h-33z" />
    <glyph glyph-name="doublebar" unicode="&#x2016;" horiz-adv-x="307" 
d="M96 680h30v-818h-30v818zM180 680h31v-818h-31v818z" />
    <glyph glyph-name="uni2070" unicode="&#x2070;" horiz-adv-x="286" 
d="M262 436q0 -36 -9 -65.5t-24.5 -51t-37.5 -33.5t-48 -12q-27 0 -48.5 12t-37.5 33.5t-24.5 51t-8.5 65.5t8.5 66t24.5 51t37.5 33t48.5 12q26 0 48 -12t37.5 -33t24.5 -51t9 -66zM232 436q0 63 -25.5 99.5t-63.5 36.5q-39 0 -64 -36.5t-25 -99.5q0 -62 25 -99t64 -37
q38 0 63.5 37t25.5 99z" />
    <glyph glyph-name="uni2074" unicode="&#x2074;" horiz-adv-x="278" 
d="M207 389h58v-24h-58v-87h-29v87h-163v25l161 206h31v-207zM45 389h133v172z" />
    <glyph glyph-name="uni2075" unicode="&#x2075;" horiz-adv-x="215" 
d="M62 474q26 -3 50 -10t42 -19.5t29 -31.5t11 -46q0 -38 -27 -65.5t-81 -27.5q-23 0 -42 6.5t-33 15.5v28q16 -11 34 -18t40 -7q40 0 60 19t20 48q0 22 -11 37.5t-29 25t-41.5 14.5t-49.5 8l10 144h142v-28h-117z" />
    <glyph glyph-name="uni2076" unicode="&#x2076;" horiz-adv-x="252" 
d="M156 595l-68 -115l-19 -31q10 14 26 22t37 8q41 0 71 -26.5t30 -74.5q0 -45 -29.5 -74.5t-77.5 -29.5q-49 0 -77.5 29.5t-28.5 74.5q0 26 10 51t24 47l70 119h32zM49 377q0 -35 22.5 -56.5t54.5 -21.5t55 21.5t23 56.5t-23 56t-55 21t-54.5 -21t-22.5 -56z" />
    <glyph glyph-name="uni2077" unicode="&#x2077;" horiz-adv-x="212" 
d="M3 567v28h197v-28l-136 -289h-31l136 289h-166z" />
    <glyph glyph-name="uni2078" unicode="&#x2078;" horiz-adv-x="244" 
d="M122 457q24 0 41.5 16t17.5 43t-17.5 42t-41.5 15t-42 -15t-18 -42t17.5 -43t42.5 -16zM122 299q30 0 51 17t21 48t-21 48.5t-51 17.5t-51.5 -17.5t-21.5 -48.5t21.5 -48t51.5 -17zM122 274q-44 0 -73.5 23.5t-29.5 65.5q0 33 20.5 54.5t49.5 26.5q-23 6 -38.5 25
t-15.5 47q0 39 25.5 60.5t61.5 21.5t61.5 -21.5t25.5 -60.5q0 -28 -15.5 -47t-38.5 -25q28 -5 48.5 -26.5t20.5 -54.5q0 -42 -29.5 -65.5t-72.5 -23.5z" />
    <glyph glyph-name="uni2079" unicode="&#x2079;" horiz-adv-x="252" 
d="M96 278l68 114l19 31q-10 -14 -26 -22t-37 -8q-20 0 -38.5 7t-32.5 20t-22.5 32t-8.5 43q0 44 29.5 73.5t78.5 29.5q48 0 77 -29.5t29 -73.5q0 -27 -10.5 -52t-24.5 -48l-69 -117h-32zM203 495q0 35 -23 56.5t-55 21.5t-54.5 -21.5t-22.5 -56.5t22.5 -56.5t54.5 -21.5
t55 21.5t23 56.5z" />
    <glyph glyph-name="uni2080" unicode="&#x2080;" horiz-adv-x="286" 
d="M262 158q0 -36 -9 -66t-24.5 -51t-37.5 -33t-48 -12q-27 0 -48.5 12t-37.5 33t-24.5 51t-8.5 66t8.5 66t24.5 51t37.5 33t48.5 12q26 0 48 -12t37.5 -33t24.5 -51t9 -66zM232 158q0 63 -25.5 99.5t-63.5 36.5q-39 0 -64 -36.5t-25 -99.5t25 -99.5t64 -36.5
q38 0 63.5 36.5t25.5 99.5z" />
    <glyph glyph-name="uni2081" unicode="&#x2081;" horiz-adv-x="158" 
d="M8 302l100 18v-320h-31v286l-69 -12v28z" />
    <glyph glyph-name="uni2082" unicode="&#x2082;" horiz-adv-x="224" 
d="M206 27v-27h-200v23q32 24 61 50t50.5 52t34 52t12.5 50q0 29 -16 47t-48 18q-26 0 -47 -11.5t-38 -28.5v30q15 17 38.5 27.5t51.5 10.5q42 0 66 -24t24 -66q0 -26 -12 -53t-32.5 -53.5t-47.5 -51t-56 -45.5h159z" />
    <glyph glyph-name="uni2083" unicode="&#x2083;" horiz-adv-x="216" 
d="M117 161q31 -4 55 -24t24 -55q0 -38 -28 -62t-78 -24q-23 0 -44.5 6.5t-34.5 17.5v28q15 -12 35 -19.5t43 -7.5q37 0 57 17t20 46q0 30 -23.5 46t-66.5 19v23q38 3 60 21t22 46q0 24 -16 39t-45 15q-26 0 -46 -11t-36 -26v30q15 14 37 24t48 10q45 0 67 -22.5t22 -55.5
q0 -32 -21.5 -54t-50.5 -27z" />
    <glyph glyph-name="uni2084" unicode="&#x2084;" horiz-adv-x="278" 
d="M207 111h58v-24h-58v-87h-29v87h-163v25l161 206h31v-207zM45 111h133v172z" />
    <glyph glyph-name="uni2085" unicode="&#x2085;" horiz-adv-x="215" 
d="M62 195q26 -3 50 -10t42 -19.5t29 -31.5t11 -46q0 -38 -27 -65t-81 -27q-23 0 -42 6.5t-33 15.5v28q16 -11 34 -18t40 -7q40 0 60 19t20 48q0 22 -11 37t-29 25t-41.5 15t-49.5 8l10 143h142v-27h-117z" />
    <glyph glyph-name="uni2086" unicode="&#x2086;" horiz-adv-x="252" 
d="M156 316l-68 -114l-19 -31q10 14 26 22t37 8q20 0 38.5 -7t32.5 -20t22 -32t8 -43q0 -44 -29.5 -73.5t-77.5 -29.5q-49 0 -77.5 29.5t-28.5 73.5q0 27 10 52t24 47l70 118h32zM49 99q0 -35 22.5 -56.5t54.5 -21.5t55 21.5t23 56.5t-23 56t-55 21t-54.5 -21t-22.5 -56z
" />
    <glyph glyph-name="uni2087" unicode="&#x2087;" horiz-adv-x="212" 
d="M3 289v27h197v-27l-136 -289h-31l136 289h-166z" />
    <glyph glyph-name="uni2088" unicode="&#x2088;" horiz-adv-x="244" 
d="M122 179q24 0 41.5 15.5t17.5 42.5t-17.5 42.5t-41.5 15.5t-42 -15.5t-18 -42.5t17.5 -42.5t42.5 -15.5zM122 21q30 0 51 16.5t21 47.5q0 32 -21 49.5t-51 17.5t-51.5 -17.5t-21.5 -49.5q0 -31 21.5 -47.5t51.5 -16.5zM122 -4q-44 0 -73.5 23t-29.5 65q0 34 20.5 55
t49.5 26q-23 6 -38.5 25t-15.5 48q0 39 25.5 60.5t61.5 21.5t61.5 -21.5t25.5 -60.5q0 -29 -15.5 -48t-38.5 -25q28 -5 48.5 -26t20.5 -55q0 -42 -29.5 -65t-72.5 -23z" />
    <glyph glyph-name="uni2089" unicode="&#x2089;" horiz-adv-x="252" 
d="M96 -1l68 115l19 31q-10 -14 -26 -22t-37 -8q-20 0 -38.5 7t-32.5 20t-22.5 31.5t-8.5 42.5q0 45 29.5 74.5t78.5 29.5q48 0 77 -29.5t29 -74.5q0 -27 -10.5 -51.5t-24.5 -47.5l-69 -118h-32zM203 217q0 35 -23 56.5t-55 21.5t-54.5 -21.5t-22.5 -56.5t22.5 -56.5
t54.5 -21.5t55 21.5t23 56.5z" />
    <glyph glyph-name="published" unicode="&#x2117;" horiz-adv-x="693" 
d="M45 297q0 64 22.5 120t63 97t95.5 64.5t121 23.5q65 0 120.5 -23.5t95.5 -64.5t62.5 -97t22.5 -120t-22.5 -119.5t-62.5 -96.5t-95.5 -64.5t-120.5 -23.5q-66 0 -121 23.5t-95.5 64.5t-63 96.5t-22.5 119.5zM68 297q0 -61 21 -113t58 -89.5t88 -59t112 -21.5t112 21.5
t88 59t58 89.5t21 113t-21 113t-58 90t-88 59.5t-112 21.5t-112 -21.5t-88 -59.5t-58 -90t-21 -113zM297 280q8 -2 22 -3t25 -1q49 0 78 22.5t29 68.5q0 39 -25.5 63.5t-82.5 24.5q-11 0 -24.5 -0.5t-21.5 -2.5v-172zM297 116h-30v361q14 2 35.5 4.5t39.5 2.5
q70 0 105 -31.5t35 -85.5q0 -58 -37 -87.5t-100 -29.5q-11 0 -25 1t-23 3v-138z" />
    <glyph glyph-name="uni2153" unicode="&#x2153;" horiz-adv-x="585" 
d="M40 580l100 18v-320h-31v286l-69 -12v28zM412 595h32l-337 -595h-32zM451 161q31 -4 55 -24t24 -55q0 -38 -28 -62t-78 -24q-23 0 -44.5 6.5t-34.5 17.5v28q15 -12 35 -19.5t43 -7.5q37 0 57 17t20 46q0 30 -23.5 46t-66.5 19v23q38 3 60 21t22 46q0 24 -16 39t-45 15
q-26 0 -46 -11t-36 -26v30q15 14 37 24t48 10q45 0 67 -22.5t22 -55.5q0 -32 -21.5 -54t-50.5 -27z" />
    <glyph glyph-name="uni2154" unicode="&#x2154;" horiz-adv-x="688" 
d="M250 305v-27h-200v23q32 24 61 50t50.5 52.5t34 52t12.5 49.5q0 29 -16 47t-48 18q-26 0 -47 -11.5t-38 -28.5v30q15 17 38.5 27.5t51.5 10.5q42 0 66 -24t24 -65q0 -26 -12 -53.5t-32.5 -54t-47.5 -51t-56 -45.5h159zM515 595h32l-337 -595h-32zM554 161q31 -4 55 -24
t24 -55q0 -38 -28 -62t-78 -24q-23 0 -44.5 6.5t-34.5 17.5v28q15 -12 35 -19.5t43 -7.5q37 0 57 17t20 46q0 30 -23.5 46t-66.5 19v23q38 3 60 21t22 46q0 24 -16 39t-45 15q-26 0 -46 -11t-36 -26v30q15 14 37 24t48 10q45 0 67 -22.5t22 -55.5q0 -32 -21.5 -54t-50.5 -27
z" />
    <glyph glyph-name="uni215B" unicode="&#x215b;" horiz-adv-x="588" 
d="M40 580l100 18v-320h-31v286l-69 -12v28zM412 595h32l-337 -595h-32zM436 179q24 0 41.5 15.5t17.5 42.5t-17.5 42.5t-41.5 15.5t-42 -15.5t-18 -42.5t17.5 -42.5t42.5 -15.5zM436 21q30 0 51 16.5t21 47.5q0 32 -21 49.5t-51 17.5t-51.5 -17.5t-21.5 -49.5
q0 -31 21.5 -47.5t51.5 -16.5zM436 -4q-44 0 -73.5 23t-29.5 65q0 34 20.5 55t49.5 26q-23 6 -38.5 25t-15.5 48q0 39 25.5 60.5t61.5 21.5t61.5 -21.5t25.5 -60.5q0 -29 -15.5 -48t-38.5 -25q28 -5 48.5 -26t20.5 -55q0 -42 -29.5 -65t-72.5 -23z" />
    <glyph glyph-name="uni215C" unicode="&#x215c;" horiz-adv-x="643" 
d="M156 440q31 -4 55 -24t24 -55q0 -39 -28 -63t-78 -24q-23 0 -44.5 6.5t-34.5 17.5v28q15 -12 35 -19.5t43 -7.5q37 0 57 17t20 46q0 31 -23.5 46.5t-66.5 18.5v24q38 2 60 20t22 47q0 24 -16 38.5t-45 14.5q-26 0 -46 -11t-36 -26v30q15 14 37 24t48 10q45 0 67 -22
t22 -56q0 -32 -21.5 -53.5t-50.5 -26.5zM467 595h32l-337 -595h-32zM491 179q24 0 41.5 15.5t17.5 42.5t-17.5 42.5t-41.5 15.5t-42 -15.5t-18 -42.5t17.5 -42.5t42.5 -15.5zM491 21q30 0 51 16.5t21 47.5q0 32 -21 49.5t-51 17.5t-51.5 -17.5t-21.5 -49.5q0 -31 21.5 -47.5
t51.5 -16.5zM491 -4q-44 0 -73.5 23t-29.5 65q0 34 20.5 55t49.5 26q-23 6 -38.5 25t-15.5 48q0 39 25.5 60.5t61.5 21.5t61.5 -21.5t25.5 -60.5q0 -29 -15.5 -48t-38.5 -25q28 -5 48.5 -26t20.5 -55q0 -42 -29.5 -65t-72.5 -23z" />
    <glyph glyph-name="uni215D" unicode="&#x215d;" horiz-adv-x="647" 
d="M101 474q26 -3 50 -10t42 -19.5t29 -31.5t11 -46q0 -38 -27 -65.5t-81 -27.5q-23 0 -42 6.5t-33 15.5v28q16 -11 34 -18t40 -7q40 0 60 19t20 48q0 22 -11 37.5t-29 25t-41.5 14.5t-49.5 8l10 144h142v-28h-117zM471 595h32l-337 -595h-32zM495 179q24 0 41.5 15.5
t17.5 42.5t-17.5 42.5t-41.5 15.5t-42 -15.5t-18 -42.5t17.5 -42.5t42.5 -15.5zM495 21q30 0 51 16.5t21 47.5q0 32 -21 49.5t-51 17.5t-51.5 -17.5t-21.5 -49.5q0 -31 21.5 -47.5t51.5 -16.5zM495 -4q-44 0 -73.5 23t-29.5 65q0 34 20.5 55t49.5 26q-23 6 -38.5 25
t-15.5 48q0 39 25.5 60.5t61.5 21.5t61.5 -21.5t25.5 -60.5q0 -29 -15.5 -48t-38.5 -25q28 -5 48.5 -26t20.5 -55q0 -42 -29.5 -65t-72.5 -23z" />
    <glyph glyph-name="uni215E" unicode="&#x215e;" horiz-adv-x="588" 
d="M35 567v28h197v-28l-136 -289h-31l136 289h-166zM412 595h32l-337 -595h-32zM436 179q24 0 41.5 15.5t17.5 42.5t-17.5 42.5t-41.5 15.5t-42 -15.5t-18 -42.5t17.5 -42.5t42.5 -15.5zM436 21q30 0 51 16.5t21 47.5q0 32 -21 49.5t-51 17.5t-51.5 -17.5t-21.5 -49.5
q0 -31 21.5 -47.5t51.5 -16.5zM436 -4q-44 0 -73.5 23t-29.5 65q0 34 20.5 55t49.5 26q-23 6 -38.5 25t-15.5 48q0 39 25.5 60.5t61.5 21.5t61.5 -21.5t25.5 -60.5q0 -29 -15.5 -48t-38.5 -25q28 -5 48.5 -26t20.5 -55q0 -42 -29.5 -65t-72.5 -23z" />
    <glyph glyph-name="Delta" unicode="&#x2206;" horiz-adv-x="563" 
d="M503 29l-222 540l-222 -540h444zM13 0l246 597h43l248 -597h-537z" />
    <glyph glyph-name="zero.slash" unicode="&#xe401;" horiz-adv-x="524" 
d="M351 544q-40 29 -89 29q-41 0 -74.5 -19t-58 -55t-38 -87t-13.5 -115q0 -78 19 -136t54 -93zM262 21q40 0 74 19t58.5 55t38 87t13.5 115q0 78 -19.5 136t-54.5 93l-200 -476q40 -29 90 -29zM262 -8q-50 0 -90 22t-68 62.5t-43.5 96.5t-15.5 124t15.5 124t43.5 96.5
t68 62.5t90 22q49 0 89.5 -22t68.5 -62.5t43.5 -96.5t15.5 -124t-15.5 -124t-43.5 -96.5t-68.5 -62.5t-89.5 -22z" />
    <glyph glyph-name="zero.slash" unicode="&#xe515;" horiz-adv-x="524" 
d="M351 544q-40 29 -89 29q-41 0 -74.5 -19t-58 -55t-38 -87t-13.5 -115q0 -78 19 -136t54 -93zM262 21q40 0 74 19t58.5 55t38 87t13.5 115q0 78 -19.5 136t-54.5 93l-200 -476q40 -29 90 -29zM262 -8q-50 0 -90 22t-68 62.5t-43.5 96.5t-15.5 124t15.5 124t43.5 96.5
t68 62.5t90 22q49 0 89.5 -22t68.5 -62.5t43.5 -96.5t15.5 -124t-15.5 -124t-43.5 -96.5t-68.5 -62.5t-89.5 -22z" />
    <glyph glyph-name="invertedbreve" unicode="&#xe411;" horiz-adv-x="500" 
d="M250 633q48 0 75.5 -32t27.5 -87h-28q0 42 -19.5 68t-55.5 26t-55.5 -26t-19.5 -68h-28q0 55 27.5 87t75.5 32z" />
    <glyph glyph-name="doublegrave" unicode="&#xe412;" horiz-adv-x="500" 
d="M328 513l-85 152h31l85 -152h-31zM225 513l-85 152h31l85 -152h-31z" />
    <glyph glyph-name="caronSlovak" unicode="&#xe413;" horiz-adv-x="500" 
d="M284 680l-40 -148h-30l40 148h30z" />
    <glyph glyph-name="commaaccent" unicode="&#xe414;" horiz-adv-x="500" 
d="M306 -46q0 -44 -17 -73.5t-52 -52.5h-26q35 29 48 56.5t13 69.5h34z" />
    <glyph glyph-name="commaaccent" unicode="&#xf6c3;" horiz-adv-x="500" 
d="M306 -46q0 -44 -17 -73.5t-52 -52.5h-26q35 29 48 56.5t13 69.5h34z" />
    <glyph glyph-name="dotbelow" unicode="&#xe415;" horiz-adv-x="500" 
d="M250 -142q-11 0 -19 7.5t-8 19.5t8 19.5t19 7.5t19 -7.5t8 -19.5t-8 -19.5t-19 -7.5z" />
    <glyph glyph-name="altcedilla" unicode="&#xe416;" horiz-adv-x="500" 
d="M290 0q-2 -45 -21 -84.5t-48 -62.5h-35q34 29 53.5 67t21.5 80h29z" />
    <glyph glyph-name="grave.cap" unicode="&#xe421;" horiz-adv-x="500" 
d="M270 647l-73 131h32l73 -131h-32z" />
    <glyph glyph-name="acute.cap" unicode="&#xe422;" horiz-adv-x="500" 
d="M197 647l73 131h32l-73 -131h-32z" />
    <glyph glyph-name="circumflex.cap" unicode="&#xe423;" horiz-adv-x="500" 
d="M367 641h-34l-83 101l-83 -101h-34l109 133h16z" />
    <glyph glyph-name="tilde.cap" unicode="&#xe424;" horiz-adv-x="500" 
d="M368 736q0 -44 -16 -69.5t-47 -25.5q-20 0 -34.5 11t-26.5 24t-23.5 24t-25.5 11q-19 0 -28.5 -18.5t-9.5 -48.5h-26q0 43 16 69t47 26q20 0 34.5 -11t26.5 -24t23.5 -24t25.5 -11q19 0 28.5 18.5t9.5 48.5h26z" />
    <glyph glyph-name="macron.cap" unicode="&#xe425;" horiz-adv-x="500" 
d="M153 688h193v-28h-193v28z" />
    <glyph glyph-name="breve.cap" unicode="&#xe426;" horiz-adv-x="500" 
d="M250 644q-48 0 -75.5 31t-27.5 87h28q0 -43 19.5 -67.5t55.5 -24.5t55.5 24.5t19.5 67.5h28q0 -56 -27.5 -87t-75.5 -31z" />
    <glyph glyph-name="invertedbreve.cap" unicode="&#xe427;" horiz-adv-x="500" 
d="M250 762q48 0 75.5 -31t27.5 -87h-28q0 43 -19.5 68t-55.5 25t-55.5 -25t-19.5 -68h-28q0 56 27.5 87t75.5 31z" />
    <glyph glyph-name="dotaccent.cap" unicode="&#xe428;" horiz-adv-x="500" 
d="M250 655q-11 0 -19 7.5t-8 19.5t8 19.5t19 7.5t19 -7.5t8 -19.5t-8 -19.5t-19 -7.5z" />
    <glyph glyph-name="dieresis.cap" unicode="&#xe429;" horiz-adv-x="500" 
d="M176 655q-11 0 -19 7.5t-8 19.5t8 19.5t19 7.5t19 -7.5t8 -19.5t-8 -19.5t-19 -7.5zM324 655q-11 0 -19 7.5t-8 19.5t8 19.5t19 7.5t19 -7.5t8 -19.5t-8 -19.5t-19 -7.5z" />
    <glyph glyph-name="ring.cap" unicode="&#xe42a;" horiz-adv-x="500" 
d="M173 702q0 32 22.5 53.5t54.5 21.5t54.5 -21.5t22.5 -53.5t-22.5 -53.5t-54.5 -21.5t-54.5 21.5t-22.5 53.5zM301 702q0 23 -13 37t-38 14q-24 0 -37.5 -14t-13.5 -37q0 -22 13.5 -36.5t37.5 -14.5q25 0 38 14.5t13 36.5z" />
    <glyph glyph-name="hungarumlaut.cap" unicode="&#xe42b;" horiz-adv-x="500" 
d="M140 647l73 131h31l-73 -131h-31zM243 647l73 131h31l-73 -131h-31z" />
    <glyph glyph-name="doublegrave.cap" unicode="&#xe42c;" horiz-adv-x="500" 
d="M316 647l-73 131h31l73 -131h-31zM213 647l-73 131h31l73 -131h-31z" />
    <glyph glyph-name="caron.cap" unicode="&#xe42d;" horiz-adv-x="500" 
d="M259 646h-18l-106 132h34l81 -104l81 104h34z" />
    <glyph glyph-name="exclamdown.cap" unicode="&#xe441;" horiz-adv-x="236" 
d="M135 1h-34v437h34v-437zM90 569q0 12 8 20t20 8t20 -8t8 -20t-8 -20t-20 -8t-20 8t-8 20z" />
    <glyph glyph-name="questiondown.cap" unicode="&#xe444;" horiz-adv-x="379" 
d="M351 61q-21 -29 -62.5 -49t-89.5 -20q-42 0 -73.5 12.5t-52.5 34.5t-31.5 51.5t-10.5 62.5q0 46 16.5 79t42 55.5t55.5 37t56 24.5v88h34v-106q-37 -13 -68 -28.5t-53.5 -36.5t-35.5 -48.5t-13 -65.5q0 -26 8.5 -49.5t25 -41t41.5 -28t59 -10.5q89 0 152 77v-39zM244 568
q0 -12 -8 -20t-20 -8t-20 8t-8 20t8 20t20 8t20 -8t8 -20z" />
    <glyph glyph-name="guilsinglleft.cap" unicode="&#xe451;" horiz-adv-x="260" 
d="M87 304l123 -158h-37l-123 158l123 158h37z" />
    <glyph glyph-name="guilsinglright.cap" unicode="&#xe452;" horiz-adv-x="260" 
d="M50 462h37l123 -158l-123 -158h-37l123 158z" />
    <glyph glyph-name="guillemotleft.cap" unicode="&#xe453;" horiz-adv-x="378" 
d="M87 304l123 -158h-37l-123 158l123 158h37zM205 304l123 -158h-37l-123 158l123 158h37z" />
    <glyph glyph-name="guillemotright.cap" unicode="&#xe454;" horiz-adv-x="378" 
d="M50 462h37l123 -158l-123 -158h-37l123 158zM168 462h37l123 -158l-123 -158h-37l123 158z" />
    <glyph glyph-name="slash.cap" unicode="&#xe461;" horiz-adv-x="379" 
d="M330 680h31l-311 -780h-32z" />
    <glyph glyph-name="backslash.cap" unicode="&#xe462;" horiz-adv-x="379" 
d="M361 -100h-32l-311 780h31z" />
    <glyph glyph-name="bar.cap" unicode="&#xe463;" horiz-adv-x="222" 
d="M96 680h30v-780h-30v780z" />
    <glyph glyph-name="doublebar.cap" unicode="&#xe464;" horiz-adv-x="307" 
d="M96 680h30v-780h-30v780zM180 680h31v-780h-31v780z" />
    <glyph glyph-name="brokenbar.cap" unicode="&#xe465;" horiz-adv-x="221" 
d="M96 680h30v-321h-30v321zM96 221h30v-321h-30v321z" />
    <glyph glyph-name="bullet.cap" unicode="&#xe466;" horiz-adv-x="287" 
d="M70 302q0 31 21.5 52t52.5 21t52 -21t21 -52t-21 -52.5t-52 -21.5t-52.5 21.5t-21.5 52.5z" />
    <glyph glyph-name="periodcentered.cap" unicode="&#xe481;" horiz-adv-x="196" 
d="M70 301q0 12 8 20t20 8t20 -8t8 -20t-8 -20t-20 -8t-20 8t-8 20z" />
    <glyph glyph-name="hyphen.cap" unicode="&#xe482;" horiz-adv-x="355" 
d="M64 316h227v-29h-227v29z" />
    <glyph glyph-name="endash.cap" unicode="&#xe484;" horiz-adv-x="572" 
d="M64 316h444v-28h-444v28z" />
    <glyph glyph-name="emdash.cap" unicode="&#xe486;" horiz-adv-x="952" 
d="M64 316h824v-28h-824v28z" />
    <glyph glyph-name="parenleft.cap" unicode="&#xe491;" horiz-adv-x="280" 
d="M48 290q0 67 14.5 124t39.5 105t58.5 88t70.5 73h39q-38 -35 -73 -74.5t-61 -86.5t-41.5 -103.5t-15.5 -125.5t15.5 -125.5t41.5 -103.5t61 -86.5t73 -74.5h-39q-37 33 -70.5 73t-58.5 88t-39.5 104.5t-14.5 124.5z" />
    <glyph glyph-name="parenright.cap" unicode="&#xe492;" horiz-adv-x="280" 
d="M232 290q0 -68 -14.5 -124.5t-39.5 -104.5t-58.5 -88t-70.5 -73h-39q38 35 72.5 74.5t61 86.5t42 103.5t15.5 125.5t-15.5 125.5t-42 103.5t-61 86.5t-72.5 74.5h39q37 -33 70.5 -73t58.5 -88t39.5 -105t14.5 -124z" />
    <glyph glyph-name="bracketleft.cap" unicode="&#xe493;" horiz-adv-x="273" 
d="M101 -74h122v-26h-150v780h150v-26h-122v-728z" />
    <glyph glyph-name="bracketright.cap" unicode="&#xe494;" horiz-adv-x="273" 
d="M172 654h-122v26h150v-780h-150v26h122v728z" />
    <glyph glyph-name="braceleft.cap" unicode="&#xe495;" horiz-adv-x="314" 
d="M81 290q13 -2 27 -9t26 -20.5t19.5 -34.5t7.5 -49v-139q0 -54 23.5 -83t76.5 -29h19v-26h-17q-70 0 -100.5 35.5t-30.5 102.5v138q0 27 -7 46.5t-18.5 31.5t-26.5 17.5t-30 5.5h-32v26h32q15 0 30 5.5t26.5 17.5t18.5 31.5t7 46.5v138q0 67 30.5 102.5t100.5 35.5h17v-26
h-19q-53 0 -76.5 -29t-23.5 -83v-139q0 -29 -7.5 -49.5t-19.5 -34t-26 -21t-27 -8.5z" />
    <glyph glyph-name="braceright.cap" unicode="&#xe496;" horiz-adv-x="314" 
d="M233 290q-13 1 -27 8.5t-26 21t-19.5 34t-7.5 49.5v139q0 54 -23.5 83t-76.5 29h-19v26h17q70 0 100.5 -35.5t30.5 -102.5v-138q0 -27 7 -46.5t18.5 -31.5t26.5 -17.5t30 -5.5h32v-26h-32q-15 0 -30 -5.5t-26.5 -17.5t-18.5 -31.5t-7 -46.5v-138q0 -67 -30.5 -102.5
t-100.5 -35.5h-17v26h19q53 0 76.5 29t23.5 83v139q0 28 7.5 49t19.5 34.5t26 20.5t27 9z" />
    <glyph glyph-name="at.cap" unicode="&#xe513;" horiz-adv-x="767" 
d="M539 131q33 12 60.5 30.5t48 45.5t31.5 63t11 82q0 60 -20.5 108.5t-57.5 83t-89 53.5t-115 19q-78 0 -139.5 -26t-104 -71t-64.5 -104.5t-22 -126.5q0 -91 33 -154t85 -102.5t115 -57.5t122 -18q63 0 110.5 9.5t95.5 28.5v-31q-37 -16 -87.5 -26.5t-118.5 -10.5
q-65 0 -134 19.5t-125.5 62.5t-92.5 112t-36 168q0 76 25.5 141.5t73 113.5t114.5 75t150 27q72 0 130 -21.5t99 -60t63 -92.5t22 -119q0 -63 -22 -112.5t-61 -83.5t-93 -52t-118 -18q-46 0 -84.5 13.5t-66.5 38.5t-43.5 61t-15.5 81q0 91 54.5 143.5t148.5 52.5
q31 0 62.5 -6.5t55.5 -17.5v-321zM507 432q-14 5 -37.5 9.5t-48.5 4.5q-36 0 -67.5 -10t-54 -30.5t-35.5 -51.5t-13 -74q0 -76 48 -120.5t128 -44.5q22 0 43 2.5t37 6.5v308z" />
    <glyph glyph-name="zero.inf" unicode="&#xe571;" horiz-adv-x="286" 
d="M262 -22q0 -36 -9 -66t-24.5 -51t-37.5 -33t-48 -12q-27 0 -48.5 12t-37.5 33t-24.5 51t-8.5 66t8.5 66t24.5 51t37.5 33t48.5 12q26 0 48 -12t37.5 -33t24.5 -51t9 -66zM232 -22q0 63 -25.5 99.5t-63.5 36.5q-39 0 -64 -36.5t-25 -99.5t25 -99.5t64 -36.5
q38 0 63.5 36.5t25.5 99.5z" />
    <glyph glyph-name="one.inf" unicode="&#xe572;" horiz-adv-x="158" 
d="M8 122l100 18v-320h-31v286l-69 -12v28z" />
    <glyph glyph-name="two.inf" unicode="&#xe573;" horiz-adv-x="224" 
d="M206 -153v-27h-200v23q32 24 61 50t50.5 52t34 52t12.5 50q0 29 -16 47t-48 18q-26 0 -47 -11.5t-38 -28.5v30q15 17 38.5 27.5t51.5 10.5q42 0 66 -24t24 -66q0 -26 -12 -53t-32.5 -53.5t-47.5 -51t-56 -45.5h159z" />
    <glyph glyph-name="three.inf" unicode="&#xe574;" horiz-adv-x="216" 
d="M117 -19q31 -4 55 -24t24 -55q0 -38 -28 -62t-78 -24q-23 0 -44.5 6.5t-34.5 17.5v28q15 -12 35 -19.5t43 -7.5q37 0 57 17t20 46q0 30 -23.5 46t-66.5 19v23q38 3 60 21t22 46q0 24 -16 39t-45 15q-26 0 -46 -11t-36 -26v30q15 14 37 24t48 10q45 0 67 -22.5t22 -55.5
q0 -32 -21.5 -54t-50.5 -27z" />
    <glyph glyph-name="four.inf" unicode="&#xe575;" horiz-adv-x="278" 
d="M207 -69h58v-24h-58v-87h-29v87h-163v25l161 206h31v-207zM45 -69h133v172z" />
    <glyph glyph-name="five.inf" unicode="&#xe576;" horiz-adv-x="215" 
d="M62 15q26 -3 50 -10t42 -19.5t29 -31.5t11 -46q0 -38 -27 -65t-81 -27q-23 0 -42 6.5t-33 15.5v28q16 -11 34 -18t40 -7q40 0 60 19t20 48q0 22 -11 37t-29 25t-41.5 15t-49.5 8l10 143h142v-27h-117z" />
    <glyph glyph-name="six.inf" unicode="&#xe577;" horiz-adv-x="252" 
d="M156 136l-68 -114l-19 -31q10 14 26 22t37 8q20 0 38.5 -7t32.5 -20t22 -32t8 -43q0 -44 -29.5 -73.5t-77.5 -29.5q-49 0 -77.5 29.5t-28.5 73.5q0 27 10 52t24 47l70 118h32zM49 -81q0 -35 22.5 -56.5t54.5 -21.5t55 21.5t23 56.5t-23 56t-55 21t-54.5 -21t-22.5 -56z
" />
    <glyph glyph-name="seven.inf" unicode="&#xe578;" horiz-adv-x="212" 
d="M3 109v27h197v-27l-136 -289h-31l136 289h-166z" />
    <glyph glyph-name="eight.inf" unicode="&#xe579;" horiz-adv-x="244" 
d="M122 -1q24 0 41.5 15.5t17.5 42.5t-17.5 42.5t-41.5 15.5t-42 -15.5t-18 -42.5t17.5 -42.5t42.5 -15.5zM122 -159q30 0 51 16.5t21 47.5q0 32 -21 49.5t-51 17.5t-51.5 -17.5t-21.5 -49.5q0 -31 21.5 -47.5t51.5 -16.5zM122 -184q-44 0 -73.5 23t-29.5 65q0 34 20.5 55
t49.5 26q-23 6 -38.5 25t-15.5 48q0 39 25.5 60.5t61.5 21.5t61.5 -21.5t25.5 -60.5q0 -29 -15.5 -48t-38.5 -25q28 -5 48.5 -26t20.5 -55q0 -42 -29.5 -65t-72.5 -23z" />
    <glyph glyph-name="nine.inf" unicode="&#xe57a;" horiz-adv-x="252" 
d="M96 -181l68 115l19 31q-10 -14 -26 -22t-37 -8q-20 0 -38.5 7t-32.5 20t-22.5 31.5t-8.5 42.5q0 45 29.5 74.5t78.5 29.5q48 0 77 -29.5t29 -74.5q0 -27 -10.5 -51.5t-24.5 -47.5l-69 -118h-32zM203 37q0 35 -23 56.5t-55 21.5t-54.5 -21.5t-22.5 -56.5t22.5 -56.5
t54.5 -21.5t55 21.5t23 56.5z" />
    </font>
</defs>
</svg>
